<svg width="20" height="7" viewBox="0 0 20 7" fill="none" xmlns="http://www.w3.org/2000/svg">
<path d="M2.56934 6.06836C2.1888 6.06836 1.86296 5.96924 1.5918 5.771C1.32064 5.57275 1.11328 5.28337 0.969727 4.90283C0.826172 4.5223 0.754395 4.06315 0.754395 3.52539C0.754395 2.99219 0.826172 2.53532 0.969727 2.15479C1.11328 1.77425 1.32178 1.48372 1.59521 1.2832C1.86865 1.08268 2.19336 0.982422 2.56934 0.982422C2.94531 0.982422 3.27002 1.08268 3.54346 1.2832C3.81689 1.48372 4.02539 1.77425 4.16895 2.15479C4.3125 2.53532 4.38428 2.99219 4.38428 3.52539C4.38428 4.06315 4.3125 4.5223 4.16895 4.90283C4.02767 5.28337 3.82031 5.57275 3.54688 5.771C3.27572 5.96924 2.94987 6.06836 2.56934 6.06836ZM2.56934 5.42236C2.79036 5.42236 2.98063 5.34945 3.14014 5.20361C3.30192 5.05778 3.42497 4.84359 3.50928 4.56104C3.59359 4.2762 3.6346 3.93099 3.63232 3.52539C3.63232 3.11979 3.59017 2.77458 3.50586 2.48975C3.42155 2.20492 3.29964 1.98844 3.14014 1.84033C2.98063 1.69222 2.79036 1.61816 2.56934 1.61816C2.34831 1.61816 2.15804 1.69222 1.99854 1.84033C1.83903 1.98844 1.71598 2.20492 1.62939 2.48975C1.54281 2.77458 1.49951 3.11979 1.49951 3.52539C1.49951 3.93099 1.54167 4.2762 1.62598 4.56104C1.71029 4.84359 1.83333 5.05778 1.99512 5.20361C2.1569 5.34945 2.34831 5.42236 2.56934 5.42236ZM5.38916 3.39551C5.50081 3.27018 5.625 3.17562 5.76172 3.11182C5.89844 3.04574 6.04427 3.0127 6.19922 3.0127C6.31543 3.0127 6.42822 3.02865 6.5376 3.06055C6.64925 3.09017 6.79395 3.13916 6.97168 3.20752C7.13346 3.27132 7.27018 3.32031 7.38184 3.35449C7.49577 3.38867 7.6097 3.40576 7.72363 3.40576C7.88086 3.40576 8.02669 3.37044 8.16113 3.2998C8.29785 3.22917 8.41748 3.12663 8.52002 2.99219V3.64844C8.40837 3.77376 8.28418 3.86947 8.14746 3.93555C8.01074 4.00163 7.86491 4.03467 7.70996 4.03467C7.59375 4.03467 7.47868 4.01758 7.36475 3.9834C7.25309 3.94922 7.11068 3.90023 6.9375 3.83643C6.77799 3.76807 6.64128 3.71794 6.52734 3.68604C6.41341 3.65413 6.2972 3.63818 6.17871 3.63818C6.02604 3.63818 5.88249 3.6735 5.74805 3.74414C5.61589 3.8125 5.49626 3.91504 5.38916 4.05176V3.39551ZM11.3193 0.982422C11.6543 0.982422 11.9608 1.05762 12.2388 1.20801C12.519 1.3584 12.7469 1.61019 12.9224 1.96338C13.0978 2.31429 13.1855 2.77686 13.1855 3.35107C13.1855 3.92074 13.1069 4.40951 12.9497 4.81738C12.7948 5.22298 12.5715 5.53288 12.2798 5.74707C11.9904 5.96126 11.6475 6.06836 11.251 6.06836C10.9548 6.06836 10.6882 6.01025 10.4512 5.89404C10.2142 5.77555 10.0205 5.61377 9.87012 5.40869C9.71973 5.20361 9.62516 4.96777 9.58643 4.70117H10.3315C10.3657 4.84245 10.4238 4.96663 10.5059 5.07373C10.5879 5.17855 10.6916 5.26058 10.8169 5.31982C10.9445 5.37907 11.0892 5.40869 11.251 5.40869C11.5039 5.40869 11.7215 5.33805 11.9038 5.19678C12.0861 5.05322 12.2251 4.84701 12.3208 4.57812C12.4188 4.30924 12.4678 3.98682 12.4678 3.61084H12.4062C12.3174 3.74984 12.208 3.86947 12.0781 3.96973C11.9482 4.06999 11.8035 4.14746 11.644 4.20215C11.4845 4.25456 11.3171 4.28076 11.1416 4.28076C10.8499 4.28076 10.5811 4.21126 10.335 4.07227C10.0911 3.93099 9.8986 3.7373 9.75732 3.49121C9.61605 3.24512 9.54427 2.96826 9.54199 2.66064C9.54199 2.34391 9.61605 2.05794 9.76416 1.80273C9.91227 1.54753 10.1208 1.34587 10.3896 1.19775C10.6608 1.04964 10.9707 0.977865 11.3193 0.982422ZM11.3228 1.61133C11.1268 1.61133 10.9491 1.65804 10.7896 1.75146C10.63 1.84489 10.5047 1.97135 10.4136 2.13086C10.3224 2.28809 10.2769 2.46012 10.2769 2.64697C10.2791 2.83382 10.3247 3.00586 10.4136 3.16309C10.5024 3.32031 10.6243 3.4445 10.7793 3.53564C10.9365 3.62679 11.112 3.67236 11.3057 3.67236C11.4993 3.67236 11.6771 3.62451 11.8389 3.52881C12.0029 3.43083 12.1317 3.30208 12.2251 3.14258C12.3208 2.98307 12.3687 2.81445 12.3687 2.63672C12.3687 2.45671 12.3231 2.28809 12.2319 2.13086C12.1408 1.97363 12.0155 1.84831 11.856 1.75488C11.6987 1.65918 11.521 1.61133 11.3228 1.61133ZM17.3486 3.14941H16.2002V2.60596H17.3486V3.14941ZM15.5132 2.15479C15.5132 2.59456 15.4574 3.01953 15.3457 3.42969C15.2363 3.83984 15.0745 4.20671 14.8604 4.53027C14.6462 4.85156 14.3887 5.10449 14.0879 5.28906L13.6812 4.80371C13.9614 4.63509 14.2018 4.41064 14.4023 4.13037C14.6029 3.84782 14.7533 3.53678 14.8535 3.19727C14.9561 2.85775 15.0073 2.51025 15.0073 2.15479V1.01318H15.5132V2.15479ZM15.6328 2.12744C15.6328 2.46696 15.6795 2.7985 15.7729 3.12207C15.8664 3.44336 16.0054 3.73844 16.1899 4.00732C16.3768 4.2762 16.6012 4.49154 16.8633 4.65332L16.501 5.15234C16.2048 4.97461 15.9552 4.72738 15.7524 4.41064C15.5496 4.09163 15.397 3.7373 15.2944 3.34766C15.1942 2.95801 15.144 2.55127 15.144 2.12744V1.01318H15.6328V2.12744ZM19.0371 6.57764H18.4116V0.452637H19.0371V6.57764ZM17.7656 6.27686H17.1538V0.568848H17.7656V6.27686Z" fill="#939393"/>
</svg>
