<svg width="90" height="23" viewBox="0 0 90 23" fill="none" xmlns="http://www.w3.org/2000/svg">
<path d="M6.92188 20.2344C5.50781 20.2344 4.28906 19.8945 3.26562 19.2148C2.25 18.5352 1.46875 17.543 0.921875 16.2383C0.382812 14.9258 0.113281 13.3516 0.113281 11.5156C0.113281 9.67969 0.382812 8.10938 0.921875 6.80469C1.46875 5.5 2.25391 4.50781 3.27734 3.82812C4.30078 3.14062 5.51562 2.79688 6.92188 2.79688C8.32812 2.79688 9.54297 3.14062 10.5664 3.82812C11.5898 4.50781 12.375 5.50391 12.9219 6.81641C13.4688 8.12109 13.7422 9.6875 13.7422 11.5156C13.7422 13.3594 13.4688 14.9336 12.9219 16.2383C12.3828 17.543 11.6016 18.5352 10.5781 19.2148C9.55469 19.8945 8.33594 20.2344 6.92188 20.2344ZM6.92188 17.3281C7.57812 17.3281 8.14844 17.1133 8.63281 16.6836C9.125 16.2539 9.5 15.6055 9.75781 14.7383C10.0156 13.8633 10.1406 12.7891 10.1328 11.5156C10.1328 10.25 10.0039 9.18359 9.74609 8.31641C9.48828 7.44141 9.11719 6.78516 8.63281 6.34766C8.14844 5.91016 7.57812 5.69141 6.92188 5.69141C6.26562 5.69141 5.69531 5.91016 5.21094 6.34766C4.73438 6.78516 4.36328 7.44141 4.09766 8.31641C3.83203 9.18359 3.69922 10.25 3.69922 11.5156C3.69922 12.7891 3.82812 13.8633 4.08594 14.7383C4.35156 15.6055 4.72656 16.2539 5.21094 16.6836C5.69531 17.1133 6.26562 17.3281 6.92188 17.3281ZM33.395 22.1562H30.5122V0.804688H33.395V22.1562ZM31.3794 11.3047H27.7466V8.90234H31.3794V11.3047ZM24.2778 3.46484C24.2778 5.55078 24.0356 7.45312 23.5513 9.17188C23.0669 10.8828 22.2505 12.4648 21.102 13.918C19.9614 15.3633 18.4184 16.6445 16.4731 17.7617L14.7388 15.7109C16.3716 14.7578 17.6763 13.707 18.6528 12.5586C19.6294 11.4023 20.3364 10.1328 20.7739 8.75C21.2114 7.35938 21.4302 5.79297 21.4302 4.05078V3.46484H24.2778ZM22.2973 5.84375H15.8169V3.46484H22.2973V5.84375ZM28.5669 21.207H25.7778V1.36719H28.5669V21.207ZM41.9389 10.6953C42.3295 10.2812 42.7709 9.96484 43.2631 9.74609C43.7553 9.52734 44.2748 9.41797 44.8217 9.41797C45.2514 9.41797 45.6538 9.46875 46.0288 9.57031C46.4116 9.67188 46.9272 9.83984 47.5756 10.0742C48.1538 10.293 48.6459 10.4609 49.0522 10.5781C49.4584 10.6875 49.8764 10.7422 50.3061 10.7422C50.8608 10.7422 51.3803 10.6328 51.8647 10.4141C52.3491 10.1953 52.7788 9.87891 53.1538 9.46484V12.3125C52.7553 12.7266 52.31 13.0469 51.8178 13.2734C51.3334 13.4922 50.81 13.6016 50.2475 13.6016C49.8256 13.6016 49.4116 13.5469 49.0053 13.4375C48.6069 13.3203 48.103 13.1523 47.4936 12.9336C46.9311 12.707 46.4428 12.5391 46.0288 12.4297C45.6225 12.3203 45.2006 12.2656 44.7631 12.2656C44.2163 12.2656 43.7045 12.375 43.228 12.5938C42.7514 12.8047 42.3217 13.1289 41.9389 13.5664V10.6953ZM68.6117 20H65.0727V6.38281H64.9789L61.1 8.84375V5.70312L65.2953 3.03125H68.6117V20ZM89.7763 22.1562H86.8934V0.804688H89.7763V22.1562ZM87.7606 11.3047H84.1278V8.90234H87.7606V11.3047ZM80.6591 3.46484C80.6591 5.55078 80.4169 7.45312 79.9325 9.17188C79.4481 10.8828 78.6317 12.4648 77.4833 13.918C76.3427 15.3633 74.7997 16.6445 72.8544 17.7617L71.12 15.7109C72.7528 14.7578 74.0575 13.707 75.0341 12.5586C76.0106 11.4023 76.7177 10.1328 77.1552 8.75C77.5927 7.35938 77.8114 5.79297 77.8114 4.05078V3.46484H80.6591ZM78.6786 5.84375H72.1981V3.46484H78.6786V5.84375ZM84.9481 21.207H82.1591V1.36719H84.9481V21.207Z" fill="white"/>
</svg>
