<svg width="25" height="7" viewBox="0 0 25 7" fill="none" xmlns="http://www.w3.org/2000/svg">
<path d="M2.08887 6H1.33008V1.80615H1.30273L0.123535 2.57861V1.85742L1.35059 1.05078H2.08887V6ZM5.06934 6.06836C4.6888 6.06836 4.36296 5.96924 4.0918 5.771C3.82064 5.57275 3.61328 5.28337 3.46973 4.90283C3.32617 4.5223 3.25439 4.06315 3.25439 3.52539C3.25439 2.99219 3.32617 2.53532 3.46973 2.15479C3.61328 1.77425 3.82178 1.48372 4.09521 1.2832C4.36865 1.08268 4.69336 0.982422 5.06934 0.982422C5.44531 0.982422 5.77002 1.08268 6.04346 1.2832C6.31689 1.48372 6.52539 1.77425 6.66895 2.15479C6.8125 2.53532 6.88428 2.99219 6.88428 3.52539C6.88428 4.06315 6.8125 4.5223 6.66895 4.90283C6.52767 5.28337 6.32031 5.57275 6.04688 5.771C5.77572 5.96924 5.44987 6.06836 5.06934 6.06836ZM5.06934 5.42236C5.29036 5.42236 5.48063 5.34945 5.64014 5.20361C5.80192 5.05778 5.92497 4.84359 6.00928 4.56104C6.09359 4.2762 6.1346 3.93099 6.13232 3.52539C6.13232 3.11979 6.09017 2.77458 6.00586 2.48975C5.92155 2.20492 5.79964 1.98844 5.64014 1.84033C5.48063 1.69222 5.29036 1.61816 5.06934 1.61816C4.84831 1.61816 4.65804 1.69222 4.49854 1.84033C4.33903 1.98844 4.21598 2.20492 4.12939 2.48975C4.04281 2.77458 3.99951 3.11979 3.99951 3.52539C3.99951 3.93099 4.04167 4.2762 4.12598 4.56104C4.21029 4.84359 4.33333 5.05778 4.49512 5.20361C4.6569 5.34945 4.84831 5.42236 5.06934 5.42236ZM7.88916 3.39551C8.00081 3.27018 8.125 3.17562 8.26172 3.11182C8.39844 3.04574 8.54427 3.0127 8.69922 3.0127C8.81543 3.0127 8.92822 3.02865 9.0376 3.06055C9.14925 3.09017 9.29395 3.13916 9.47168 3.20752C9.63346 3.27132 9.77018 3.32031 9.88184 3.35449C9.99577 3.38867 10.1097 3.40576 10.2236 3.40576C10.3809 3.40576 10.5267 3.37044 10.6611 3.2998C10.7979 3.22917 10.9175 3.12663 11.02 2.99219V3.64844C10.9084 3.77376 10.7842 3.86947 10.6475 3.93555C10.5107 4.00163 10.3649 4.03467 10.21 4.03467C10.0938 4.03467 9.97868 4.01758 9.86475 3.9834C9.75309 3.94922 9.61068 3.90023 9.4375 3.83643C9.27799 3.76807 9.14128 3.71794 9.02734 3.68604C8.91341 3.65413 8.7972 3.63818 8.67871 3.63818C8.52604 3.63818 8.38249 3.6735 8.24805 3.74414C8.11589 3.8125 7.99626 3.91504 7.88916 4.05176V3.39551ZM13.9971 6H13.2383V1.80615H13.2109L12.0317 2.57861V1.85742L13.2588 1.05078H13.9971V6ZM16.957 0.982422C17.292 0.982422 17.5985 1.05762 17.8765 1.20801C18.1567 1.3584 18.3846 1.61019 18.5601 1.96338C18.7355 2.31429 18.8232 2.77686 18.8232 3.35107C18.8232 3.92074 18.7446 4.40951 18.5874 4.81738C18.4325 5.22298 18.2091 5.53288 17.9175 5.74707C17.6281 5.96126 17.2852 6.06836 16.8887 6.06836C16.5924 6.06836 16.3258 6.01025 16.0889 5.89404C15.8519 5.77555 15.6582 5.61377 15.5078 5.40869C15.3574 5.20361 15.2629 4.96777 15.2241 4.70117H15.9692C16.0034 4.84245 16.0615 4.96663 16.1436 5.07373C16.2256 5.17855 16.3293 5.26058 16.4546 5.31982C16.5822 5.37907 16.7269 5.40869 16.8887 5.40869C17.1416 5.40869 17.3592 5.33805 17.5415 5.19678C17.7238 5.05322 17.8628 4.84701 17.9585 4.57812C18.0565 4.30924 18.1055 3.98682 18.1055 3.61084H18.0439C17.9551 3.74984 17.8457 3.86947 17.7158 3.96973C17.5859 4.06999 17.4412 4.14746 17.2817 4.20215C17.1222 4.25456 16.9548 4.28076 16.7793 4.28076C16.4876 4.28076 16.2188 4.21126 15.9727 4.07227C15.7288 3.93099 15.5363 3.7373 15.395 3.49121C15.2537 3.24512 15.182 2.96826 15.1797 2.66064C15.1797 2.34391 15.2537 2.05794 15.4019 1.80273C15.55 1.54753 15.7585 1.34587 16.0273 1.19775C16.2985 1.04964 16.6084 0.977865 16.957 0.982422ZM16.9604 1.61133C16.7645 1.61133 16.5868 1.65804 16.4272 1.75146C16.2677 1.84489 16.1424 1.97135 16.0513 2.13086C15.9601 2.28809 15.9146 2.46012 15.9146 2.64697C15.9168 2.83382 15.9624 3.00586 16.0513 3.16309C16.1401 3.32031 16.262 3.4445 16.417 3.53564C16.5742 3.62679 16.7497 3.67236 16.9434 3.67236C17.137 3.67236 17.3148 3.62451 17.4766 3.52881C17.6406 3.43083 17.7694 3.30208 17.8628 3.14258C17.9585 2.98307 18.0063 2.81445 18.0063 2.63672C18.0063 2.45671 17.9608 2.28809 17.8696 2.13086C17.7785 1.97363 17.6532 1.84831 17.4937 1.75488C17.3364 1.65918 17.1587 1.61133 16.9604 1.61133ZM22.9863 3.14941H21.8379V2.60596H22.9863V3.14941ZM21.1509 2.15479C21.1509 2.59456 21.0951 3.01953 20.9834 3.42969C20.874 3.83984 20.7122 4.20671 20.498 4.53027C20.2839 4.85156 20.0264 5.10449 19.7256 5.28906L19.3188 4.80371C19.5991 4.63509 19.8395 4.41064 20.04 4.13037C20.2406 3.84782 20.391 3.53678 20.4912 3.19727C20.5938 2.85775 20.645 2.51025 20.645 2.15479V1.01318H21.1509V2.15479ZM21.2705 2.12744C21.2705 2.46696 21.3172 2.7985 21.4106 3.12207C21.5041 3.44336 21.6431 3.73844 21.8276 4.00732C22.0145 4.2762 22.2389 4.49154 22.501 4.65332L22.1387 5.15234C21.8424 4.97461 21.5929 4.72738 21.3901 4.41064C21.1873 4.09163 21.0347 3.7373 20.9321 3.34766C20.8319 2.95801 20.7817 2.55127 20.7817 2.12744V1.01318H21.2705V2.12744ZM24.6748 6.57764H24.0493V0.452637H24.6748V6.57764ZM23.4033 6.27686H22.7915V0.568848H23.4033V6.27686Z" fill="#939393"/>
</svg>
