<svg width="19" height="6" viewBox="0 0 19 6" fill="none" xmlns="http://www.w3.org/2000/svg">
<path d="M0.429688 4.43628L1.90332 2.95093C2.08105 2.76733 2.21777 2.6189 2.31348 2.50562C2.40918 2.39233 2.48047 2.28101 2.52734 2.17163C2.57617 2.0603 2.60059 1.94507 2.60059 1.82593C2.60059 1.69116 2.56641 1.57202 2.49805 1.46851C2.42969 1.36499 2.33594 1.28491 2.2168 1.22827C2.09766 1.17163 1.96387 1.14331 1.81543 1.14331C1.66113 1.14331 1.52539 1.17456 1.4082 1.23706C1.29297 1.29761 1.20312 1.3855 1.13867 1.50073C1.07617 1.61401 1.04492 1.74487 1.04492 1.89331H0.432617C0.432617 1.6394 0.492188 1.41479 0.611328 1.21948C0.730469 1.02417 0.895508 0.872803 1.10645 0.765381C1.31934 0.657959 1.56055 0.604248 1.83008 0.604248C2.09766 0.604248 2.33594 0.656982 2.54492 0.762451C2.75391 0.865967 2.91699 1.00952 3.03418 1.19312C3.15332 1.37476 3.21289 1.57886 3.21289 1.80542C3.21289 1.96753 3.18262 2.12378 3.12207 2.27417C3.06152 2.42456 2.95898 2.59058 2.81445 2.77222C2.66992 2.95386 2.46289 3.17749 2.19336 3.44312L1.3291 4.31909V4.35132H3.2832V4.90503H0.432617L0.429688 4.43628ZM5.47754 4.96362C5.15137 4.96362 4.87207 4.87866 4.63965 4.70874C4.40723 4.53882 4.22949 4.29077 4.10645 3.9646C3.9834 3.63843 3.92188 3.24487 3.92188 2.78394C3.92188 2.3269 3.9834 1.9353 4.10645 1.60913C4.22949 1.28296 4.4082 1.03394 4.64258 0.862061C4.87695 0.690186 5.15527 0.604248 5.47754 0.604248C5.7998 0.604248 6.07812 0.690186 6.3125 0.862061C6.54688 1.03394 6.72559 1.28296 6.84863 1.60913C6.97168 1.9353 7.0332 2.3269 7.0332 2.78394C7.0332 3.24487 6.97168 3.63843 6.84863 3.9646C6.72754 4.29077 6.5498 4.53882 6.31543 4.70874C6.08301 4.87866 5.80371 4.96362 5.47754 4.96362ZM5.47754 4.40991C5.66699 4.40991 5.83008 4.34741 5.9668 4.22241C6.10547 4.09741 6.21094 3.91382 6.2832 3.67163C6.35547 3.42749 6.39062 3.13159 6.38867 2.78394C6.38867 2.43628 6.35254 2.14038 6.28027 1.89624C6.20801 1.6521 6.10352 1.46655 5.9668 1.3396C5.83008 1.21265 5.66699 1.14917 5.47754 1.14917C5.28809 1.14917 5.125 1.21265 4.98828 1.3396C4.85156 1.46655 4.74609 1.6521 4.67188 1.89624C4.59766 2.14038 4.56055 2.43628 4.56055 2.78394C4.56055 3.13159 4.59668 3.42749 4.66895 3.67163C4.74121 3.91382 4.84668 4.09741 4.98535 4.22241C5.12402 4.34741 5.28809 4.40991 5.47754 4.40991ZM9.31543 4.90503H8.66504V1.3103H8.6416L7.63086 1.97241V1.35425L8.68262 0.662842H9.31543V4.90503ZM11.8525 0.604248C12.1396 0.604248 12.4023 0.668701 12.6406 0.797607C12.8809 0.926514 13.0762 1.14233 13.2266 1.44507C13.377 1.74585 13.4521 2.14233 13.4521 2.63452C13.4521 3.1228 13.3848 3.54175 13.25 3.89136C13.1172 4.23901 12.9258 4.50464 12.6758 4.68823C12.4277 4.87183 12.1338 4.96362 11.7939 4.96362C11.54 4.96362 11.3115 4.91382 11.1084 4.81421C10.9053 4.71265 10.7393 4.57397 10.6104 4.39819C10.4814 4.22241 10.4004 4.02026 10.3672 3.79175H11.0059C11.0352 3.91284 11.085 4.01929 11.1553 4.11108C11.2256 4.20093 11.3145 4.27124 11.4219 4.32202C11.5312 4.3728 11.6553 4.39819 11.7939 4.39819C12.0107 4.39819 12.1973 4.33765 12.3535 4.21655C12.5098 4.09351 12.6289 3.91675 12.7109 3.68628C12.7949 3.45581 12.8369 3.17944 12.8369 2.85718H12.7842C12.708 2.97632 12.6143 3.07886 12.5029 3.16479C12.3916 3.25073 12.2676 3.31714 12.1309 3.36401C11.9941 3.40894 11.8506 3.4314 11.7002 3.4314C11.4502 3.4314 11.2197 3.37183 11.0088 3.25269C10.7998 3.13159 10.6348 2.96558 10.5137 2.75464C10.3926 2.5437 10.3311 2.3064 10.3291 2.04272C10.3291 1.77124 10.3926 1.52612 10.5195 1.30737C10.6465 1.08862 10.8252 0.915771 11.0557 0.788818C11.2881 0.661865 11.5537 0.600342 11.8525 0.604248ZM11.8555 1.14331C11.6875 1.14331 11.5352 1.18335 11.3984 1.26343C11.2617 1.34351 11.1543 1.4519 11.0762 1.58862C10.998 1.72339 10.959 1.87085 10.959 2.03101C10.9609 2.19116 11 2.33862 11.0762 2.47339C11.1523 2.60815 11.2568 2.7146 11.3896 2.79272C11.5244 2.87085 11.6748 2.90991 11.8408 2.90991C12.0068 2.90991 12.1592 2.8689 12.2979 2.78687C12.4385 2.70288 12.5488 2.59253 12.6289 2.45581C12.7109 2.31909 12.752 2.17456 12.752 2.02222C12.752 1.86792 12.7129 1.72339 12.6348 1.58862C12.5566 1.45386 12.4492 1.34644 12.3125 1.26636C12.1777 1.18433 12.0254 1.14331 11.8555 1.14331ZM18.3271 4.03198H17.7705V0.156006H18.3271V4.03198ZM17.9668 1.25464H16.3291V0.812256H17.9668V1.25464ZM18.4619 5.29761H14.9053V4.83765H18.4619V5.29761ZM15.4678 5.05151H14.9053V3.698H15.4678V5.05151ZM14.8145 3.00073H14.2578V0.516357H14.8145V3.00073ZM14.6621 2.82202C15.0801 2.82202 15.4678 2.80933 15.8252 2.78394C16.1826 2.75659 16.5488 2.70874 16.9238 2.64038L16.9766 3.09448C16.5918 3.16675 16.2188 3.21655 15.8574 3.2439C15.4961 3.27124 15.0977 3.28589 14.6621 3.28784H14.2578V2.82202H14.6621ZM17.9668 2.25073H16.3291V1.80835H17.9668V2.25073Z" fill="#939393"/>
</svg>
