<svg width="20" height="6" viewBox="0 0 20 6" fill="none" xmlns="http://www.w3.org/2000/svg">
<path d="M0.507812 4.43628L1.98145 2.95093C2.15918 2.76733 2.2959 2.6189 2.3916 2.50562C2.4873 2.39233 2.55859 2.28101 2.60547 2.17163C2.6543 2.0603 2.67871 1.94507 2.67871 1.82593C2.67871 1.69116 2.64453 1.57202 2.57617 1.46851C2.50781 1.36499 2.41406 1.28491 2.29492 1.22827C2.17578 1.17163 2.04199 1.14331 1.89355 1.14331C1.73926 1.14331 1.60352 1.17456 1.48633 1.23706C1.37109 1.29761 1.28125 1.3855 1.2168 1.50073C1.1543 1.61401 1.12305 1.74487 1.12305 1.89331H0.510742C0.510742 1.6394 0.570312 1.41479 0.689453 1.21948C0.808594 1.02417 0.973633 0.872803 1.18457 0.765381C1.39746 0.657959 1.63867 0.604248 1.9082 0.604248C2.17578 0.604248 2.41406 0.656982 2.62305 0.762451C2.83203 0.865967 2.99512 1.00952 3.1123 1.19312C3.23145 1.37476 3.29102 1.57886 3.29102 1.80542C3.29102 1.96753 3.26074 2.12378 3.2002 2.27417C3.13965 2.42456 3.03711 2.59058 2.89258 2.77222C2.74805 2.95386 2.54102 3.17749 2.27148 3.44312L1.40723 4.31909V4.35132H3.36133V4.90503H0.510742L0.507812 4.43628ZM5.55566 4.96362C5.22949 4.96362 4.9502 4.87866 4.71777 4.70874C4.48535 4.53882 4.30762 4.29077 4.18457 3.9646C4.06152 3.63843 4 3.24487 4 2.78394C4 2.3269 4.06152 1.9353 4.18457 1.60913C4.30762 1.28296 4.48633 1.03394 4.7207 0.862061C4.95508 0.690186 5.2334 0.604248 5.55566 0.604248C5.87793 0.604248 6.15625 0.690186 6.39062 0.862061C6.625 1.03394 6.80371 1.28296 6.92676 1.60913C7.0498 1.9353 7.11133 2.3269 7.11133 2.78394C7.11133 3.24487 7.0498 3.63843 6.92676 3.9646C6.80566 4.29077 6.62793 4.53882 6.39355 4.70874C6.16113 4.87866 5.88184 4.96362 5.55566 4.96362ZM5.55566 4.40991C5.74512 4.40991 5.9082 4.34741 6.04492 4.22241C6.18359 4.09741 6.28906 3.91382 6.36133 3.67163C6.43359 3.42749 6.46875 3.13159 6.4668 2.78394C6.4668 2.43628 6.43066 2.14038 6.3584 1.89624C6.28613 1.6521 6.18164 1.46655 6.04492 1.3396C5.9082 1.21265 5.74512 1.14917 5.55566 1.14917C5.36621 1.14917 5.20312 1.21265 5.06641 1.3396C4.92969 1.46655 4.82422 1.6521 4.75 1.89624C4.67578 2.14038 4.63867 2.43628 4.63867 2.78394C4.63867 3.13159 4.6748 3.42749 4.74707 3.67163C4.81934 3.91382 4.9248 4.09741 5.06348 4.22241C5.20215 4.34741 5.36621 4.40991 5.55566 4.40991ZM7.7793 4.43628L9.25293 2.95093C9.43066 2.76733 9.56738 2.6189 9.66309 2.50562C9.75879 2.39233 9.83008 2.28101 9.87695 2.17163C9.92578 2.0603 9.9502 1.94507 9.9502 1.82593C9.9502 1.69116 9.91602 1.57202 9.84766 1.46851C9.7793 1.36499 9.68555 1.28491 9.56641 1.22827C9.44727 1.17163 9.31348 1.14331 9.16504 1.14331C9.01074 1.14331 8.875 1.17456 8.75781 1.23706C8.64258 1.29761 8.55273 1.3855 8.48828 1.50073C8.42578 1.61401 8.39453 1.74487 8.39453 1.89331H7.78223C7.78223 1.6394 7.8418 1.41479 7.96094 1.21948C8.08008 1.02417 8.24512 0.872803 8.45605 0.765381C8.66895 0.657959 8.91016 0.604248 9.17969 0.604248C9.44727 0.604248 9.68555 0.656982 9.89453 0.762451C10.1035 0.865967 10.2666 1.00952 10.3838 1.19312C10.5029 1.37476 10.5625 1.57886 10.5625 1.80542C10.5625 1.96753 10.5322 2.12378 10.4717 2.27417C10.4111 2.42456 10.3086 2.59058 10.1641 2.77222C10.0195 2.95386 9.8125 3.17749 9.54297 3.44312L8.67871 4.31909V4.35132H10.6328V4.90503H7.78223L7.7793 4.43628ZM12.8271 4.96362C12.501 4.96362 12.2217 4.87866 11.9893 4.70874C11.7568 4.53882 11.5791 4.29077 11.4561 3.9646C11.333 3.63843 11.2715 3.24487 11.2715 2.78394C11.2715 2.3269 11.333 1.9353 11.4561 1.60913C11.5791 1.28296 11.7578 1.03394 11.9922 0.862061C12.2266 0.690186 12.5049 0.604248 12.8271 0.604248C13.1494 0.604248 13.4277 0.690186 13.6621 0.862061C13.8965 1.03394 14.0752 1.28296 14.1982 1.60913C14.3213 1.9353 14.3828 2.3269 14.3828 2.78394C14.3828 3.24487 14.3213 3.63843 14.1982 3.9646C14.0771 4.29077 13.8994 4.53882 13.665 4.70874C13.4326 4.87866 13.1533 4.96362 12.8271 4.96362ZM12.8271 4.40991C13.0166 4.40991 13.1797 4.34741 13.3164 4.22241C13.4551 4.09741 13.5605 3.91382 13.6328 3.67163C13.7051 3.42749 13.7402 3.13159 13.7383 2.78394C13.7383 2.43628 13.7021 2.14038 13.6299 1.89624C13.5576 1.6521 13.4531 1.46655 13.3164 1.3396C13.1797 1.21265 13.0166 1.14917 12.8271 1.14917C12.6377 1.14917 12.4746 1.21265 12.3379 1.3396C12.2012 1.46655 12.0957 1.6521 12.0215 1.89624C11.9473 2.14038 11.9102 2.43628 11.9102 2.78394C11.9102 3.13159 11.9463 3.42749 12.0186 3.67163C12.0908 3.91382 12.1963 4.09741 12.335 4.22241C12.4736 4.34741 12.6377 4.40991 12.8271 4.40991ZM19.249 4.03198H18.6924V0.156006H19.249V4.03198ZM18.8887 1.25464H17.251V0.812256H18.8887V1.25464ZM19.3838 5.29761H15.8271V4.83765H19.3838V5.29761ZM16.3896 5.05151H15.8271V3.698H16.3896V5.05151ZM15.7363 3.00073H15.1797V0.516357H15.7363V3.00073ZM15.584 2.82202C16.002 2.82202 16.3896 2.80933 16.7471 2.78394C17.1045 2.75659 17.4707 2.70874 17.8457 2.64038L17.8984 3.09448C17.5137 3.16675 17.1406 3.21655 16.7793 3.2439C16.418 3.27124 16.0195 3.28589 15.584 3.28784H15.1797V2.82202H15.584ZM18.8887 2.25073H17.251V1.80835H18.8887V2.25073Z" fill="#939393"/>
</svg>
