<svg width="19" height="6" viewBox="0 0 19 6" fill="none" xmlns="http://www.w3.org/2000/svg">
<path d="M0.514648 4.43628L1.98828 2.95093C2.16602 2.76733 2.30273 2.6189 2.39844 2.50562C2.49414 2.39233 2.56543 2.28101 2.6123 2.17163C2.66113 2.0603 2.68555 1.94507 2.68555 1.82593C2.68555 1.69116 2.65137 1.57202 2.58301 1.46851C2.51465 1.36499 2.4209 1.28491 2.30176 1.22827C2.18262 1.17163 2.04883 1.14331 1.90039 1.14331C1.74609 1.14331 1.61035 1.17456 1.49316 1.23706C1.37793 1.29761 1.28809 1.3855 1.22363 1.50073C1.16113 1.61401 1.12988 1.74487 1.12988 1.89331H0.517578C0.517578 1.6394 0.577148 1.41479 0.696289 1.21948C0.81543 1.02417 0.980469 0.872803 1.19141 0.765381C1.4043 0.657959 1.64551 0.604248 1.91504 0.604248C2.18262 0.604248 2.4209 0.656982 2.62988 0.762451C2.83887 0.865967 3.00195 1.00952 3.11914 1.19312C3.23828 1.37476 3.29785 1.57886 3.29785 1.80542C3.29785 1.96753 3.26758 2.12378 3.20703 2.27417C3.14648 2.42456 3.04395 2.59058 2.89941 2.77222C2.75488 2.95386 2.54785 3.17749 2.27832 3.44312L1.41406 4.31909V4.35132H3.36816V4.90503H0.517578L0.514648 4.43628ZM5.5625 4.96362C5.23633 4.96362 4.95703 4.87866 4.72461 4.70874C4.49219 4.53882 4.31445 4.29077 4.19141 3.9646C4.06836 3.63843 4.00684 3.24487 4.00684 2.78394C4.00684 2.3269 4.06836 1.9353 4.19141 1.60913C4.31445 1.28296 4.49316 1.03394 4.72754 0.862061C4.96191 0.690186 5.24023 0.604248 5.5625 0.604248C5.88477 0.604248 6.16309 0.690186 6.39746 0.862061C6.63184 1.03394 6.81055 1.28296 6.93359 1.60913C7.05664 1.9353 7.11816 2.3269 7.11816 2.78394C7.11816 3.24487 7.05664 3.63843 6.93359 3.9646C6.8125 4.29077 6.63477 4.53882 6.40039 4.70874C6.16797 4.87866 5.88867 4.96362 5.5625 4.96362ZM5.5625 4.40991C5.75195 4.40991 5.91504 4.34741 6.05176 4.22241C6.19043 4.09741 6.2959 3.91382 6.36816 3.67163C6.44043 3.42749 6.47559 3.13159 6.47363 2.78394C6.47363 2.43628 6.4375 2.14038 6.36523 1.89624C6.29297 1.6521 6.18848 1.46655 6.05176 1.3396C5.91504 1.21265 5.75195 1.14917 5.5625 1.14917C5.37305 1.14917 5.20996 1.21265 5.07324 1.3396C4.93652 1.46655 4.83105 1.6521 4.75684 1.89624C4.68262 2.14038 4.64551 2.43628 4.64551 2.78394C4.64551 3.13159 4.68164 3.42749 4.75391 3.67163C4.82617 3.91382 4.93164 4.09741 5.07031 4.22241C5.20898 4.34741 5.37305 4.40991 5.5625 4.40991ZM7.78613 4.43628L9.25977 2.95093C9.4375 2.76733 9.57422 2.6189 9.66992 2.50562C9.76562 2.39233 9.83691 2.28101 9.88379 2.17163C9.93262 2.0603 9.95703 1.94507 9.95703 1.82593C9.95703 1.69116 9.92285 1.57202 9.85449 1.46851C9.78613 1.36499 9.69238 1.28491 9.57324 1.22827C9.4541 1.17163 9.32031 1.14331 9.17188 1.14331C9.01758 1.14331 8.88184 1.17456 8.76465 1.23706C8.64941 1.29761 8.55957 1.3855 8.49512 1.50073C8.43262 1.61401 8.40137 1.74487 8.40137 1.89331H7.78906C7.78906 1.6394 7.84863 1.41479 7.96777 1.21948C8.08691 1.02417 8.25195 0.872803 8.46289 0.765381C8.67578 0.657959 8.91699 0.604248 9.18652 0.604248C9.4541 0.604248 9.69238 0.656982 9.90137 0.762451C10.1104 0.865967 10.2734 1.00952 10.3906 1.19312C10.5098 1.37476 10.5693 1.57886 10.5693 1.80542C10.5693 1.96753 10.5391 2.12378 10.4785 2.27417C10.418 2.42456 10.3154 2.59058 10.1709 2.77222C10.0264 2.95386 9.81934 3.17749 9.5498 3.44312L8.68555 4.31909V4.35132H10.6396V4.90503H7.78906L7.78613 4.43628ZM12.9688 4.90503H12.3184V1.3103H12.2949L11.2842 1.97241V1.35425L12.3359 0.662842H12.9688V4.90503ZM18.2422 4.03198H17.6855V0.156006H18.2422V4.03198ZM17.8818 1.25464H16.2441V0.812256H17.8818V1.25464ZM18.377 5.29761H14.8203V4.83765H18.377V5.29761ZM15.3828 5.05151H14.8203V3.698H15.3828V5.05151ZM14.7295 3.00073H14.1729V0.516357H14.7295V3.00073ZM14.5771 2.82202C14.9951 2.82202 15.3828 2.80933 15.7402 2.78394C16.0977 2.75659 16.4639 2.70874 16.8389 2.64038L16.8916 3.09448C16.5068 3.16675 16.1338 3.21655 15.7725 3.2439C15.4111 3.27124 15.0127 3.28589 14.5771 3.28784H14.1729V2.82202H14.5771ZM17.8818 2.25073H16.2441V1.80835H17.8818V2.25073Z" fill="#939393"/>
</svg>
