<svg width="20" height="6" viewBox="0 0 20 6" fill="none" xmlns="http://www.w3.org/2000/svg">
<path d="M0.575195 4.43628L2.04883 2.95093C2.22656 2.76733 2.36328 2.6189 2.45898 2.50562C2.55469 2.39233 2.62598 2.28101 2.67285 2.17163C2.72168 2.0603 2.74609 1.94507 2.74609 1.82593C2.74609 1.69116 2.71191 1.57202 2.64355 1.46851C2.5752 1.36499 2.48145 1.28491 2.3623 1.22827C2.24316 1.17163 2.10938 1.14331 1.96094 1.14331C1.80664 1.14331 1.6709 1.17456 1.55371 1.23706C1.43848 1.29761 1.34863 1.3855 1.28418 1.50073C1.22168 1.61401 1.19043 1.74487 1.19043 1.89331H0.578125C0.578125 1.6394 0.637695 1.41479 0.756836 1.21948C0.875977 1.02417 1.04102 0.872803 1.25195 0.765381C1.46484 0.657959 1.70605 0.604248 1.97559 0.604248C2.24316 0.604248 2.48145 0.656982 2.69043 0.762451C2.89941 0.865967 3.0625 1.00952 3.17969 1.19312C3.29883 1.37476 3.3584 1.57886 3.3584 1.80542C3.3584 1.96753 3.32812 2.12378 3.26758 2.27417C3.20703 2.42456 3.10449 2.59058 2.95996 2.77222C2.81543 2.95386 2.6084 3.17749 2.33887 3.44312L1.47461 4.31909V4.35132H3.42871V4.90503H0.578125L0.575195 4.43628ZM5.62305 4.96362C5.29688 4.96362 5.01758 4.87866 4.78516 4.70874C4.55273 4.53882 4.375 4.29077 4.25195 3.9646C4.12891 3.63843 4.06738 3.24487 4.06738 2.78394C4.06738 2.3269 4.12891 1.9353 4.25195 1.60913C4.375 1.28296 4.55371 1.03394 4.78809 0.862061C5.02246 0.690186 5.30078 0.604248 5.62305 0.604248C5.94531 0.604248 6.22363 0.690186 6.45801 0.862061C6.69238 1.03394 6.87109 1.28296 6.99414 1.60913C7.11719 1.9353 7.17871 2.3269 7.17871 2.78394C7.17871 3.24487 7.11719 3.63843 6.99414 3.9646C6.87305 4.29077 6.69531 4.53882 6.46094 4.70874C6.22852 4.87866 5.94922 4.96362 5.62305 4.96362ZM5.62305 4.40991C5.8125 4.40991 5.97559 4.34741 6.1123 4.22241C6.25098 4.09741 6.35645 3.91382 6.42871 3.67163C6.50098 3.42749 6.53613 3.13159 6.53418 2.78394C6.53418 2.43628 6.49805 2.14038 6.42578 1.89624C6.35352 1.6521 6.24902 1.46655 6.1123 1.3396C5.97559 1.21265 5.8125 1.14917 5.62305 1.14917C5.43359 1.14917 5.27051 1.21265 5.13379 1.3396C4.99707 1.46655 4.8916 1.6521 4.81738 1.89624C4.74316 2.14038 4.70605 2.43628 4.70605 2.78394C4.70605 3.13159 4.74219 3.42749 4.81445 3.67163C4.88672 3.91382 4.99219 4.09741 5.13086 4.22241C5.26953 4.34741 5.43359 4.40991 5.62305 4.40991ZM7.84668 4.43628L9.32031 2.95093C9.49805 2.76733 9.63477 2.6189 9.73047 2.50562C9.82617 2.39233 9.89746 2.28101 9.94434 2.17163C9.99316 2.0603 10.0176 1.94507 10.0176 1.82593C10.0176 1.69116 9.9834 1.57202 9.91504 1.46851C9.84668 1.36499 9.75293 1.28491 9.63379 1.22827C9.51465 1.17163 9.38086 1.14331 9.23242 1.14331C9.07812 1.14331 8.94238 1.17456 8.8252 1.23706C8.70996 1.29761 8.62012 1.3855 8.55566 1.50073C8.49316 1.61401 8.46191 1.74487 8.46191 1.89331H7.84961C7.84961 1.6394 7.90918 1.41479 8.02832 1.21948C8.14746 1.02417 8.3125 0.872803 8.52344 0.765381C8.73633 0.657959 8.97754 0.604248 9.24707 0.604248C9.51465 0.604248 9.75293 0.656982 9.96191 0.762451C10.1709 0.865967 10.334 1.00952 10.4512 1.19312C10.5703 1.37476 10.6299 1.57886 10.6299 1.80542C10.6299 1.96753 10.5996 2.12378 10.5391 2.27417C10.4785 2.42456 10.376 2.59058 10.2314 2.77222C10.0869 2.95386 9.87988 3.17749 9.61035 3.44312L8.74609 4.31909V4.35132H10.7002V4.90503H7.84961L7.84668 4.43628ZM11.415 4.43628L12.8887 2.95093C13.0664 2.76733 13.2031 2.6189 13.2988 2.50562C13.3945 2.39233 13.4658 2.28101 13.5127 2.17163C13.5615 2.0603 13.5859 1.94507 13.5859 1.82593C13.5859 1.69116 13.5518 1.57202 13.4834 1.46851C13.415 1.36499 13.3213 1.28491 13.2021 1.22827C13.083 1.17163 12.9492 1.14331 12.8008 1.14331C12.6465 1.14331 12.5107 1.17456 12.3936 1.23706C12.2783 1.29761 12.1885 1.3855 12.124 1.50073C12.0615 1.61401 12.0303 1.74487 12.0303 1.89331H11.418C11.418 1.6394 11.4775 1.41479 11.5967 1.21948C11.7158 1.02417 11.8809 0.872803 12.0918 0.765381C12.3047 0.657959 12.5459 0.604248 12.8154 0.604248C13.083 0.604248 13.3213 0.656982 13.5303 0.762451C13.7393 0.865967 13.9023 1.00952 14.0195 1.19312C14.1387 1.37476 14.1982 1.57886 14.1982 1.80542C14.1982 1.96753 14.168 2.12378 14.1074 2.27417C14.0469 2.42456 13.9443 2.59058 13.7998 2.77222C13.6553 2.95386 13.4482 3.17749 13.1787 3.44312L12.3145 4.31909V4.35132H14.2686V4.90503H11.418L11.415 4.43628ZM19.1816 4.03198H18.625V0.156006H19.1816V4.03198ZM18.8213 1.25464H17.1836V0.812256H18.8213V1.25464ZM19.3164 5.29761H15.7598V4.83765H19.3164V5.29761ZM16.3223 5.05151H15.7598V3.698H16.3223V5.05151ZM15.6689 3.00073H15.1123V0.516357H15.6689V3.00073ZM15.5166 2.82202C15.9346 2.82202 16.3223 2.80933 16.6797 2.78394C17.0371 2.75659 17.4033 2.70874 17.7783 2.64038L17.8311 3.09448C17.4463 3.16675 17.0732 3.21655 16.7119 3.2439C16.3506 3.27124 15.9521 3.28589 15.5166 3.28784H15.1123V2.82202H15.5166ZM18.8213 2.25073H17.1836V1.80835H18.8213V2.25073Z" fill="#939393"/>
</svg>
