<svg width="20" height="6" viewBox="0 0 20 6" fill="none" xmlns="http://www.w3.org/2000/svg">
<path d="M0.484375 4.6311L1.95801 3.14575C2.13574 2.96216 2.27246 2.81372 2.36816 2.70044C2.46387 2.58716 2.53516 2.47583 2.58203 2.36646C2.63086 2.25513 2.65527 2.13989 2.65527 2.02075C2.65527 1.88599 2.62109 1.76685 2.55273 1.66333C2.48438 1.55981 2.39062 1.47974 2.27148 1.4231C2.15234 1.36646 2.01855 1.33813 1.87012 1.33813C1.71582 1.33813 1.58008 1.36938 1.46289 1.43188C1.34766 1.49243 1.25781 1.58032 1.19336 1.69556C1.13086 1.80884 1.09961 1.9397 1.09961 2.08813H0.487305C0.487305 1.83423 0.546875 1.60962 0.666016 1.41431C0.785156 1.21899 0.950195 1.06763 1.16113 0.960205C1.37402 0.852783 1.61523 0.799072 1.88477 0.799072C2.15234 0.799072 2.39062 0.851807 2.59961 0.957275C2.80859 1.06079 2.97168 1.20435 3.08887 1.38794C3.20801 1.56958 3.26758 1.77368 3.26758 2.00024C3.26758 2.16235 3.2373 2.3186 3.17676 2.46899C3.11621 2.61938 3.01367 2.7854 2.86914 2.96704C2.72461 3.14868 2.51758 3.37231 2.24805 3.63794L1.38379 4.51392V4.54614H3.33789V5.09985H0.487305L0.484375 4.6311ZM5.53223 5.15845C5.20605 5.15845 4.92676 5.07349 4.69434 4.90356C4.46191 4.73364 4.28418 4.4856 4.16113 4.15942C4.03809 3.83325 3.97656 3.4397 3.97656 2.97876C3.97656 2.52173 4.03809 2.13013 4.16113 1.80396C4.28418 1.47778 4.46289 1.22876 4.69727 1.05688C4.93164 0.88501 5.20996 0.799072 5.53223 0.799072C5.85449 0.799072 6.13281 0.88501 6.36719 1.05688C6.60156 1.22876 6.78027 1.47778 6.90332 1.80396C7.02637 2.13013 7.08789 2.52173 7.08789 2.97876C7.08789 3.4397 7.02637 3.83325 6.90332 4.15942C6.78223 4.4856 6.60449 4.73364 6.37012 4.90356C6.1377 5.07349 5.8584 5.15845 5.53223 5.15845ZM5.53223 4.60474C5.72168 4.60474 5.88477 4.54224 6.02148 4.41724C6.16016 4.29224 6.26562 4.10864 6.33789 3.86646C6.41016 3.62231 6.44531 3.32642 6.44336 2.97876C6.44336 2.6311 6.40723 2.33521 6.33496 2.09106C6.2627 1.84692 6.1582 1.66138 6.02148 1.53442C5.88477 1.40747 5.72168 1.34399 5.53223 1.34399C5.34277 1.34399 5.17969 1.40747 5.04297 1.53442C4.90625 1.66138 4.80078 1.84692 4.72656 2.09106C4.65234 2.33521 4.61523 2.6311 4.61523 2.97876C4.61523 3.32642 4.65137 3.62231 4.72363 3.86646C4.7959 4.10864 4.90137 4.29224 5.04004 4.41724C5.17871 4.54224 5.34277 4.60474 5.53223 4.60474ZM7.75586 4.6311L9.22949 3.14575C9.40723 2.96216 9.54395 2.81372 9.63965 2.70044C9.73535 2.58716 9.80664 2.47583 9.85352 2.36646C9.90234 2.25513 9.92676 2.13989 9.92676 2.02075C9.92676 1.88599 9.89258 1.76685 9.82422 1.66333C9.75586 1.55981 9.66211 1.47974 9.54297 1.4231C9.42383 1.36646 9.29004 1.33813 9.1416 1.33813C8.9873 1.33813 8.85156 1.36938 8.73438 1.43188C8.61914 1.49243 8.5293 1.58032 8.46484 1.69556C8.40234 1.80884 8.37109 1.9397 8.37109 2.08813H7.75879C7.75879 1.83423 7.81836 1.60962 7.9375 1.41431C8.05664 1.21899 8.22168 1.06763 8.43262 0.960205C8.64551 0.852783 8.88672 0.799072 9.15625 0.799072C9.42383 0.799072 9.66211 0.851807 9.87109 0.957275C10.0801 1.06079 10.2432 1.20435 10.3604 1.38794C10.4795 1.56958 10.5391 1.77368 10.5391 2.00024C10.5391 2.16235 10.5088 2.3186 10.4482 2.46899C10.3877 2.61938 10.2852 2.7854 10.1406 2.96704C9.99609 3.14868 9.78906 3.37231 9.51953 3.63794L8.65527 4.51392V4.54614H10.6094V5.09985H7.75879L7.75586 4.6311ZM12.8301 5.15845C12.543 5.15845 12.2852 5.10962 12.0566 5.01196C11.8281 4.91431 11.6484 4.77759 11.5176 4.60181C11.3867 4.42407 11.3164 4.21997 11.3066 3.9895H11.957C11.9668 4.10864 12.0107 4.21509 12.0889 4.30884C12.167 4.40259 12.2705 4.47485 12.3994 4.52563C12.5283 4.57642 12.6709 4.60181 12.8271 4.60181C12.9951 4.60181 13.1475 4.57251 13.2842 4.51392C13.4209 4.45337 13.5264 4.37231 13.6006 4.27075C13.6748 4.16724 13.7119 4.0481 13.7119 3.91333C13.7119 3.77075 13.6748 3.64478 13.6006 3.5354C13.5264 3.42603 13.417 3.34106 13.2725 3.28052C13.1299 3.21997 12.958 3.1897 12.7568 3.1897H12.3936V2.66528H12.7568C12.917 2.66528 13.0596 2.63696 13.1846 2.58032C13.3096 2.52368 13.4062 2.44458 13.4746 2.34302C13.543 2.24146 13.5762 2.12427 13.5742 1.99146C13.5762 1.86255 13.5469 1.74829 13.4863 1.64868C13.4258 1.54907 13.3398 1.4729 13.2285 1.42017C13.1172 1.36548 12.9883 1.33813 12.8418 1.33813C12.6973 1.33813 12.5635 1.36353 12.4404 1.41431C12.3174 1.46509 12.2168 1.53735 12.1387 1.6311C12.0625 1.72485 12.0215 1.83521 12.0156 1.96216H11.3945C11.4043 1.7356 11.4736 1.53442 11.6025 1.35864C11.7334 1.18091 11.9072 1.04321 12.124 0.945557C12.3428 0.8479 12.583 0.799072 12.8447 0.799072C13.1162 0.799072 13.3545 0.85083 13.5596 0.954346C13.7666 1.05591 13.9258 1.19458 14.0371 1.37036C14.1484 1.54614 14.2021 1.74048 14.1982 1.95337C14.2021 2.10962 14.1729 2.25317 14.1104 2.38403C14.0498 2.51294 13.9619 2.62134 13.8467 2.70923C13.7334 2.79517 13.6006 2.85669 13.4482 2.8938V2.92603C13.6396 2.95142 13.8037 3.01099 13.9404 3.10474C14.0791 3.19653 14.1846 3.31274 14.2568 3.45337C14.3291 3.59399 14.3633 3.75415 14.3594 3.93384C14.3633 4.16431 14.2988 4.37329 14.166 4.56079C14.0332 4.74634 13.8496 4.89282 13.6152 5.00024C13.3809 5.10571 13.1191 5.15845 12.8301 5.15845ZM19.2725 4.22681H18.7158V0.35083H19.2725V4.22681ZM18.9121 1.44946H17.2744V1.00708H18.9121V1.44946ZM19.4072 5.49243H15.8506V5.03247H19.4072V5.49243ZM16.4131 5.24634H15.8506V3.89282H16.4131V5.24634ZM15.7598 3.19556H15.2031V0.711182H15.7598V3.19556ZM15.6074 3.01685C16.0254 3.01685 16.4131 3.00415 16.7705 2.97876C17.1279 2.95142 17.4941 2.90356 17.8691 2.83521L17.9219 3.28931C17.5371 3.36157 17.1641 3.41138 16.8027 3.43872C16.4414 3.46606 16.043 3.48071 15.6074 3.48267H15.2031V3.01685H15.6074ZM18.9121 2.44556H17.2744V2.00317H18.9121V2.44556Z" fill="#939393"/>
</svg>
