<svg width="28" height="7" viewBox="0 0 28 7" fill="none" xmlns="http://www.w3.org/2000/svg">
<path d="M0.779297 5.45312L2.49854 3.72021C2.70589 3.50602 2.8654 3.33285 2.97705 3.20068C3.0887 3.06852 3.17188 2.93864 3.22656 2.81104C3.28353 2.68115 3.31201 2.54671 3.31201 2.40771C3.31201 2.25049 3.27214 2.11149 3.19238 1.99072C3.11263 1.86995 3.00326 1.77653 2.86426 1.71045C2.72526 1.64437 2.56917 1.61133 2.396 1.61133C2.21598 1.61133 2.05762 1.64779 1.9209 1.7207C1.78646 1.79134 1.68164 1.89388 1.60645 2.02832C1.53353 2.16048 1.49707 2.31315 1.49707 2.48633H0.782715C0.782715 2.1901 0.852214 1.92806 0.991211 1.7002C1.13021 1.47233 1.32275 1.29574 1.56885 1.17041C1.81722 1.04508 2.09863 0.982422 2.41309 0.982422C2.72526 0.982422 3.00326 1.04395 3.24707 1.16699C3.49089 1.28776 3.68115 1.45524 3.81787 1.66943C3.95687 1.88135 4.02637 2.11947 4.02637 2.38379C4.02637 2.57292 3.99105 2.75521 3.92041 2.93066C3.84977 3.10612 3.73014 3.2998 3.56152 3.51172C3.3929 3.72363 3.15137 3.98454 2.83691 4.29443L1.82861 5.31641V5.354H4.1084V6H0.782715L0.779297 5.45312ZM6.66846 6.06836C6.28792 6.06836 5.96208 5.96924 5.69092 5.771C5.41976 5.57275 5.2124 5.28337 5.06885 4.90283C4.92529 4.5223 4.85352 4.06315 4.85352 3.52539C4.85352 2.99219 4.92529 2.53532 5.06885 2.15479C5.2124 1.77425 5.4209 1.48372 5.69434 1.2832C5.96777 1.08268 6.29248 0.982422 6.66846 0.982422C7.04443 0.982422 7.36914 1.08268 7.64258 1.2832C7.91602 1.48372 8.12451 1.77425 8.26807 2.15479C8.41162 2.53532 8.4834 2.99219 8.4834 3.52539C8.4834 4.06315 8.41162 4.5223 8.26807 4.90283C8.12679 5.28337 7.91943 5.57275 7.646 5.771C7.37484 5.96924 7.04899 6.06836 6.66846 6.06836ZM6.66846 5.42236C6.88949 5.42236 7.07975 5.34945 7.23926 5.20361C7.40104 5.05778 7.52409 4.84359 7.6084 4.56104C7.69271 4.2762 7.73372 3.93099 7.73145 3.52539C7.73145 3.11979 7.68929 2.77458 7.60498 2.48975C7.52067 2.20492 7.39876 1.98844 7.23926 1.84033C7.07975 1.69222 6.88949 1.61816 6.66846 1.61816C6.44743 1.61816 6.25716 1.69222 6.09766 1.84033C5.93815 1.98844 5.8151 2.20492 5.72852 2.48975C5.64193 2.77458 5.59863 3.11979 5.59863 3.52539C5.59863 3.93099 5.64079 4.2762 5.7251 4.56104C5.80941 4.84359 5.93245 5.05778 6.09424 5.20361C6.25602 5.34945 6.44743 5.42236 6.66846 5.42236ZM9.48828 3.39551C9.59993 3.27018 9.72412 3.17562 9.86084 3.11182C9.99756 3.04574 10.1434 3.0127 10.2983 3.0127C10.4146 3.0127 10.5273 3.02865 10.6367 3.06055C10.7484 3.09017 10.8931 3.13916 11.0708 3.20752C11.2326 3.27132 11.3693 3.32031 11.481 3.35449C11.5949 3.38867 11.7088 3.40576 11.8228 3.40576C11.98 3.40576 12.1258 3.37044 12.2603 3.2998C12.397 3.22917 12.5166 3.12663 12.6191 2.99219V3.64844C12.5075 3.77376 12.3833 3.86947 12.2466 3.93555C12.1099 4.00163 11.964 4.03467 11.8091 4.03467C11.6929 4.03467 11.5778 4.01758 11.4639 3.9834C11.3522 3.94922 11.2098 3.90023 11.0366 3.83643C10.8771 3.76807 10.7404 3.71794 10.6265 3.68604C10.5125 3.65413 10.3963 3.63818 10.2778 3.63818C10.1252 3.63818 9.98161 3.6735 9.84717 3.74414C9.71501 3.8125 9.59538 3.91504 9.48828 4.05176V3.39551ZM13.5146 5.45312L15.2339 3.72021C15.4412 3.50602 15.6007 3.33285 15.7124 3.20068C15.8241 3.06852 15.9072 2.93864 15.9619 2.81104C16.0189 2.68115 16.0474 2.54671 16.0474 2.40771C16.0474 2.25049 16.0075 2.11149 15.9277 1.99072C15.848 1.86995 15.7386 1.77653 15.5996 1.71045C15.4606 1.64437 15.3045 1.61133 15.1313 1.61133C14.9513 1.61133 14.793 1.64779 14.6562 1.7207C14.5218 1.79134 14.417 1.89388 14.3418 2.02832C14.2689 2.16048 14.2324 2.31315 14.2324 2.48633H13.5181C13.5181 2.1901 13.5876 1.92806 13.7266 1.7002C13.8656 1.47233 14.0581 1.29574 14.3042 1.17041C14.5526 1.04508 14.834 0.982422 15.1484 0.982422C15.4606 0.982422 15.7386 1.04395 15.9824 1.16699C16.2262 1.28776 16.4165 1.45524 16.5532 1.66943C16.6922 1.88135 16.7617 2.11947 16.7617 2.38379C16.7617 2.57292 16.7264 2.75521 16.6558 2.93066C16.5851 3.10612 16.4655 3.2998 16.2969 3.51172C16.1283 3.72363 15.8867 3.98454 15.5723 4.29443L14.564 5.31641V5.354H16.8438V6H13.5181L13.5146 5.45312ZM19.3833 0.982422C19.7183 0.982422 20.0247 1.05762 20.3027 1.20801C20.583 1.3584 20.8109 1.61019 20.9863 1.96338C21.1618 2.31429 21.2495 2.77686 21.2495 3.35107C21.2495 3.92074 21.1709 4.40951 21.0137 4.81738C20.8587 5.22298 20.6354 5.53288 20.3438 5.74707C20.0544 5.96126 19.7114 6.06836 19.3149 6.06836C19.0187 6.06836 18.7521 6.01025 18.5151 5.89404C18.2782 5.77555 18.0845 5.61377 17.9341 5.40869C17.7837 5.20361 17.6891 4.96777 17.6504 4.70117H18.3955C18.4297 4.84245 18.4878 4.96663 18.5698 5.07373C18.6519 5.17855 18.7555 5.26058 18.8809 5.31982C19.0085 5.37907 19.1532 5.40869 19.3149 5.40869C19.5679 5.40869 19.7855 5.33805 19.9678 5.19678C20.1501 5.05322 20.2891 4.84701 20.3848 4.57812C20.4827 4.30924 20.5317 3.98682 20.5317 3.61084H20.4702C20.3813 3.74984 20.272 3.86947 20.1421 3.96973C20.0122 4.06999 19.8675 4.14746 19.708 4.20215C19.5485 4.25456 19.381 4.28076 19.2056 4.28076C18.9139 4.28076 18.645 4.21126 18.3989 4.07227C18.1551 3.93099 17.9626 3.7373 17.8213 3.49121C17.68 3.24512 17.6082 2.96826 17.606 2.66064C17.606 2.34391 17.68 2.05794 17.8281 1.80273C17.9762 1.54753 18.1847 1.34587 18.4536 1.19775C18.7248 1.04964 19.0347 0.977865 19.3833 0.982422ZM19.3867 1.61133C19.1908 1.61133 19.013 1.65804 18.8535 1.75146C18.694 1.84489 18.5687 1.97135 18.4775 2.13086C18.3864 2.28809 18.3408 2.46012 18.3408 2.64697C18.3431 2.83382 18.3887 3.00586 18.4775 3.16309C18.5664 3.32031 18.6883 3.4445 18.8433 3.53564C19.0005 3.62679 19.1759 3.67236 19.3696 3.67236C19.5633 3.67236 19.741 3.62451 19.9028 3.52881C20.0669 3.43083 20.1956 3.30208 20.2891 3.14258C20.3848 2.98307 20.4326 2.81445 20.4326 2.63672C20.4326 2.45671 20.387 2.28809 20.2959 2.13086C20.2048 1.97363 20.0794 1.84831 19.9199 1.75488C19.7627 1.65918 19.585 1.61133 19.3867 1.61133ZM25.4126 3.14941H24.2642V2.60596H25.4126V3.14941ZM23.5771 2.15479C23.5771 2.59456 23.5213 3.01953 23.4097 3.42969C23.3003 3.83984 23.1385 4.20671 22.9243 4.53027C22.7101 4.85156 22.4526 5.10449 22.1519 5.28906L21.7451 4.80371C22.0254 4.63509 22.2658 4.41064 22.4663 4.13037C22.6668 3.84782 22.8172 3.53678 22.9175 3.19727C23.02 2.85775 23.0713 2.51025 23.0713 2.15479V1.01318H23.5771V2.15479ZM23.6968 2.12744C23.6968 2.46696 23.7435 2.7985 23.8369 3.12207C23.9303 3.44336 24.0693 3.73844 24.2539 4.00732C24.4408 4.2762 24.6652 4.49154 24.9272 4.65332L24.5649 5.15234C24.2687 4.97461 24.0192 4.72738 23.8164 4.41064C23.6136 4.09163 23.4609 3.7373 23.3584 3.34766C23.2581 2.95801 23.208 2.55127 23.208 2.12744V1.01318H23.6968V2.12744ZM27.1011 6.57764H26.4756V0.452637H27.1011V6.57764ZM25.8296 6.27686H25.2178V0.568848H25.8296V6.27686Z" fill="#939393"/>
</svg>
