<svg width="17" height="6" viewBox="0 0 17 6" fill="none" xmlns="http://www.w3.org/2000/svg">
<path d="M0.768555 4.53906L2.24219 3.05371C2.41992 2.87012 2.55664 2.72168 2.65234 2.6084C2.74805 2.49512 2.81934 2.38379 2.86621 2.27441C2.91504 2.16309 2.93945 2.04785 2.93945 1.92871C2.93945 1.79395 2.90527 1.6748 2.83691 1.57129C2.76855 1.46777 2.6748 1.3877 2.55566 1.33105C2.43652 1.27441 2.30273 1.24609 2.1543 1.24609C2 1.24609 1.86426 1.27734 1.74707 1.33984C1.63184 1.40039 1.54199 1.48828 1.47754 1.60352C1.41504 1.7168 1.38379 1.84766 1.38379 1.99609H0.771484C0.771484 1.74219 0.831055 1.51758 0.950195 1.32227C1.06934 1.12695 1.23438 0.975586 1.44531 0.868164C1.6582 0.760742 1.89941 0.707031 2.16895 0.707031C2.43652 0.707031 2.6748 0.759766 2.88379 0.865234C3.09277 0.96875 3.25586 1.1123 3.37305 1.2959C3.49219 1.47754 3.55176 1.68164 3.55176 1.9082C3.55176 2.07031 3.52148 2.22656 3.46094 2.37695C3.40039 2.52734 3.29785 2.69336 3.15332 2.875C3.00879 3.05664 2.80176 3.28027 2.53223 3.5459L1.66797 4.42188V4.4541H3.62207V5.00781H0.771484L0.768555 4.53906ZM4.15527 3.65723L6.02441 0.765625H6.43457V1.5332H6.16797L4.8291 3.59863V3.63379H7.40137V4.17871H4.15527V3.65723ZM6.21191 4.02344L6.21484 3.7832V0.765625H6.82715V5.00781H6.21191V4.02344ZM9.51367 0.707031C9.80078 0.707031 10.0635 0.771484 10.3018 0.900391C10.542 1.0293 10.7373 1.24512 10.8877 1.54785C11.0381 1.84863 11.1133 2.24512 11.1133 2.7373C11.1133 3.22559 11.0459 3.64453 10.9111 3.99414C10.7783 4.3418 10.5869 4.60742 10.3369 4.79102C10.0889 4.97461 9.79492 5.06641 9.45508 5.06641C9.20117 5.06641 8.97266 5.0166 8.76953 4.91699C8.56641 4.81543 8.40039 4.67676 8.27148 4.50098C8.14258 4.3252 8.06152 4.12305 8.02832 3.89453H8.66699C8.69629 4.01562 8.74609 4.12207 8.81641 4.21387C8.88672 4.30371 8.97559 4.37402 9.08301 4.4248C9.19238 4.47559 9.31641 4.50098 9.45508 4.50098C9.67188 4.50098 9.8584 4.44043 10.0146 4.31934C10.1709 4.19629 10.29 4.01953 10.3721 3.78906C10.4561 3.55859 10.498 3.28223 10.498 2.95996H10.4453C10.3691 3.0791 10.2754 3.18164 10.1641 3.26758C10.0527 3.35352 9.92871 3.41992 9.79199 3.4668C9.65527 3.51172 9.51172 3.53418 9.36133 3.53418C9.11133 3.53418 8.88086 3.47461 8.66992 3.35547C8.46094 3.23438 8.2959 3.06836 8.1748 2.85742C8.05371 2.64648 7.99219 2.40918 7.99023 2.14551C7.99023 1.87402 8.05371 1.62891 8.18066 1.41016C8.30762 1.19141 8.48633 1.01855 8.7168 0.891602C8.94922 0.764648 9.21484 0.703125 9.51367 0.707031ZM9.5166 1.24609C9.34863 1.24609 9.19629 1.28613 9.05957 1.36621C8.92285 1.44629 8.81543 1.55469 8.7373 1.69141C8.65918 1.82617 8.62012 1.97363 8.62012 2.13379C8.62207 2.29395 8.66113 2.44141 8.7373 2.57617C8.81348 2.71094 8.91797 2.81738 9.05078 2.89551C9.18555 2.97363 9.33594 3.0127 9.50195 3.0127C9.66797 3.0127 9.82031 2.97168 9.95898 2.88965C10.0996 2.80566 10.21 2.69531 10.29 2.55859C10.3721 2.42188 10.4131 2.27734 10.4131 2.125C10.4131 1.9707 10.374 1.82617 10.2959 1.69141C10.2178 1.55664 10.1104 1.44922 9.97363 1.36914C9.83887 1.28711 9.68652 1.24609 9.5166 1.24609ZM13.3574 1.50391C13.3574 1.82031 13.2979 2.11523 13.1787 2.38867C13.0596 2.66016 12.8896 2.89648 12.6689 3.09766C12.4482 3.29883 12.1865 3.4502 11.8838 3.55176L11.6113 3.11816C11.873 3.03223 12.1016 2.90723 12.2969 2.74316C12.4941 2.5791 12.6436 2.39062 12.7451 2.17773C12.8486 1.96289 12.9004 1.73828 12.9004 1.50391V1.25195H13.3574V1.50391ZM13.4482 1.50391C13.4482 1.72461 13.501 1.93555 13.6064 2.13672C13.7139 2.33594 13.8652 2.5127 14.0605 2.66699C14.2578 2.82129 14.4883 2.94043 14.752 3.02441L14.4795 3.46387C14.1787 3.37012 13.917 3.22656 13.6943 3.0332C13.4717 2.83984 13.2998 2.6123 13.1787 2.35059C13.0576 2.08691 12.9971 1.80469 12.9971 1.50391V1.25195H13.4482V1.50391ZM14.5938 1.37793H11.7578V0.932617H14.5938V1.37793ZM13.46 1.10547H12.9004V0.288086H13.46V1.10547ZM15.7188 2.30078H14.415V1.84961H15.7188V2.30078ZM15.9883 4.16992H15.4316V0.258789H15.9883V4.16992ZM16.1289 5.40039H12.5781V4.94043H16.1289V5.40039ZM13.1377 5.2041H12.5781V3.82422H13.1377V5.2041Z" fill="#939393"/>
</svg>
