<svg width="17" height="6" viewBox="0 0 17 6" fill="none" xmlns="http://www.w3.org/2000/svg">
<path d="M0.774414 4.50952L2.24805 3.02417C2.42578 2.84058 2.5625 2.69214 2.6582 2.57886C2.75391 2.46558 2.8252 2.35425 2.87207 2.24487C2.9209 2.13354 2.94531 2.01831 2.94531 1.89917C2.94531 1.7644 2.91113 1.64526 2.84277 1.54175C2.77441 1.43823 2.68066 1.35815 2.56152 1.30151C2.44238 1.24487 2.30859 1.21655 2.16016 1.21655C2.00586 1.21655 1.87012 1.2478 1.75293 1.3103C1.6377 1.37085 1.54785 1.45874 1.4834 1.57397C1.4209 1.68726 1.38965 1.81812 1.38965 1.96655H0.777344C0.777344 1.71265 0.836914 1.48804 0.956055 1.29272C1.0752 1.09741 1.24023 0.946045 1.45117 0.838623C1.66406 0.731201 1.90527 0.67749 2.1748 0.67749C2.44238 0.67749 2.68066 0.730225 2.88965 0.835693C3.09863 0.939209 3.26172 1.08276 3.37891 1.26636C3.49805 1.448 3.55762 1.6521 3.55762 1.87866C3.55762 2.04077 3.52734 2.19702 3.4668 2.34741C3.40625 2.4978 3.30371 2.66382 3.15918 2.84546C3.01465 3.0271 2.80762 3.25073 2.53809 3.51636L1.67383 4.39233V4.42456H3.62793V4.97827H0.777344L0.774414 4.50952ZM5.88086 5.03687C5.59375 5.03296 5.33008 4.96655 5.08984 4.83765C4.85156 4.70874 4.65625 4.49292 4.50391 4.19019C4.35352 3.88745 4.27832 3.48999 4.27832 2.9978C4.27832 2.51147 4.3457 2.09448 4.48047 1.74683C4.61523 1.39722 4.80664 1.13159 5.05469 0.949951C5.30273 0.768311 5.5957 0.67749 5.93359 0.67749C6.19141 0.67749 6.4209 0.727295 6.62207 0.826904C6.8252 0.924561 6.99023 1.06128 7.11719 1.23706C7.24609 1.41284 7.32715 1.61401 7.36035 1.84058H6.72168C6.69043 1.72144 6.63965 1.61694 6.56934 1.5271C6.50098 1.4353 6.41309 1.36499 6.30566 1.31616C6.19824 1.26733 6.07422 1.24292 5.93359 1.24292C5.7168 1.24292 5.53125 1.30347 5.37695 1.42456C5.22266 1.5437 5.10449 1.71753 5.02246 1.94604C4.94043 2.17456 4.89844 2.44897 4.89648 2.76929H4.94336C5.02148 2.65015 5.11523 2.54761 5.22461 2.46167C5.33594 2.37573 5.46094 2.3103 5.59961 2.26538C5.73828 2.21851 5.88281 2.19507 6.0332 2.19507C6.2832 2.19507 6.5127 2.25562 6.72168 2.37671C6.93262 2.49585 7.09766 2.66089 7.2168 2.87183C7.33789 3.08276 7.39844 3.32202 7.39844 3.5896C7.39844 3.86304 7.33496 4.11011 7.20801 4.33081C7.08105 4.55151 6.90234 4.72437 6.67188 4.84937C6.44141 4.97437 6.17773 5.03687 5.88086 5.03687ZM5.87793 4.4978C6.0459 4.4978 6.19727 4.45776 6.33203 4.37769C6.46875 4.29761 6.57617 4.18921 6.6543 4.05249C6.73438 3.91382 6.77441 3.7644 6.77441 3.60425C6.77441 3.43823 6.73633 3.28784 6.66016 3.15308C6.58398 3.01831 6.47852 2.91284 6.34375 2.83667C6.20898 2.75854 6.05664 2.71948 5.88672 2.71948C5.7207 2.71948 5.56836 2.7605 5.42969 2.84253C5.29102 2.92261 5.18066 3.03101 5.09863 3.16772C5.01855 3.30249 4.97656 3.44897 4.97266 3.60718C4.97461 3.76147 5.01465 3.90698 5.09277 4.0437C5.17285 4.18042 5.28125 4.29077 5.41797 4.37476C5.55469 4.45679 5.70801 4.4978 5.87793 4.4978ZM9.56055 5.03687C9.23438 5.03687 8.95508 4.9519 8.72266 4.78198C8.49023 4.61206 8.3125 4.36401 8.18945 4.03784C8.06641 3.71167 8.00488 3.31812 8.00488 2.85718C8.00488 2.40015 8.06641 2.00854 8.18945 1.68237C8.3125 1.3562 8.49121 1.10718 8.72559 0.935303C8.95996 0.763428 9.23828 0.67749 9.56055 0.67749C9.88281 0.67749 10.1611 0.763428 10.3955 0.935303C10.6299 1.10718 10.8086 1.3562 10.9316 1.68237C11.0547 2.00854 11.1162 2.40015 11.1162 2.85718C11.1162 3.31812 11.0547 3.71167 10.9316 4.03784C10.8105 4.36401 10.6328 4.61206 10.3984 4.78198C10.166 4.9519 9.88672 5.03687 9.56055 5.03687ZM9.56055 4.48315C9.75 4.48315 9.91309 4.42065 10.0498 4.29565C10.1885 4.17065 10.2939 3.98706 10.3662 3.74487C10.4385 3.50073 10.4736 3.20483 10.4717 2.85718C10.4717 2.50952 10.4355 2.21362 10.3633 1.96948C10.291 1.72534 10.1865 1.53979 10.0498 1.41284C9.91309 1.28589 9.75 1.22241 9.56055 1.22241C9.37109 1.22241 9.20801 1.28589 9.07129 1.41284C8.93457 1.53979 8.8291 1.72534 8.75488 1.96948C8.68066 2.21362 8.64355 2.50952 8.64355 2.85718C8.64355 3.20483 8.67969 3.50073 8.75195 3.74487C8.82422 3.98706 8.92969 4.17065 9.06836 4.29565C9.20703 4.42065 9.37109 4.48315 9.56055 4.48315ZM13.3516 1.47437C13.3516 1.79077 13.292 2.08569 13.1729 2.35913C13.0537 2.63062 12.8838 2.86694 12.6631 3.06812C12.4424 3.26929 12.1807 3.42065 11.8779 3.52222L11.6055 3.08862C11.8672 3.00269 12.0957 2.87769 12.291 2.71362C12.4883 2.54956 12.6377 2.36108 12.7393 2.14819C12.8428 1.93335 12.8945 1.70874 12.8945 1.47437V1.22241H13.3516V1.47437ZM13.4424 1.47437C13.4424 1.69507 13.4951 1.90601 13.6006 2.10718C13.708 2.3064 13.8594 2.48315 14.0547 2.63745C14.252 2.79175 14.4824 2.91089 14.7461 2.99487L14.4736 3.43433C14.1729 3.34058 13.9111 3.19702 13.6885 3.00366C13.4658 2.8103 13.2939 2.58276 13.1729 2.32104C13.0518 2.05737 12.9912 1.77515 12.9912 1.47437V1.22241H13.4424V1.47437ZM14.5879 1.34839H11.752V0.903076H14.5879V1.34839ZM13.4541 1.07593H12.8945V0.258545H13.4541V1.07593ZM15.7129 2.27124H14.4092V1.82007H15.7129V2.27124ZM15.9824 4.14038H15.4258V0.229248H15.9824V4.14038ZM16.123 5.37085H12.5723V4.91089H16.123V5.37085ZM13.1318 5.17456H12.5723V3.79468H13.1318V5.17456Z" fill="#939393"/>
</svg>
