<svg width="16" height="6" viewBox="0 0 16 6" fill="none" xmlns="http://www.w3.org/2000/svg">
<path d="M0.447266 4.99487L1.9209 3.50952C2.09863 3.32593 2.23535 3.17749 2.33105 3.06421C2.42676 2.95093 2.49805 2.8396 2.54492 2.73022C2.59375 2.6189 2.61816 2.50366 2.61816 2.38452C2.61816 2.24976 2.58398 2.13062 2.51562 2.0271C2.44727 1.92358 2.35352 1.84351 2.23438 1.78687C2.11523 1.73022 1.98145 1.7019 1.83301 1.7019C1.67871 1.7019 1.54297 1.73315 1.42578 1.79565C1.31055 1.8562 1.2207 1.94409 1.15625 2.05933C1.09375 2.17261 1.0625 2.30347 1.0625 2.4519H0.450195C0.450195 2.198 0.509766 1.97339 0.628906 1.77808C0.748047 1.58276 0.913086 1.4314 1.12402 1.32397C1.33691 1.21655 1.57812 1.16284 1.84766 1.16284C2.11523 1.16284 2.35352 1.21558 2.5625 1.32104C2.77148 1.42456 2.93457 1.56812 3.05176 1.75171C3.1709 1.93335 3.23047 2.13745 3.23047 2.36401C3.23047 2.52612 3.2002 2.68237 3.13965 2.83276C3.0791 2.98315 2.97656 3.14917 2.83203 3.33081C2.6875 3.51245 2.48047 3.73608 2.21094 4.00171L1.34668 4.87769V4.90991H3.30078V5.46362H0.450195L0.447266 4.99487ZM5.55371 5.52222C5.2666 5.51831 5.00293 5.4519 4.7627 5.323C4.52441 5.19409 4.3291 4.97827 4.17676 4.67554C4.02637 4.3728 3.95117 3.97534 3.95117 3.48315C3.95117 2.99683 4.01855 2.57983 4.15332 2.23218C4.28809 1.88257 4.47949 1.61694 4.72754 1.4353C4.97559 1.25366 5.26855 1.16284 5.60645 1.16284C5.86426 1.16284 6.09375 1.21265 6.29492 1.31226C6.49805 1.40991 6.66309 1.54663 6.79004 1.72241C6.91895 1.89819 7 2.09937 7.0332 2.32593H6.39453C6.36328 2.20679 6.3125 2.10229 6.24219 2.01245C6.17383 1.92065 6.08594 1.85034 5.97852 1.80151C5.87109 1.75269 5.74707 1.72827 5.60645 1.72827C5.38965 1.72827 5.2041 1.78882 5.0498 1.90991C4.89551 2.02905 4.77734 2.20288 4.69531 2.4314C4.61328 2.65991 4.57129 2.93433 4.56934 3.25464H4.61621C4.69434 3.1355 4.78809 3.03296 4.89746 2.94702C5.00879 2.86108 5.13379 2.79565 5.27246 2.75073C5.41113 2.70386 5.55566 2.68042 5.70605 2.68042C5.95605 2.68042 6.18555 2.74097 6.39453 2.86206C6.60547 2.9812 6.77051 3.14624 6.88965 3.35718C7.01074 3.56812 7.07129 3.80737 7.07129 4.07495C7.07129 4.34839 7.00781 4.59546 6.88086 4.81616C6.75391 5.03687 6.5752 5.20972 6.34473 5.33472C6.11426 5.45972 5.85059 5.52222 5.55371 5.52222ZM5.55078 4.98315C5.71875 4.98315 5.87012 4.94312 6.00488 4.86304C6.1416 4.78296 6.24902 4.67456 6.32715 4.53784C6.40723 4.39917 6.44727 4.24976 6.44727 4.0896C6.44727 3.92358 6.40918 3.77319 6.33301 3.63843C6.25684 3.50366 6.15137 3.39819 6.0166 3.32202C5.88184 3.2439 5.72949 3.20483 5.55957 3.20483C5.39355 3.20483 5.24121 3.24585 5.10254 3.32788C4.96387 3.40796 4.85352 3.51636 4.77148 3.65308C4.69141 3.78784 4.64941 3.93433 4.64551 4.09253C4.64746 4.24683 4.6875 4.39233 4.76562 4.52905C4.8457 4.66577 4.9541 4.77612 5.09082 4.86011C5.22754 4.94214 5.38086 4.98315 5.55078 4.98315ZM9.7959 1.80444V1.77515H7.60742V1.22144H10.4639V1.79565L8.57422 5.46362H7.90332L9.7959 1.80444ZM12.6787 1.95972C12.6787 2.27612 12.6191 2.57104 12.5 2.84448C12.3809 3.11597 12.2109 3.35229 11.9902 3.55347C11.7695 3.75464 11.5078 3.90601 11.2051 4.00757L10.9326 3.57397C11.1943 3.48804 11.4229 3.36304 11.6182 3.19897C11.8154 3.03491 11.9648 2.84644 12.0664 2.63354C12.1699 2.4187 12.2217 2.19409 12.2217 1.95972V1.70776H12.6787V1.95972ZM12.7695 1.95972C12.7695 2.18042 12.8223 2.39136 12.9277 2.59253C13.0352 2.79175 13.1865 2.96851 13.3818 3.1228C13.5791 3.2771 13.8096 3.39624 14.0732 3.48022L13.8008 3.91968C13.5 3.82593 13.2383 3.68237 13.0156 3.48901C12.793 3.29565 12.6211 3.06812 12.5 2.8064C12.3789 2.54272 12.3184 2.2605 12.3184 1.95972V1.70776H12.7695V1.95972ZM13.915 1.83374H11.0791V1.38843H13.915V1.83374ZM12.7812 1.56128H12.2217V0.743896H12.7812V1.56128ZM15.04 2.75659H13.7363V2.30542H15.04V2.75659ZM15.3096 4.62573H14.7529V0.7146H15.3096V4.62573ZM15.4502 5.8562H11.8994V5.39624H15.4502V5.8562ZM12.459 5.65991H11.8994V4.28003H12.459V5.65991Z" fill="#939393"/>
</svg>
