<svg width="17" height="7" viewBox="0 0 17 7" fill="none" xmlns="http://www.w3.org/2000/svg">
<path d="M0.856445 5.20801L2.33008 3.72266C2.50781 3.53906 2.64453 3.39062 2.74023 3.27734C2.83594 3.16406 2.90723 3.05273 2.9541 2.94336C3.00293 2.83203 3.02734 2.7168 3.02734 2.59766C3.02734 2.46289 2.99316 2.34375 2.9248 2.24023C2.85645 2.13672 2.7627 2.05664 2.64355 2C2.52441 1.94336 2.39062 1.91504 2.24219 1.91504C2.08789 1.91504 1.95215 1.94629 1.83496 2.00879C1.71973 2.06934 1.62988 2.15723 1.56543 2.27246C1.50293 2.38574 1.47168 2.5166 1.47168 2.66504H0.859375C0.859375 2.41113 0.918945 2.18652 1.03809 1.99121C1.15723 1.7959 1.32227 1.64453 1.5332 1.53711C1.74609 1.42969 1.9873 1.37598 2.25684 1.37598C2.52441 1.37598 2.7627 1.42871 2.97168 1.53418C3.18066 1.6377 3.34375 1.78125 3.46094 1.96484C3.58008 2.14648 3.63965 2.35059 3.63965 2.57715C3.63965 2.73926 3.60938 2.89551 3.54883 3.0459C3.48828 3.19629 3.38574 3.3623 3.24121 3.54395C3.09668 3.72559 2.88965 3.94922 2.62012 4.21484L1.75586 5.09082V5.12305H3.70996V5.67676H0.859375L0.856445 5.20801ZM5.90723 5.73535C5.60645 5.73535 5.33691 5.68457 5.09863 5.58301C4.8623 5.47949 4.67773 5.33789 4.54492 5.1582C4.41406 4.97656 4.34863 4.77246 4.34863 4.5459C4.34863 4.36816 4.38672 4.20215 4.46289 4.04785C4.54102 3.89355 4.64746 3.7666 4.78223 3.66699C4.91895 3.56543 5.06934 3.50293 5.2334 3.47949V3.45312C5.09277 3.41992 4.96777 3.3584 4.8584 3.26855C4.74902 3.17871 4.66309 3.06738 4.60059 2.93457C4.54004 2.80176 4.50977 2.65918 4.50977 2.50684C4.50977 2.29199 4.57031 2.09863 4.69141 1.92676C4.81445 1.75293 4.98145 1.61816 5.19238 1.52246C5.40527 1.4248 5.64355 1.37598 5.90723 1.37598C6.1709 1.37598 6.40918 1.4248 6.62207 1.52246C6.83496 1.61816 7.00195 1.75293 7.12305 1.92676C7.24609 2.09863 7.30762 2.29199 7.30762 2.50684C7.30762 2.65918 7.27539 2.80176 7.21094 2.93457C7.14844 3.06738 7.0625 3.17871 6.95312 3.26855C6.8457 3.3584 6.7207 3.41992 6.57812 3.45312V3.47949C6.74414 3.50293 6.89355 3.56543 7.02637 3.66699C7.16113 3.7666 7.26855 3.89355 7.34863 4.04785C7.42871 4.20215 7.46875 4.36816 7.46875 4.5459C7.46875 4.77246 7.40137 4.97656 7.2666 5.1582C7.13379 5.33789 6.94922 5.47949 6.71289 5.58301C6.47656 5.68457 6.20801 5.73535 5.90723 5.73535ZM5.90723 5.20215C6.08887 5.20215 6.24805 5.17285 6.38477 5.11426C6.52148 5.05566 6.62695 4.97266 6.70117 4.86523C6.77539 4.75781 6.8125 4.63574 6.8125 4.49902C6.8125 4.35254 6.77344 4.22266 6.69531 4.10938C6.61719 3.99414 6.50879 3.9043 6.37012 3.83984C6.2334 3.77344 6.0791 3.74023 5.90723 3.74023C5.73535 3.74023 5.58008 3.77344 5.44141 3.83984C5.30273 3.9043 5.19434 3.99414 5.11621 4.10938C5.04004 4.22266 5.00391 4.35254 5.00781 4.49902C5.00391 4.63574 5.03906 4.75781 5.11328 4.86523C5.1875 4.97266 5.29297 5.05566 5.42969 5.11426C5.56641 5.17285 5.72559 5.20215 5.90723 5.20215ZM5.90723 3.23633C6.05371 3.23633 6.18555 3.20801 6.30273 3.15137C6.42188 3.09473 6.51367 3.01562 6.57812 2.91406C6.64258 2.81055 6.6748 2.69434 6.6748 2.56543C6.6748 2.43457 6.64258 2.31934 6.57812 2.21973C6.51562 2.11816 6.42578 2.04004 6.30859 1.98535C6.19141 1.93066 6.05762 1.90332 5.90723 1.90332C5.75684 1.90332 5.62207 1.93066 5.50293 1.98535C5.38574 2.04004 5.29492 2.11816 5.23047 2.21973C5.16797 2.31934 5.13672 2.43457 5.13672 2.56543C5.13672 2.69434 5.16992 2.81055 5.23633 2.91406C5.30469 3.01562 5.39648 3.09473 5.51172 3.15137C5.62695 3.20801 5.75879 3.23633 5.90723 3.23633ZM8.13379 5.20801L9.60742 3.72266C9.78516 3.53906 9.92188 3.39062 10.0176 3.27734C10.1133 3.16406 10.1846 3.05273 10.2314 2.94336C10.2803 2.83203 10.3047 2.7168 10.3047 2.59766C10.3047 2.46289 10.2705 2.34375 10.2021 2.24023C10.1338 2.13672 10.04 2.05664 9.9209 2C9.80176 1.94336 9.66797 1.91504 9.51953 1.91504C9.36523 1.91504 9.22949 1.94629 9.1123 2.00879C8.99707 2.06934 8.90723 2.15723 8.84277 2.27246C8.78027 2.38574 8.74902 2.5166 8.74902 2.66504H8.13672C8.13672 2.41113 8.19629 2.18652 8.31543 1.99121C8.43457 1.7959 8.59961 1.64453 8.81055 1.53711C9.02344 1.42969 9.26465 1.37598 9.53418 1.37598C9.80176 1.37598 10.04 1.42871 10.249 1.53418C10.458 1.6377 10.6211 1.78125 10.7383 1.96484C10.8574 2.14648 10.917 2.35059 10.917 2.57715C10.917 2.73926 10.8867 2.89551 10.8262 3.0459C10.7656 3.19629 10.6631 3.3623 10.5186 3.54395C10.374 3.72559 10.167 3.94922 9.89746 4.21484L9.0332 5.09082V5.12305H10.9873V5.67676H8.13672L8.13379 5.20801ZM13.2695 2.17285C13.2695 2.48926 13.21 2.78418 13.0908 3.05762C12.9717 3.3291 12.8018 3.56543 12.5811 3.7666C12.3604 3.96777 12.0986 4.11914 11.7959 4.2207L11.5234 3.78711C11.7852 3.70117 12.0137 3.57617 12.209 3.41211C12.4062 3.24805 12.5557 3.05957 12.6572 2.84668C12.7607 2.63184 12.8125 2.40723 12.8125 2.17285V1.9209H13.2695V2.17285ZM13.3604 2.17285C13.3604 2.39355 13.4131 2.60449 13.5186 2.80566C13.626 3.00488 13.7773 3.18164 13.9727 3.33594C14.1699 3.49023 14.4004 3.60938 14.6641 3.69336L14.3916 4.13281C14.0908 4.03906 13.8291 3.89551 13.6064 3.70215C13.3838 3.50879 13.2119 3.28125 13.0908 3.01953C12.9697 2.75586 12.9092 2.47363 12.9092 2.17285V1.9209H13.3604V2.17285ZM14.5059 2.04688H11.6699V1.60156H14.5059V2.04688ZM13.3721 1.77441H12.8125V0.957031H13.3721V1.77441ZM15.6309 2.96973H14.3271V2.51855H15.6309V2.96973ZM15.9004 4.83887H15.3438V0.927734H15.9004V4.83887ZM16.041 6.06934H12.4902V5.60938H16.041V6.06934ZM13.0498 5.87305H12.4902V4.49316H13.0498V5.87305Z" fill="#939393"/>
</svg>
