<svg width="17" height="7" viewBox="0 0 17 7" fill="none" xmlns="http://www.w3.org/2000/svg">
<path d="M0.756836 5.17871L2.23047 3.69336C2.4082 3.50977 2.54492 3.36133 2.64062 3.24805C2.73633 3.13477 2.80762 3.02344 2.85449 2.91406C2.90332 2.80273 2.92773 2.6875 2.92773 2.56836C2.92773 2.43359 2.89355 2.31445 2.8252 2.21094C2.75684 2.10742 2.66309 2.02734 2.54395 1.9707C2.4248 1.91406 2.29102 1.88574 2.14258 1.88574C1.98828 1.88574 1.85254 1.91699 1.73535 1.97949C1.62012 2.04004 1.53027 2.12793 1.46582 2.24316C1.40332 2.35645 1.37207 2.4873 1.37207 2.63574H0.759766C0.759766 2.38184 0.819336 2.15723 0.938477 1.96191C1.05762 1.7666 1.22266 1.61523 1.43359 1.50781C1.64648 1.40039 1.8877 1.34668 2.15723 1.34668C2.4248 1.34668 2.66309 1.39941 2.87207 1.50488C3.08105 1.6084 3.24414 1.75195 3.36133 1.93555C3.48047 2.11719 3.54004 2.32129 3.54004 2.54785C3.54004 2.70996 3.50977 2.86621 3.44922 3.0166C3.38867 3.16699 3.28613 3.33301 3.1416 3.51465C2.99707 3.69629 2.79004 3.91992 2.52051 4.18555L1.65625 5.06152V5.09375H3.61035V5.64746H0.759766L0.756836 5.17871ZM5.78711 1.34668C6.07422 1.34668 6.33691 1.41113 6.5752 1.54004C6.81543 1.66895 7.01074 1.88477 7.16113 2.1875C7.31152 2.48828 7.38672 2.88477 7.38672 3.37695C7.38672 3.86523 7.31934 4.28418 7.18457 4.63379C7.05176 4.98145 6.86035 5.24707 6.61035 5.43066C6.3623 5.61426 6.06836 5.70605 5.72852 5.70605C5.47461 5.70605 5.24609 5.65625 5.04297 5.55664C4.83984 5.45508 4.67383 5.31641 4.54492 5.14062C4.41602 4.96484 4.33496 4.7627 4.30176 4.53418H4.94043C4.96973 4.65527 5.01953 4.76172 5.08984 4.85352C5.16016 4.94336 5.24902 5.01367 5.35645 5.06445C5.46582 5.11523 5.58984 5.14062 5.72852 5.14062C5.94531 5.14062 6.13184 5.08008 6.28809 4.95898C6.44434 4.83594 6.56348 4.65918 6.64551 4.42871C6.72949 4.19824 6.77148 3.92188 6.77148 3.59961H6.71875C6.64258 3.71875 6.54883 3.82129 6.4375 3.90723C6.32617 3.99316 6.20215 4.05957 6.06543 4.10645C5.92871 4.15137 5.78516 4.17383 5.63477 4.17383C5.38477 4.17383 5.1543 4.11426 4.94336 3.99512C4.73438 3.87402 4.56934 3.70801 4.44824 3.49707C4.32715 3.28613 4.26562 3.04883 4.26367 2.78516C4.26367 2.51367 4.32715 2.26855 4.4541 2.0498C4.58105 1.83105 4.75977 1.6582 4.99023 1.53125C5.22266 1.4043 5.48828 1.34277 5.78711 1.34668ZM5.79004 1.88574C5.62207 1.88574 5.46973 1.92578 5.33301 2.00586C5.19629 2.08594 5.08887 2.19434 5.01074 2.33105C4.93262 2.46582 4.89355 2.61328 4.89355 2.77344C4.89551 2.93359 4.93457 3.08105 5.01074 3.21582C5.08691 3.35059 5.19141 3.45703 5.32422 3.53516C5.45898 3.61328 5.60938 3.65234 5.77539 3.65234C5.94141 3.65234 6.09375 3.61133 6.23242 3.5293C6.37305 3.44531 6.4834 3.33496 6.56348 3.19824C6.64551 3.06152 6.68652 2.91699 6.68652 2.76465C6.68652 2.61035 6.64746 2.46582 6.56934 2.33105C6.49121 2.19629 6.38379 2.08887 6.24707 2.00879C6.1123 1.92676 5.95996 1.88574 5.79004 1.88574ZM9.60156 5.70605C9.31445 5.70215 9.05078 5.63574 8.81055 5.50684C8.57227 5.37793 8.37695 5.16211 8.22461 4.85938C8.07422 4.55664 7.99902 4.15918 7.99902 3.66699C7.99902 3.18066 8.06641 2.76367 8.20117 2.41602C8.33594 2.06641 8.52734 1.80078 8.77539 1.61914C9.02344 1.4375 9.31641 1.34668 9.6543 1.34668C9.91211 1.34668 10.1416 1.39648 10.3428 1.49609C10.5459 1.59375 10.7109 1.73047 10.8379 1.90625C10.9668 2.08203 11.0479 2.2832 11.0811 2.50977H10.4424C10.4111 2.39062 10.3604 2.28613 10.29 2.19629C10.2217 2.10449 10.1338 2.03418 10.0264 1.98535C9.91895 1.93652 9.79492 1.91211 9.6543 1.91211C9.4375 1.91211 9.25195 1.97266 9.09766 2.09375C8.94336 2.21289 8.8252 2.38672 8.74316 2.61523C8.66113 2.84375 8.61914 3.11816 8.61719 3.43848H8.66406C8.74219 3.31934 8.83594 3.2168 8.94531 3.13086C9.05664 3.04492 9.18164 2.97949 9.32031 2.93457C9.45898 2.8877 9.60352 2.86426 9.75391 2.86426C10.0039 2.86426 10.2334 2.9248 10.4424 3.0459C10.6533 3.16504 10.8184 3.33008 10.9375 3.54102C11.0586 3.75195 11.1191 3.99121 11.1191 4.25879C11.1191 4.53223 11.0557 4.7793 10.9287 5C10.8018 5.2207 10.623 5.39355 10.3926 5.51855C10.1621 5.64355 9.89844 5.70605 9.60156 5.70605ZM9.59863 5.16699C9.7666 5.16699 9.91797 5.12695 10.0527 5.04688C10.1895 4.9668 10.2969 4.8584 10.375 4.72168C10.4551 4.58301 10.4951 4.43359 10.4951 4.27344C10.4951 4.10742 10.457 3.95703 10.3809 3.82227C10.3047 3.6875 10.1992 3.58203 10.0645 3.50586C9.92969 3.42773 9.77734 3.38867 9.60742 3.38867C9.44141 3.38867 9.28906 3.42969 9.15039 3.51172C9.01172 3.5918 8.90137 3.7002 8.81934 3.83691C8.73926 3.97168 8.69727 4.11816 8.69336 4.27637C8.69531 4.43066 8.73535 4.57617 8.81348 4.71289C8.89355 4.84961 9.00195 4.95996 9.13867 5.04395C9.27539 5.12598 9.42871 5.16699 9.59863 5.16699ZM13.3691 2.14355C13.3691 2.45996 13.3096 2.75488 13.1904 3.02832C13.0713 3.2998 12.9014 3.53613 12.6807 3.7373C12.46 3.93848 12.1982 4.08984 11.8955 4.19141L11.623 3.75781C11.8848 3.67188 12.1133 3.54688 12.3086 3.38281C12.5059 3.21875 12.6553 3.03027 12.7568 2.81738C12.8604 2.60254 12.9121 2.37793 12.9121 2.14355V1.8916H13.3691V2.14355ZM13.46 2.14355C13.46 2.36426 13.5127 2.5752 13.6182 2.77637C13.7256 2.97559 13.877 3.15234 14.0723 3.30664C14.2695 3.46094 14.5 3.58008 14.7637 3.66406L14.4912 4.10352C14.1904 4.00977 13.9287 3.86621 13.7061 3.67285C13.4834 3.47949 13.3115 3.25195 13.1904 2.99023C13.0693 2.72656 13.0088 2.44434 13.0088 2.14355V1.8916H13.46V2.14355ZM14.6055 2.01758H11.7695V1.57227H14.6055V2.01758ZM13.4717 1.74512H12.9121V0.927734H13.4717V1.74512ZM15.7305 2.94043H14.4268V2.48926H15.7305V2.94043ZM16 4.80957H15.4434V0.898438H16V4.80957ZM16.1406 6.04004H12.5898V5.58008H16.1406V6.04004ZM13.1494 5.84375H12.5898V4.46387H13.1494V5.84375Z" fill="#939393"/>
</svg>
