<svg width="93" height="23" viewBox="0 0 93 23" fill="none" xmlns="http://www.w3.org/2000/svg">
<path d="M0.3125 17.457L6.41797 11.8438C7.01953 11.2656 7.48828 10.7891 7.82422 10.4141C8.16016 10.0312 8.41406 9.64844 8.58594 9.26562C8.76562 8.875 8.85547 8.46094 8.85547 8.02344C8.85547 7.53906 8.73828 7.11328 8.50391 6.74609C8.26953 6.37109 7.94922 6.08594 7.54297 5.89062C7.13672 5.69531 6.67578 5.59766 6.16016 5.59766C5.63672 5.59766 5.17188 5.70312 4.76562 5.91406C4.36719 6.125 4.05859 6.43359 3.83984 6.83984C3.62891 7.23828 3.52344 7.70312 3.52344 8.23438H0.171875C0.171875 7.14844 0.421875 6.19531 0.921875 5.375C1.42969 4.54687 2.13672 3.91016 3.04297 3.46484C3.95703 3.01953 5.00781 2.79688 6.19531 2.79688C7.39062 2.79688 8.44531 3.00781 9.35938 3.42969C10.2734 3.85156 10.9805 4.44141 11.4805 5.19922C11.9883 5.95703 12.2422 6.82422 12.2422 7.80078C12.2422 8.46484 12.1133 9.10547 11.8555 9.72266C11.6055 10.3398 11.1602 11.0234 10.5195 11.7734C9.88672 12.5234 8.98438 13.4297 7.8125 14.4922L5.22266 16.9883V17.1055H12.4883V20H0.324219L0.3125 17.457ZM32.1997 22.1562H29.3169V0.804688H32.1997V22.1562ZM30.1841 11.3047H26.5513V8.90234H30.1841V11.3047ZM23.0825 3.46484C23.0825 5.55078 22.8403 7.45312 22.3559 9.17188C21.8716 10.8828 21.0552 12.4648 19.9067 13.918C18.7661 15.3633 17.2231 16.6445 15.2778 17.7617L13.5434 15.7109C15.1763 14.7578 16.4809 13.707 17.4575 12.5586C18.4341 11.4023 19.1411 10.1328 19.5786 8.75C20.0161 7.35938 20.2348 5.79297 20.2348 4.05078V3.46484H23.0825ZM21.102 5.84375H14.6216V3.46484H21.102V5.84375ZM27.3716 21.207H24.5825V1.36719H27.3716V21.207ZM40.7436 10.6953C41.1342 10.2812 41.5756 9.96484 42.0678 9.74609C42.56 9.52734 43.0795 9.41797 43.6264 9.41797C44.0561 9.41797 44.4584 9.46875 44.8334 9.57031C45.2163 9.67188 45.7319 9.83984 46.3803 10.0742C46.9584 10.293 47.4506 10.4609 47.8569 10.5781C48.2631 10.6875 48.6811 10.7422 49.1108 10.7422C49.6655 10.7422 50.185 10.6328 50.6694 10.4141C51.1538 10.1953 51.5834 9.87891 51.9584 9.46484V12.3125C51.56 12.7266 51.1147 13.0469 50.6225 13.2734C50.1381 13.4922 49.6147 13.6016 49.0522 13.6016C48.6303 13.6016 48.2163 13.5469 47.81 13.4375C47.4116 13.3203 46.9077 13.1523 46.2983 12.9336C45.7358 12.707 45.2475 12.5391 44.8334 12.4297C44.4272 12.3203 44.0053 12.2656 43.5678 12.2656C43.0209 12.2656 42.5092 12.375 42.0327 12.5938C41.5561 12.8047 41.1264 13.1289 40.7436 13.5664V10.6953ZM66.4086 20.2344C65.1742 20.2344 64.0687 20.0234 63.0922 19.6016C62.1156 19.1797 61.35 18.5859 60.7953 17.8203C60.2484 17.0547 59.9633 16.1875 59.9398 15.2188H63.4906C63.5141 15.6172 63.6547 15.9766 63.9125 16.2969C64.1703 16.6172 64.518 16.8672 64.9555 17.0469C65.393 17.2266 65.8773 17.3164 66.4086 17.3164C66.9633 17.3164 67.4633 17.2188 67.9086 17.0234C68.3617 16.8203 68.7094 16.5469 68.9516 16.2031C69.1937 15.8516 69.3109 15.4531 69.3031 15.0078C69.3109 14.5469 69.1859 14.1367 68.9281 13.7773C68.6703 13.418 68.2953 13.1406 67.8031 12.9453C67.3187 12.7422 66.7484 12.6406 66.0922 12.6406H64.5102V10.0391H66.0922C66.6469 10.0391 67.143 9.94531 67.5805 9.75781C68.018 9.5625 68.3539 9.29297 68.5883 8.94922C68.8227 8.60547 68.9359 8.21484 68.9281 7.77734C68.9359 7.34766 68.8383 6.96875 68.6352 6.64062C68.432 6.30469 68.1391 6.04688 67.7562 5.86719C67.3734 5.6875 66.9359 5.59766 66.4437 5.59766C65.9437 5.59766 65.4867 5.6875 65.0727 5.86719C64.6586 6.03906 64.3227 6.28906 64.0648 6.61719C63.8148 6.9375 63.6781 7.3125 63.6547 7.74219H60.2797C60.3109 6.78125 60.5961 5.92578 61.1352 5.17578C61.6742 4.42578 62.4047 3.84375 63.3266 3.42969C64.2562 3.00781 65.2953 2.79688 66.4437 2.79688C67.6078 2.79688 68.6352 3.00391 69.5258 3.41797C70.4164 3.83203 71.1078 4.40234 71.6 5.12891C72.0922 5.85547 72.3305 6.66797 72.3148 7.56641C72.3305 8.18359 72.2016 8.74609 71.9281 9.25391C71.6625 9.76172 71.2836 10.1797 70.7914 10.5078C70.307 10.8281 69.7445 11.0469 69.1039 11.1641V11.293C69.932 11.3945 70.6352 11.625 71.2133 11.9844C71.7992 12.3359 72.2406 12.7891 72.5375 13.3438C72.8344 13.8984 72.975 14.5312 72.9594 15.2422C72.975 16.1875 72.7016 17.043 72.1391 17.8086C71.5766 18.5664 70.7953 19.1602 69.7953 19.5898C68.7953 20.0195 67.6664 20.2344 66.4086 20.2344ZM92.6825 22.1562H89.7997V0.804688H92.6825V22.1562ZM90.6669 11.3047H87.0341V8.90234H90.6669V11.3047ZM83.5653 3.46484C83.5653 5.55078 83.3231 7.45312 82.8388 9.17188C82.3544 10.8828 81.538 12.4648 80.3895 13.918C79.2489 15.3633 77.7059 16.6445 75.7606 17.7617L74.0263 15.7109C75.6591 14.7578 76.9638 13.707 77.9403 12.5586C78.9169 11.4023 79.6239 10.1328 80.0614 8.75C80.4989 7.35938 80.7177 5.79297 80.7177 4.05078V3.46484H83.5653ZM81.5848 5.84375H75.1044V3.46484H81.5848V5.84375ZM87.8544 21.207H85.0653V1.36719H87.8544V21.207Z" fill="white"/>
</svg>
