<svg width="28" height="7" viewBox="0 0 28 7" fill="none" xmlns="http://www.w3.org/2000/svg">
<path d="M2.25586 6.06836C1.9209 6.06836 1.62012 6.01139 1.35352 5.89746C1.08691 5.78353 0.877279 5.62402 0.724609 5.41895C0.57194 5.21159 0.489909 4.97347 0.478516 4.70459H1.2373C1.2487 4.84359 1.29997 4.96777 1.39111 5.07715C1.48226 5.18652 1.60303 5.27083 1.75342 5.33008C1.90381 5.38932 2.07015 5.41895 2.25244 5.41895C2.4484 5.41895 2.62614 5.38477 2.78564 5.31641C2.94515 5.24577 3.0682 5.1512 3.15479 5.03271C3.24137 4.91195 3.28467 4.77295 3.28467 4.61572C3.28467 4.44938 3.24137 4.30241 3.15479 4.1748C3.0682 4.0472 2.94059 3.94808 2.77197 3.87744C2.60563 3.8068 2.40511 3.77148 2.17041 3.77148H1.74658V3.15967H2.17041C2.35726 3.15967 2.5236 3.12663 2.66943 3.06055C2.81527 2.99447 2.92806 2.90218 3.00781 2.78369C3.08757 2.6652 3.1263 2.52848 3.12402 2.37354C3.1263 2.22314 3.09212 2.08984 3.02148 1.97363C2.95085 1.85742 2.85059 1.76855 2.7207 1.70703C2.59082 1.64323 2.44043 1.61133 2.26953 1.61133C2.10091 1.61133 1.94482 1.64095 1.80127 1.7002C1.65771 1.75944 1.54036 1.84375 1.44922 1.95312C1.36035 2.0625 1.3125 2.19124 1.30566 2.33936H0.581055C0.592448 2.07503 0.67334 1.84033 0.82373 1.63525C0.9764 1.4279 1.1792 1.26725 1.43213 1.15332C1.68734 1.03939 1.96761 0.982422 2.27295 0.982422C2.58968 0.982422 2.86768 1.04281 3.10693 1.16357C3.34847 1.28206 3.53418 1.44385 3.66406 1.64893C3.79395 1.854 3.85661 2.08073 3.85205 2.3291C3.85661 2.51139 3.82243 2.67887 3.74951 2.83154C3.67887 2.98193 3.57633 3.1084 3.44189 3.21094C3.30973 3.3112 3.15479 3.38298 2.97705 3.42627V3.46387C3.20036 3.49349 3.39176 3.56299 3.55127 3.67236C3.71305 3.77946 3.8361 3.91504 3.92041 4.0791C4.00472 4.24316 4.0446 4.43001 4.04004 4.63965C4.0446 4.90853 3.9694 5.15234 3.81445 5.37109C3.65951 5.58757 3.44531 5.75846 3.17188 5.88379C2.89844 6.00684 2.5931 6.06836 2.25586 6.06836ZM6.6001 6.06836C6.21956 6.06836 5.89372 5.96924 5.62256 5.771C5.3514 5.57275 5.14404 5.28337 5.00049 4.90283C4.85693 4.5223 4.78516 4.06315 4.78516 3.52539C4.78516 2.99219 4.85693 2.53532 5.00049 2.15479C5.14404 1.77425 5.35254 1.48372 5.62598 1.2832C5.89941 1.08268 6.22412 0.982422 6.6001 0.982422C6.97607 0.982422 7.30078 1.08268 7.57422 1.2832C7.84766 1.48372 8.05615 1.77425 8.19971 2.15479C8.34326 2.53532 8.41504 2.99219 8.41504 3.52539C8.41504 4.06315 8.34326 4.5223 8.19971 4.90283C8.05843 5.28337 7.85107 5.57275 7.57764 5.771C7.30648 5.96924 6.98063 6.06836 6.6001 6.06836ZM6.6001 5.42236C6.82113 5.42236 7.01139 5.34945 7.1709 5.20361C7.33268 5.05778 7.45573 4.84359 7.54004 4.56104C7.62435 4.2762 7.66536 3.93099 7.66309 3.52539C7.66309 3.11979 7.62093 2.77458 7.53662 2.48975C7.45231 2.20492 7.3304 1.98844 7.1709 1.84033C7.01139 1.69222 6.82113 1.61816 6.6001 1.61816C6.37907 1.61816 6.1888 1.69222 6.0293 1.84033C5.86979 1.98844 5.74674 2.20492 5.66016 2.48975C5.57357 2.77458 5.53027 3.11979 5.53027 3.52539C5.53027 3.93099 5.57243 4.2762 5.65674 4.56104C5.74105 4.84359 5.8641 5.05778 6.02588 5.20361C6.18766 5.34945 6.37907 5.42236 6.6001 5.42236ZM9.41992 3.39551C9.53158 3.27018 9.65576 3.17562 9.79248 3.11182C9.9292 3.04574 10.075 3.0127 10.23 3.0127C10.3462 3.0127 10.459 3.02865 10.5684 3.06055C10.68 3.09017 10.8247 3.13916 11.0024 3.20752C11.1642 3.27132 11.3009 3.32031 11.4126 3.35449C11.5265 3.38867 11.6405 3.40576 11.7544 3.40576C11.9116 3.40576 12.0575 3.37044 12.1919 3.2998C12.3286 3.22917 12.4482 3.12663 12.5508 2.99219V3.64844C12.4391 3.77376 12.3149 3.86947 12.1782 3.93555C12.0415 4.00163 11.8957 4.03467 11.7407 4.03467C11.6245 4.03467 11.5094 4.01758 11.3955 3.9834C11.2839 3.94922 11.1414 3.90023 10.9683 3.83643C10.8088 3.76807 10.672 3.71794 10.5581 3.68604C10.4442 3.65413 10.328 3.63818 10.2095 3.63818C10.0568 3.63818 9.91325 3.6735 9.77881 3.74414C9.64665 3.8125 9.52702 3.91504 9.41992 4.05176V3.39551ZM15.3398 6.06836C15.0049 6.06836 14.7041 6.01139 14.4375 5.89746C14.1709 5.78353 13.9613 5.62402 13.8086 5.41895C13.6559 5.21159 13.5739 4.97347 13.5625 4.70459H14.3213C14.3327 4.84359 14.384 4.96777 14.4751 5.07715C14.5662 5.18652 14.687 5.27083 14.8374 5.33008C14.9878 5.38932 15.1541 5.41895 15.3364 5.41895C15.5324 5.41895 15.7101 5.38477 15.8696 5.31641C16.0291 5.24577 16.1522 5.1512 16.2388 5.03271C16.3254 4.91195 16.3687 4.77295 16.3687 4.61572C16.3687 4.44938 16.3254 4.30241 16.2388 4.1748C16.1522 4.0472 16.0246 3.94808 15.856 3.87744C15.6896 3.8068 15.4891 3.77148 15.2544 3.77148H14.8306V3.15967H15.2544C15.4412 3.15967 15.6076 3.12663 15.7534 3.06055C15.8993 2.99447 16.012 2.90218 16.0918 2.78369C16.1715 2.6652 16.2103 2.52848 16.208 2.37354C16.2103 2.22314 16.1761 2.08984 16.1055 1.97363C16.0348 1.85742 15.9346 1.76855 15.8047 1.70703C15.6748 1.64323 15.5244 1.61133 15.3535 1.61133C15.1849 1.61133 15.0288 1.64095 14.8853 1.7002C14.7417 1.75944 14.6243 1.84375 14.5332 1.95312C14.4443 2.0625 14.3965 2.19124 14.3896 2.33936H13.665C13.6764 2.07503 13.7573 1.84033 13.9077 1.63525C14.0604 1.4279 14.2632 1.26725 14.5161 1.15332C14.7713 1.03939 15.0516 0.982422 15.3569 0.982422C15.6737 0.982422 15.9517 1.04281 16.1909 1.16357C16.4325 1.28206 16.6182 1.44385 16.748 1.64893C16.8779 1.854 16.9406 2.08073 16.936 2.3291C16.9406 2.51139 16.9064 2.67887 16.8335 2.83154C16.7629 2.98193 16.6603 3.1084 16.5259 3.21094C16.3937 3.3112 16.2388 3.38298 16.061 3.42627V3.46387C16.2843 3.49349 16.4757 3.56299 16.6353 3.67236C16.797 3.77946 16.9201 3.91504 17.0044 4.0791C17.0887 4.24316 17.1286 4.43001 17.124 4.63965C17.1286 4.90853 17.0534 5.15234 16.8984 5.37109C16.7435 5.58757 16.5293 5.75846 16.2559 5.88379C15.9824 6.00684 15.6771 6.06836 15.3398 6.06836ZM19.6636 0.982422C19.9985 0.982422 20.305 1.05762 20.583 1.20801C20.8633 1.3584 21.0911 1.61019 21.2666 1.96338C21.4421 2.31429 21.5298 2.77686 21.5298 3.35107C21.5298 3.92074 21.4512 4.40951 21.2939 4.81738C21.139 5.22298 20.9157 5.53288 20.624 5.74707C20.3346 5.96126 19.9917 6.06836 19.5952 6.06836C19.299 6.06836 19.0324 6.01025 18.7954 5.89404C18.5584 5.77555 18.3647 5.61377 18.2144 5.40869C18.064 5.20361 17.9694 4.96777 17.9307 4.70117H18.6758C18.71 4.84245 18.7681 4.96663 18.8501 5.07373C18.9321 5.17855 19.0358 5.26058 19.1611 5.31982C19.2887 5.37907 19.4334 5.40869 19.5952 5.40869C19.8481 5.40869 20.0658 5.33805 20.248 5.19678C20.4303 5.05322 20.5693 4.84701 20.665 4.57812C20.763 4.30924 20.812 3.98682 20.812 3.61084H20.7505C20.6616 3.74984 20.5522 3.86947 20.4224 3.96973C20.2925 4.06999 20.1478 4.14746 19.9883 4.20215C19.8288 4.25456 19.6613 4.28076 19.4858 4.28076C19.1942 4.28076 18.9253 4.21126 18.6792 4.07227C18.4354 3.93099 18.2428 3.7373 18.1016 3.49121C17.9603 3.24512 17.8885 2.96826 17.8862 2.66064C17.8862 2.34391 17.9603 2.05794 18.1084 1.80273C18.2565 1.54753 18.465 1.34587 18.7339 1.19775C19.005 1.04964 19.3149 0.977865 19.6636 0.982422ZM19.667 1.61133C19.471 1.61133 19.2933 1.65804 19.1338 1.75146C18.9743 1.84489 18.849 1.97135 18.7578 2.13086C18.6667 2.28809 18.6211 2.46012 18.6211 2.64697C18.6234 2.83382 18.6689 3.00586 18.7578 3.16309C18.8467 3.32031 18.9686 3.4445 19.1235 3.53564C19.2808 3.62679 19.4562 3.67236 19.6499 3.67236C19.8436 3.67236 20.0213 3.62451 20.1831 3.52881C20.3472 3.43083 20.4759 3.30208 20.5693 3.14258C20.665 2.98307 20.7129 2.81445 20.7129 2.63672C20.7129 2.45671 20.6673 2.28809 20.5762 2.13086C20.485 1.97363 20.3597 1.84831 20.2002 1.75488C20.043 1.65918 19.8652 1.61133 19.667 1.61133ZM25.6929 3.14941H24.5444V2.60596H25.6929V3.14941ZM23.8574 2.15479C23.8574 2.59456 23.8016 3.01953 23.6899 3.42969C23.5806 3.83984 23.4188 4.20671 23.2046 4.53027C22.9904 4.85156 22.7329 5.10449 22.4321 5.28906L22.0254 4.80371C22.3057 4.63509 22.5461 4.41064 22.7466 4.13037C22.9471 3.84782 23.0975 3.53678 23.1978 3.19727C23.3003 2.85775 23.3516 2.51025 23.3516 2.15479V1.01318H23.8574V2.15479ZM23.9771 2.12744C23.9771 2.46696 24.0238 2.7985 24.1172 3.12207C24.2106 3.44336 24.3496 3.73844 24.5342 4.00732C24.721 4.2762 24.9455 4.49154 25.2075 4.65332L24.8452 5.15234C24.549 4.97461 24.2995 4.72738 24.0967 4.41064C23.8939 4.09163 23.7412 3.7373 23.6387 3.34766C23.5384 2.95801 23.4883 2.55127 23.4883 2.12744V1.01318H23.9771V2.12744ZM27.3813 6.57764H26.7559V0.452637H27.3813V6.57764ZM26.1099 6.27686H25.498V0.568848H26.1099V6.27686Z" fill="#939393"/>
</svg>
