<svg width="17" height="6" viewBox="0 0 17 6" fill="none" xmlns="http://www.w3.org/2000/svg">
<path d="M2.18652 5.05859C1.89941 5.05859 1.6416 5.00977 1.41309 4.91211C1.18457 4.81445 1.00488 4.67773 0.874023 4.50195C0.743164 4.32422 0.672852 4.12012 0.663086 3.88965H1.31348C1.32324 4.00879 1.36719 4.11523 1.44531 4.20898C1.52344 4.30273 1.62695 4.375 1.75586 4.42578C1.88477 4.47656 2.02734 4.50195 2.18359 4.50195C2.35156 4.50195 2.50391 4.47266 2.64062 4.41406C2.77734 4.35352 2.88281 4.27246 2.95703 4.1709C3.03125 4.06738 3.06836 3.94824 3.06836 3.81348C3.06836 3.6709 3.03125 3.54492 2.95703 3.43555C2.88281 3.32617 2.77344 3.24121 2.62891 3.18066C2.48633 3.12012 2.31445 3.08984 2.11328 3.08984H1.75V2.56543H2.11328C2.27344 2.56543 2.41602 2.53711 2.54102 2.48047C2.66602 2.42383 2.7627 2.34473 2.83105 2.24316C2.89941 2.1416 2.93262 2.02441 2.93066 1.8916C2.93262 1.7627 2.90332 1.64844 2.84277 1.54883C2.78223 1.44922 2.69629 1.37305 2.58496 1.32031C2.47363 1.26562 2.34473 1.23828 2.19824 1.23828C2.05371 1.23828 1.91992 1.26367 1.79688 1.31445C1.67383 1.36523 1.57324 1.4375 1.49512 1.53125C1.41895 1.625 1.37793 1.73535 1.37207 1.8623H0.750977C0.760742 1.63574 0.830078 1.43457 0.958984 1.25879C1.08984 1.08105 1.26367 0.943359 1.48047 0.845703C1.69922 0.748047 1.93945 0.699219 2.20117 0.699219C2.47266 0.699219 2.71094 0.750977 2.91602 0.854492C3.12305 0.956055 3.28223 1.09473 3.39355 1.27051C3.50488 1.44629 3.55859 1.64062 3.55469 1.85352C3.55859 2.00977 3.5293 2.15332 3.4668 2.28418C3.40625 2.41309 3.31836 2.52148 3.20312 2.60938C3.08984 2.69531 2.95703 2.75684 2.80469 2.79395V2.82617C2.99609 2.85156 3.16016 2.91113 3.29688 3.00488C3.43555 3.09668 3.54102 3.21289 3.61328 3.35352C3.68555 3.49414 3.71973 3.6543 3.71582 3.83398C3.71973 4.06445 3.65527 4.27344 3.52246 4.46094C3.38965 4.64648 3.20605 4.79297 2.97168 4.90039C2.7373 5.00586 2.47559 5.05859 2.18652 5.05859ZM5.91309 5.05859C5.6123 5.05859 5.34277 5.00781 5.10449 4.90625C4.86816 4.80273 4.68359 4.66113 4.55078 4.48145C4.41992 4.2998 4.35449 4.0957 4.35449 3.86914C4.35449 3.69141 4.39258 3.52539 4.46875 3.37109C4.54688 3.2168 4.65332 3.08984 4.78809 2.99023C4.9248 2.88867 5.0752 2.82617 5.23926 2.80273V2.77637C5.09863 2.74316 4.97363 2.68164 4.86426 2.5918C4.75488 2.50195 4.66895 2.39062 4.60645 2.25781C4.5459 2.125 4.51562 1.98242 4.51562 1.83008C4.51562 1.61523 4.57617 1.42188 4.69727 1.25C4.82031 1.07617 4.9873 0.941406 5.19824 0.845703C5.41113 0.748047 5.64941 0.699219 5.91309 0.699219C6.17676 0.699219 6.41504 0.748047 6.62793 0.845703C6.84082 0.941406 7.00781 1.07617 7.12891 1.25C7.25195 1.42188 7.31348 1.61523 7.31348 1.83008C7.31348 1.98242 7.28125 2.125 7.2168 2.25781C7.1543 2.39062 7.06836 2.50195 6.95898 2.5918C6.85156 2.68164 6.72656 2.74316 6.58398 2.77637V2.80273C6.75 2.82617 6.89941 2.88867 7.03223 2.99023C7.16699 3.08984 7.27441 3.2168 7.35449 3.37109C7.43457 3.52539 7.47461 3.69141 7.47461 3.86914C7.47461 4.0957 7.40723 4.2998 7.27246 4.48145C7.13965 4.66113 6.95508 4.80273 6.71875 4.90625C6.48242 5.00781 6.21387 5.05859 5.91309 5.05859ZM5.91309 4.52539C6.09473 4.52539 6.25391 4.49609 6.39062 4.4375C6.52734 4.37891 6.63281 4.2959 6.70703 4.18848C6.78125 4.08105 6.81836 3.95898 6.81836 3.82227C6.81836 3.67578 6.7793 3.5459 6.70117 3.43262C6.62305 3.31738 6.51465 3.22754 6.37598 3.16309C6.23926 3.09668 6.08496 3.06348 5.91309 3.06348C5.74121 3.06348 5.58594 3.09668 5.44727 3.16309C5.30859 3.22754 5.2002 3.31738 5.12207 3.43262C5.0459 3.5459 5.00977 3.67578 5.01367 3.82227C5.00977 3.95898 5.04492 4.08105 5.11914 4.18848C5.19336 4.2959 5.29883 4.37891 5.43555 4.4375C5.57227 4.49609 5.73145 4.52539 5.91309 4.52539ZM5.91309 2.55957C6.05957 2.55957 6.19141 2.53125 6.30859 2.47461C6.42773 2.41797 6.51953 2.33887 6.58398 2.2373C6.64844 2.13379 6.68066 2.01758 6.68066 1.88867C6.68066 1.75781 6.64844 1.64258 6.58398 1.54297C6.52148 1.44141 6.43164 1.36328 6.31445 1.30859C6.19727 1.25391 6.06348 1.22656 5.91309 1.22656C5.7627 1.22656 5.62793 1.25391 5.50879 1.30859C5.3916 1.36328 5.30078 1.44141 5.23633 1.54297C5.17383 1.64258 5.14258 1.75781 5.14258 1.88867C5.14258 2.01758 5.17578 2.13379 5.24219 2.2373C5.31055 2.33887 5.40234 2.41797 5.51758 2.47461C5.63281 2.53125 5.76465 2.55957 5.91309 2.55957ZM9.67773 5.05859C9.39062 5.05469 9.12695 4.98828 8.88672 4.85938C8.64844 4.73047 8.45312 4.51465 8.30078 4.21191C8.15039 3.90918 8.0752 3.51172 8.0752 3.01953C8.0752 2.5332 8.14258 2.11621 8.27734 1.76855C8.41211 1.41895 8.60352 1.15332 8.85156 0.97168C9.09961 0.790039 9.39258 0.699219 9.73047 0.699219C9.98828 0.699219 10.2178 0.749023 10.4189 0.848633C10.6221 0.946289 10.7871 1.08301 10.9141 1.25879C11.043 1.43457 11.124 1.63574 11.1572 1.8623H10.5186C10.4873 1.74316 10.4365 1.63867 10.3662 1.54883C10.2979 1.45703 10.21 1.38672 10.1025 1.33789C9.99512 1.28906 9.87109 1.26465 9.73047 1.26465C9.51367 1.26465 9.32812 1.3252 9.17383 1.44629C9.01953 1.56543 8.90137 1.73926 8.81934 1.96777C8.7373 2.19629 8.69531 2.4707 8.69336 2.79102H8.74023C8.81836 2.67188 8.91211 2.56934 9.02148 2.4834C9.13281 2.39746 9.25781 2.33203 9.39648 2.28711C9.53516 2.24023 9.67969 2.2168 9.83008 2.2168C10.0801 2.2168 10.3096 2.27734 10.5186 2.39844C10.7295 2.51758 10.8945 2.68262 11.0137 2.89355C11.1348 3.10449 11.1953 3.34375 11.1953 3.61133C11.1953 3.88477 11.1318 4.13184 11.0049 4.35254C10.8779 4.57324 10.6992 4.74609 10.4688 4.87109C10.2383 4.99609 9.97461 5.05859 9.67773 5.05859ZM9.6748 4.51953C9.84277 4.51953 9.99414 4.47949 10.1289 4.39941C10.2656 4.31934 10.373 4.21094 10.4512 4.07422C10.5312 3.93555 10.5713 3.78613 10.5713 3.62598C10.5713 3.45996 10.5332 3.30957 10.457 3.1748C10.3809 3.04004 10.2754 2.93457 10.1406 2.8584C10.0059 2.78027 9.85352 2.74121 9.68359 2.74121C9.51758 2.74121 9.36523 2.78223 9.22656 2.86426C9.08789 2.94434 8.97754 3.05273 8.89551 3.18945C8.81543 3.32422 8.77344 3.4707 8.76953 3.62891C8.77148 3.7832 8.81152 3.92871 8.88965 4.06543C8.96973 4.20215 9.07812 4.3125 9.21484 4.39648C9.35156 4.47852 9.50488 4.51953 9.6748 4.51953ZM13.4453 1.49609C13.4453 1.8125 13.3857 2.10742 13.2666 2.38086C13.1475 2.65234 12.9775 2.88867 12.7568 3.08984C12.5361 3.29102 12.2744 3.44238 11.9717 3.54395L11.6992 3.11035C11.9609 3.02441 12.1895 2.89941 12.3848 2.73535C12.582 2.57129 12.7314 2.38281 12.833 2.16992C12.9365 1.95508 12.9883 1.73047 12.9883 1.49609V1.24414H13.4453V1.49609ZM13.5361 1.49609C13.5361 1.7168 13.5889 1.92773 13.6943 2.12891C13.8018 2.32812 13.9531 2.50488 14.1484 2.65918C14.3457 2.81348 14.5762 2.93262 14.8398 3.0166L14.5674 3.45605C14.2666 3.3623 14.0049 3.21875 13.7822 3.02539C13.5596 2.83203 13.3877 2.60449 13.2666 2.34277C13.1455 2.0791 13.085 1.79688 13.085 1.49609V1.24414H13.5361V1.49609ZM14.6816 1.37012H11.8457V0.924805H14.6816V1.37012ZM13.5479 1.09766H12.9883V0.280273H13.5479V1.09766ZM15.8066 2.29297H14.5029V1.8418H15.8066V2.29297ZM16.0762 4.16211H15.5195V0.250977H16.0762V4.16211ZM16.2168 5.39258H12.666V4.93262H16.2168V5.39258ZM13.2256 5.19629H12.666V3.81641H13.2256V5.19629Z" fill="#939393"/>
</svg>
