<svg width="28" height="7" viewBox="0 0 28 7" fill="none" xmlns="http://www.w3.org/2000/svg">
<path d="M0.797363 4.42432L2.97803 1.05078H3.45654V1.94629H3.14551L1.5835 4.35596V4.39697H4.58447V5.03271H0.797363V4.42432ZM3.19678 4.85156L3.2002 4.57129V1.05078H3.91455V6H3.19678V4.85156ZM7.06934 6.06836C6.6888 6.06836 6.36296 5.96924 6.0918 5.771C5.82064 5.57275 5.61328 5.28337 5.46973 4.90283C5.32617 4.5223 5.25439 4.06315 5.25439 3.52539C5.25439 2.99219 5.32617 2.53532 5.46973 2.15479C5.61328 1.77425 5.82178 1.48372 6.09521 1.2832C6.36865 1.08268 6.69336 0.982422 7.06934 0.982422C7.44531 0.982422 7.77002 1.08268 8.04346 1.2832C8.31689 1.48372 8.52539 1.77425 8.66895 2.15479C8.8125 2.53532 8.88428 2.99219 8.88428 3.52539C8.88428 4.06315 8.8125 4.5223 8.66895 4.90283C8.52767 5.28337 8.32031 5.57275 8.04688 5.771C7.77572 5.96924 7.44987 6.06836 7.06934 6.06836ZM7.06934 5.42236C7.29036 5.42236 7.48063 5.34945 7.64014 5.20361C7.80192 5.05778 7.92497 4.84359 8.00928 4.56104C8.09359 4.2762 8.1346 3.93099 8.13232 3.52539C8.13232 3.11979 8.09017 2.77458 8.00586 2.48975C7.92155 2.20492 7.79964 1.98844 7.64014 1.84033C7.48063 1.69222 7.29036 1.61816 7.06934 1.61816C6.84831 1.61816 6.65804 1.69222 6.49854 1.84033C6.33903 1.98844 6.21598 2.20492 6.12939 2.48975C6.04281 2.77458 5.99951 3.11979 5.99951 3.52539C5.99951 3.93099 6.04167 4.2762 6.12598 4.56104C6.21029 4.84359 6.33333 5.05778 6.49512 5.20361C6.6569 5.34945 6.84831 5.42236 7.06934 5.42236ZM9.88916 3.39551C10.0008 3.27018 10.125 3.17562 10.2617 3.11182C10.3984 3.04574 10.5443 3.0127 10.6992 3.0127C10.8154 3.0127 10.9282 3.02865 11.0376 3.06055C11.1493 3.09017 11.2939 3.13916 11.4717 3.20752C11.6335 3.27132 11.7702 3.32031 11.8818 3.35449C11.9958 3.38867 12.1097 3.40576 12.2236 3.40576C12.3809 3.40576 12.5267 3.37044 12.6611 3.2998C12.7979 3.22917 12.9175 3.12663 13.02 2.99219V3.64844C12.9084 3.77376 12.7842 3.86947 12.6475 3.93555C12.5107 4.00163 12.3649 4.03467 12.21 4.03467C12.0938 4.03467 11.9787 4.01758 11.8647 3.9834C11.7531 3.94922 11.6107 3.90023 11.4375 3.83643C11.278 3.76807 11.1413 3.71794 11.0273 3.68604C10.9134 3.65413 10.7972 3.63818 10.6787 3.63818C10.526 3.63818 10.3825 3.6735 10.248 3.74414C10.1159 3.8125 9.99626 3.91504 9.88916 4.05176V3.39551ZM14.0112 4.42432L16.1919 1.05078H16.6704V1.94629H16.3594L14.7974 4.35596V4.39697H17.7983V5.03271H14.0112V4.42432ZM16.4106 4.85156L16.4141 4.57129V1.05078H17.1284V6H16.4106V4.85156ZM20.2627 0.982422C20.5977 0.982422 20.9041 1.05762 21.1821 1.20801C21.4624 1.3584 21.6903 1.61019 21.8657 1.96338C22.0412 2.31429 22.1289 2.77686 22.1289 3.35107C22.1289 3.92074 22.0503 4.40951 21.8931 4.81738C21.7381 5.22298 21.5148 5.53288 21.2231 5.74707C20.9338 5.96126 20.5908 6.06836 20.1943 6.06836C19.8981 6.06836 19.6315 6.01025 19.3945 5.89404C19.1576 5.77555 18.9639 5.61377 18.8135 5.40869C18.6631 5.20361 18.5685 4.96777 18.5298 4.70117H19.2749C19.3091 4.84245 19.3672 4.96663 19.4492 5.07373C19.5312 5.17855 19.6349 5.26058 19.7603 5.31982C19.8879 5.37907 20.0326 5.40869 20.1943 5.40869C20.4473 5.40869 20.6649 5.33805 20.8472 5.19678C21.0295 5.05322 21.1685 4.84701 21.2642 4.57812C21.3621 4.30924 21.4111 3.98682 21.4111 3.61084H21.3496C21.2607 3.74984 21.1514 3.86947 21.0215 3.96973C20.8916 4.06999 20.7469 4.14746 20.5874 4.20215C20.4279 4.25456 20.2604 4.28076 20.085 4.28076C19.7933 4.28076 19.5244 4.21126 19.2783 4.07227C19.0345 3.93099 18.842 3.7373 18.7007 3.49121C18.5594 3.24512 18.4876 2.96826 18.4854 2.66064C18.4854 2.34391 18.5594 2.05794 18.7075 1.80273C18.8556 1.54753 19.0641 1.34587 19.333 1.19775C19.6042 1.04964 19.9141 0.977865 20.2627 0.982422ZM20.2661 1.61133C20.0701 1.61133 19.8924 1.65804 19.7329 1.75146C19.5734 1.84489 19.4481 1.97135 19.3569 2.13086C19.2658 2.28809 19.2202 2.46012 19.2202 2.64697C19.2225 2.83382 19.2681 3.00586 19.3569 3.16309C19.4458 3.32031 19.5677 3.4445 19.7227 3.53564C19.8799 3.62679 20.0553 3.67236 20.249 3.67236C20.4427 3.67236 20.6204 3.62451 20.7822 3.52881C20.9463 3.43083 21.075 3.30208 21.1685 3.14258C21.2642 2.98307 21.312 2.81445 21.312 2.63672C21.312 2.45671 21.2664 2.28809 21.1753 2.13086C21.0841 1.97363 20.9588 1.84831 20.7993 1.75488C20.6421 1.65918 20.4644 1.61133 20.2661 1.61133ZM26.292 3.14941H25.1436V2.60596H26.292V3.14941ZM24.4565 2.15479C24.4565 2.59456 24.4007 3.01953 24.2891 3.42969C24.1797 3.83984 24.0179 4.20671 23.8037 4.53027C23.5895 4.85156 23.332 5.10449 23.0312 5.28906L22.6245 4.80371C22.9048 4.63509 23.1452 4.41064 23.3457 4.13037C23.5462 3.84782 23.6966 3.53678 23.7969 3.19727C23.8994 2.85775 23.9507 2.51025 23.9507 2.15479V1.01318H24.4565V2.15479ZM24.5762 2.12744C24.5762 2.46696 24.6229 2.7985 24.7163 3.12207C24.8097 3.44336 24.9487 3.73844 25.1333 4.00732C25.3201 4.2762 25.5446 4.49154 25.8066 4.65332L25.4443 5.15234C25.1481 4.97461 24.8986 4.72738 24.6958 4.41064C24.493 4.09163 24.3403 3.7373 24.2378 3.34766C24.1375 2.95801 24.0874 2.55127 24.0874 2.12744V1.01318H24.5762V2.12744ZM27.9805 6.57764H27.355V0.452637H27.9805V6.57764ZM26.709 6.27686H26.0972V0.568848H26.709V6.27686Z" fill="#939393"/>
</svg>
