<svg width="17" height="6" viewBox="0 0 17 6" fill="none" xmlns="http://www.w3.org/2000/svg">
<path d="M0.651367 3.64941L2.52051 0.757812H2.93066V1.52539H2.66406L1.3252 3.59082V3.62598H3.89746V4.1709H0.651367V3.64941ZM2.70801 4.01562L2.71094 3.77539V0.757812H3.32324V5H2.70801V4.01562ZM4.54785 4.53125L6.02148 3.0459C6.19922 2.8623 6.33594 2.71387 6.43164 2.60059C6.52734 2.4873 6.59863 2.37598 6.64551 2.2666C6.69434 2.15527 6.71875 2.04004 6.71875 1.9209C6.71875 1.78613 6.68457 1.66699 6.61621 1.56348C6.54785 1.45996 6.4541 1.37988 6.33496 1.32324C6.21582 1.2666 6.08203 1.23828 5.93359 1.23828C5.7793 1.23828 5.64355 1.26953 5.52637 1.33203C5.41113 1.39258 5.32129 1.48047 5.25684 1.5957C5.19434 1.70898 5.16309 1.83984 5.16309 1.98828H4.55078C4.55078 1.73438 4.61035 1.50977 4.72949 1.31445C4.84863 1.11914 5.01367 0.967773 5.22461 0.860352C5.4375 0.75293 5.67871 0.699219 5.94824 0.699219C6.21582 0.699219 6.4541 0.751953 6.66309 0.857422C6.87207 0.960937 7.03516 1.10449 7.15234 1.28809C7.27148 1.46973 7.33105 1.67383 7.33105 1.90039C7.33105 2.0625 7.30078 2.21875 7.24023 2.36914C7.17969 2.51953 7.07715 2.68555 6.93262 2.86719C6.78809 3.04883 6.58105 3.27246 6.31152 3.53809L5.44727 4.41406V4.44629H7.40137V5H4.55078L4.54785 4.53125ZM9.5957 5.05859C9.26953 5.05859 8.99023 4.97363 8.75781 4.80371C8.52539 4.63379 8.34766 4.38574 8.22461 4.05957C8.10156 3.7334 8.04004 3.33984 8.04004 2.87891C8.04004 2.42188 8.10156 2.03027 8.22461 1.7041C8.34766 1.37793 8.52637 1.12891 8.76074 0.957031C8.99512 0.785156 9.27344 0.699219 9.5957 0.699219C9.91797 0.699219 10.1963 0.785156 10.4307 0.957031C10.665 1.12891 10.8438 1.37793 10.9668 1.7041C11.0898 2.03027 11.1514 2.42188 11.1514 2.87891C11.1514 3.33984 11.0898 3.7334 10.9668 4.05957C10.8457 4.38574 10.668 4.63379 10.4336 4.80371C10.2012 4.97363 9.92188 5.05859 9.5957 5.05859ZM9.5957 4.50488C9.78516 4.50488 9.94824 4.44238 10.085 4.31738C10.2236 4.19238 10.3291 4.00879 10.4014 3.7666C10.4736 3.52246 10.5088 3.22656 10.5068 2.87891C10.5068 2.53125 10.4707 2.23535 10.3984 1.99121C10.3262 1.74707 10.2217 1.56152 10.085 1.43457C9.94824 1.30762 9.78516 1.24414 9.5957 1.24414C9.40625 1.24414 9.24316 1.30762 9.10645 1.43457C8.96973 1.56152 8.86426 1.74707 8.79004 1.99121C8.71582 2.23535 8.67871 2.53125 8.67871 2.87891C8.67871 3.22656 8.71484 3.52246 8.78711 3.7666C8.85938 4.00879 8.96484 4.19238 9.10352 4.31738C9.24219 4.44238 9.40625 4.50488 9.5957 4.50488ZM13.3867 1.49609C13.3867 1.8125 13.3271 2.10742 13.208 2.38086C13.0889 2.65234 12.9189 2.88867 12.6982 3.08984C12.4775 3.29102 12.2158 3.44238 11.9131 3.54395L11.6406 3.11035C11.9023 3.02441 12.1309 2.89941 12.3262 2.73535C12.5234 2.57129 12.6729 2.38281 12.7744 2.16992C12.8779 1.95508 12.9297 1.73047 12.9297 1.49609V1.24414H13.3867V1.49609ZM13.4775 1.49609C13.4775 1.7168 13.5303 1.92773 13.6357 2.12891C13.7432 2.32812 13.8945 2.50488 14.0898 2.65918C14.2871 2.81348 14.5176 2.93262 14.7812 3.0166L14.5088 3.45605C14.208 3.3623 13.9463 3.21875 13.7236 3.02539C13.501 2.83203 13.3291 2.60449 13.208 2.34277C13.0869 2.0791 13.0264 1.79688 13.0264 1.49609V1.24414H13.4775V1.49609ZM14.623 1.37012H11.7871V0.924805H14.623V1.37012ZM13.4893 1.09766H12.9297V0.280273H13.4893V1.09766ZM15.748 2.29297H14.4443V1.8418H15.748V2.29297ZM16.0176 4.16211H15.4609V0.250977H16.0176V4.16211ZM16.1582 5.39258H12.6074V4.93262H16.1582V5.39258ZM13.167 5.19629H12.6074V3.81641H13.167V5.19629Z" fill="#939393"/>
</svg>
