<svg width="17" height="6" viewBox="0 0 17 6" fill="none" xmlns="http://www.w3.org/2000/svg">
<path d="M0.598633 3.64941L2.46777 0.757812H2.87793V1.52539H2.61133L1.27246 3.59082V3.62598H3.84473V4.1709H0.598633V3.64941ZM2.65527 4.01562L2.6582 3.77539V0.757812H3.27051V5H2.65527V4.01562ZM4.40723 3.64941L6.27637 0.757812H6.68652V1.52539H6.41992L5.08105 3.59082V3.62598H7.65332V4.1709H4.40723V3.64941ZM6.46387 4.01562L6.4668 3.77539V0.757812H7.0791V5H6.46387V4.01562ZM8.30371 4.53125L9.77734 3.0459C9.95508 2.8623 10.0918 2.71387 10.1875 2.60059C10.2832 2.4873 10.3545 2.37598 10.4014 2.2666C10.4502 2.15527 10.4746 2.04004 10.4746 1.9209C10.4746 1.78613 10.4404 1.66699 10.3721 1.56348C10.3037 1.45996 10.21 1.37988 10.0908 1.32324C9.97168 1.2666 9.83789 1.23828 9.68945 1.23828C9.53516 1.23828 9.39941 1.26953 9.28223 1.33203C9.16699 1.39258 9.07715 1.48047 9.0127 1.5957C8.9502 1.70898 8.91895 1.83984 8.91895 1.98828H8.30664C8.30664 1.73438 8.36621 1.50977 8.48535 1.31445C8.60449 1.11914 8.76953 0.967773 8.98047 0.860352C9.19336 0.75293 9.43457 0.699219 9.7041 0.699219C9.97168 0.699219 10.21 0.751953 10.4189 0.857422C10.6279 0.960937 10.791 1.10449 10.9082 1.28809C11.0273 1.46973 11.0869 1.67383 11.0869 1.90039C11.0869 2.0625 11.0566 2.21875 10.9961 2.36914C10.9355 2.51953 10.833 2.68555 10.6885 2.86719C10.5439 3.04883 10.3369 3.27246 10.0674 3.53809L9.20312 4.41406V4.44629H11.1572V5H8.30664L8.30371 4.53125ZM13.4395 1.49609C13.4395 1.8125 13.3799 2.10742 13.2607 2.38086C13.1416 2.65234 12.9717 2.88867 12.751 3.08984C12.5303 3.29102 12.2686 3.44238 11.9658 3.54395L11.6934 3.11035C11.9551 3.02441 12.1836 2.89941 12.3789 2.73535C12.5762 2.57129 12.7256 2.38281 12.8271 2.16992C12.9307 1.95508 12.9824 1.73047 12.9824 1.49609V1.24414H13.4395V1.49609ZM13.5303 1.49609C13.5303 1.7168 13.583 1.92773 13.6885 2.12891C13.7959 2.32812 13.9473 2.50488 14.1426 2.65918C14.3398 2.81348 14.5703 2.93262 14.834 3.0166L14.5615 3.45605C14.2607 3.3623 13.999 3.21875 13.7764 3.02539C13.5537 2.83203 13.3818 2.60449 13.2607 2.34277C13.1396 2.0791 13.0791 1.79688 13.0791 1.49609V1.24414H13.5303V1.49609ZM14.6758 1.37012H11.8398V0.924805H14.6758V1.37012ZM13.542 1.09766H12.9824V0.280273H13.542V1.09766ZM15.8008 2.29297H14.4971V1.8418H15.8008V2.29297ZM16.0703 4.16211H15.5137V0.250977H16.0703V4.16211ZM16.2109 5.39258H12.6602V4.93262H16.2109V5.39258ZM13.2197 5.19629H12.6602V3.81641H13.2197V5.19629Z" fill="#939393"/>
</svg>
