<svg width="17" height="6" viewBox="0 0 17 6" fill="none" xmlns="http://www.w3.org/2000/svg">
<path d="M0.563477 3.64941L2.43262 0.757812H2.84277V1.52539H2.57617L1.2373 3.59082V3.62598H3.80957V4.1709H0.563477V3.64941ZM2.62012 4.01562L2.62305 3.77539V0.757812H3.23535V5H2.62012V4.01562ZM5.90723 5.05859C5.64355 5.05859 5.40332 5.00879 5.18652 4.90918C4.97168 4.80762 4.80078 4.66797 4.67383 4.49023C4.54883 4.3125 4.48145 4.1123 4.47168 3.88965H5.0957C5.10938 4.01074 5.15332 4.11816 5.22754 4.21191C5.30371 4.30566 5.40039 4.38086 5.51758 4.4375C5.63672 4.49219 5.7666 4.51953 5.90723 4.51953C6.0752 4.51953 6.22559 4.48145 6.3584 4.40527C6.49316 4.3291 6.59863 4.22461 6.6748 4.0918C6.75098 3.95703 6.78906 3.80762 6.78906 3.64355C6.78906 3.46973 6.75 3.31641 6.67188 3.18359C6.5957 3.04883 6.4873 2.94238 6.34668 2.86426C6.20801 2.78613 6.05176 2.74707 5.87793 2.74707C5.70215 2.74316 5.55176 2.77148 5.42676 2.83203C5.30176 2.89258 5.20312 2.98828 5.13086 3.11914H4.52441L4.7998 0.757812H7.20215V1.31152H5.33594L5.18945 2.49512H5.22754C5.32129 2.41113 5.43848 2.34277 5.5791 2.29004C5.72168 2.2373 5.87109 2.21094 6.02734 2.21094C6.29102 2.21094 6.52832 2.27148 6.73926 2.39258C6.95215 2.51172 7.11816 2.67969 7.2373 2.89648C7.3584 3.11133 7.41797 3.35449 7.41602 3.62598C7.41797 3.89941 7.35352 4.14551 7.22266 4.36426C7.09375 4.58105 6.91406 4.75098 6.68359 4.87402C6.45508 4.99707 6.19629 5.05859 5.90723 5.05859ZM8.01074 3.64941L9.87988 0.757812H10.29V1.52539H10.0234L8.68457 3.59082V3.62598H11.2568V4.1709H8.01074V3.64941ZM10.0674 4.01562L10.0703 3.77539V0.757812H10.6826V5H10.0674V4.01562ZM13.4746 1.49609C13.4746 1.8125 13.415 2.10742 13.2959 2.38086C13.1768 2.65234 13.0068 2.88867 12.7861 3.08984C12.5654 3.29102 12.3037 3.44238 12.001 3.54395L11.7285 3.11035C11.9902 3.02441 12.2188 2.89941 12.4141 2.73535C12.6113 2.57129 12.7607 2.38281 12.8623 2.16992C12.9658 1.95508 13.0176 1.73047 13.0176 1.49609V1.24414H13.4746V1.49609ZM13.5654 1.49609C13.5654 1.7168 13.6182 1.92773 13.7236 2.12891C13.8311 2.32812 13.9824 2.50488 14.1777 2.65918C14.375 2.81348 14.6055 2.93262 14.8691 3.0166L14.5967 3.45605C14.2959 3.3623 14.0342 3.21875 13.8115 3.02539C13.5889 2.83203 13.417 2.60449 13.2959 2.34277C13.1748 2.0791 13.1143 1.79688 13.1143 1.49609V1.24414H13.5654V1.49609ZM14.7109 1.37012H11.875V0.924805H14.7109V1.37012ZM13.5771 1.09766H13.0176V0.280273H13.5771V1.09766ZM15.8359 2.29297H14.5322V1.8418H15.8359V2.29297ZM16.1055 4.16211H15.5488V0.250977H16.1055V4.16211ZM16.2461 5.39258H12.6953V4.93262H16.2461V5.39258ZM13.2549 5.19629H12.6953V3.81641H13.2549V5.19629Z" fill="#939393"/>
</svg>
