<svg width="94" height="23" viewBox="0 0 94 23" fill="none" xmlns="http://www.w3.org/2000/svg">
<path d="M0.0546875 14.2109L7.22656 3.03125H9.61719V6.89844H8.1875L3.61719 14.0234V14.1641H13.8008V17H0.0546875V14.2109ZM8.29297 16.1445L8.33984 14.9141V3.03125H11.6562V20H8.29297V16.1445ZM33.3247 22.1562H30.4419V0.804688H33.3247V22.1562ZM31.3091 11.3047H27.6763V8.90234H31.3091V11.3047ZM24.2075 3.46484C24.2075 5.55078 23.9653 7.45312 23.4809 9.17188C22.9966 10.8828 22.1802 12.4648 21.0317 13.918C19.8911 15.3633 18.3481 16.6445 16.4028 17.7617L14.6684 15.7109C16.3013 14.7578 17.6059 13.707 18.5825 12.5586C19.5591 11.4023 20.2661 10.1328 20.7036 8.75C21.1411 7.35938 21.3598 5.79297 21.3598 4.05078V3.46484H24.2075ZM22.227 5.84375H15.7466V3.46484H22.227V5.84375ZM28.4966 21.207H25.7075V1.36719H28.4966V21.207ZM41.8686 10.6953C42.2592 10.2812 42.7006 9.96484 43.1928 9.74609C43.685 9.52734 44.2045 9.41797 44.7514 9.41797C45.1811 9.41797 45.5834 9.46875 45.9584 9.57031C46.3413 9.67188 46.8569 9.83984 47.5053 10.0742C48.0834 10.293 48.5756 10.4609 48.9819 10.5781C49.3881 10.6875 49.8061 10.7422 50.2358 10.7422C50.7905 10.7422 51.31 10.6328 51.7944 10.4141C52.2788 10.1953 52.7084 9.87891 53.0834 9.46484V12.3125C52.685 12.7266 52.2397 13.0469 51.7475 13.2734C51.2631 13.4922 50.7397 13.6016 50.1772 13.6016C49.7553 13.6016 49.3413 13.5469 48.935 13.4375C48.5366 13.3203 48.0327 13.1523 47.4233 12.9336C46.8608 12.707 46.3725 12.5391 45.9584 12.4297C45.5522 12.3203 45.1303 12.2656 44.6928 12.2656C44.1459 12.2656 43.6342 12.375 43.1577 12.5938C42.6811 12.8047 42.2514 13.1289 41.8686 13.5664V10.6953ZM67.475 20.2344C66.3187 20.2344 65.2719 20.0195 64.3344 19.5898C63.3969 19.1602 62.6586 18.5625 62.1195 17.7969C61.5883 17.0312 61.3109 16.1719 61.2875 15.2188H64.6977C64.7367 15.6562 64.8812 16.043 65.1312 16.3789C65.3891 16.7148 65.7211 16.9805 66.1273 17.1758C66.5414 17.3633 66.9906 17.457 67.475 17.457C68.0531 17.457 68.5687 17.3281 69.0219 17.0703C69.4828 16.8125 69.8422 16.457 70.1 16.0039C70.3578 15.543 70.4867 15.0234 70.4867 14.4453C70.4867 13.8438 70.3539 13.3164 70.0883 12.8633C69.8305 12.4023 69.4672 12.043 68.9984 11.7852C68.5375 11.5195 68.0102 11.3867 67.4164 11.3867C66.7836 11.3789 66.2484 11.4922 65.8109 11.7266C65.3734 11.9609 65.0258 12.3203 64.768 12.8047H61.5687L62.4945 3.03125H72.9359V5.92578H65.4008L64.932 10.2031H65.0609C65.3891 9.77344 65.8578 9.42578 66.4672 9.16016C67.0766 8.89453 67.7445 8.76172 68.4711 8.76172C69.4945 8.76172 70.4203 9 71.2484 9.47656C72.0844 9.94531 72.7328 10.6055 73.1937 11.457C73.6625 12.3086 73.893 13.2734 73.8852 14.3516C73.893 15.4766 73.6234 16.4883 73.0766 17.3867C72.5375 18.2773 71.7836 18.9766 70.8148 19.4844C69.8461 19.9844 68.7328 20.2344 67.475 20.2344ZM93.5028 22.1562H90.62V0.804688H93.5028V22.1562ZM91.4872 11.3047H87.8544V8.90234H91.4872V11.3047ZM84.3856 3.46484C84.3856 5.55078 84.1434 7.45312 83.6591 9.17188C83.1747 10.8828 82.3583 12.4648 81.2098 13.918C80.0692 15.3633 78.5263 16.6445 76.5809 17.7617L74.8466 15.7109C76.4794 14.7578 77.7841 13.707 78.7606 12.5586C79.7372 11.4023 80.4442 10.1328 80.8817 8.75C81.3192 7.35938 81.538 5.79297 81.538 4.05078V3.46484H84.3856ZM82.4052 5.84375H75.9247V3.46484H82.4052V5.84375ZM88.6747 21.207H85.8856V1.36719H88.6747V21.207Z" fill="white"/>
</svg>
