<svg width="28" height="7" viewBox="0 0 28 7" fill="none" xmlns="http://www.w3.org/2000/svg">
<path d="M2.28662 6.06836C1.979 6.06836 1.69873 6.01025 1.4458 5.89404C1.19515 5.77555 0.995768 5.61263 0.847656 5.40527C0.701823 5.19792 0.62321 4.96436 0.611816 4.70459H1.33984C1.35579 4.84587 1.40706 4.97119 1.49365 5.08057C1.58252 5.18994 1.69531 5.27767 1.83203 5.34375C1.97103 5.40755 2.12256 5.43945 2.28662 5.43945C2.48258 5.43945 2.65804 5.39502 2.81299 5.30615C2.97021 5.21729 3.09326 5.09538 3.18213 4.94043C3.271 4.7832 3.31543 4.60889 3.31543 4.41748C3.31543 4.21468 3.26986 4.03581 3.17871 3.88086C3.08984 3.72363 2.96338 3.59945 2.79932 3.5083C2.63753 3.41715 2.45524 3.37158 2.25244 3.37158C2.04736 3.36702 1.87191 3.40007 1.72607 3.4707C1.58024 3.54134 1.46517 3.65299 1.38086 3.80566H0.67334L0.994629 1.05078H3.79736V1.69678H1.62012L1.44922 3.07764H1.49365C1.60303 2.97965 1.73975 2.8999 1.90381 2.83838C2.07015 2.77686 2.24447 2.74609 2.42676 2.74609C2.73438 2.74609 3.01123 2.81673 3.25732 2.95801C3.5057 3.09701 3.69938 3.29297 3.83838 3.5459C3.97965 3.79655 4.04915 4.08024 4.04688 4.39697C4.04915 4.71598 3.97396 5.00309 3.82129 5.2583C3.6709 5.51123 3.46126 5.70947 3.19238 5.85303C2.92578 5.99658 2.62386 6.06836 2.28662 6.06836ZM6.56934 6.06836C6.1888 6.06836 5.86296 5.96924 5.5918 5.771C5.32064 5.57275 5.11328 5.28337 4.96973 4.90283C4.82617 4.5223 4.75439 4.06315 4.75439 3.52539C4.75439 2.99219 4.82617 2.53532 4.96973 2.15479C5.11328 1.77425 5.32178 1.48372 5.59521 1.2832C5.86865 1.08268 6.19336 0.982422 6.56934 0.982422C6.94531 0.982422 7.27002 1.08268 7.54346 1.2832C7.81689 1.48372 8.02539 1.77425 8.16895 2.15479C8.3125 2.53532 8.38428 2.99219 8.38428 3.52539C8.38428 4.06315 8.3125 4.5223 8.16895 4.90283C8.02767 5.28337 7.82031 5.57275 7.54688 5.771C7.27572 5.96924 6.94987 6.06836 6.56934 6.06836ZM6.56934 5.42236C6.79036 5.42236 6.98063 5.34945 7.14014 5.20361C7.30192 5.05778 7.42497 4.84359 7.50928 4.56104C7.59359 4.2762 7.6346 3.93099 7.63232 3.52539C7.63232 3.11979 7.59017 2.77458 7.50586 2.48975C7.42155 2.20492 7.29964 1.98844 7.14014 1.84033C6.98063 1.69222 6.79036 1.61816 6.56934 1.61816C6.34831 1.61816 6.15804 1.69222 5.99854 1.84033C5.83903 1.98844 5.71598 2.20492 5.62939 2.48975C5.54281 2.77458 5.49951 3.11979 5.49951 3.52539C5.49951 3.93099 5.54167 4.2762 5.62598 4.56104C5.71029 4.84359 5.83333 5.05778 5.99512 5.20361C6.1569 5.34945 6.34831 5.42236 6.56934 5.42236ZM9.38916 3.39551C9.50081 3.27018 9.625 3.17562 9.76172 3.11182C9.89844 3.04574 10.0443 3.0127 10.1992 3.0127C10.3154 3.0127 10.4282 3.02865 10.5376 3.06055C10.6493 3.09017 10.7939 3.13916 10.9717 3.20752C11.1335 3.27132 11.2702 3.32031 11.3818 3.35449C11.4958 3.38867 11.6097 3.40576 11.7236 3.40576C11.8809 3.40576 12.0267 3.37044 12.1611 3.2998C12.2979 3.22917 12.4175 3.12663 12.52 2.99219V3.64844C12.4084 3.77376 12.2842 3.86947 12.1475 3.93555C12.0107 4.00163 11.8649 4.03467 11.71 4.03467C11.5938 4.03467 11.4787 4.01758 11.3647 3.9834C11.2531 3.94922 11.1107 3.90023 10.9375 3.83643C10.778 3.76807 10.6413 3.71794 10.5273 3.68604C10.4134 3.65413 10.2972 3.63818 10.1787 3.63818C10.026 3.63818 9.88249 3.6735 9.74805 3.74414C9.61589 3.8125 9.49626 3.91504 9.38916 4.05176V3.39551ZM15.3022 6.06836C14.9946 6.06836 14.7144 6.01025 14.4614 5.89404C14.2108 5.77555 14.0114 5.61263 13.8633 5.40527C13.7174 5.19792 13.6388 4.96436 13.6274 4.70459H14.3555C14.3714 4.84587 14.4227 4.97119 14.5093 5.08057C14.5981 5.18994 14.7109 5.27767 14.8477 5.34375C14.9867 5.40755 15.1382 5.43945 15.3022 5.43945C15.4982 5.43945 15.6737 5.39502 15.8286 5.30615C15.9858 5.21729 16.1089 5.09538 16.1978 4.94043C16.2866 4.7832 16.3311 4.60889 16.3311 4.41748C16.3311 4.21468 16.2855 4.03581 16.1943 3.88086C16.1055 3.72363 15.979 3.59945 15.8149 3.5083C15.6532 3.41715 15.4709 3.37158 15.2681 3.37158C15.063 3.36702 14.8875 3.40007 14.7417 3.4707C14.5959 3.54134 14.4808 3.65299 14.3965 3.80566H13.689L14.0103 1.05078H16.813V1.69678H14.6357L14.4648 3.07764H14.5093C14.6187 2.97965 14.7554 2.8999 14.9194 2.83838C15.0858 2.77686 15.2601 2.74609 15.4424 2.74609C15.75 2.74609 16.0269 2.81673 16.2729 2.95801C16.5213 3.09701 16.715 3.29297 16.854 3.5459C16.9953 3.79655 17.0648 4.08024 17.0625 4.39697C17.0648 4.71598 16.9896 5.00309 16.8369 5.2583C16.6865 5.51123 16.4769 5.70947 16.208 5.85303C15.9414 5.99658 15.6395 6.06836 15.3022 6.06836ZM19.5645 0.982422C19.8994 0.982422 20.2059 1.05762 20.4839 1.20801C20.7642 1.3584 20.992 1.61019 21.1675 1.96338C21.3429 2.31429 21.4307 2.77686 21.4307 3.35107C21.4307 3.92074 21.3521 4.40951 21.1948 4.81738C21.0399 5.22298 20.8166 5.53288 20.5249 5.74707C20.2355 5.96126 19.8926 6.06836 19.4961 6.06836C19.1999 6.06836 18.9333 6.01025 18.6963 5.89404C18.4593 5.77555 18.2656 5.61377 18.1152 5.40869C17.9648 5.20361 17.8703 4.96777 17.8315 4.70117H18.5767C18.6108 4.84245 18.6689 4.96663 18.751 5.07373C18.833 5.17855 18.9367 5.26058 19.062 5.31982C19.1896 5.37907 19.3343 5.40869 19.4961 5.40869C19.749 5.40869 19.9666 5.33805 20.1489 5.19678C20.3312 5.05322 20.4702 4.84701 20.5659 4.57812C20.6639 4.30924 20.7129 3.98682 20.7129 3.61084H20.6514C20.5625 3.74984 20.4531 3.86947 20.3232 3.96973C20.1934 4.06999 20.0487 4.14746 19.8892 4.20215C19.7297 4.25456 19.5622 4.28076 19.3867 4.28076C19.0951 4.28076 18.8262 4.21126 18.5801 4.07227C18.3363 3.93099 18.1437 3.7373 18.0024 3.49121C17.8612 3.24512 17.7894 2.96826 17.7871 2.66064C17.7871 2.34391 17.8612 2.05794 18.0093 1.80273C18.1574 1.54753 18.3659 1.34587 18.6348 1.19775C18.9059 1.04964 19.2158 0.977865 19.5645 0.982422ZM19.5679 1.61133C19.3719 1.61133 19.1942 1.65804 19.0347 1.75146C18.8752 1.84489 18.7498 1.97135 18.6587 2.13086C18.5675 2.28809 18.522 2.46012 18.522 2.64697C18.5243 2.83382 18.5698 3.00586 18.6587 3.16309C18.7476 3.32031 18.8695 3.4445 19.0244 3.53564C19.1816 3.62679 19.3571 3.67236 19.5508 3.67236C19.7445 3.67236 19.9222 3.62451 20.084 3.52881C20.248 3.43083 20.3768 3.30208 20.4702 3.14258C20.5659 2.98307 20.6138 2.81445 20.6138 2.63672C20.6138 2.45671 20.5682 2.28809 20.4771 2.13086C20.3859 1.97363 20.2606 1.84831 20.1011 1.75488C19.9438 1.65918 19.7661 1.61133 19.5679 1.61133ZM25.5938 3.14941H24.4453V2.60596H25.5938V3.14941ZM23.7583 2.15479C23.7583 2.59456 23.7025 3.01953 23.5908 3.42969C23.4814 3.83984 23.3197 4.20671 23.1055 4.53027C22.8913 4.85156 22.6338 5.10449 22.333 5.28906L21.9263 4.80371C22.2065 4.63509 22.4469 4.41064 22.6475 4.13037C22.848 3.84782 22.9984 3.53678 23.0986 3.19727C23.2012 2.85775 23.2524 2.51025 23.2524 2.15479V1.01318H23.7583V2.15479ZM23.8779 2.12744C23.8779 2.46696 23.9246 2.7985 24.0181 3.12207C24.1115 3.44336 24.2505 3.73844 24.4351 4.00732C24.6219 4.2762 24.8464 4.49154 25.1084 4.65332L24.7461 5.15234C24.4499 4.97461 24.2004 4.72738 23.9976 4.41064C23.7948 4.09163 23.6421 3.7373 23.5396 3.34766C23.4393 2.95801 23.3892 2.55127 23.3892 2.12744V1.01318H23.8779V2.12744ZM27.2822 6.57764H26.6567V0.452637H27.2822V6.57764ZM26.0107 6.27686H25.3989V0.568848H26.0107V6.27686Z" fill="#939393"/>
</svg>
