<svg width="28" height="7" viewBox="0 0 28 7" fill="none" xmlns="http://www.w3.org/2000/svg">
<path d="M2.27637 6.06836C1.94141 6.0638 1.63379 5.98633 1.35352 5.83594C1.07552 5.68555 0.847656 5.43376 0.669922 5.08057C0.494466 4.72738 0.406738 4.26367 0.406738 3.68945C0.406738 3.12207 0.485352 2.63558 0.642578 2.22998C0.799805 1.8221 1.02311 1.51221 1.3125 1.30029C1.60189 1.08838 1.94368 0.982422 2.33789 0.982422C2.63867 0.982422 2.90641 1.04053 3.14111 1.15674C3.37809 1.27067 3.57064 1.43018 3.71875 1.63525C3.86914 1.84033 3.9637 2.07503 4.00244 2.33936H3.25732C3.22087 2.20036 3.16162 2.07845 3.07959 1.97363C2.99984 1.86654 2.8973 1.78451 2.77197 1.72754C2.64665 1.67057 2.50195 1.64209 2.33789 1.64209C2.08496 1.64209 1.86849 1.71273 1.68848 1.854C1.50846 1.993 1.37061 2.1958 1.2749 2.4624C1.1792 2.729 1.13021 3.04915 1.12793 3.42285H1.18262C1.27376 3.28385 1.38314 3.16423 1.51074 3.06396C1.64062 2.9637 1.78646 2.88737 1.94824 2.83496C2.11003 2.78027 2.27865 2.75293 2.4541 2.75293C2.74577 2.75293 3.01351 2.82357 3.25732 2.96484C3.50342 3.10384 3.69596 3.29639 3.83496 3.54248C3.97624 3.78857 4.04688 4.06771 4.04688 4.37988C4.04688 4.69889 3.97282 4.98714 3.82471 5.24463C3.6766 5.50212 3.4681 5.70378 3.19922 5.84961C2.93034 5.99544 2.62272 6.06836 2.27637 6.06836ZM2.27295 5.43945C2.46891 5.43945 2.64551 5.39274 2.80273 5.29932C2.96224 5.20589 3.08757 5.07943 3.17871 4.91992C3.27214 4.75814 3.31885 4.58382 3.31885 4.39697C3.31885 4.20329 3.27441 4.02783 3.18555 3.87061C3.09668 3.71338 2.97363 3.59033 2.81641 3.50146C2.65918 3.41032 2.48145 3.36475 2.2832 3.36475C2.08952 3.36475 1.91178 3.4126 1.75 3.5083C1.58822 3.60173 1.45947 3.72819 1.36377 3.8877C1.27035 4.04492 1.22135 4.21582 1.2168 4.40039C1.21908 4.5804 1.26579 4.75016 1.35693 4.90967C1.45036 5.06917 1.57682 5.19792 1.73633 5.2959C1.89583 5.3916 2.07471 5.43945 2.27295 5.43945ZM6.56934 6.06836C6.1888 6.06836 5.86296 5.96924 5.5918 5.771C5.32064 5.57275 5.11328 5.28337 4.96973 4.90283C4.82617 4.5223 4.75439 4.06315 4.75439 3.52539C4.75439 2.99219 4.82617 2.53532 4.96973 2.15479C5.11328 1.77425 5.32178 1.48372 5.59521 1.2832C5.86865 1.08268 6.19336 0.982422 6.56934 0.982422C6.94531 0.982422 7.27002 1.08268 7.54346 1.2832C7.81689 1.48372 8.02539 1.77425 8.16895 2.15479C8.3125 2.53532 8.38428 2.99219 8.38428 3.52539C8.38428 4.06315 8.3125 4.5223 8.16895 4.90283C8.02767 5.28337 7.82031 5.57275 7.54688 5.771C7.27572 5.96924 6.94987 6.06836 6.56934 6.06836ZM6.56934 5.42236C6.79036 5.42236 6.98063 5.34945 7.14014 5.20361C7.30192 5.05778 7.42497 4.84359 7.50928 4.56104C7.59359 4.2762 7.6346 3.93099 7.63232 3.52539C7.63232 3.11979 7.59017 2.77458 7.50586 2.48975C7.42155 2.20492 7.29964 1.98844 7.14014 1.84033C6.98063 1.69222 6.79036 1.61816 6.56934 1.61816C6.34831 1.61816 6.15804 1.69222 5.99854 1.84033C5.83903 1.98844 5.71598 2.20492 5.62939 2.48975C5.54281 2.77458 5.49951 3.11979 5.49951 3.52539C5.49951 3.93099 5.54167 4.2762 5.62598 4.56104C5.71029 4.84359 5.83333 5.05778 5.99512 5.20361C6.1569 5.34945 6.34831 5.42236 6.56934 5.42236ZM9.38916 3.39551C9.50081 3.27018 9.625 3.17562 9.76172 3.11182C9.89844 3.04574 10.0443 3.0127 10.1992 3.0127C10.3154 3.0127 10.4282 3.02865 10.5376 3.06055C10.6493 3.09017 10.7939 3.13916 10.9717 3.20752C11.1335 3.27132 11.2702 3.32031 11.3818 3.35449C11.4958 3.38867 11.6097 3.40576 11.7236 3.40576C11.8809 3.40576 12.0267 3.37044 12.1611 3.2998C12.2979 3.22917 12.4175 3.12663 12.52 2.99219V3.64844C12.4084 3.77376 12.2842 3.86947 12.1475 3.93555C12.0107 4.00163 11.8649 4.03467 11.71 4.03467C11.5938 4.03467 11.4787 4.01758 11.3647 3.9834C11.2531 3.94922 11.1107 3.90023 10.9375 3.83643C10.778 3.76807 10.6413 3.71794 10.5273 3.68604C10.4134 3.65413 10.2972 3.63818 10.1787 3.63818C10.026 3.63818 9.88249 3.6735 9.74805 3.74414C9.61589 3.8125 9.49626 3.91504 9.38916 4.05176V3.39551ZM15.4082 6.06836C15.0732 6.0638 14.7656 5.98633 14.4854 5.83594C14.2074 5.68555 13.9795 5.43376 13.8018 5.08057C13.6263 4.72738 13.5386 4.26367 13.5386 3.68945C13.5386 3.12207 13.6172 2.63558 13.7744 2.22998C13.9316 1.8221 14.1549 1.51221 14.4443 1.30029C14.7337 1.08838 15.0755 0.982422 15.4697 0.982422C15.7705 0.982422 16.0382 1.04053 16.2729 1.15674C16.5099 1.27067 16.7025 1.43018 16.8506 1.63525C17.001 1.84033 17.0955 2.07503 17.1343 2.33936H16.3892C16.3527 2.20036 16.2935 2.07845 16.2114 1.97363C16.1317 1.86654 16.0291 1.78451 15.9038 1.72754C15.7785 1.67057 15.6338 1.64209 15.4697 1.64209C15.2168 1.64209 15.0003 1.71273 14.8203 1.854C14.6403 1.993 14.5024 2.1958 14.4067 2.4624C14.311 2.729 14.262 3.04915 14.2598 3.42285H14.3145C14.4056 3.28385 14.515 3.16423 14.6426 3.06396C14.7725 2.9637 14.9183 2.88737 15.0801 2.83496C15.2419 2.78027 15.4105 2.75293 15.5859 2.75293C15.8776 2.75293 16.1453 2.82357 16.3892 2.96484C16.6353 3.10384 16.8278 3.29639 16.9668 3.54248C17.1081 3.78857 17.1787 4.06771 17.1787 4.37988C17.1787 4.69889 17.1047 4.98714 16.9565 5.24463C16.8084 5.50212 16.5999 5.70378 16.3311 5.84961C16.0622 5.99544 15.7546 6.06836 15.4082 6.06836ZM15.4048 5.43945C15.6007 5.43945 15.7773 5.39274 15.9346 5.29932C16.0941 5.20589 16.2194 5.07943 16.3105 4.91992C16.404 4.75814 16.4507 4.58382 16.4507 4.39697C16.4507 4.20329 16.4062 4.02783 16.3174 3.87061C16.2285 3.71338 16.1055 3.59033 15.9482 3.50146C15.791 3.41032 15.6133 3.36475 15.415 3.36475C15.2214 3.36475 15.0436 3.4126 14.8818 3.5083C14.7201 3.60173 14.5913 3.72819 14.4956 3.8877C14.4022 4.04492 14.3532 4.21582 14.3486 4.40039C14.3509 4.5804 14.3976 4.75016 14.4888 4.90967C14.5822 5.06917 14.7087 5.19792 14.8682 5.2959C15.0277 5.3916 15.2065 5.43945 15.4048 5.43945ZM19.6807 0.982422C20.0156 0.982422 20.3221 1.05762 20.6001 1.20801C20.8804 1.3584 21.1082 1.61019 21.2837 1.96338C21.4591 2.31429 21.5469 2.77686 21.5469 3.35107C21.5469 3.92074 21.4683 4.40951 21.311 4.81738C21.1561 5.22298 20.9328 5.53288 20.6411 5.74707C20.3517 5.96126 20.0088 6.06836 19.6123 6.06836C19.3161 6.06836 19.0495 6.01025 18.8125 5.89404C18.5755 5.77555 18.3818 5.61377 18.2314 5.40869C18.0811 5.20361 17.9865 4.96777 17.9478 4.70117H18.6929C18.7271 4.84245 18.7852 4.96663 18.8672 5.07373C18.9492 5.17855 19.0529 5.26058 19.1782 5.31982C19.3058 5.37907 19.4505 5.40869 19.6123 5.40869C19.8652 5.40869 20.0828 5.33805 20.2651 5.19678C20.4474 5.05322 20.5864 4.84701 20.6821 4.57812C20.7801 4.30924 20.8291 3.98682 20.8291 3.61084H20.7676C20.6787 3.74984 20.5693 3.86947 20.4395 3.96973C20.3096 4.06999 20.1649 4.14746 20.0054 4.20215C19.8459 4.25456 19.6784 4.28076 19.5029 4.28076C19.2113 4.28076 18.9424 4.21126 18.6963 4.07227C18.4525 3.93099 18.2599 3.7373 18.1187 3.49121C17.9774 3.24512 17.9056 2.96826 17.9033 2.66064C17.9033 2.34391 17.9774 2.05794 18.1255 1.80273C18.2736 1.54753 18.4821 1.34587 18.751 1.19775C19.0221 1.04964 19.332 0.977865 19.6807 0.982422ZM19.6841 1.61133C19.4881 1.61133 19.3104 1.65804 19.1509 1.75146C18.9914 1.84489 18.866 1.97135 18.7749 2.13086C18.6838 2.28809 18.6382 2.46012 18.6382 2.64697C18.6405 2.83382 18.686 3.00586 18.7749 3.16309C18.8638 3.32031 18.9857 3.4445 19.1406 3.53564C19.2979 3.62679 19.4733 3.67236 19.667 3.67236C19.8607 3.67236 20.0384 3.62451 20.2002 3.52881C20.3643 3.43083 20.493 3.30208 20.5864 3.14258C20.6821 2.98307 20.73 2.81445 20.73 2.63672C20.73 2.45671 20.6844 2.28809 20.5933 2.13086C20.5021 1.97363 20.3768 1.84831 20.2173 1.75488C20.0601 1.65918 19.8823 1.61133 19.6841 1.61133ZM25.71 3.14941H24.5615V2.60596H25.71V3.14941ZM23.8745 2.15479C23.8745 2.59456 23.8187 3.01953 23.707 3.42969C23.5977 3.83984 23.4359 4.20671 23.2217 4.53027C23.0075 4.85156 22.75 5.10449 22.4492 5.28906L22.0425 4.80371C22.3228 4.63509 22.5632 4.41064 22.7637 4.13037C22.9642 3.84782 23.1146 3.53678 23.2148 3.19727C23.3174 2.85775 23.3687 2.51025 23.3687 2.15479V1.01318H23.8745V2.15479ZM23.9941 2.12744C23.9941 2.46696 24.0409 2.7985 24.1343 3.12207C24.2277 3.44336 24.3667 3.73844 24.5513 4.00732C24.7381 4.2762 24.9626 4.49154 25.2246 4.65332L24.8623 5.15234C24.5661 4.97461 24.3166 4.72738 24.1138 4.41064C23.911 4.09163 23.7583 3.7373 23.6558 3.34766C23.5555 2.95801 23.5054 2.55127 23.5054 2.12744V1.01318H23.9941V2.12744ZM27.3984 6.57764H26.7729V0.452637H27.3984V6.57764ZM26.127 6.27686H25.5151V0.568848H26.127V6.27686Z" fill="#939393"/>
</svg>
