<svg width="27" height="7" viewBox="0 0 27 7" fill="none" xmlns="http://www.w3.org/2000/svg">
<path d="M2.98291 1.73096V1.69678H0.429688V1.05078H3.76221V1.7207L1.55762 6H0.774902L2.98291 1.73096ZM6.13428 6.06836C5.75374 6.06836 5.4279 5.96924 5.15674 5.771C4.88558 5.57275 4.67822 5.28337 4.53467 4.90283C4.39111 4.5223 4.31934 4.06315 4.31934 3.52539C4.31934 2.99219 4.39111 2.53532 4.53467 2.15479C4.67822 1.77425 4.88672 1.48372 5.16016 1.2832C5.43359 1.08268 5.7583 0.982422 6.13428 0.982422C6.51025 0.982422 6.83496 1.08268 7.1084 1.2832C7.38184 1.48372 7.59033 1.77425 7.73389 2.15479C7.87744 2.53532 7.94922 2.99219 7.94922 3.52539C7.94922 4.06315 7.87744 4.5223 7.73389 4.90283C7.59261 5.28337 7.38525 5.57275 7.11182 5.771C6.84066 5.96924 6.51481 6.06836 6.13428 6.06836ZM6.13428 5.42236C6.35531 5.42236 6.54557 5.34945 6.70508 5.20361C6.86686 5.05778 6.98991 4.84359 7.07422 4.56104C7.15853 4.2762 7.19954 3.93099 7.19727 3.52539C7.19727 3.11979 7.15511 2.77458 7.0708 2.48975C6.98649 2.20492 6.86458 1.98844 6.70508 1.84033C6.54557 1.69222 6.35531 1.61816 6.13428 1.61816C5.91325 1.61816 5.72298 1.69222 5.56348 1.84033C5.40397 1.98844 5.28092 2.20492 5.19434 2.48975C5.10775 2.77458 5.06445 3.11979 5.06445 3.52539C5.06445 3.93099 5.10661 4.2762 5.19092 4.56104C5.27523 4.84359 5.39827 5.05778 5.56006 5.20361C5.72184 5.34945 5.91325 5.42236 6.13428 5.42236ZM8.9541 3.39551C9.06576 3.27018 9.18994 3.17562 9.32666 3.11182C9.46338 3.04574 9.60921 3.0127 9.76416 3.0127C9.88037 3.0127 9.99316 3.02865 10.1025 3.06055C10.2142 3.09017 10.3589 3.13916 10.5366 3.20752C10.6984 3.27132 10.8351 3.32031 10.9468 3.35449C11.0607 3.38867 11.1746 3.40576 11.2886 3.40576C11.4458 3.40576 11.5916 3.37044 11.7261 3.2998C11.8628 3.22917 11.9824 3.12663 12.085 2.99219V3.64844C11.9733 3.77376 11.8491 3.86947 11.7124 3.93555C11.5757 4.00163 11.4299 4.03467 11.2749 4.03467C11.1587 4.03467 11.0436 4.01758 10.9297 3.9834C10.818 3.94922 10.6756 3.90023 10.5024 3.83643C10.3429 3.76807 10.2062 3.71794 10.0923 3.68604C9.97835 3.65413 9.86214 3.63818 9.74365 3.63818C9.59098 3.63818 9.44743 3.6735 9.31299 3.74414C9.18083 3.8125 9.0612 3.91504 8.9541 4.05176V3.39551ZM15.3901 1.73096V1.69678H12.8369V1.05078H16.1694V1.7207L13.9648 6H13.1821L15.3901 1.73096ZM18.562 0.982422C18.897 0.982422 19.2035 1.05762 19.4814 1.20801C19.7617 1.3584 19.9896 1.61019 20.165 1.96338C20.3405 2.31429 20.4282 2.77686 20.4282 3.35107C20.4282 3.92074 20.3496 4.40951 20.1924 4.81738C20.0374 5.22298 19.8141 5.53288 19.5225 5.74707C19.2331 5.96126 18.8901 6.06836 18.4937 6.06836C18.1974 6.06836 17.9308 6.01025 17.6938 5.89404C17.4569 5.77555 17.2632 5.61377 17.1128 5.40869C16.9624 5.20361 16.8678 4.96777 16.8291 4.70117H17.5742C17.6084 4.84245 17.6665 4.96663 17.7485 5.07373C17.8306 5.17855 17.9342 5.26058 18.0596 5.31982C18.1872 5.37907 18.3319 5.40869 18.4937 5.40869C18.7466 5.40869 18.9642 5.33805 19.1465 5.19678C19.3288 5.05322 19.4678 4.84701 19.5635 4.57812C19.6615 4.30924 19.7104 3.98682 19.7104 3.61084H19.6489C19.5601 3.74984 19.4507 3.86947 19.3208 3.96973C19.1909 4.06999 19.0462 4.14746 18.8867 4.20215C18.7272 4.25456 18.5597 4.28076 18.3843 4.28076C18.0926 4.28076 17.8237 4.21126 17.5776 4.07227C17.3338 3.93099 17.1413 3.7373 17 3.49121C16.8587 3.24512 16.7869 2.96826 16.7847 2.66064C16.7847 2.34391 16.8587 2.05794 17.0068 1.80273C17.1549 1.54753 17.3634 1.34587 17.6323 1.19775C17.9035 1.04964 18.2134 0.977865 18.562 0.982422ZM18.5654 1.61133C18.3695 1.61133 18.1917 1.65804 18.0322 1.75146C17.8727 1.84489 17.7474 1.97135 17.6562 2.13086C17.5651 2.28809 17.5195 2.46012 17.5195 2.64697C17.5218 2.83382 17.5674 3.00586 17.6562 3.16309C17.7451 3.32031 17.867 3.4445 18.022 3.53564C18.1792 3.62679 18.3547 3.67236 18.5483 3.67236C18.742 3.67236 18.9198 3.62451 19.0815 3.52881C19.2456 3.43083 19.3743 3.30208 19.4678 3.14258C19.5635 2.98307 19.6113 2.81445 19.6113 2.63672C19.6113 2.45671 19.5658 2.28809 19.4746 2.13086C19.3835 1.97363 19.2581 1.84831 19.0986 1.75488C18.9414 1.65918 18.7637 1.61133 18.5654 1.61133ZM24.5913 3.14941H23.4429V2.60596H24.5913V3.14941ZM22.7559 2.15479C22.7559 2.59456 22.7 3.01953 22.5884 3.42969C22.479 3.83984 22.3172 4.20671 22.103 4.53027C21.8888 4.85156 21.6313 5.10449 21.3306 5.28906L20.9238 4.80371C21.2041 4.63509 21.4445 4.41064 21.645 4.13037C21.8455 3.84782 21.9959 3.53678 22.0962 3.19727C22.1987 2.85775 22.25 2.51025 22.25 2.15479V1.01318H22.7559V2.15479ZM22.8755 2.12744C22.8755 2.46696 22.9222 2.7985 23.0156 3.12207C23.109 3.44336 23.248 3.73844 23.4326 4.00732C23.6195 4.2762 23.8439 4.49154 24.106 4.65332L23.7437 5.15234C23.4474 4.97461 23.1979 4.72738 22.9951 4.41064C22.7923 4.09163 22.6396 3.7373 22.5371 3.34766C22.4368 2.95801 22.3867 2.55127 22.3867 2.12744V1.01318H22.8755V2.12744ZM26.2798 6.57764H25.6543V0.452637H26.2798V6.57764ZM25.0083 6.27686H24.3965V0.568848H25.0083V6.27686Z" fill="#939393"/>
</svg>
