<svg width="29" height="7" viewBox="0 0 29 7" fill="none" xmlns="http://www.w3.org/2000/svg">
<path d="M1.91064 6.06836C1.55973 6.06836 1.24528 6.00911 0.967285 5.89062C0.691569 5.76986 0.476237 5.60465 0.321289 5.39502C0.16862 5.18311 0.0922852 4.94499 0.0922852 4.68066C0.0922852 4.47331 0.136719 4.27962 0.225586 4.09961C0.316732 3.9196 0.440918 3.77148 0.598145 3.65527C0.75765 3.53678 0.933105 3.46387 1.12451 3.43652V3.40576C0.960449 3.36702 0.814616 3.29525 0.687012 3.19043C0.559408 3.08561 0.459147 2.95573 0.38623 2.80078C0.315592 2.64583 0.280273 2.47949 0.280273 2.30176C0.280273 2.05111 0.350911 1.82552 0.492188 1.625C0.635742 1.4222 0.830566 1.26497 1.07666 1.15332C1.32503 1.03939 1.60303 0.982422 1.91064 0.982422C2.21826 0.982422 2.49626 1.03939 2.74463 1.15332C2.993 1.26497 3.18783 1.4222 3.3291 1.625C3.47266 1.82552 3.54443 2.05111 3.54443 2.30176C3.54443 2.47949 3.50684 2.64583 3.43164 2.80078C3.35872 2.95573 3.25846 3.08561 3.13086 3.19043C3.00553 3.29525 2.8597 3.36702 2.69336 3.40576V3.43652C2.88704 3.46387 3.06136 3.53678 3.21631 3.65527C3.37354 3.77148 3.49886 3.9196 3.59229 4.09961C3.68571 4.27962 3.73242 4.47331 3.73242 4.68066C3.73242 4.94499 3.65381 5.18311 3.49658 5.39502C3.34163 5.60465 3.1263 5.76986 2.85059 5.89062C2.57487 6.00911 2.26156 6.06836 1.91064 6.06836ZM1.91064 5.44629C2.12256 5.44629 2.30827 5.41211 2.46777 5.34375C2.62728 5.27539 2.75033 5.17855 2.83691 5.05322C2.9235 4.9279 2.9668 4.78548 2.9668 4.62598C2.9668 4.45508 2.92122 4.30355 2.83008 4.17139C2.73893 4.03695 2.61247 3.93213 2.45068 3.85693C2.29118 3.77946 2.11117 3.74072 1.91064 3.74072C1.71012 3.74072 1.52897 3.77946 1.36719 3.85693C1.2054 3.93213 1.07894 4.03695 0.987793 4.17139C0.898926 4.30355 0.856771 4.45508 0.861328 4.62598C0.856771 4.78548 0.897786 4.9279 0.984375 5.05322C1.07096 5.17855 1.19401 5.27539 1.35352 5.34375C1.51302 5.41211 1.69873 5.44629 1.91064 5.44629ZM1.91064 3.15283C2.08154 3.15283 2.23535 3.11979 2.37207 3.05371C2.51107 2.98763 2.61816 2.89535 2.69336 2.77686C2.76855 2.65609 2.80615 2.52051 2.80615 2.37012C2.80615 2.21745 2.76855 2.08301 2.69336 1.9668C2.62044 1.84831 2.51562 1.75716 2.37891 1.69336C2.24219 1.62956 2.0861 1.59766 1.91064 1.59766C1.73519 1.59766 1.57796 1.62956 1.43896 1.69336C1.30225 1.75716 1.19629 1.84831 1.12109 1.9668C1.04818 2.08301 1.01172 2.21745 1.01172 2.37012C1.01172 2.52051 1.05046 2.65609 1.12793 2.77686C1.20768 2.89535 1.31478 2.98763 1.44922 3.05371C1.58366 3.11979 1.73747 3.15283 1.91064 3.15283ZM6.23438 6.06836C5.85384 6.06836 5.52799 5.96924 5.25684 5.771C4.98568 5.57275 4.77832 5.28337 4.63477 4.90283C4.49121 4.5223 4.41943 4.06315 4.41943 3.52539C4.41943 2.99219 4.49121 2.53532 4.63477 2.15479C4.77832 1.77425 4.98682 1.48372 5.26025 1.2832C5.53369 1.08268 5.8584 0.982422 6.23438 0.982422C6.61035 0.982422 6.93506 1.08268 7.2085 1.2832C7.48193 1.48372 7.69043 1.77425 7.83398 2.15479C7.97754 2.53532 8.04932 2.99219 8.04932 3.52539C8.04932 4.06315 7.97754 4.5223 7.83398 4.90283C7.69271 5.28337 7.48535 5.57275 7.21191 5.771C6.94076 5.96924 6.61491 6.06836 6.23438 6.06836ZM6.23438 5.42236C6.4554 5.42236 6.64567 5.34945 6.80518 5.20361C6.96696 5.05778 7.09001 4.84359 7.17432 4.56104C7.25863 4.2762 7.29964 3.93099 7.29736 3.52539C7.29736 3.11979 7.25521 2.77458 7.1709 2.48975C7.08659 2.20492 6.96468 1.98844 6.80518 1.84033C6.64567 1.69222 6.4554 1.61816 6.23438 1.61816C6.01335 1.61816 5.82308 1.69222 5.66357 1.84033C5.50407 1.98844 5.38102 2.20492 5.29443 2.48975C5.20785 2.77458 5.16455 3.11979 5.16455 3.52539C5.16455 3.93099 5.20671 4.2762 5.29102 4.56104C5.37533 4.84359 5.49837 5.05778 5.66016 5.20361C5.82194 5.34945 6.01335 5.42236 6.23438 5.42236ZM12.2021 3.14941H11.0537V2.60596H12.2021V3.14941ZM10.3667 2.15479C10.3667 2.59456 10.3109 3.01953 10.1992 3.42969C10.0898 3.83984 9.92806 4.20671 9.71387 4.53027C9.49967 4.85156 9.24219 5.10449 8.94141 5.28906L8.53467 4.80371C8.81494 4.63509 9.05534 4.41064 9.25586 4.13037C9.45638 3.84782 9.60677 3.53678 9.70703 3.19727C9.80957 2.85775 9.86084 2.51025 9.86084 2.15479V1.01318H10.3667V2.15479ZM10.4863 2.12744C10.4863 2.46696 10.533 2.7985 10.6265 3.12207C10.7199 3.44336 10.8589 3.73844 11.0435 4.00732C11.2303 4.2762 11.4548 4.49154 11.7168 4.65332L11.3545 5.15234C11.0583 4.97461 10.8088 4.72738 10.606 4.41064C10.4032 4.09163 10.2505 3.7373 10.1479 3.34766C10.0477 2.95801 9.99756 2.55127 9.99756 2.12744V1.01318H10.4863V2.12744ZM13.8906 6.57764H13.2651V0.452637H13.8906V6.57764ZM12.6191 6.27686H12.0073V0.568848H12.6191V6.27686ZM21.4546 6.59473H20.8018V0.452637H21.4546V6.59473ZM18.1733 0.914062C18.4787 0.914062 18.751 1.00293 18.9902 1.18066C19.2295 1.3584 19.4163 1.60905 19.5508 1.93262C19.6852 2.25618 19.7524 2.6333 19.7524 3.06396C19.7524 3.49691 19.6852 3.87516 19.5508 4.19873C19.4163 4.5223 19.2295 4.77295 18.9902 4.95068C18.751 5.12614 18.4787 5.21387 18.1733 5.21387C17.868 5.21387 17.5946 5.12614 17.353 4.95068C17.1138 4.77295 16.9269 4.5223 16.7925 4.19873C16.658 3.87516 16.5908 3.49691 16.5908 3.06396C16.5908 2.6333 16.658 2.25618 16.7925 1.93262C16.9269 1.60905 17.1138 1.3584 17.353 1.18066C17.5946 1.00293 17.868 0.914062 18.1733 0.914062ZM18.1733 1.49512C17.9865 1.49512 17.8201 1.55892 17.6743 1.68652C17.5285 1.81413 17.4157 1.99642 17.3359 2.2334C17.2585 2.4681 17.2197 2.74495 17.2197 3.06396C17.2197 3.3807 17.2585 3.65755 17.3359 3.89453C17.4157 4.13151 17.5285 4.3138 17.6743 4.44141C17.8201 4.56673 17.9865 4.62939 18.1733 4.62939C18.3602 4.62939 18.5254 4.56673 18.6689 4.44141C18.8148 4.3138 18.9276 4.13151 19.0073 3.89453C19.0871 3.65755 19.127 3.3807 19.127 3.06396C19.127 2.74495 19.0871 2.4681 19.0073 2.2334C18.9276 1.99642 18.8159 1.81413 18.6724 1.68652C18.5288 1.55892 18.3625 1.49512 18.1733 1.49512ZM24.4282 1.37891C24.4282 1.77539 24.3599 2.14567 24.2231 2.48975C24.0864 2.83382 23.8916 3.13346 23.6387 3.38867C23.3857 3.64388 23.0838 3.83757 22.7329 3.96973L22.3843 3.45361C22.6965 3.33968 22.9653 3.1779 23.1909 2.96826C23.4188 2.75863 23.5931 2.51709 23.7139 2.24365C23.8346 1.97021 23.895 1.68197 23.895 1.37891V0.773926H24.4282V1.37891ZM24.5376 1.43701C24.5376 1.70133 24.598 1.95768 24.7188 2.20605C24.8395 2.45215 25.0116 2.66976 25.2349 2.85889C25.4582 3.04574 25.7202 3.18929 26.021 3.28955L25.6689 3.79541C25.3317 3.67692 25.0378 3.50033 24.7871 3.26562C24.5365 3.03092 24.3439 2.75749 24.2095 2.44531C24.0773 2.13086 24.0112 1.79476 24.0112 1.43701V0.773926H24.5376V1.43701ZM27.2412 4.14746H26.5952V0.452637H27.2412V4.14746ZM28.1333 2.5376H27.0601V1.99414H28.1333V2.5376ZM25.2622 4.29443C25.6815 4.29443 26.0438 4.34001 26.3491 4.43115C26.6545 4.52002 26.888 4.64876 27.0498 4.81738C27.2139 4.986 27.2959 5.18994 27.2959 5.4292C27.2959 5.66846 27.2139 5.87354 27.0498 6.04443C26.888 6.21533 26.6556 6.34521 26.3525 6.43408C26.0495 6.52523 25.686 6.5708 25.2622 6.5708C24.8407 6.5708 24.4749 6.52523 24.165 6.43408C23.8574 6.34521 23.6204 6.21533 23.4541 6.04443C23.29 5.87354 23.208 5.66846 23.208 5.4292C23.208 5.18994 23.29 4.986 23.4541 4.81738C23.6204 4.64876 23.8574 4.52002 24.165 4.43115C24.4749 4.34001 24.8407 4.29443 25.2622 4.29443ZM25.2622 4.81055C24.9728 4.81055 24.7222 4.83447 24.5103 4.88232C24.2983 4.93018 24.1366 5.00195 24.0249 5.09766C23.9155 5.19108 23.8608 5.3016 23.8608 5.4292C23.8608 5.56136 23.9155 5.67529 24.0249 5.771C24.1366 5.86442 24.2972 5.93506 24.5068 5.98291C24.7165 6.03076 24.9683 6.05583 25.2622 6.05811C25.5607 6.05583 25.8136 6.03076 26.021 5.98291C26.2306 5.93506 26.3901 5.86442 26.4995 5.771C26.6089 5.67529 26.6636 5.56136 26.6636 5.4292C26.6636 5.29704 26.6077 5.18538 26.4961 5.09424C26.3867 5.00081 26.2272 4.93018 26.0176 4.88232C25.8079 4.83447 25.5562 4.81055 25.2622 4.81055Z" fill="#939393"/>
</svg>
