<svg width="278" height="202" viewBox="0 0 278 202" fill="none" xmlns="http://www.w3.org/2000/svg">
<mask id="path-1-outside-1_1_517" maskUnits="userSpaceOnUse" x="0.374023" y="0" width="278" height="202" fill="black">
<rect fill="white" x="0.374023" width="278" height="202"/>
<path fill-rule="evenodd" clip-rule="evenodd" d="M261.663 198.864C253.349 197.732 244.292 196.38 234.988 194.992C207.375 190.871 177.59 186.427 158.62 186.427C100.792 186.427 55.4842 189.905 18.0889 192.776C16.6043 192.89 15.1322 193.003 13.6722 193.115C6.40439 176.422 2.37402 157.994 2.37402 138.626C2.37402 63.1694 63.5434 2 139 2C214.456 2 275.625 63.1694 275.625 138.626C275.625 160.246 270.604 180.693 261.663 198.864Z"/>
</mask>
<path fill-rule="evenodd" clip-rule="evenodd" d="M261.663 198.864C253.349 197.732 244.292 196.38 234.988 194.992C207.375 190.871 177.59 186.427 158.62 186.427C100.792 186.427 55.4842 189.905 18.0889 192.776C16.6043 192.89 15.1322 193.003 13.6722 193.115C6.40439 176.422 2.37402 157.994 2.37402 138.626C2.37402 63.1694 63.5434 2 139 2C214.456 2 275.625 63.1694 275.625 138.626C275.625 160.246 270.604 180.693 261.663 198.864Z" fill="white"/>
<path d="M261.663 198.864L261.393 200.846L262.821 201.04L263.458 199.747L261.663 198.864ZM234.988 194.992L235.283 193.014L234.988 194.992ZM18.0889 192.776L18.242 194.77H18.242L18.0889 192.776ZM13.6722 193.115L11.8385 193.913L12.4064 195.218L13.8249 195.109L13.6722 193.115ZM261.933 196.882C253.634 195.752 244.59 194.403 235.283 193.014L234.693 196.97C243.994 198.358 253.064 199.711 261.393 200.846L261.933 196.882ZM235.283 193.014C207.74 188.904 177.775 184.427 158.62 184.427V188.427C177.405 188.427 207.01 192.839 234.693 196.97L235.283 193.014ZM158.62 184.427C100.71 184.427 55.3361 187.911 17.9358 190.782L18.242 194.77C55.6323 191.9 100.875 188.427 158.62 188.427V184.427ZM17.9358 190.782C16.4511 190.896 14.9792 191.009 13.5195 191.121L13.8249 195.109C15.2851 194.997 16.7574 194.884 18.242 194.77L17.9358 190.782ZM15.5059 192.317C8.34573 175.871 4.37402 157.715 4.37402 138.626H0.374023C0.374023 158.274 4.46305 176.973 11.8385 193.913L15.5059 192.317ZM4.37402 138.626C4.37402 64.274 64.648 4 139 4V0C62.4389 0 0.374023 62.0649 0.374023 138.626H4.37402ZM139 4C213.351 4 273.625 64.274 273.625 138.626H277.625C277.625 62.0649 215.561 0 139 0V4ZM273.625 138.626C273.625 159.933 268.677 180.078 259.869 197.981L263.458 199.747C272.53 181.307 277.625 160.559 277.625 138.626H273.625Z" fill="#344B74" mask="url(#path-1-outside-1_1_517)"/>
</svg>
