<svg width="363" height="74" viewBox="0 0 363 74" fill="none" xmlns="http://www.w3.org/2000/svg">
<path d="M5 32C2.23858 32 0 34.2386 0 37C0 39.7614 2.23858 42 5 42V32ZM361.536 40.5355C363.488 38.5829 363.488 35.4171 361.536 33.4645L329.716 1.64466C327.763 -0.307961 324.597 -0.307961 322.645 1.64466C320.692 3.59728 320.692 6.76311 322.645 8.71573L350.929 37L322.645 65.2843C320.692 67.2369 320.692 70.4027 322.645 72.3553C324.597 74.308 327.763 74.308 329.716 72.3553L361.536 40.5355ZM5 42H358V32H5V42Z" fill="#3D5684"/>
</svg>
