<svg width="355" height="194" viewBox="0 0 355 194" fill="none" xmlns="http://www.w3.org/2000/svg">
<path d="M0.47766 43.8148C-2.35662 19.3753 17.8701 -1.55078 42.3918 0.451393L175.527 11.3218C177.648 11.4949 179.779 11.4942 181.899 11.3197L312.259 0.592691C337.217 -1.46104 357.615 20.204 354.063 44.993L347.52 90.6565C346.997 94.3105 346.995 98.0203 347.514 101.675L354.207 148.78C357.702 173.375 337.619 194.925 312.839 193.169L178.713 183.665L42.418 193.248C17.88 194.973 -2.10775 173.828 0.994078 149.426L6.53095 105.867C6.92796 102.744 6.94531 99.5843 6.58261 96.4568L0.47766 43.8148Z" fill="white"/>
</svg>
