<svg width="141" height="144" viewBox="0 0 141 144" fill="none" xmlns="http://www.w3.org/2000/svg">
<path d="M117.694 16.8336C127.722 14.5281 136.327 24.2356 132.835 33.9153L123.398 60.0696C122.072 63.743 122.469 67.8176 124.477 71.1669L138.775 95.0135C144.067 103.839 137.493 115.022 127.208 114.692L99.4179 113.799C95.5147 113.674 91.762 115.31 89.1972 118.255L70.9362 139.222C64.1778 146.982 51.5106 144.186 48.6465 134.302L40.9079 107.596C39.821 103.845 37.1055 100.782 33.5122 99.2526L7.92787 88.3647C-1.54077 84.3351 -2.79609 71.4238 5.71893 65.6457L28.7266 50.0331C31.958 47.8404 34.0325 44.3111 34.3765 40.4211L36.8256 12.7244C37.732 2.47397 49.6234 -2.70971 57.75 3.60302L79.7082 20.66C82.7922 23.0557 86.7898 23.938 90.5957 23.0631L117.694 16.8336Z" fill="#E5AE31"/>
</svg>
