<svg width="293" height="391" viewBox="0 0 293 391" fill="none" xmlns="http://www.w3.org/2000/svg">
<path d="M180.792 14.5475C196.727 -6.84776 229.584 -4.08483 241.722 19.6711L278.006 90.6843C282.277 99.0426 289.643 105.403 298.535 108.408L374.081 133.947C399.353 142.491 406.879 174.593 388.036 193.478L331.711 249.931C325.081 256.575 321.309 265.546 321.198 274.932L320.254 354.672C319.939 381.347 291.733 398.425 267.949 386.34L196.855 350.217C188.487 345.965 178.789 345.15 169.828 347.944L93.6994 371.688C68.2319 379.631 43.2741 358.082 47.4176 331.729L59.8037 252.951C61.2616 243.679 59.0404 234.204 53.6136 226.545L7.50702 161.479C-7.91699 139.713 4.8641 109.318 31.2082 105.115L109.958 92.5509C119.227 91.0721 127.552 86.0317 133.159 78.504L180.792 14.5475Z" fill="#E5AE31"/>
</svg>
