<svg width="323" height="319" viewBox="0 0 323 319" fill="none" xmlns="http://www.w3.org/2000/svg">
<path d="M118.243 20.7686C129.589 -3.37564 162.337 -7.2233 178.97 13.6335L212.961 56.2546C218.813 63.5929 227.3 68.3553 236.613 69.5269L290.702 76.3313C317.171 79.6611 330.95 109.617 316.254 131.881L286.222 177.379C281.052 185.213 279.145 194.756 280.908 203.975L291.151 257.519C296.164 283.721 271.932 306.083 246.216 298.986L193.665 284.484C184.617 281.987 174.952 283.123 166.729 287.649L118.97 313.937C95.5997 326.801 66.8446 310.665 65.6472 284.015L63.2003 229.554C62.779 220.178 58.7122 211.336 51.8666 204.914L12.1073 167.617C-7.3491 149.365 -0.888839 117.031 24.0872 107.657L75.1259 88.5007C83.9135 85.2024 91.0655 78.6025 95.0575 70.1076L118.243 20.7686Z" fill="#E5AE31"/>
</svg>
