<svg width="243" height="400" viewBox="0 0 243 400" fill="none" xmlns="http://www.w3.org/2000/svg">
<path d="M-16.982 26.5256C-9.23965 0.99653 22.6098 -7.53754 42.0795 10.7001L100.28 65.2174C107.13 71.6342 116.215 75.1218 125.6 74.9369L205.33 73.3661C232.002 72.8407 249.961 100.494 238.632 124.647L204.768 196.845C200.782 205.343 200.273 215.061 203.348 223.929L229.48 299.272C238.222 324.476 217.472 350.101 191 346.791L111.871 336.894C102.557 335.73 93.1572 338.248 85.6738 343.914L22.0938 392.049C0.824487 408.152 -29.9585 396.335 -34.9899 370.137L-50.0304 291.822C-51.8006 282.604 -57.101 274.442 -64.8018 269.076L-130.228 223.482C-152.115 208.23 -150.39 175.302 -127.028 162.421L-57.1943 123.916C-48.9748 119.384 -42.8503 111.821 -40.1262 102.839L-16.982 26.5256Z" fill="#E5AE31"/>
</svg>
