<svg width="187" height="192" viewBox="0 0 187 192" fill="none" xmlns="http://www.w3.org/2000/svg">
<path d="M50.4705 18.0817C52.9956 2.18634 71.7286 -5.07684 84.3088 4.96193L109.272 24.8822C113.881 28.5596 119.823 30.1304 125.646 29.2107L157.192 24.2291C173.09 21.7186 185.787 37.2904 180.127 52.357L168.896 82.2543C166.822 87.7735 167.164 93.91 169.839 99.1645L184.325 127.627C191.625 141.971 180.739 158.858 164.661 158.131L132.756 156.688C126.866 156.422 121.136 158.644 116.965 162.811L94.3716 185.384C82.9857 196.759 63.5612 191.624 59.2842 176.108L50.7973 145.319C49.2306 139.635 45.3467 134.872 40.0947 132.193L11.6451 117.681C-2.692 110.367 -3.81087 90.3066 9.62407 81.4443L36.2834 63.8584C41.2049 60.6119 44.535 55.4462 45.46 49.6234L50.4705 18.0817Z" fill="#E5AE31"/>
</svg>
