<svg width="47" height="45" viewBox="0 0 47 45" fill="none" xmlns="http://www.w3.org/2000/svg">
<path d="M19.2538 2.82938C21.2102 -0.317196 25.7898 -0.317201 27.7462 2.82937L31.975 9.63085C32.6634 10.7379 33.7569 11.5324 35.0225 11.845L42.7978 13.7651C46.395 14.6533 47.8101 19.0088 45.4221 21.8418L40.2603 27.9654C39.4201 28.9622 39.0024 30.2477 39.0963 31.5479L39.6729 39.5361C39.9397 43.2316 36.2347 45.9234 32.8024 44.5277L25.3834 41.5109C24.1758 41.0198 22.8242 41.0198 21.6166 41.5109L14.1976 44.5277C10.7653 45.9234 7.06034 43.2316 7.3271 39.5361L7.90371 31.5479C7.99756 30.2477 7.57988 28.9622 6.73968 27.9654L1.57787 21.8418C-0.810141 19.0088 0.605026 14.6533 4.20215 13.7651L11.9775 11.845C13.2431 11.5324 14.3366 10.7379 15.025 9.63085L19.2538 2.82938Z" fill="#E5AE31"/>
</svg>
