<svg width="493" height="99" viewBox="0 0 493 99" fill="none" xmlns="http://www.w3.org/2000/svg">
<mask id="path-1-inside-1_1_759" fill="white">
<path fill-rule="evenodd" clip-rule="evenodd" d="M168.37 0H0.540039V99H168.37H198.263H473C484.046 99 493 90.0457 493 79V20C493 8.9543 484.046 0 473 0H198.263H168.37Z"/>
</mask>
<path fill-rule="evenodd" clip-rule="evenodd" d="M168.37 0H0.540039V99H168.37H198.263H473C484.046 99 493 90.0457 493 79V20C493 8.9543 484.046 0 473 0H198.263H168.37Z" fill="white"/>
<path d="M0.540039 0V-1H-0.459961V0H0.540039ZM0.540039 99H-0.459961V100H0.540039V99ZM0.540039 1H168.37V-1H0.540039V1ZM1.54004 99V0H-0.459961V99H1.54004ZM168.37 98H0.540039V100H168.37V98ZM198.263 98H168.37V100H198.263V98ZM473 98H198.263V100H473V98ZM492 79C492 89.4934 483.494 98 473 98V100C484.598 100 494 90.598 494 79H492ZM492 20V79H494V20H492ZM473 1C483.494 1 492 9.50659 492 20H494C494 8.40202 484.598 -1 473 -1V1ZM198.263 1H473V-1H198.263V1ZM168.37 1H198.263V-1H168.37V1Z" fill="#B9B9B9" mask="url(#path-1-inside-1_1_759)"/>
</svg>
