<svg width="501" height="107" viewBox="0 0 501 107" fill="none" xmlns="http://www.w3.org/2000/svg">
<g filter="url(#filter0_d_1_763)">
<mask id="path-1-inside-1_1_763" fill="white">
<path fill-rule="evenodd" clip-rule="evenodd" d="M172.37 0H4.54004V99H172.37H202.263H477C488.046 99 497 90.0457 497 79V20C497 8.9543 488.046 0 477 0H202.263H172.37Z"/>
</mask>
<path fill-rule="evenodd" clip-rule="evenodd" d="M172.37 0H4.54004V99H172.37H202.263H477C488.046 99 497 90.0457 497 79V20C497 8.9543 488.046 0 477 0H202.263H172.37Z" fill="white"/>
<path d="M4.54004 0V-1H3.54004V0H4.54004ZM4.54004 99H3.54004V100H4.54004V99ZM4.54004 1H172.37V-1H4.54004V1ZM5.54004 99V0H3.54004V99H5.54004ZM172.37 98H4.54004V100H172.37V98ZM202.263 98H172.37V100H202.263V98ZM477 98H202.263V100H477V98ZM496 79C496 89.4934 487.494 98 477 98V100C488.598 100 498 90.598 498 79H496ZM496 20V79H498V20H496ZM477 1C487.494 1 496 9.50659 496 20H498C498 8.40202 488.598 -1 477 -1V1ZM202.263 1H477V-1H202.263V1ZM172.37 1H202.263V-1H172.37V1Z" fill="#B9B9B9" mask="url(#path-1-inside-1_1_763)"/>
</g>
<defs>
<filter id="filter0_d_1_763" x="0.540039" y="0" width="500.46" height="107" filterUnits="userSpaceOnUse" color-interpolation-filters="sRGB">
<feFlood flood-opacity="0" result="BackgroundImageFix"/>
<feColorMatrix in="SourceAlpha" type="matrix" values="0 0 0 0 0 0 0 0 0 0 0 0 0 0 0 0 0 0 127 0" result="hardAlpha"/>
<feOffset dy="4"/>
<feGaussianBlur stdDeviation="2"/>
<feComposite in2="hardAlpha" operator="out"/>
<feColorMatrix type="matrix" values="0 0 0 0 0 0 0 0 0 0 0 0 0 0 0 0 0 0 0.25 0"/>
<feBlend mode="normal" in2="BackgroundImageFix" result="effect1_dropShadow_1_763"/>
<feBlend mode="normal" in="SourceGraphic" in2="effect1_dropShadow_1_763" result="shape"/>
</filter>
</defs>
</svg>
