<svg width="16" height="46" viewBox="0 0 16 46" fill="none" xmlns="http://www.w3.org/2000/svg">
<path d="M9 1C9 0.447715 8.55228 0 8 0C7.44772 0 7 0.447715 7 1H9ZM7.29289 45.2071C7.68342 45.5976 8.31658 45.5976 8.70711 45.2071L15.0711 38.8431C15.4616 38.4526 15.4616 37.8195 15.0711 37.4289C14.6805 37.0384 14.0474 37.0384 13.6569 37.4289L8 43.0858L2.34315 37.4289C1.95262 37.0384 1.31946 37.0384 0.928932 37.4289C0.538408 37.8195 0.538408 38.4526 0.928932 38.8431L7.29289 45.2071ZM7 1V44.5H9V1H7Z" fill="#3D5684"/>
</svg>
