<svg width="1920" height="587" viewBox="0 0 1920 587" fill="none" xmlns="http://www.w3.org/2000/svg">
<path d="M-1.5 582.377V583.922L0.0447068 583.876C202.897 577.827 480.902 580.498 611.475 581.752C642.654 582.052 665.427 582.271 676.762 582.271C699.412 582.271 723.86 579.953 751.292 576.934C757.08 576.297 763.001 575.629 769.068 574.944C791.775 572.381 816.521 569.587 843.945 567.345C913.418 561.665 1000.04 559.525 1113.72 573.695C1151.24 578.373 1193.27 575.141 1246.68 570.769L1251.4 570.383C1303.95 566.075 1367.57 560.86 1448.77 560.86C1472.28 560.86 1507.75 566.083 1542.61 571.589C1547.05 572.289 1551.47 572.994 1555.85 573.693C1585.87 578.475 1614.17 582.985 1632.18 583.875C1702.68 587.357 1737.17 584.682 1762.07 581.118C1768.47 580.203 1774.2 579.234 1779.74 578.299C1795.78 575.592 1810.11 573.171 1833.78 573.171C1856.22 573.171 1872.59 575.434 1885.89 577.897C1889.95 578.649 1893.76 579.427 1897.38 580.167C1905.53 581.835 1912.75 583.31 1919.88 583.872L1921.5 583.999V582.377V0V-1.5H1920H0H-1.5V0V582.377Z" fill="#3D5684" stroke="#344B74" stroke-width="3"/>
</svg>
