<svg width="230" height="18" viewBox="0 0 230 18" fill="none" xmlns="http://www.w3.org/2000/svg">
<path d="M13.623 3.55859H2.28516V1.79102H13.623V3.55859ZM16.6699 15.3066H0.595703V13.5391H16.6699V15.3066ZM14.6289 3.79297C14.6289 4.86719 14.6159 5.77539 14.5898 6.51758C14.5703 7.25977 14.515 8.1224 14.4238 9.10547C14.3392 10.082 14.196 11.1465 13.9941 12.2988L11.7773 12.1133C11.9987 11.0326 12.1582 10.0137 12.2559 9.05664C12.36 8.09961 12.4219 7.24349 12.4414 6.48828C12.4609 5.72656 12.4707 4.82812 12.4707 3.79297V1.79102H14.6289V3.79297ZM19.1996 11.8984C20.4366 11.9049 21.5401 11.8822 22.5102 11.8301C23.4802 11.7715 24.4926 11.6608 25.5473 11.498L25.7133 13.2266C24.613 13.4154 23.5616 13.5423 22.559 13.6074C21.5629 13.6725 20.4431 13.7051 19.1996 13.7051H17.9984V11.8984H19.1996ZM24.6586 8.46094H20.098V12.5723H17.9984V6.71289H22.5688V3.64648H17.9691V1.86914H24.6586V8.46094ZM32.6566 17.7188H30.6059V0.0820312H32.6566V17.7188ZM31.1137 8.61719H27.9789V6.86914H31.1137V8.61719ZM28.6039 16.8496H26.6215V0.414062H28.6039V16.8496ZM48.0867 7.54297H43.3016V5.79492H48.0867V7.54297ZM40.4402 4.32031C40.4402 5.7526 40.2514 7.11654 39.8738 8.41211C39.4962 9.70117 38.9396 10.8438 38.2039 11.8398C37.4682 12.8359 36.5861 13.5977 35.5574 14.125L34.1805 12.3574C35.118 11.9212 35.9253 11.2832 36.6023 10.4434C37.2794 9.60352 37.7938 8.65625 38.1453 7.60156C38.4969 6.54036 38.6727 5.44661 38.6727 4.32031V1.49805H40.4402V4.32031ZM40.8797 4.32031C40.8797 5.4401 41.049 6.51107 41.3875 7.5332C41.7326 8.55534 42.2339 9.46354 42.8914 10.2578C43.5555 11.0521 44.3432 11.6543 45.2547 12.0645L43.9461 13.8027C42.9174 13.2949 42.0418 12.5658 41.3191 11.6152C40.603 10.6582 40.0594 9.55794 39.6883 8.31445C39.3172 7.07096 39.1316 5.73958 39.1316 4.32031V1.49805H40.8797V4.32031ZM49.1512 17.7676H47.0027V0.0820312H49.1512V17.7676ZM69.5328 9.85742H67.3648V0.0722656H69.5328V9.85742ZM72.0035 5.91211H68.9176V4.10547H72.0035V5.91211ZM58.5465 8.1582H56.3688V0.970703H58.5465V8.1582ZM57.8434 7.03516C59.1845 7.03516 60.5061 6.97656 61.8082 6.85938C63.1168 6.74219 64.4384 6.54688 65.773 6.27344L66.0367 8.06055C64.6565 8.33398 63.2926 8.53255 61.9449 8.65625C60.6038 8.77344 59.2366 8.83203 57.8434 8.83203H56.3688V7.03516H57.8434ZM64.5621 12.1133C64.5621 13.0247 64.2952 13.8613 63.7613 14.623C63.234 15.3848 62.482 16.0195 61.5055 16.5273C60.5289 17.0352 59.3896 17.39 58.0875 17.5918L57.2574 15.9414C58.3707 15.7982 59.3408 15.5312 60.1676 15.1406C60.9944 14.7435 61.6292 14.2812 62.0719 13.7539C62.5146 13.2266 62.7359 12.6797 62.7359 12.1133V11.5859H64.5621V12.1133ZM65.0309 12.1133C65.0309 12.6602 65.2555 13.2005 65.7047 13.7344C66.1539 14.2617 66.7952 14.7272 67.6285 15.1309C68.4619 15.5345 69.4286 15.8145 70.5289 15.9707L69.6891 17.6309C68.3935 17.4355 67.2574 17.071 66.2809 16.5371C65.3043 16.0098 64.5491 15.3652 64.0152 14.6035C63.4879 13.8353 63.2242 13.0052 63.2242 12.1133V11.5859H65.0309V12.1133ZM69.7867 12.3867H57.9801V10.6582H69.7867V12.3867ZM92.9711 10.2676H76.8676V8.54883H92.9711V10.2676ZM85.9691 9.24219H83.85V5.82422H85.9691V9.24219ZM91.1156 6.85938H78.85V5.13086H91.1156V6.85938ZM91.0082 2.58203H80.9887V6.24414H78.85V0.882812H91.0082V2.58203ZM84.8852 11.2832C86.1547 11.2832 87.2484 11.4069 88.1664 11.6543C89.0844 11.9017 89.7842 12.2695 90.266 12.7578C90.7543 13.2461 90.9984 13.832 90.9984 14.5156C90.9984 15.1992 90.7543 15.7786 90.266 16.2539C89.7842 16.7357 89.0844 17.1003 88.1664 17.3477C87.2549 17.6016 86.1612 17.735 84.8852 17.748C83.6091 17.735 82.5089 17.6016 81.5844 17.3477C80.6664 17.1003 79.96 16.7357 79.4652 16.2539C78.977 15.7786 78.7328 15.1992 78.7328 14.5156C78.7328 13.832 78.977 13.2461 79.4652 12.7578C79.96 12.2695 80.6664 11.9017 81.5844 11.6543C82.5023 11.4069 83.6026 11.2832 84.8852 11.2832ZM84.8852 12.9531C84.0323 12.9531 83.3129 13.0117 82.727 13.1289C82.141 13.2461 81.6983 13.4219 81.3988 13.6562C81.0993 13.8906 80.9496 14.1771 80.9496 14.5156C80.9496 14.8542 81.0993 15.1406 81.3988 15.375C81.6983 15.6029 82.1378 15.7754 82.7172 15.8926C83.3031 16.0098 84.0258 16.0684 84.8852 16.0684C85.738 16.0684 86.4574 16.0098 87.0434 15.8926C87.6293 15.7754 88.072 15.5996 88.3715 15.3652C88.671 15.1309 88.8207 14.8477 88.8207 14.5156C88.8207 14.1771 88.671 13.8906 88.3715 13.6562C88.072 13.4219 87.626 13.2461 87.0336 13.1289C86.4411 13.0117 85.725 12.9531 84.8852 12.9531ZM107.669 12.9922H105.501V0.0917969H107.669V12.9922ZM110.139 7.05469H107.024V5.25781H110.139V7.05469ZM108.362 17.4062H96.3602V15.6289H108.362V17.4062ZM98.5184 16.4004H96.3602V11.6445H98.5184V16.4004ZM98.6941 1.25391C99.5861 1.25391 100.393 1.44596 101.116 1.83008C101.845 2.20768 102.418 2.73177 102.835 3.40234C103.251 4.07292 103.46 4.83789 103.46 5.69727C103.46 6.54362 103.251 7.30534 102.835 7.98242C102.418 8.65299 101.845 9.18034 101.116 9.56445C100.393 9.94857 99.5861 10.1406 98.6941 10.1406C97.8152 10.1406 97.0112 9.94857 96.282 9.56445C95.5529 9.18034 94.9799 8.64974 94.5633 7.97266C94.1466 7.29557 93.9383 6.53711 93.9383 5.69727C93.9383 4.83789 94.1466 4.07292 94.5633 3.40234C94.9799 2.73177 95.5496 2.20768 96.2723 1.83008C97.0014 1.44596 97.8087 1.25391 98.6941 1.25391ZM98.6941 3.1582C98.2189 3.15169 97.7762 3.2526 97.366 3.46094C96.9624 3.66927 96.6434 3.96875 96.409 4.35938C96.1811 4.74349 96.0672 5.18945 96.0672 5.69727C96.0672 6.19857 96.1811 6.64128 96.409 7.02539C96.6434 7.40299 96.9624 7.69922 97.366 7.91406C97.7762 8.12891 98.2189 8.23633 98.6941 8.23633C99.202 8.23633 99.6544 8.13216 100.052 7.92383C100.455 7.70898 100.771 7.40951 100.999 7.02539C101.227 6.64128 101.341 6.19857 101.341 5.69727C101.341 5.18294 101.227 4.73372 100.999 4.34961C100.771 3.96549 100.455 3.66927 100.052 3.46094C99.6544 3.2526 99.202 3.15169 98.6941 3.1582ZM128.119 6.12695H123.695V4.36914H128.119V6.12695ZM119.896 1.05859C120.762 1.05208 121.546 1.22786 122.25 1.58594C122.953 1.94401 123.506 2.44857 123.91 3.09961C124.32 3.75065 124.525 4.48307 124.525 5.29688C124.525 6.11068 124.32 6.8431 123.91 7.49414C123.506 8.13867 122.953 8.64323 122.25 9.00781C121.553 9.36589 120.768 9.54492 119.896 9.54492C119.024 9.54492 118.229 9.36589 117.513 9.00781C116.804 8.64323 116.247 8.13867 115.843 7.49414C115.44 6.8431 115.238 6.11068 115.238 5.29688C115.238 4.48307 115.44 3.75065 115.843 3.09961C116.247 2.44857 116.804 1.94401 117.513 1.58594C118.223 1.22786 119.017 1.05208 119.896 1.05859ZM119.896 2.86523C119.395 2.86523 118.946 2.96615 118.548 3.16797C118.158 3.36328 117.852 3.64648 117.63 4.01758C117.409 4.38216 117.298 4.80859 117.298 5.29688C117.298 5.78516 117.409 6.21159 117.63 6.57617C117.852 6.93424 118.158 7.21094 118.548 7.40625C118.946 7.60156 119.395 7.70247 119.896 7.70898C120.384 7.70247 120.821 7.60156 121.205 7.40625C121.589 7.21094 121.892 6.93099 122.113 6.56641C122.334 6.19531 122.445 5.77214 122.445 5.29688C122.445 4.8151 122.334 4.38867 122.113 4.01758C121.892 3.64648 121.589 3.36328 121.205 3.16797C120.821 2.96615 120.384 2.86523 119.896 2.86523ZM129.779 10.1309H127.611V0.0820312H129.779V10.1309ZM129.779 17.5137H118.031V10.9609H129.779V17.5137ZM120.209 15.7656H127.66V12.6895H120.209V15.7656ZM137.807 3.8418C137.807 4.87695 137.615 5.84701 137.23 6.75195C136.846 7.65039 136.283 8.43164 135.541 9.0957C134.799 9.75977 133.9 10.2513 132.846 10.5703L131.82 8.89062C132.719 8.61719 133.487 8.22005 134.125 7.69922C134.77 7.17839 135.255 6.58594 135.58 5.92188C135.906 5.25781 136.068 4.56445 136.068 3.8418V3.13867H137.807V3.8418ZM138.217 3.8418C138.217 4.49935 138.383 5.13411 138.715 5.74609C139.053 6.35156 139.545 6.88867 140.189 7.35742C140.834 7.82617 141.609 8.1875 142.514 8.44141L141.479 10.1113C140.424 9.82487 139.519 9.37565 138.764 8.76367C138.015 8.15169 137.442 7.42253 137.045 6.57617C136.648 5.72331 136.449 4.81185 136.449 3.8418V3.13867H138.217V3.8418ZM141.918 3.75391H132.367V2.03516H141.918V3.75391ZM138.246 2.69922H136.068V0.00390625H138.246V2.69922ZM145.043 6.68359H141.381V4.92578H145.043V6.68359ZM146.664 10.7656H144.496V0.0820312H146.664V10.7656ZM140.697 11.1172C141.947 11.1172 143.021 11.2441 143.92 11.498C144.825 11.752 145.518 12.123 146 12.6113C146.482 13.0996 146.723 13.6953 146.723 14.3984C146.723 15.0885 146.482 15.6842 146 16.1855C145.518 16.6868 144.825 17.0645 143.92 17.3184C143.015 17.5788 141.941 17.709 140.697 17.709C139.467 17.709 138.399 17.5788 137.494 17.3184C136.589 17.0645 135.893 16.6868 135.404 16.1855C134.923 15.6842 134.682 15.0885 134.682 14.3984C134.682 13.6953 134.923 13.0996 135.404 12.6113C135.893 12.123 136.586 11.752 137.484 11.498C138.389 11.2441 139.46 11.1172 140.697 11.1172ZM140.697 12.7773C139.877 12.7773 139.177 12.8392 138.598 12.9629C138.025 13.0866 137.589 13.2721 137.289 13.5195C136.99 13.7604 136.84 14.0534 136.84 14.3984C136.84 14.737 136.99 15.0332 137.289 15.2871C137.589 15.5345 138.028 15.7233 138.607 15.8535C139.187 15.9837 139.883 16.0488 140.697 16.0488C141.524 16.0488 142.224 15.9837 142.797 15.8535C143.376 15.7233 143.812 15.5345 144.105 15.2871C144.405 15.0397 144.555 14.7435 144.555 14.3984C144.555 14.0534 144.408 13.7604 144.115 13.5195C143.822 13.2721 143.386 13.0866 142.807 12.9629C142.234 12.8392 141.531 12.7773 140.697 12.7773ZM167.876 17.7188H165.679V0.0820312H167.876V17.7188ZM163.579 3.57812H153.569V1.81055H163.579V3.57812ZM153.1 11.7812C155.145 11.7812 157.117 11.7454 159.018 11.6738C160.926 11.5957 162.707 11.459 164.36 11.2637L164.487 12.875C162.801 13.1484 161.056 13.3307 159.253 13.4219C157.456 13.5065 155.477 13.5553 153.315 13.5684L153.1 11.7812ZM157.378 12.25H155.268V3.1582H157.378V12.25ZM161.88 12.25H159.751V3.1582H161.88V12.25ZM183.208 2.82617H171.89V1.10742H183.208V2.82617ZM186.079 10.3945H170.044V8.64648H186.079V10.3945ZM178.404 9.00781H176.255V5.21875H178.404V9.00781ZM184.116 2.34766C184.116 3.29818 184.09 4.17057 184.038 4.96484C183.986 5.7526 183.856 6.63477 183.648 7.61133L181.47 7.35742C181.685 6.40039 181.818 5.5638 181.87 4.84766C181.922 4.125 181.952 3.29167 181.958 2.34766V1.10742H184.116V2.34766ZM184.536 17.4062H171.968V15.6289H184.536V17.4062ZM174.146 16.8691H171.968V11.9766H174.146V16.8691ZM200.728 17.7188H198.58V0.0820312H200.728V17.7188ZM203.453 8.91016H200.24V7.12305H203.453V8.91016ZM197.212 4.53516H186.812V2.78711H197.212V4.53516ZM192.066 5.67773C192.919 5.67773 193.681 5.85677 194.351 6.21484C195.028 6.56641 195.559 7.05794 195.943 7.68945C196.327 8.32096 196.519 9.03711 196.519 9.83789C196.519 10.6322 196.327 11.3483 195.943 11.9863C195.559 12.6178 195.028 13.1094 194.351 13.4609C193.681 13.8125 192.919 13.9883 192.066 13.9883C191.22 13.9883 190.458 13.8125 189.781 13.4609C189.104 13.1094 188.573 12.6178 188.189 11.9863C187.811 11.3483 187.623 10.6322 187.623 9.83789C187.623 9.03711 187.811 8.32096 188.189 7.68945C188.573 7.05794 189.104 6.56641 189.781 6.21484C190.458 5.85677 191.22 5.67773 192.066 5.67773ZM192.066 7.46484C191.617 7.46484 191.21 7.5625 190.845 7.75781C190.487 7.95312 190.204 8.22982 189.996 8.58789C189.794 8.94596 189.693 9.36263 189.693 9.83789C189.693 10.3066 189.794 10.7201 189.996 11.0781C190.204 11.4362 190.487 11.7129 190.845 11.9082C191.21 12.097 191.617 12.1914 192.066 12.1914C192.528 12.1914 192.938 12.097 193.296 11.9082C193.655 11.7129 193.934 11.4362 194.136 11.0781C194.338 10.7201 194.439 10.3066 194.439 9.83789C194.439 9.36263 194.338 8.94596 194.136 8.58789C193.934 8.22982 193.655 7.95312 193.296 7.75781C192.938 7.5625 192.528 7.46484 192.066 7.46484ZM193.14 3.49023H190.982V0.335938H193.14V3.49023ZM210.006 5.08203C210.006 6.41016 209.798 7.69271 209.381 8.92969C208.971 10.1602 208.385 11.2572 207.623 12.2207C206.861 13.1777 205.973 13.8971 204.957 14.3789L203.697 12.6699C204.602 12.2467 205.4 11.6315 206.09 10.8242C206.78 10.0169 207.311 9.11523 207.682 8.11914C208.053 7.11654 208.238 6.10417 208.238 5.08203V2.75781H210.006V5.08203ZM210.445 5.08203C210.445 6.0651 210.628 7.02865 210.992 7.97266C211.363 8.91667 211.891 9.76628 212.574 10.5215C213.264 11.2702 214.068 11.8398 214.986 12.2305L213.805 13.9395C212.763 13.4772 211.858 12.7969 211.09 11.8984C210.322 11 209.736 9.96484 209.332 8.79297C208.928 7.61458 208.727 6.3776 208.727 5.08203V2.75781H210.445V5.08203ZM214.312 3.60742H204.361V1.83008H214.312V3.60742ZM218.473 17.7188H216.275V0.0820312H218.473V17.7188ZM222.819 16.1562C222.545 16.1562 222.291 16.0879 222.057 15.9512C221.823 15.8079 221.637 15.6224 221.5 15.3945C221.37 15.1602 221.305 14.9062 221.305 14.6328C221.305 14.3659 221.37 14.1185 221.5 13.8906C221.637 13.6562 221.823 13.474 222.057 13.3438C222.291 13.207 222.545 13.1387 222.819 13.1387C223.079 13.1387 223.327 13.207 223.561 13.3438C223.795 13.474 223.981 13.6562 224.118 13.8906C224.254 14.1185 224.323 14.3659 224.323 14.6328C224.323 14.9062 224.254 15.1602 224.118 15.3945C223.981 15.6224 223.795 15.8079 223.561 15.9512C223.327 16.0879 223.079 16.1562 222.819 16.1562ZM227.868 16.1562C227.595 16.1562 227.341 16.0879 227.106 15.9512C226.872 15.8079 226.686 15.6224 226.55 15.3945C226.419 15.1602 226.354 14.9062 226.354 14.6328C226.354 14.3659 226.419 14.1185 226.55 13.8906C226.686 13.6562 226.872 13.474 227.106 13.3438C227.341 13.207 227.595 13.1387 227.868 13.1387C228.128 13.1387 228.376 13.207 228.61 13.3438C228.845 13.474 229.03 13.6562 229.167 13.8906C229.304 14.1185 229.372 14.3659 229.372 14.6328C229.372 14.9062 229.304 15.1602 229.167 15.3945C229.03 15.6224 228.845 15.8079 228.61 15.9512C228.376 16.0879 228.128 16.1562 227.868 16.1562Z" fill="white"/>
</svg>
