<svg width="258" height="18" viewBox="0 0 258 18" fill="none" xmlns="http://www.w3.org/2000/svg">
<path d="M13.623 3.55859H2.28516V1.79102H13.623V3.55859ZM16.6699 15.3066H0.595703V13.5391H16.6699V15.3066ZM14.6289 3.79297C14.6289 4.86719 14.6159 5.77539 14.5898 6.51758C14.5703 7.25977 14.515 8.1224 14.4238 9.10547C14.3392 10.082 14.196 11.1465 13.9941 12.2988L11.7773 12.1133C11.9987 11.0326 12.1582 10.0137 12.2559 9.05664C12.36 8.09961 12.4219 7.24349 12.4414 6.48828C12.4609 5.72656 12.4707 4.82812 12.4707 3.79297V1.79102H14.6289V3.79297ZM32.1781 17.7676H30.0199V0.0820312H32.1781V17.7676ZM19.9906 11.791C21.6378 11.7975 23.1319 11.7552 24.473 11.6641C25.8207 11.5729 27.2009 11.4134 28.6137 11.1855L28.809 12.9629C27.4027 13.2038 26.016 13.3698 24.6488 13.4609C23.2882 13.5456 21.7354 13.5879 19.9906 13.5879H18.4477V11.791H19.9906ZM26.7484 8.23633H20.684V12.4648H18.4477V6.51758H24.5414V3.38281H18.4281V1.61523H26.7484V8.23633ZM47.3836 3.44141H36.0262V1.69336H47.3836V3.44141ZM50.4402 15.4531H34.366V13.6855H50.4402V15.4531ZM42.4422 14.5938H40.3035V7.5332H42.4422V14.5938ZM48.7605 3.40234C48.7605 4.4375 48.7475 5.31641 48.7215 6.03906C48.6954 6.75521 48.6336 7.60156 48.5359 8.57812C48.4383 9.54818 48.2853 10.6029 48.077 11.7422L45.8797 11.5078C46.0945 10.4401 46.254 9.43424 46.3582 8.49023C46.4624 7.53971 46.5242 6.69661 46.5438 5.96094C46.5633 5.22526 46.573 4.3724 46.573 3.40234V1.69336H48.7605V3.40234ZM61.4957 3.10938C61.4957 4.20964 61.3004 5.24154 60.9098 6.20508C60.5257 7.16862 59.9592 8.01172 59.2105 8.73438C58.4619 9.45052 57.5569 9.98763 56.4957 10.3457L55.3629 8.59766C56.3004 8.29818 57.0947 7.86849 57.7457 7.30859C58.3967 6.74219 58.8883 6.10091 59.2203 5.38477C59.5523 4.66211 59.7184 3.90365 59.7184 3.10938V1.78125H61.4957V3.10938ZM61.9156 3.09961C61.9156 3.82878 62.0719 4.5319 62.3844 5.20898C62.7034 5.87956 63.1786 6.47852 63.8102 7.00586C64.4417 7.52669 65.2099 7.93034 66.1148 8.2168L65.0211 9.93555C63.9794 9.59701 63.0908 9.08919 62.3551 8.41211C61.6194 7.72852 61.0628 6.93099 60.6852 6.01953C60.3076 5.10156 60.1188 4.12826 60.1188 3.09961V1.78125H61.9156V3.09961ZM65.5582 2.93359H55.9879V1.19531H65.5582V2.93359ZM69.5328 10.3652H67.3648V0.0820312H69.5328V10.3652ZM72.0035 6H68.9176V4.21289H72.0035V6ZM69.5328 17.5137H58.1363V11.1074H69.5328V17.5137ZM60.2848 15.7656H67.3844V12.8262H60.2848V15.7656ZM80.5391 0.365234C81.8737 0.365234 83.0163 0.479167 83.9668 0.707031C84.9173 0.934896 85.64 1.27669 86.1348 1.73242C86.6296 2.18164 86.877 2.72852 86.877 3.37305C86.877 4.02409 86.6296 4.57747 86.1348 5.0332C85.64 5.48242 84.9173 5.82422 83.9668 6.05859C83.0163 6.29297 81.8737 6.41667 80.5391 6.42969C79.1914 6.41667 78.0423 6.29297 77.0918 6.05859C76.1413 5.82422 75.4154 5.48242 74.9141 5.0332C74.4128 4.57747 74.1621 4.02409 74.1621 3.37305C74.1621 2.72852 74.4128 2.18164 74.9141 1.73242C75.4154 1.27669 76.1413 0.934896 77.0918 0.707031C78.0423 0.479167 79.1914 0.365234 80.5391 0.365234ZM80.5391 1.95703C79.6406 1.95703 78.8854 2.01237 78.2734 2.12305C77.6615 2.22721 77.2025 2.38672 76.8965 2.60156C76.5905 2.81641 76.4375 3.07357 76.4375 3.37305C76.4375 3.70508 76.5872 3.97526 76.8867 4.18359C77.1862 4.39193 77.6387 4.54818 78.2441 4.65234C78.8496 4.75651 79.6146 4.80859 80.5391 4.80859C81.4701 4.80859 82.235 4.75651 82.834 4.65234C83.4329 4.54818 83.8854 4.38867 84.1914 4.17383C84.4974 3.95898 84.6504 3.69206 84.6504 3.37305C84.6504 3.07357 84.4941 2.81966 84.1816 2.61133C83.8691 2.39648 83.4069 2.23372 82.7949 2.12305C82.1895 2.01237 81.4375 1.95703 80.5391 1.95703ZM88.5762 9.11523H72.502V7.37695H88.5762V9.11523ZM86.584 14.6133H76.5449V16.3809H74.3965V13.0801H84.4355V11.8984H74.3867V10.2969H86.584V14.6133ZM87.0625 17.582H74.3965V15.9219H87.0625V17.582ZM99.6316 5.08203C99.6316 6.38411 99.4266 7.6569 99.0164 8.90039C98.6128 10.1439 98.0333 11.2507 97.2781 12.2207C96.5229 13.1842 95.6473 13.9036 94.6512 14.3789L93.3719 12.6699C94.2833 12.2337 95.0809 11.6087 95.7645 10.7949C96.448 9.98112 96.9754 9.07617 97.3465 8.08008C97.7241 7.08398 97.9129 6.08464 97.9129 5.08203V2.75781H99.6316V5.08203ZM100.081 5.08203C100.081 6.01302 100.253 6.94727 100.598 7.88477C100.95 8.82227 101.461 9.67839 102.132 10.4531C102.802 11.2214 103.587 11.8138 104.485 12.2305L103.264 13.9395C102.268 13.4707 101.399 12.7773 100.657 11.8594C99.9148 10.9349 99.3452 9.88346 98.948 8.70508C98.5509 7.52669 98.3523 6.31901 98.3523 5.08203V2.75781H100.081V5.08203ZM103.772 3.60742H94.0555V1.83008H103.772V3.60742ZM107.571 17.7188H105.403V0.0820312H107.571V17.7188ZM110.296 8.7832H107.083V6.95703H110.296V8.7832ZM124.456 17.7676H122.288V0.0820312H124.456V17.7676ZM127.181 8.56836H123.968V6.78125H127.181V8.56836ZM112.806 11.6348C114.44 11.6413 115.876 11.6022 117.113 11.5176C118.356 11.4329 119.609 11.2767 120.872 11.0488L121.116 12.8848C119.84 13.1126 118.574 13.2624 117.318 13.334C116.068 13.4056 114.564 13.4382 112.806 13.4316H111.351V11.6348H112.806ZM119.613 3.51953H113.519V12.5137H111.351V1.75195H119.613V3.51953ZM141.341 17.709H139.173V0.0820312H141.341V17.709ZM143.959 8.7832H140.785V6.98633H143.959V8.7832ZM136.683 1.92773C136.683 3.72461 136.413 5.39779 135.873 6.94727C135.339 8.49023 134.476 9.90951 133.285 11.2051C132.093 12.4941 130.55 13.6107 128.656 14.5547L127.435 12.875C129.03 12.0677 130.352 11.1465 131.4 10.1113C132.455 9.07617 133.242 7.91406 133.763 6.625C134.284 5.32943 134.545 3.89062 134.545 2.30859V1.92773H136.683ZM135.648 3.71484H128.353V1.92773H135.648V3.71484ZM157.866 12.0254H155.727V8.91016H157.866V12.0254ZM164.848 9.92578H148.774V8.17773H164.848V9.92578ZM156.791 11.4004C158.067 11.4004 159.161 11.5241 160.073 11.7715C160.991 12.0124 161.691 12.3704 162.172 12.8457C162.661 13.321 162.905 13.8939 162.905 14.5645C162.905 15.2285 162.661 15.7949 162.172 16.2637C161.691 16.7324 160.991 17.0905 160.073 17.3379C159.161 17.5853 158.067 17.709 156.791 17.709C155.509 17.709 154.409 17.5853 153.491 17.3379C152.573 17.0905 151.866 16.7324 151.371 16.2637C150.883 15.7949 150.639 15.2285 150.639 14.5645C150.639 13.8939 150.883 13.321 151.371 12.8457C151.86 12.3704 152.563 12.0124 153.481 11.7715C154.405 11.5241 155.509 11.4004 156.791 11.4004ZM156.791 13.0508C155.932 13.0508 155.209 13.1094 154.623 13.2266C154.044 13.3438 153.605 13.513 153.305 13.7344C153.006 13.9557 152.856 14.2324 152.856 14.5645C152.856 14.877 153.006 15.1471 153.305 15.375C153.605 15.5964 154.047 15.7689 154.633 15.8926C155.219 16.0098 155.939 16.0684 156.791 16.0684C157.631 16.0684 158.347 16.0098 158.94 15.8926C159.532 15.7689 159.978 15.5964 160.278 15.375C160.577 15.1471 160.727 14.877 160.727 14.5645C160.727 14.2324 160.577 13.9557 160.278 13.7344C159.978 13.513 159.536 13.3438 158.95 13.2266C158.364 13.1094 157.644 13.0508 156.791 13.0508ZM157.25 2.15234C157.25 3.05078 156.964 3.87109 156.391 4.61328C155.825 5.34896 155.014 5.95768 153.959 6.43945C152.911 6.92122 151.684 7.23372 150.278 7.37695L149.545 5.66797C150.711 5.55078 151.73 5.31966 152.602 4.97461C153.481 4.62956 154.155 4.20964 154.623 3.71484C155.092 3.21354 155.327 2.69271 155.327 2.15234V1.66406H157.25V2.15234ZM158.266 2.15234C158.266 2.69271 158.497 3.21354 158.959 3.71484C159.428 4.20964 160.105 4.62956 160.991 4.97461C161.876 5.31966 162.911 5.55078 164.096 5.66797L163.325 7.37695C161.938 7.23372 160.714 6.92122 159.653 6.43945C158.592 5.95768 157.771 5.34896 157.192 4.61328C156.612 3.87109 156.323 3.05078 156.323 2.15234V1.66406H158.266V2.15234ZM163.403 2.5918H150.229V0.863281H163.403V2.5918ZM179.575 12.8164H177.378V0.0820312H179.575V12.8164ZM182.046 6.9668H178.93V5.16992H182.046V6.9668ZM174.78 1.41992C174.78 2.96289 174.455 4.36263 173.804 5.61914C173.152 6.87565 172.205 7.95638 170.962 8.86133C169.725 9.76628 168.234 10.4792 166.489 11L165.571 9.27148C167.036 8.8418 168.279 8.28841 169.302 7.61133C170.33 6.92773 171.111 6.14974 171.645 5.27734C172.179 4.40495 172.446 3.4707 172.446 2.47461V1.41992H174.78ZM173.637 3.20703H166.333V1.41992H173.637V3.20703ZM180.249 17.4062H168.237V15.6289H180.249V17.4062ZM170.425 16.4004H168.237V11.5176H170.425V16.4004ZM192.788 8.48047H189.683V6.73242H192.788V8.48047ZM197.769 17.7188H195.679V0.0820312H197.769V17.7188ZM194.136 16.8887H192.075V0.384766H194.136V16.8887ZM186.529 1.41992C187.31 1.41992 187.99 1.67383 188.57 2.18164C189.149 2.68945 189.598 3.41862 189.917 4.36914C190.236 5.31966 190.396 6.4362 190.396 7.71875C190.396 8.99479 190.236 10.1113 189.917 11.0684C189.598 12.0189 189.149 12.7513 188.57 13.2656C187.99 13.7799 187.31 14.0371 186.529 14.0371C185.76 14.0371 185.086 13.7799 184.507 13.2656C183.934 12.7513 183.488 12.0189 183.169 11.0684C182.857 10.1113 182.7 8.99479 182.7 7.71875C182.7 6.42969 182.857 5.31315 183.169 4.36914C183.488 3.41862 183.937 2.68945 184.517 2.18164C185.096 1.67383 185.767 1.41992 186.529 1.41992ZM186.529 3.4707C186.151 3.4707 185.825 3.63346 185.552 3.95898C185.279 4.28451 185.07 4.76628 184.927 5.4043C184.79 6.03581 184.722 6.80729 184.722 7.71875C184.722 8.6237 184.79 9.39518 184.927 10.0332C185.07 10.6647 185.279 11.1432 185.552 11.4688C185.832 11.7943 186.157 11.957 186.529 11.957C186.913 11.957 187.241 11.7943 187.515 11.4688C187.795 11.1432 188.01 10.6647 188.159 10.0332C188.309 9.39518 188.384 8.6237 188.384 7.71875C188.384 6.80729 188.309 6.03581 188.159 5.4043C188.01 4.76628 187.795 4.28451 187.515 3.95898C187.241 3.63346 186.913 3.4707 186.529 3.4707ZM209.674 5.08203C209.674 6.38411 209.469 7.6569 209.059 8.90039C208.655 10.1439 208.076 11.2507 207.32 12.2207C206.565 13.1842 205.689 13.9036 204.693 14.3789L203.414 12.6699C204.326 12.2337 205.123 11.6087 205.807 10.7949C206.49 9.98112 207.018 9.07617 207.389 8.08008C207.766 7.08398 207.955 6.08464 207.955 5.08203V2.75781H209.674V5.08203ZM210.123 5.08203C210.123 6.01302 210.296 6.94727 210.641 7.88477C210.992 8.82227 211.503 9.67839 212.174 10.4531C212.844 11.2214 213.629 11.8138 214.527 12.2305L213.307 13.9395C212.311 13.4707 211.441 12.7773 210.699 11.8594C209.957 10.9349 209.387 9.88346 208.99 8.70508C208.593 7.52669 208.395 6.31901 208.395 5.08203V2.75781H210.123V5.08203ZM213.814 3.60742H204.098V1.83008H213.814V3.60742ZM217.613 17.7188H215.445V0.0820312H217.613V17.7188ZM220.338 8.7832H217.125V6.95703H220.338V8.7832ZM229.362 2.58203C229.362 3.61068 229.062 4.55469 228.463 5.41406C227.871 6.27344 227.044 6.99284 225.983 7.57227C224.922 8.14518 223.704 8.53581 222.33 8.74414L221.51 7.04492C222.682 6.88867 223.72 6.58594 224.625 6.13672C225.53 5.6875 226.23 5.15365 226.725 4.53516C227.22 3.91016 227.467 3.25911 227.467 2.58203V1.97656H229.362V2.58203ZM229.967 2.58203C229.967 3.25911 230.211 3.91016 230.7 4.53516C231.194 5.15365 231.894 5.6875 232.799 6.13672C233.711 6.58594 234.752 6.88867 235.924 7.04492L235.143 8.74414C233.756 8.53581 232.529 8.14518 231.461 7.57227C230.394 6.99935 229.56 6.2832 228.961 5.42383C228.369 4.55794 228.073 3.61068 228.073 2.58203V1.97656H229.967V2.58203ZM229.743 17.7285H227.604V11.1465H229.743V17.7285ZM236.754 11.6738H220.68V9.92578H236.754V11.6738ZM235.28 2.78711H222.135V1.07812H235.28V2.78711ZM257.468 17.7188H255.368V0.0625H257.468V17.7188ZM256.218 8.70508H252.966V6.9375H256.218V8.70508ZM246.296 2.18164C246.296 3.69206 246.218 5.08854 246.062 6.37109C245.912 7.64714 245.629 8.89062 245.212 10.1016C244.795 11.3125 244.206 12.4518 243.445 13.5195L241.736 12.5234C242.452 11.5404 243.008 10.528 243.405 9.48633C243.809 8.43815 244.089 7.3444 244.245 6.20508C244.408 5.05924 244.489 3.77344 244.489 2.34766V2.18164H246.296ZM245.573 3.92969H242.282V2.18164H245.573V3.92969ZM250.476 2.18164C250.476 3.82227 250.407 5.33594 250.271 6.72266C250.14 8.10286 249.867 9.47331 249.45 10.834C249.034 12.1882 248.432 13.4512 247.644 14.623L245.896 13.666C246.664 12.5918 247.243 11.4525 247.634 10.248C248.031 9.04362 248.292 7.82292 248.415 6.58594C248.539 5.34896 248.601 3.9362 248.601 2.34766V2.18164H250.476ZM249.773 3.92969H246.843V2.18164H249.773V3.92969ZM253.708 16.918H251.687V0.414062H253.708V16.918Z" fill="white"/>
</svg>
