<svg width="87" height="18" viewBox="0 0 87 18" fill="none" xmlns="http://www.w3.org/2000/svg">
<path d="M16.0312 8.67578H12.8574V6.88867H16.0312V8.67578ZM13.4141 17.709H11.2461V0.0820312H13.4141V17.709ZM2.36914 12.7285H0.201172V1.79102H2.36914V12.7285ZM1.69531 11.5371C3.0625 11.5371 4.42318 11.4753 5.77734 11.3516C7.13151 11.2279 8.4987 11.0293 9.87891 10.7559L10.123 12.5723C8.73633 12.8522 7.34961 13.0508 5.96289 13.168C4.58268 13.2786 3.16016 13.334 1.69531 13.334H0.201172V11.5371H1.69531ZM30.807 9.83789H18.4242V8.10938H30.807V9.83789ZM32.6137 15.6484H16.4809V13.8613H32.6137V15.6484ZM25.5727 14.4766H23.434V8.89062H25.5727V14.4766ZM30.6605 3.13867H20.602V8.90039H18.4242V1.40039H30.6605V3.13867ZM50.759 3.55859H39.4211V1.79102H50.759V3.55859ZM53.8059 15.3066H37.7316V13.5391H53.8059V15.3066ZM51.7648 3.79297C51.7648 4.86719 51.7518 5.77539 51.7258 6.51758C51.7062 7.25977 51.6509 8.1224 51.5598 9.10547C51.4751 10.082 51.3319 11.1465 51.1301 12.2988L48.9133 12.1133C49.1346 11.0326 49.2941 10.0137 49.3918 9.05664C49.496 8.09961 49.5578 7.24349 49.5773 6.48828C49.5969 5.72656 49.6066 4.82812 49.6066 3.79297V1.79102H51.7648V3.79297ZM56.7262 8.97852C58.523 8.97852 59.9911 8.94922 61.1305 8.89062C62.2763 8.83203 63.4189 8.71159 64.5582 8.5293L64.7242 10.2969C63.5719 10.4727 62.4098 10.5898 61.2379 10.6484C60.066 10.707 58.5621 10.7363 56.7262 10.7363H55.2906V8.97852H56.7262ZM63.2496 6.76172H57.4684V10.1309H55.2906V5.08203H61.0816V3.03125H55.2711V1.2832H63.2496V6.76172ZM69.3922 13.0898H67.2242V0.101562H69.3922V13.0898ZM69.8707 17.4062H57.7125V15.6289H69.8707V17.4062ZM59.8707 16.2148H57.7125V12.0449H59.8707V16.2148ZM67.6637 6.30273H64.2262V4.45703H67.6637V6.30273ZM86.7168 17.7188H84.627V0.0820312H86.7168V17.7188ZM81.8926 8.41211H77.5957V6.63477H81.8926V8.41211ZM83.0254 16.8887H80.9844V0.433594H83.0254V16.8887ZM73.2598 11.8887C74.6725 11.8887 75.8346 11.8561 76.7461 11.791C77.6576 11.7259 78.5853 11.5924 79.5293 11.3906L79.7051 13.1973C78.7611 13.3861 77.8138 13.513 76.8633 13.5781C75.9128 13.6432 74.7116 13.679 73.2598 13.6855H72.0781V11.8887H73.2598ZM78.7969 3.89062H74.1973V12.6309H72.0781V2.14258H78.7969V3.89062Z" fill="white"/>
</svg>
