<svg width="242" height="18" viewBox="0 0 242 18" fill="none" xmlns="http://www.w3.org/2000/svg">
<path d="M14.4004 17.7676H12.2324V0.0820312H14.4004V17.7676ZM12.8867 7.43555H7.18359V5.66797H12.8867V7.43555ZM2.70117 12.9629H0.523438V2.00586H2.70117V12.9629ZM1.95898 11.7715C3.39779 11.7585 4.75846 11.6999 6.04102 11.5957C7.32357 11.485 8.60938 11.3027 9.89844 11.0488L10.1426 12.8359C8.81445 13.1029 7.49284 13.2917 6.17773 13.4023C4.86263 13.513 3.45638 13.5684 1.95898 13.5684H0.523438V11.7715H1.95898ZM27.1063 2.82617C27.1063 3.87435 26.9077 4.86068 26.5105 5.78516C26.1134 6.70312 25.534 7.50065 24.7723 8.17773C24.0171 8.85482 23.1121 9.36589 22.0574 9.71094L20.9441 8.00195C21.8751 7.72852 22.6694 7.32812 23.327 6.80078C23.9845 6.26693 24.4826 5.6582 24.8211 4.97461C25.1661 4.29102 25.3387 3.57487 25.3387 2.82617V1.60547H27.1063V2.82617ZM27.5359 2.82617C27.5359 3.5293 27.7052 4.20638 28.0438 4.85742C28.3823 5.50195 28.8771 6.07487 29.5281 6.57617C30.1792 7.07096 30.9604 7.44857 31.8719 7.70898L30.7781 9.41797C29.7234 9.09896 28.8185 8.61719 28.0633 7.97266C27.3146 7.32161 26.7417 6.55339 26.3445 5.66797C25.9539 4.78255 25.7586 3.83529 25.7586 2.82617V1.60547H27.5359V2.82617ZM31.2566 2.86523H21.5398V1.13672H31.2566V2.86523ZM35.534 9.65234H33.3563V0.0820312H35.534V9.65234ZM26.0027 12.2402H33.366V10.4238H35.534V17.5137H23.8641V10.4238H26.0027V12.2402ZM33.366 15.7656V13.9395H26.0027V15.7656H33.366ZM46.8234 12.0254H44.6848V8.91016H46.8234V12.0254ZM53.8059 9.92578H37.7316V8.17773H53.8059V9.92578ZM45.7492 11.4004C47.0253 11.4004 48.119 11.5241 49.0305 11.7715C49.9484 12.0124 50.6483 12.3704 51.1301 12.8457C51.6184 13.321 51.8625 13.8939 51.8625 14.5645C51.8625 15.2285 51.6184 15.7949 51.1301 16.2637C50.6483 16.7324 49.9484 17.0905 49.0305 17.3379C48.119 17.5853 47.0253 17.709 45.7492 17.709C44.4667 17.709 43.3664 17.5853 42.4484 17.3379C41.5305 17.0905 40.8241 16.7324 40.3293 16.2637C39.841 15.7949 39.5969 15.2285 39.5969 14.5645C39.5969 13.8939 39.841 13.321 40.3293 12.8457C40.8176 12.3704 41.5207 12.0124 42.4387 11.7715C43.3632 11.5241 44.4667 11.4004 45.7492 11.4004ZM45.7492 13.0508C44.8898 13.0508 44.1672 13.1094 43.5812 13.2266C43.0018 13.3438 42.5624 13.513 42.2629 13.7344C41.9634 13.9557 41.8137 14.2324 41.8137 14.5645C41.8137 14.877 41.9634 15.1471 42.2629 15.375C42.5624 15.5964 43.0051 15.7689 43.591 15.8926C44.177 16.0098 44.8964 16.0684 45.7492 16.0684C46.5891 16.0684 47.3052 16.0098 47.8977 15.8926C48.4901 15.7689 48.9361 15.5964 49.2355 15.375C49.535 15.1471 49.6848 14.877 49.6848 14.5645C49.6848 14.2324 49.535 13.9557 49.2355 13.7344C48.9361 13.513 48.4934 13.3438 47.9074 13.2266C47.3215 13.1094 46.6021 13.0508 45.7492 13.0508ZM46.2082 2.15234C46.2082 3.05078 45.9217 3.87109 45.3488 4.61328C44.7824 5.34896 43.9719 5.95768 42.9172 6.43945C41.869 6.92122 40.6418 7.23372 39.2355 7.37695L38.5031 5.66797C39.6685 5.55078 40.6874 5.31966 41.5598 4.97461C42.4387 4.62956 43.1125 4.20964 43.5812 3.71484C44.05 3.21354 44.2844 2.69271 44.2844 2.15234V1.66406H46.2082V2.15234ZM47.2238 2.15234C47.2238 2.69271 47.4549 3.21354 47.9172 3.71484C48.3859 4.20964 49.063 4.62956 49.9484 4.97461C50.8339 5.31966 51.869 5.55078 53.0539 5.66797L52.2824 7.37695C50.8957 7.23372 49.6717 6.92122 48.6105 6.43945C47.5493 5.95768 46.729 5.34896 46.1496 4.61328C45.5702 3.87109 45.2805 3.05078 45.2805 2.15234V1.66406H47.2238V2.15234ZM52.3605 2.5918H39.1867V0.863281H52.3605V2.5918ZM56.6188 8.62695C58.4612 8.62695 59.8772 8.60091 60.8668 8.54883C61.8629 8.49023 62.846 8.37305 63.816 8.19727L64.0211 9.94531C63.0185 10.1146 61.9964 10.2253 60.9547 10.2773C59.913 10.3294 58.4677 10.3555 56.6188 10.3555H55.3199V8.62695H56.6188ZM63.0445 6.44922H57.4684V9.73047H55.3199V4.83789H60.8766V2.8457H55.2906V1.13672H63.0445V6.44922ZM69.3922 10.9609H67.2242V0.101562H69.3922V10.9609ZM67.6539 4.33984H64.109V2.60156H67.6539V4.33984ZM67.6539 8.06055H64.109V6.3125H67.6539V8.06055ZM69.3922 17.748H67.2242V13.5391H57.3219V11.791H69.3922V17.748ZM86.1797 17.7676H83.9824V0.0820312H86.1797V17.7676ZM76.668 1.37109C77.5534 1.37109 78.3444 1.62826 79.041 2.14258C79.7376 2.65039 80.2812 3.3763 80.6719 4.32031C81.0625 5.25781 81.2578 6.35156 81.2578 7.60156C81.2578 8.85807 81.0625 9.95833 80.6719 10.9023C80.2812 11.8398 79.7376 12.5658 79.041 13.0801C78.3444 13.5944 77.5534 13.8516 76.668 13.8516C75.776 13.8516 74.9818 13.5944 74.2852 13.0801C73.5885 12.5658 73.0417 11.8398 72.6445 10.9023C72.2539 9.95833 72.0586 8.85807 72.0586 7.60156C72.0586 6.35156 72.2539 5.25781 72.6445 4.32031C73.0417 3.3763 73.5885 2.65039 74.2852 2.14258C74.9818 1.62826 75.776 1.37109 76.668 1.37109ZM76.668 3.32422C76.1732 3.31771 75.7337 3.48698 75.3496 3.83203C74.972 4.17057 74.679 4.66211 74.4707 5.30664C74.2624 5.95117 74.1582 6.71615 74.1582 7.60156C74.1582 8.48698 74.2624 9.25521 74.4707 9.90625C74.679 10.5508 74.972 11.0423 75.3496 11.3809C75.7337 11.7129 76.1732 11.8789 76.668 11.8789C77.1628 11.8789 77.599 11.7129 77.9766 11.3809C78.3542 11.0423 78.6471 10.5508 78.8555 9.90625C79.0638 9.25521 79.168 8.48698 79.168 7.60156C79.168 6.71615 79.0638 5.95117 78.8555 5.30664C78.6471 4.66211 78.3542 4.17057 77.9766 3.83203C77.6055 3.48698 77.1693 3.31771 76.668 3.32422ZM93.9246 6.88867C94.7449 6.88216 95.4448 6.85612 96.0242 6.81055C96.6036 6.75846 97.2124 6.66406 97.8504 6.52734L98.0164 8.24609C97.3068 8.36979 96.6427 8.45443 96.0242 8.5C95.4122 8.53906 94.7124 8.55534 93.9246 8.54883H93.1043V6.88867H93.9246ZM97.6551 2.72852H95.2234V7.99219H93.1043V1H97.6551V2.72852ZM99.5008 6.88867C100.614 6.88216 101.486 6.85286 102.118 6.80078C102.756 6.7487 103.394 6.65104 104.032 6.50781L104.198 8.20703C103.749 8.3112 103.306 8.38932 102.87 8.44141C102.44 8.48698 101.991 8.51628 101.522 8.5293C101.054 8.54232 100.38 8.54883 99.5008 8.54883H98.5633V6.88867H99.5008ZM103.505 2.72852H100.721V7.99219H98.5633V1H103.505V2.72852ZM107.684 14.4277H97.7137V16.6738H95.5164V12.8457H105.536V11.5469H95.4969V9.85742H107.684V14.4277ZM108.27 17.5137H95.5164V15.8047H108.27V17.5137ZM107.684 9.11523H105.555V0.0820312H107.684V9.11523ZM107.216 5.42383H102.714V3.77344H107.216V5.42383ZM114.452 1.37109C115.325 1.37109 116.099 1.62826 116.777 2.14258C117.46 2.65039 117.994 3.3763 118.378 4.32031C118.769 5.25781 118.964 6.35156 118.964 7.60156C118.964 8.85807 118.769 9.95833 118.378 10.9023C117.994 11.8398 117.46 12.5658 116.777 13.0801C116.099 13.5944 115.325 13.8516 114.452 13.8516C113.573 13.8516 112.792 13.5977 112.109 13.0898C111.425 12.5755 110.888 11.8464 110.497 10.9023C110.113 9.95833 109.921 8.85807 109.921 7.60156C109.921 6.35156 110.113 5.25781 110.497 4.32031C110.888 3.3763 111.425 2.65039 112.109 2.14258C112.792 1.62826 113.573 1.37109 114.452 1.37109ZM114.452 3.32422C113.971 3.31771 113.541 3.48698 113.163 3.83203C112.792 4.17708 112.506 4.67188 112.304 5.31641C112.102 5.95443 112.001 6.71615 112.001 7.60156C112.001 8.48698 112.102 9.25521 112.304 9.90625C112.506 10.5508 112.792 11.0423 113.163 11.3809C113.541 11.7129 113.971 11.8789 114.452 11.8789C114.934 11.8789 115.361 11.7129 115.732 11.3809C116.109 11.0423 116.399 10.5508 116.601 9.90625C116.803 9.25521 116.904 8.48698 116.904 7.60156C116.904 6.70964 116.803 5.94466 116.601 5.30664C116.399 4.66211 116.113 4.17057 115.741 3.83203C115.377 3.48698 114.947 3.31771 114.452 3.32422ZM124.423 17.7676H122.275V0.0820312H124.423V17.7676ZM123.212 8.33398H118.3V6.57617H123.212V8.33398ZM132.734 5.08203C132.734 6.41016 132.526 7.69271 132.109 8.92969C131.699 10.1602 131.113 11.2572 130.351 12.2207C129.589 13.1777 128.701 13.8971 127.685 14.3789L126.425 12.6699C127.33 12.2467 128.128 11.6315 128.818 10.8242C129.508 10.0169 130.039 9.11523 130.41 8.11914C130.781 7.11654 130.966 6.10417 130.966 5.08203V2.75781H132.734V5.08203ZM133.173 5.08203C133.173 6.0651 133.356 7.02865 133.72 7.97266C134.091 8.91667 134.619 9.76628 135.302 10.5215C135.992 11.2702 136.796 11.8398 137.714 12.2305L136.533 13.9395C135.491 13.4772 134.586 12.7969 133.818 11.8984C133.05 11 132.464 9.96484 132.06 8.79297C131.657 7.61458 131.455 6.3776 131.455 5.08203V2.75781H133.173V5.08203ZM137.041 3.60742H127.089V1.83008H137.041V3.60742ZM141.201 17.7188H139.004V0.0820312H141.201V17.7188ZM156.426 3.44141H145.068V1.69336H156.426V3.44141ZM159.482 15.4531H143.408V13.6855H159.482V15.4531ZM151.484 14.5938H149.346V7.5332H151.484V14.5938ZM157.803 3.40234C157.803 4.4375 157.79 5.31641 157.764 6.03906C157.738 6.75521 157.676 7.60156 157.578 8.57812C157.48 9.54818 157.327 10.6029 157.119 11.7422L154.922 11.5078C155.137 10.4401 155.296 9.43424 155.4 8.49023C155.505 7.53971 155.566 6.69661 155.586 5.96094C155.605 5.22526 155.615 4.3724 155.615 3.40234V1.69336H157.803V3.40234ZM174.903 5.87305H171.72V4.125H174.903V5.87305ZM174.903 11.3125H171.72V9.53516H174.903V11.3125ZM179.884 17.7188H177.794V0.0820312H179.884V17.7188ZM176.3 16.8887H174.259V0.384766H176.3V16.8887ZM168.643 1.41992C169.425 1.41992 170.105 1.67383 170.684 2.18164C171.264 2.68945 171.713 3.41862 172.032 4.36914C172.351 5.31966 172.511 6.4362 172.511 7.71875C172.511 8.99479 172.351 10.1113 172.032 11.0684C171.713 12.0189 171.264 12.7513 170.684 13.2656C170.105 13.7799 169.425 14.0371 168.643 14.0371C167.875 14.0371 167.201 13.7799 166.622 13.2656C166.049 12.7513 165.603 12.0189 165.284 11.0684C164.971 10.1113 164.815 8.99479 164.815 7.71875C164.815 6.42969 164.971 5.31315 165.284 4.36914C165.603 3.41862 166.052 2.68945 166.632 2.18164C167.211 1.67383 167.882 1.41992 168.643 1.41992ZM168.643 3.4707C168.259 3.4707 167.93 3.63346 167.657 3.95898C167.384 4.27799 167.172 4.75651 167.022 5.39453C166.879 6.02604 166.807 6.80078 166.807 7.71875C166.807 8.63021 166.879 9.40169 167.022 10.0332C167.172 10.6647 167.384 11.1432 167.657 11.4688C167.93 11.7943 168.259 11.957 168.643 11.957C169.034 11.957 169.369 11.7943 169.649 11.4688C169.929 11.1432 170.144 10.6647 170.294 10.0332C170.45 9.39518 170.528 8.6237 170.528 7.71875C170.528 6.80729 170.45 6.03581 170.294 5.4043C170.144 4.76628 169.926 4.28451 169.639 3.95898C169.36 3.63346 169.027 3.4707 168.643 3.4707ZM190.939 9.93555H182.443V1.54688H190.939V9.93555ZM184.571 8.2168H188.8V3.29492H184.571V8.2168ZM196.232 12.6992H194.054V0.101562H196.232V12.6992ZM196.73 17.2695H184.552V15.5117H196.73V17.2695ZM186.739 16.293H184.552V11.5078H186.739V16.293ZM207.023 4.63281H198.39V2.89453H207.023V4.63281ZM202.726 5.56055C203.475 5.56055 204.139 5.73633 204.718 6.08789C205.304 6.43294 205.763 6.91797 206.095 7.54297C206.427 8.16797 206.593 8.88086 206.593 9.68164C206.593 10.4824 206.427 11.1986 206.095 11.8301C205.763 12.4551 205.304 12.9466 204.718 13.3047C204.139 13.6628 203.475 13.8418 202.726 13.8418C201.99 13.8418 201.33 13.6628 200.744 13.3047C200.164 12.9466 199.709 12.4518 199.377 11.8203C199.045 11.1888 198.879 10.4759 198.879 9.68164C198.879 8.89388 199.045 8.18424 199.377 7.55273C199.709 6.92122 200.164 6.43294 200.744 6.08789C201.33 5.73633 201.99 5.56055 202.726 5.56055ZM202.726 7.36719C202.355 7.36068 202.023 7.45508 201.73 7.65039C201.437 7.8457 201.209 8.11914 201.046 8.4707C200.884 8.81576 200.802 9.2194 200.802 9.68164C200.802 10.1439 200.884 10.5508 201.046 10.9023C201.216 11.2539 201.444 11.5208 201.73 11.7031C202.023 11.8854 202.355 11.9766 202.726 11.9766C203.104 11.9766 203.439 11.8854 203.732 11.7031C204.025 11.5208 204.256 11.2539 204.425 10.9023C204.595 10.5508 204.679 10.1439 204.679 9.68164C204.679 9.2194 204.595 8.81576 204.425 8.4707C204.256 8.11914 204.025 7.8457 203.732 7.65039C203.439 7.45508 203.104 7.36068 202.726 7.36719ZM213.595 17.7188H211.525V0.0820312H213.595V17.7188ZM212.209 9.0957H209.113V7.34766H212.209V9.0957ZM209.806 16.9277H207.765V0.462891H209.806V16.9277ZM203.8 3.97852H201.662V0.589844H203.8V3.97852ZM230.119 17.7188H227.932V0.0820312H230.119V17.7188ZM221.311 4.7793C221.311 6.15951 221.115 7.48438 220.725 8.75391C220.34 10.0234 219.787 11.1562 219.064 12.1523C218.348 13.1484 217.508 13.9102 216.545 14.4375L215.119 12.7871C216.031 12.3379 216.822 11.6901 217.492 10.8438C218.169 9.9974 218.684 9.05013 219.035 8.00195C219.393 6.95378 219.572 5.87956 219.572 4.7793V2.75781H221.311V4.7793ZM221.779 4.7793C221.779 5.7168 221.962 6.68359 222.326 7.67969C222.691 8.66927 223.208 9.57747 223.879 10.4043C224.549 11.2311 225.327 11.8691 226.213 12.3184L224.934 13.9883C223.964 13.4935 223.111 12.7578 222.375 11.7812C221.646 10.8047 221.079 9.70443 220.676 8.48047C220.272 7.25651 220.07 6.02279 220.07 4.7793V2.75781H221.779V4.7793ZM225.529 3.58789H215.793V1.83008H225.529V3.58789ZM229.396 6.78125H224.797V4.98438H229.396V6.78125ZM229.396 10.4824H224.797V8.68555H229.396V10.4824ZM235.188 11.6641C235.194 10.8568 235.269 10.2057 235.413 9.71094C235.562 9.21615 235.771 8.81901 236.038 8.51953C236.304 8.21354 236.669 7.92383 237.131 7.65039C237.6 7.35742 237.961 7.03516 238.215 6.68359C238.469 6.33203 238.596 5.9349 238.596 5.49219C238.596 5.13411 238.515 4.82161 238.352 4.55469C238.189 4.28125 237.958 4.07292 237.659 3.92969C237.366 3.77995 237.043 3.70508 236.692 3.70508C236.353 3.70508 236.038 3.77669 235.745 3.91992C235.452 4.05664 235.211 4.27148 235.022 4.56445C234.833 4.85742 234.729 5.21224 234.709 5.62891H232.268C232.294 4.78255 232.506 4.06315 232.903 3.4707C233.3 2.87174 233.827 2.42253 234.485 2.12305C235.142 1.81706 235.878 1.66406 236.692 1.66406C237.577 1.66406 238.355 1.82031 239.026 2.13281C239.703 2.4388 240.227 2.87826 240.598 3.45117C240.969 4.01758 241.155 4.6849 241.155 5.45312C241.155 6.21484 240.976 6.86914 240.618 7.41602C240.266 7.95638 239.758 8.43164 239.094 8.8418C238.704 9.06966 238.394 9.30729 238.166 9.55469C237.939 9.80208 237.766 10.0918 237.649 10.4238C237.532 10.7559 237.47 11.1693 237.463 11.6641V11.8496H235.188V11.6641ZM236.389 16.1562C236.116 16.1562 235.862 16.0879 235.627 15.9512C235.393 15.8079 235.207 15.6224 235.071 15.3945C234.941 15.1602 234.875 14.9062 234.875 14.6328C234.875 14.3659 234.941 14.1185 235.071 13.8906C235.207 13.6562 235.393 13.474 235.627 13.3438C235.862 13.207 236.116 13.1387 236.389 13.1387C236.649 13.1387 236.897 13.207 237.131 13.3438C237.366 13.474 237.551 13.6562 237.688 13.8906C237.825 14.1185 237.893 14.3659 237.893 14.6328C237.893 14.9062 237.825 15.1602 237.688 15.3945C237.551 15.6224 237.366 15.8079 237.131 15.9512C236.897 16.0879 236.649 16.1562 236.389 16.1562Z" fill="white"/>
</svg>
