<svg width="230" height="18" viewBox="0 0 230 18" fill="none" xmlns="http://www.w3.org/2000/svg">
<path d="M14.8926 6.79102H2.70508V5.0625H14.8926V6.79102ZM4.88281 5.77539H2.70508V0.628906H4.88281V5.77539ZM16.6992 10.2676H0.595703V8.5293H16.6992V10.2676ZM9.89258 13.5488H7.73438V9.70117H9.89258V13.5488ZM15.0098 17.4062H2.53906V15.6289H15.0098V17.4062ZM4.69727 16.5469H2.53906V12.1328H4.69727V16.5469ZM36.7391 10.1797H30.2938V8.46094H36.7391V10.1797ZM37.9402 15.4629H21.8465V13.666H37.9402V15.4629ZM36.6219 3.57812H32.4813V8.98828H30.2938V1.83008H36.6219V3.57812ZM29.4148 3.58789H25.3914V8.87109H23.2137V1.83008H29.4148V3.58789ZM24.2781 8.46094C25.3003 8.46094 26.2117 8.42839 27.0125 8.36328C27.8198 8.29818 28.6499 8.18424 29.5027 8.02148L29.698 9.76953C28.8387 9.94531 28.0151 10.0592 27.2273 10.1113C26.4396 10.1569 25.4565 10.1797 24.2781 10.1797H23.2137V8.46094H24.2781ZM51.9543 4.74023H47.2961V2.97266H51.9543V4.74023ZM52.0129 8.50977H47.2961V6.77148H52.0129V8.50977ZM47.7746 10.0332H39.4934V1.55664H47.7746V10.0332ZM41.6516 8.33398H45.6457V3.29492H41.6516V8.33398ZM53.507 12.9531H51.3391V0.101562H53.507V12.9531ZM53.8879 17.4062H41.8664V15.6289H53.8879V17.4062ZM44.0734 16.5078H41.8664V11.7617H44.0734V16.5078ZM73.8008 17.7676H71.6328V0.0820312H73.8008V17.7676ZM76.5254 8.56836H73.3125V6.78125H76.5254V8.56836ZM62.1504 11.6348C63.7845 11.6413 65.2201 11.6022 66.457 11.5176C67.7005 11.4329 68.9538 11.2767 70.2168 11.0488L70.4609 12.8848C69.1849 13.1126 67.9186 13.2624 66.6621 13.334C65.4121 13.4056 63.9082 13.4382 62.1504 13.4316H60.6953V11.6348H62.1504ZM68.957 3.51953H62.8633V12.5137H60.6953V1.75195H68.957V3.51953ZM83.1273 4.32031C83.1273 5.79167 82.9255 7.18164 82.5219 8.49023C82.1247 9.79232 81.5421 10.9382 80.7738 11.9277C80.0056 12.9173 79.0811 13.6693 78.0004 14.1836L76.6723 12.3672C77.6293 11.944 78.4594 11.3223 79.1625 10.502C79.8656 9.67513 80.4027 8.72786 80.7738 7.66016C81.1514 6.58594 81.3402 5.47266 81.3402 4.32031V1.49805H83.1273V4.32031ZM83.5277 4.32031C83.5277 5.41406 83.71 6.47201 84.0746 7.49414C84.4392 8.51628 84.9665 9.42773 85.6566 10.2285C86.3533 11.0293 87.1671 11.6315 88.098 12.0352L86.809 13.7734C85.7673 13.2852 84.8624 12.5658 84.0941 11.6152C83.3259 10.6582 82.74 9.55469 82.3363 8.30469C81.9327 7.05469 81.7309 5.72656 81.7309 4.32031V1.49805H83.5277V4.32031ZM91.5453 17.7676H89.348V0.0820312H91.5453V17.7676ZM103.997 5.08203C103.997 6.38411 103.792 7.6569 103.382 8.90039C102.978 10.1439 102.399 11.2507 101.644 12.2207C100.889 13.1842 100.013 13.9036 99.0168 14.3789L97.7375 12.6699C98.649 12.2337 99.4465 11.6087 100.13 10.7949C100.814 9.98112 101.341 9.07617 101.712 8.08008C102.09 7.08398 102.279 6.08464 102.279 5.08203V2.75781H103.997V5.08203ZM104.446 5.08203C104.446 6.01302 104.619 6.94727 104.964 7.88477C105.316 8.82227 105.827 9.67839 106.497 10.4531C107.168 11.2214 107.952 11.8138 108.851 12.2305L107.63 13.9395C106.634 13.4707 105.765 12.7773 105.023 11.8594C104.28 10.9349 103.711 9.88346 103.314 8.70508C102.917 7.52669 102.718 6.31901 102.718 5.08203V2.75781H104.446V5.08203ZM108.138 3.60742H98.4211V1.83008H108.138V3.60742ZM111.937 17.7188H109.769V0.0820312H111.937V17.7188ZM114.661 8.7832H111.448V6.95703H114.661V8.7832ZM129.74 17.7188H127.543V0.0820312H129.74V17.7188ZM124.476 1.95703C124.476 3.79948 124.209 5.48893 123.675 7.02539C123.148 8.55534 122.279 9.96484 121.068 11.2539C119.857 12.5365 118.252 13.653 116.254 14.6035L115.101 12.8652C116.8 12.0579 118.181 11.14 119.242 10.1113C120.303 9.08268 121.081 7.92708 121.576 6.64453C122.071 5.36198 122.318 3.92318 122.318 2.32812V1.95703H124.476ZM123.295 3.67578H116V1.95703H123.295V3.67578ZM141.069 1.37109C141.941 1.37109 142.716 1.62826 143.393 2.14258C144.077 2.65039 144.61 3.3763 144.995 4.32031C145.385 5.25781 145.58 6.35156 145.58 7.60156C145.58 8.85807 145.385 9.95833 144.995 10.9023C144.61 11.8398 144.077 12.5658 143.393 13.0801C142.716 13.5944 141.941 13.8516 141.069 13.8516C140.19 13.8516 139.409 13.5977 138.725 13.0898C138.041 12.5755 137.504 11.8464 137.114 10.9023C136.73 9.95833 136.538 8.85807 136.538 7.60156C136.538 6.35156 136.73 5.25781 137.114 4.32031C137.504 3.3763 138.041 2.65039 138.725 2.14258C139.409 1.62826 140.19 1.37109 141.069 1.37109ZM141.069 3.32422C140.587 3.31771 140.157 3.48698 139.78 3.83203C139.409 4.17708 139.122 4.67188 138.92 5.31641C138.718 5.95443 138.618 6.71615 138.618 7.60156C138.618 8.48698 138.718 9.25521 138.92 9.90625C139.122 10.5508 139.409 11.0423 139.78 11.3809C140.157 11.7129 140.587 11.8789 141.069 11.8789C141.551 11.8789 141.977 11.7129 142.348 11.3809C142.726 11.0423 143.015 10.5508 143.217 9.90625C143.419 9.25521 143.52 8.48698 143.52 7.60156C143.52 6.70964 143.419 5.94466 143.217 5.30664C143.015 4.66211 142.729 4.17057 142.358 3.83203C141.993 3.48698 141.564 3.31771 141.069 3.32422ZM151.039 17.7676H148.891V0.0820312H151.039V17.7676ZM149.829 8.33398H144.916V6.57617H149.829V8.33398ZM167.915 9.95508H165.747V0.101562H167.915V9.95508ZM166.177 3.91016H162.632V2.16211H166.177V3.91016ZM155.141 7.76758C157.108 7.76107 158.559 7.73828 159.497 7.69922C160.434 7.65365 161.391 7.54622 162.368 7.37695L162.544 9.13477C161.541 9.30404 160.529 9.41471 159.507 9.4668C158.485 9.51888 157.029 9.54818 155.141 9.55469H153.843V7.76758H155.141ZM161.567 5.91211H155.991V9.32031H153.843V4.29102H159.399V2.5625H153.813V0.804688H161.567V5.91211ZM166.177 7.36719H162.632V5.63867H166.177V7.36719ZM158.335 12.3672H165.757V10.6289H167.915V17.5137H156.177V10.6289H158.335V12.3672ZM165.757 15.7656V14.0566H158.335V15.7656H165.757ZM176.236 5.08203C176.236 6.41016 176.027 7.69271 175.611 8.92969C175.2 10.1602 174.614 11.2572 173.853 12.2207C173.091 13.1777 172.202 13.8971 171.187 14.3789L169.927 12.6699C170.832 12.2467 171.629 11.6315 172.32 10.8242C173.01 10.0169 173.54 9.11523 173.911 8.11914C174.282 7.11654 174.468 6.10417 174.468 5.08203V2.75781H176.236V5.08203ZM176.675 5.08203C176.675 6.0651 176.857 7.02865 177.222 7.97266C177.593 8.91667 178.12 9.76628 178.804 10.5215C179.494 11.2702 180.298 11.8398 181.216 12.2305L180.034 13.9395C178.993 13.4772 178.088 12.7969 177.32 11.8984C176.551 11 175.965 9.96484 175.562 8.79297C175.158 7.61458 174.956 6.3776 174.956 5.08203V2.75781H176.675V5.08203ZM180.542 3.60742H170.591V1.83008H180.542V3.60742ZM184.702 17.7188H182.505V0.0820312H184.702V17.7188ZM191.783 0.990234C192.675 0.990234 193.476 1.16602 194.185 1.51758C194.895 1.86263 195.451 2.34766 195.855 2.97266C196.265 3.59115 196.47 4.29427 196.47 5.08203C196.47 5.86979 196.265 6.57943 195.855 7.21094C195.451 7.83594 194.895 8.32422 194.185 8.67578C193.476 9.02083 192.675 9.19661 191.783 9.20312C190.897 9.19661 190.097 9.01758 189.38 8.66602C188.671 8.31445 188.111 7.82617 187.701 7.20117C187.297 6.57617 187.095 5.86979 187.095 5.08203C187.095 4.29427 187.3 3.59115 187.711 2.97266C188.121 2.34766 188.681 1.86263 189.39 1.51758C190.106 1.16602 190.904 0.990234 191.783 0.990234ZM191.783 2.78711C191.301 2.78711 190.862 2.88151 190.464 3.07031C190.074 3.25911 189.768 3.52604 189.546 3.87109C189.325 4.21615 189.214 4.61979 189.214 5.08203C189.214 5.53776 189.325 5.94466 189.546 6.30273C189.768 6.6543 190.074 6.92773 190.464 7.12305C190.862 7.31836 191.301 7.41927 191.783 7.42578C192.278 7.41927 192.717 7.31836 193.101 7.12305C193.485 6.92773 193.788 6.6543 194.009 6.30273C194.237 5.94466 194.351 5.53776 194.351 5.08203C194.351 4.61979 194.237 4.21615 194.009 3.87109C193.788 3.52604 193.485 3.25911 193.101 3.07031C192.717 2.88151 192.278 2.78711 191.783 2.78711ZM200.826 8.83203H198.658V0.0820312H200.826V8.83203ZM203.296 5.63867H199.947V3.86133H203.296V5.63867ZM189.517 15.5215C190.305 15.515 191.05 15.4694 191.754 15.3848C192.457 15.3001 193.13 15.1536 193.775 14.9453L194.087 16.6445C193.378 16.8919 192.668 17.0547 191.959 17.1328C191.249 17.2109 190.435 17.25 189.517 17.25H188.589V15.5215H189.517ZM190.699 16.0879H188.589V10.6094H190.699V16.0879ZM202.369 12.25H193.482V10.6387H202.369V12.25ZM197.916 12.7285C198.58 12.7285 199.166 12.8327 199.673 13.041C200.181 13.2493 200.578 13.5423 200.865 13.9199C201.158 14.291 201.304 14.7305 201.304 15.2383C201.304 15.7331 201.158 16.166 200.865 16.5371C200.578 16.9147 200.181 17.2044 199.673 17.4062C199.166 17.6081 198.58 17.709 197.916 17.709C197.245 17.709 196.653 17.6081 196.138 17.4062C195.63 17.2044 195.237 16.9147 194.957 16.5371C194.683 16.166 194.546 15.7331 194.546 15.2383C194.546 14.7305 194.686 14.291 194.966 13.9199C195.246 13.5423 195.64 13.2493 196.148 13.041C196.656 12.8327 197.245 12.7285 197.916 12.7285ZM197.916 14.252C197.642 14.252 197.395 14.291 197.173 14.3691C196.959 14.4473 196.789 14.5612 196.666 14.7109C196.542 14.8607 196.48 15.0365 196.48 15.2383C196.48 15.4336 196.542 15.6061 196.666 15.7559C196.789 15.9056 196.959 16.0195 197.173 16.0977C197.395 16.1823 197.642 16.2246 197.916 16.2246C198.202 16.2246 198.449 16.1823 198.658 16.0977C198.873 16.0195 199.039 15.9056 199.156 15.7559C199.28 15.6061 199.341 15.4336 199.341 15.2383C199.341 15.0365 199.28 14.8607 199.156 14.7109C199.039 14.5612 198.873 14.4473 198.658 14.3691C198.449 14.291 198.202 14.252 197.916 14.252ZM199.009 11.8691H196.89V9.29102H199.009V11.8691ZM208.531 1.37109C209.417 1.37109 210.204 1.62826 210.895 2.14258C211.585 2.65039 212.128 3.3763 212.525 4.32031C212.923 5.25781 213.121 6.35156 213.121 7.60156C213.121 8.85807 212.923 9.95833 212.525 10.9023C212.128 11.8398 211.581 12.5658 210.885 13.0801C210.195 13.5944 209.41 13.8516 208.531 13.8516C207.646 13.8516 206.855 13.5944 206.158 13.0801C205.462 12.5658 204.918 11.8398 204.527 10.9023C204.137 9.95833 203.941 8.85807 203.941 7.60156C203.941 6.35156 204.137 5.25781 204.527 4.32031C204.918 3.3763 205.462 2.65039 206.158 2.14258C206.855 1.62826 207.646 1.37109 208.531 1.37109ZM208.531 3.32422C208.036 3.31771 207.597 3.48698 207.213 3.83203C206.835 4.17708 206.542 4.67188 206.334 5.31641C206.132 5.95443 206.031 6.71615 206.031 7.60156C206.031 8.48698 206.132 9.25521 206.334 9.90625C206.542 10.5508 206.839 11.0423 207.223 11.3809C207.607 11.7129 208.043 11.8789 208.531 11.8789C209.026 11.8789 209.462 11.7129 209.84 11.3809C210.224 11.0423 210.517 10.5508 210.719 9.90625C210.921 9.25521 211.021 8.48698 211.021 7.60156C211.021 6.70964 210.921 5.94466 210.719 5.30664C210.517 4.66211 210.224 4.17057 209.84 3.83203C209.462 3.48698 209.026 3.31771 208.531 3.32422ZM217.613 17.7188H215.445V0.0820312H217.613V17.7188ZM220.338 8.69531H217.125V6.86914H220.338V8.69531ZM223.668 11.6641C223.675 10.8568 223.75 10.2057 223.893 9.71094C224.043 9.21615 224.251 8.81901 224.518 8.51953C224.785 8.21354 225.149 7.92383 225.612 7.65039C226.08 7.35742 226.442 7.03516 226.696 6.68359C226.95 6.33203 227.077 5.9349 227.077 5.49219C227.077 5.13411 226.995 4.82161 226.832 4.55469C226.67 4.28125 226.439 4.07292 226.139 3.92969C225.846 3.77995 225.524 3.70508 225.172 3.70508C224.834 3.70508 224.518 3.77669 224.225 3.91992C223.932 4.05664 223.691 4.27148 223.502 4.56445C223.314 4.85742 223.209 5.21224 223.19 5.62891H220.748C220.774 4.78255 220.986 4.06315 221.383 3.4707C221.78 2.87174 222.308 2.42253 222.965 2.12305C223.623 1.81706 224.358 1.66406 225.172 1.66406C226.058 1.66406 226.836 1.82031 227.506 2.13281C228.183 2.4388 228.707 2.87826 229.079 3.45117C229.45 4.01758 229.635 4.6849 229.635 5.45312C229.635 6.21484 229.456 6.86914 229.098 7.41602C228.746 7.95638 228.239 8.43164 227.575 8.8418C227.184 9.06966 226.875 9.30729 226.647 9.55469C226.419 9.80208 226.246 10.0918 226.129 10.4238C226.012 10.7559 225.95 11.1693 225.944 11.6641V11.8496H223.668V11.6641ZM224.87 16.1562C224.596 16.1562 224.342 16.0879 224.108 15.9512C223.873 15.8079 223.688 15.6224 223.551 15.3945C223.421 15.1602 223.356 14.9062 223.356 14.6328C223.356 14.3659 223.421 14.1185 223.551 13.8906C223.688 13.6562 223.873 13.474 224.108 13.3438C224.342 13.207 224.596 13.1387 224.87 13.1387C225.13 13.1387 225.377 13.207 225.612 13.3438C225.846 13.474 226.032 13.6562 226.168 13.8906C226.305 14.1185 226.373 14.3659 226.373 14.6328C226.373 14.9062 226.305 15.1602 226.168 15.3945C226.032 15.6224 225.846 15.8079 225.612 15.9512C225.377 16.0879 225.13 16.1562 224.87 16.1562Z" fill="white"/>
</svg>
