<svg width="76" height="18" viewBox="0 0 76 18" fill="none" xmlns="http://www.w3.org/2000/svg">
<path d="M8.55078 8.92969H0.191406V1.24414H8.55078V8.92969ZM2.33008 7.19141H6.42188V2.98242H2.33008V7.19141ZM13.5117 10.0332H11.3438V0.0820312H13.5117V10.0332ZM15.9824 5.84375H12.8965V4.05664H15.9824V5.84375ZM8.54102 12.1816C8.54102 13.0931 8.27409 13.9297 7.74023 14.6914C7.20638 15.4466 6.44792 16.0814 5.46484 16.5957C4.48177 17.1165 3.33594 17.4648 2.02734 17.6406L1.22656 16C2.35286 15.8503 3.32943 15.5833 4.15625 15.1992C4.98307 14.8151 5.61458 14.3626 6.05078 13.8418C6.49349 13.3145 6.71484 12.7611 6.71484 12.1816V11.7227H8.54102V12.1816ZM9.01953 12.1816C9.01953 12.7415 9.24089 13.2852 9.68359 13.8125C10.1263 14.3398 10.7643 14.8021 11.5977 15.1992C12.431 15.5898 13.401 15.8633 14.5078 16.0195L13.7266 17.6797C12.4115 17.4909 11.2559 17.1361 10.2598 16.6152C9.27018 16.0944 8.50521 15.4499 7.96484 14.6816C7.42448 13.9134 7.1543 13.0801 7.1543 12.1816V11.7227H9.01953V12.1816ZM13.7656 12.6602H1.95898V10.9316H13.7656V12.6602ZM21.2172 1.37109C22.1026 1.37109 22.8904 1.62826 23.5805 2.14258C24.2706 2.65039 24.8142 3.3763 25.2113 4.32031C25.6085 5.25781 25.807 6.35156 25.807 7.60156C25.807 8.85807 25.6085 9.95833 25.2113 10.9023C24.8142 11.8398 24.2673 12.5658 23.5707 13.0801C22.8806 13.5944 22.0961 13.8516 21.2172 13.8516C20.3318 13.8516 19.5408 13.5944 18.8441 13.0801C18.1475 12.5658 17.6039 11.8398 17.2133 10.9023C16.8227 9.95833 16.6273 8.85807 16.6273 7.60156C16.6273 6.35156 16.8227 5.25781 17.2133 4.32031C17.6039 3.3763 18.1475 2.65039 18.8441 2.14258C19.5408 1.62826 20.3318 1.37109 21.2172 1.37109ZM21.2172 3.32422C20.7224 3.31771 20.2829 3.48698 19.8988 3.83203C19.5212 4.17708 19.2283 4.67188 19.0199 5.31641C18.8181 5.95443 18.7172 6.71615 18.7172 7.60156C18.7172 8.48698 18.8181 9.25521 19.0199 9.90625C19.2283 10.5508 19.5245 11.0423 19.9086 11.3809C20.2927 11.7129 20.7289 11.8789 21.2172 11.8789C21.712 11.8789 22.1482 11.7129 22.5258 11.3809C22.9099 11.0423 23.2029 10.5508 23.4047 9.90625C23.6065 9.25521 23.7074 8.48698 23.7074 7.60156C23.7074 6.70964 23.6065 5.94466 23.4047 5.30664C23.2029 4.66211 22.9099 4.17057 22.5258 3.83203C22.1482 3.48698 21.712 3.31771 21.2172 3.32422ZM30.2992 17.7188H28.1313V0.0820312H30.2992V17.7188ZM33.0238 8.69531H29.8109V6.86914H33.0238V8.69531ZM46.6867 8.92969H38.3273V1.24414H46.6867V8.92969ZM40.466 7.19141H44.5578V2.98242H40.466V7.19141ZM51.6477 10.0332H49.4797V0.0820312H51.6477V10.0332ZM54.1184 5.84375H51.0324V4.05664H54.1184V5.84375ZM46.677 12.1816C46.677 13.0931 46.41 13.9297 45.8762 14.6914C45.3423 15.4466 44.5839 16.0814 43.6008 16.5957C42.6177 17.1165 41.4719 17.4648 40.1633 17.6406L39.3625 16C40.4888 15.8503 41.4654 15.5833 42.2922 15.1992C43.119 14.8151 43.7505 14.3626 44.1867 13.8418C44.6294 13.3145 44.8508 12.7611 44.8508 12.1816V11.7227H46.677V12.1816ZM47.1555 12.1816C47.1555 12.7415 47.3768 13.2852 47.8195 13.8125C48.2622 14.3398 48.9003 14.8021 49.7336 15.1992C50.5669 15.5898 51.537 15.8633 52.6437 16.0195L51.8625 17.6797C50.5474 17.4909 49.3918 17.1361 48.3957 16.6152C47.4061 16.0944 46.6411 15.4499 46.1008 14.6816C45.5604 13.9134 45.2902 13.0801 45.2902 12.1816V11.7227H47.1555V12.1816ZM51.9016 12.6602H40.0949V10.9316H51.9016V12.6602ZM59.3531 1.37109C60.2385 1.37109 61.0263 1.62826 61.7164 2.14258C62.4065 2.65039 62.9501 3.3763 63.3473 4.32031C63.7444 5.25781 63.943 6.35156 63.943 7.60156C63.943 8.85807 63.7444 9.95833 63.3473 10.9023C62.9501 11.8398 62.4033 12.5658 61.7066 13.0801C61.0165 13.5944 60.232 13.8516 59.3531 13.8516C58.4677 13.8516 57.6767 13.5944 56.9801 13.0801C56.2835 12.5658 55.7398 11.8398 55.3492 10.9023C54.9586 9.95833 54.7633 8.85807 54.7633 7.60156C54.7633 6.35156 54.9586 5.25781 55.3492 4.32031C55.7398 3.3763 56.2835 2.65039 56.9801 2.14258C57.6767 1.62826 58.4677 1.37109 59.3531 1.37109ZM59.3531 3.32422C58.8583 3.31771 58.4189 3.48698 58.0348 3.83203C57.6572 4.17708 57.3642 4.67188 57.1559 5.31641C56.954 5.95443 56.8531 6.71615 56.8531 7.60156C56.8531 8.48698 56.954 9.25521 57.1559 9.90625C57.3642 10.5508 57.6604 11.0423 58.0445 11.3809C58.4286 11.7129 58.8648 11.8789 59.3531 11.8789C59.8479 11.8789 60.2841 11.7129 60.6617 11.3809C61.0458 11.0423 61.3388 10.5508 61.5406 9.90625C61.7424 9.25521 61.8434 8.48698 61.8434 7.60156C61.8434 6.70964 61.7424 5.94466 61.5406 5.30664C61.3388 4.66211 61.0458 4.17057 60.6617 3.83203C60.2841 3.48698 59.8479 3.31771 59.3531 3.32422ZM68.4352 17.7188H66.2672V0.0820312H68.4352V17.7188ZM71.1598 8.69531H67.9469V6.86914H71.1598V8.69531ZM74.9004 11.8496H72.6934L72.4785 1.85938H75.125L74.9004 11.8496ZM73.8066 16.1562C73.5332 16.1562 73.2793 16.0879 73.0449 15.9512C72.8105 15.8079 72.625 15.6224 72.4883 15.3945C72.3581 15.1602 72.293 14.9062 72.293 14.6328C72.293 14.3659 72.3581 14.1185 72.4883 13.8906C72.625 13.6562 72.8105 13.474 73.0449 13.3438C73.2793 13.207 73.5332 13.1387 73.8066 13.1387C74.0736 13.1387 74.321 13.207 74.5488 13.3438C74.7832 13.474 74.9688 13.6562 75.1055 13.8906C75.2422 14.1185 75.3105 14.3659 75.3105 14.6328C75.3105 14.9062 75.2422 15.1602 75.1055 15.3945C74.9688 15.6224 74.7832 15.8079 74.5488 15.9512C74.321 16.0879 74.0736 16.1562 73.8066 16.1562Z" fill="white"/>
</svg>
