<svg width="214" height="23" viewBox="0 0 214 23" fill="none" xmlns="http://www.w3.org/2000/svg">
<path d="M11.4258 14.2227H9.21094V11.0586H11.4258V14.2227ZM5.49609 3.14844H15.2227V1.32031H17.4258V8.26953H3.29297V1.32031H5.49609V3.14844ZM15.2227 6.57031V4.80078H5.49609V6.57031H15.2227ZM19.9219 11.6211H0.773438V9.79297H19.9219V11.6211ZM17.4961 18.3008H5.28516V20.6914H3.09375V16.707H15.3164V15.0898H3.05859V13.4258H17.4961V18.3008ZM18.1055 21.7812H3.09375V20.0586H18.1055V21.7812ZM36.9614 6.39453H31.2192V4.55469H36.9614V6.39453ZM37.0317 10.8828H31.2192V9.07812H37.0317V10.8828ZM31.7466 12.7227H21.9848V2.78516H31.7466V12.7227ZM24.1997 10.9648H29.5552V4.58984H24.1997V10.9648ZM38.5434 16.3203H36.3169V1.00391H38.5434V16.3203ZM39.0122 21.5703H24.8208V19.7305H39.0122V21.5703ZM27.0708 20.5977H24.8208V14.9258H27.0708V20.5977ZM60.4463 12.6875H41.2978V10.8711H60.4463V12.6875ZM50.8603 14.3047C52.3603 14.3047 53.6572 14.457 54.7509 14.7617C55.8447 15.0586 56.6767 15.4961 57.247 16.0742C57.8252 16.6445 58.1142 17.332 58.1142 18.1367C58.1142 18.9492 57.8252 19.6406 57.247 20.2109C56.6767 20.7812 55.8486 21.2148 54.7627 21.5117C53.6767 21.8086 52.3759 21.957 50.8603 21.957C49.3447 21.957 48.04 21.8086 46.9463 21.5117C45.8525 21.2148 45.0166 20.7812 44.4384 20.2109C43.8603 19.6406 43.5713 18.9492 43.5713 18.1367C43.5713 17.332 43.8642 16.6445 44.4502 16.0742C45.0361 15.4961 45.8759 15.0586 46.9697 14.7617C48.0634 14.457 49.3603 14.3047 50.8603 14.3047ZM50.8603 16.0391C49.79 16.0391 48.8759 16.1211 48.1181 16.2852C47.3681 16.4414 46.7978 16.6797 46.4072 17C46.0244 17.3125 45.833 17.6914 45.833 18.1367C45.833 18.5664 46.0283 18.9375 46.4189 19.25C46.8095 19.5625 47.3798 19.8008 48.1298 19.9648C48.8798 20.1211 49.79 20.1992 50.8603 20.1992C51.9306 20.1992 52.8369 20.1211 53.5791 19.9648C54.3291 19.8008 54.8994 19.5625 55.29 19.25C55.6806 18.9375 55.8759 18.5664 55.8759 18.1367C55.8759 17.6914 55.6806 17.3125 55.29 17C54.8994 16.6797 54.3291 16.4414 53.5791 16.2852C52.8369 16.1211 51.9306 16.0391 50.8603 16.0391ZM51.3642 3.55859C51.3642 4.63672 51.0048 5.61719 50.2861 6.5C49.5673 7.375 48.5791 8.09766 47.3213 8.66797C46.0634 9.23047 44.6455 9.60156 43.0673 9.78125L42.3056 8.01172C43.6259 7.87109 44.8252 7.58594 45.9033 7.15625C46.9892 6.71875 47.8408 6.1875 48.458 5.5625C49.0752 4.9375 49.3838 4.26953 49.3838 3.55859V2.94922H51.3642V3.55859ZM52.3486 3.55859C52.3486 4.26953 52.6533 4.9375 53.2627 5.5625C53.8798 6.1875 54.7314 6.71875 55.8173 7.15625C56.9033 7.58594 58.1181 7.87109 59.4619 8.01172L58.6533 9.78125C57.0908 9.60156 55.6806 9.23047 54.4228 8.66797C53.165 8.09766 52.1728 7.375 51.4463 6.5C50.7197 5.61719 50.3564 4.63672 50.3564 3.55859V2.94922H52.3486V3.55859ZM58.7353 3.83984H43.0439V2.03516H58.7353V3.83984ZM71.9428 5.03516H62.5092V3.24219H71.9428V5.03516ZM67.853 16.3672H65.6616V9.24219H67.853V16.3672ZM73.2553 4.53125C73.2475 5.52344 73.2358 6.35547 73.2202 7.02734C73.2045 7.69141 73.1538 8.52734 73.0678 9.53516C72.9819 10.5352 72.8452 11.6133 72.6577 12.7695L70.4428 12.582C70.7006 10.9648 70.8608 9.54688 70.9233 8.32812C70.9936 7.10938 71.0288 5.84375 71.0288 4.53125V3.24219H73.2553V4.53125ZM77.9077 21.9805H75.6811V0.980469H77.9077V21.9805ZM81.1186 11.5508H77.2866V9.65234H81.1186V11.5508ZM61.3608 15.6641C63.9467 15.6406 66.3022 15.5898 68.4272 15.5117C70.56 15.4258 72.5756 15.2695 74.4741 15.043L74.5913 16.707C72.6225 17.0117 70.5444 17.2188 68.3569 17.3281C66.1694 17.4375 63.9194 17.4844 61.6069 17.4688L61.3608 15.6641ZM104.686 21.9805H102.483V0.980469H104.686V21.9805ZM103.502 11.1406H97.7602V9.3125H103.502V11.1406ZM97.8305 3.24219C97.8305 5.36719 97.5258 7.33203 96.9164 9.13672C96.307 10.9336 95.2992 12.5898 93.893 14.1055C92.4867 15.6211 90.6312 16.9531 88.3266 18.1016L87.1547 16.3438C89.1547 15.3672 90.7797 14.2461 92.0297 12.9805C93.2875 11.707 94.2016 10.2969 94.7719 8.75C95.35 7.19531 95.6391 5.48047 95.6391 3.60547V3.24219H97.8305ZM96.7992 5.02344H88.0922V3.24219H96.7992V5.02344ZM124.89 22.0391H122.675V0.980469H124.89V22.0391ZM110.452 15.1367C112.397 15.1445 114.179 15.0938 115.796 14.9844C117.421 14.875 119.097 14.6836 120.823 14.4102L121.046 16.2383C119.296 16.5273 117.6 16.7266 115.96 16.8359C114.319 16.9375 112.483 16.9883 110.452 16.9883H108.659V15.1367H110.452ZM118.468 10.5547H110.933V15.8398H108.659V8.77344H116.218V4.69531H108.624V2.87891H118.468V10.5547ZM144.085 21.9688H141.87V0.980469H144.085V21.9688ZM147.343 11.2227H143.511V9.37109H147.343V11.2227ZM138.589 3.20703C138.589 5.30859 138.261 7.27344 137.605 9.10156C136.956 10.9219 135.917 12.6016 134.488 14.1406C133.066 15.6719 131.234 16.9922 128.992 18.1016L127.749 16.3672C129.679 15.3984 131.285 14.2812 132.566 13.0156C133.847 11.7422 134.808 10.3242 135.449 8.76172C136.089 7.19141 136.41 5.46875 136.41 3.59375V3.20703H138.589ZM137.535 5.05859H128.781V3.20703H137.535V5.05859ZM164.172 10.7422H154.317V2.05859H164.172V10.7422ZM156.52 8.97266H161.981V3.82812H156.52V8.97266ZM170.852 11.6914H168.649V0.980469H170.852V11.6914ZM169.317 7.20312H163.539V5.42188H169.317V7.20312ZM170.852 17.9492H159.391V20.9023H157.164V16.2734H168.649V14.4453H157.129V12.6875H170.852V17.9492ZM171.602 21.7227H157.164V19.9531H171.602V21.7227ZM179.325 2.5625C180.356 2.5625 181.27 2.86719 182.067 3.47656C182.872 4.08594 183.501 4.94531 183.954 6.05469C184.407 7.16406 184.634 8.45703 184.634 9.93359C184.634 11.418 184.407 12.7148 183.954 13.8242C183.501 14.9336 182.872 15.793 182.067 16.4023C181.27 17.0039 180.356 17.3047 179.325 17.3047C178.294 17.3047 177.372 17.0039 176.559 16.4023C175.755 15.8008 175.126 14.9453 174.673 13.8359C174.22 12.7188 173.993 11.418 173.993 9.93359C173.993 8.45703 174.22 7.16406 174.673 6.05469C175.126 4.94531 175.755 4.08594 176.559 3.47656C177.372 2.86719 178.294 2.5625 179.325 2.5625ZM179.325 4.55469C178.7 4.55469 178.141 4.77344 177.649 5.21094C177.157 5.64844 176.778 6.27344 176.512 7.08594C176.255 7.89062 176.126 8.83984 176.126 9.93359C176.126 11.0195 176.255 11.9688 176.512 12.7812C176.778 13.5938 177.157 14.2188 177.649 14.6562C178.141 15.0859 178.7 15.3008 179.325 15.3008C179.95 15.3008 180.509 15.0859 181.001 14.6562C181.493 14.2188 181.872 13.5938 182.137 12.7812C182.403 11.9688 182.536 11.0195 182.536 9.93359C182.536 8.83984 182.399 7.89062 182.126 7.08594C181.86 6.27344 181.485 5.64844 181.001 5.21094C180.524 4.77344 179.966 4.55469 179.325 4.55469ZM191.149 22.0391H188.934V0.980469H191.149V22.0391ZM189.907 10.6836H183.93V8.86719H189.907V10.6836ZM200.689 17.9258H198.497V11.7734H200.689V17.9258ZM208.517 17.9258H206.279V11.7734H208.517V17.9258ZM213.111 19.3672H193.892V17.5273H213.111V19.3672ZM203.466 2.19922C204.966 2.19922 206.302 2.42969 207.474 2.89062C208.646 3.34375 209.56 3.98828 210.216 4.82422C210.88 5.65234 211.212 6.60547 211.212 7.68359C211.212 8.76953 210.88 9.72656 210.216 10.5547C209.56 11.375 208.646 12.0156 207.474 12.4766C206.302 12.9297 204.966 13.1562 203.466 13.1562C201.974 13.1562 200.638 12.9297 199.458 12.4766C198.286 12.0156 197.368 11.375 196.704 10.5547C196.04 9.72656 195.708 8.76953 195.708 7.68359C195.708 6.60547 196.04 5.65234 196.704 4.82422C197.368 3.98828 198.286 3.34375 199.458 2.89062C200.638 2.42969 201.974 2.19922 203.466 2.19922ZM203.466 4.00391C202.372 3.99609 201.404 4.14453 200.56 4.44922C199.724 4.74609 199.068 5.17578 198.591 5.73828C198.122 6.29297 197.888 6.94141 197.888 7.68359C197.888 8.42578 198.122 9.07812 198.591 9.64062C199.068 10.2031 199.728 10.6406 200.572 10.9531C201.415 11.2656 202.38 11.4219 203.466 11.4219C204.544 11.4219 205.505 11.2656 206.349 10.9531C207.193 10.6406 207.853 10.2031 208.329 9.64062C208.806 9.07812 209.044 8.42578 209.044 7.68359C209.044 6.94141 208.806 6.29297 208.329 5.73828C207.861 5.17578 207.204 4.74609 206.361 4.44922C205.517 4.14453 204.552 3.99609 203.466 4.00391Z" fill="black"/>
</svg>
