<svg width="234" height="23" viewBox="0 0 234 23" fill="none" xmlns="http://www.w3.org/2000/svg">
<path d="M11.4258 14.2227H9.21094V11.0586H11.4258V14.2227ZM5.49609 3.14844H15.2227V1.32031H17.4258V8.26953H3.29297V1.32031H5.49609V3.14844ZM15.2227 6.57031V4.80078H5.49609V6.57031H15.2227ZM19.9219 11.6211H0.773438V9.79297H19.9219V11.6211ZM17.4961 18.3008H5.28516V20.6914H3.09375V16.707H15.3164V15.0898H3.05859V13.4258H17.4961V18.3008ZM18.1055 21.7812H3.09375V20.0586H18.1055V21.7812ZM36.9614 6.39453H31.2192V4.55469H36.9614V6.39453ZM37.0317 10.8828H31.2192V9.07812H37.0317V10.8828ZM31.7466 12.7227H21.9848V2.78516H31.7466V12.7227ZM24.1997 10.9648H29.5552V4.58984H24.1997V10.9648ZM38.5434 16.3203H36.3169V1.00391H38.5434V16.3203ZM39.0122 21.5703H24.8208V19.7305H39.0122V21.5703ZM27.0708 20.5977H24.8208V14.9258H27.0708V20.5977ZM60.4463 12.6875H41.2978V10.8711H60.4463V12.6875ZM50.8603 14.3047C52.3603 14.3047 53.6572 14.457 54.7509 14.7617C55.8447 15.0586 56.6767 15.4961 57.247 16.0742C57.8252 16.6445 58.1142 17.332 58.1142 18.1367C58.1142 18.9492 57.8252 19.6406 57.247 20.2109C56.6767 20.7812 55.8486 21.2148 54.7627 21.5117C53.6767 21.8086 52.3759 21.957 50.8603 21.957C49.3447 21.957 48.04 21.8086 46.9463 21.5117C45.8525 21.2148 45.0166 20.7812 44.4384 20.2109C43.8603 19.6406 43.5713 18.9492 43.5713 18.1367C43.5713 17.332 43.8642 16.6445 44.4502 16.0742C45.0361 15.4961 45.8759 15.0586 46.9697 14.7617C48.0634 14.457 49.3603 14.3047 50.8603 14.3047ZM50.8603 16.0391C49.79 16.0391 48.8759 16.1211 48.1181 16.2852C47.3681 16.4414 46.7978 16.6797 46.4072 17C46.0244 17.3125 45.833 17.6914 45.833 18.1367C45.833 18.5664 46.0283 18.9375 46.4189 19.25C46.8095 19.5625 47.3798 19.8008 48.1298 19.9648C48.8798 20.1211 49.79 20.1992 50.8603 20.1992C51.9306 20.1992 52.8369 20.1211 53.5791 19.9648C54.3291 19.8008 54.8994 19.5625 55.29 19.25C55.6806 18.9375 55.8759 18.5664 55.8759 18.1367C55.8759 17.6914 55.6806 17.3125 55.29 17C54.8994 16.6797 54.3291 16.4414 53.5791 16.2852C52.8369 16.1211 51.9306 16.0391 50.8603 16.0391ZM51.3642 3.55859C51.3642 4.63672 51.0048 5.61719 50.2861 6.5C49.5673 7.375 48.5791 8.09766 47.3213 8.66797C46.0634 9.23047 44.6455 9.60156 43.0673 9.78125L42.3056 8.01172C43.6259 7.87109 44.8252 7.58594 45.9033 7.15625C46.9892 6.71875 47.8408 6.1875 48.458 5.5625C49.0752 4.9375 49.3838 4.26953 49.3838 3.55859V2.94922H51.3642V3.55859ZM52.3486 3.55859C52.3486 4.26953 52.6533 4.9375 53.2627 5.5625C53.8798 6.1875 54.7314 6.71875 55.8173 7.15625C56.9033 7.58594 58.1181 7.87109 59.4619 8.01172L58.6533 9.78125C57.0908 9.60156 55.6806 9.23047 54.4228 8.66797C53.165 8.09766 52.1728 7.375 51.4463 6.5C50.7197 5.61719 50.3564 4.63672 50.3564 3.55859V2.94922H52.3486V3.55859ZM58.7353 3.83984H43.0439V2.03516H58.7353V3.83984ZM73.9819 10.8477H70.1147V9.03125H73.9819V10.8477ZM79.6303 21.9805H77.4858V0.980469H79.6303V21.9805ZM75.353 20.9492H73.2436V1.37891H75.353V20.9492ZM66.3295 2.65625C67.2436 2.65625 68.0444 2.95703 68.7319 3.55859C69.4194 4.15234 69.9506 5.00781 70.3256 6.125C70.7084 7.24219 70.8998 8.55469 70.8998 10.0625C70.8998 11.5547 70.7084 12.8594 70.3256 13.9766C69.9506 15.0938 69.4194 15.957 68.7319 16.5664C68.0444 17.168 67.2436 17.4727 66.3295 17.4805C65.4233 17.4727 64.6264 17.168 63.9389 16.5664C63.2514 15.957 62.7202 15.0938 62.3452 13.9766C61.978 12.8594 61.7944 11.5547 61.7944 10.0625C61.7944 8.55469 61.978 7.24219 62.3452 6.125C62.7202 5.00781 63.2514 4.15234 63.9389 3.55859C64.6264 2.95703 65.4233 2.65625 66.3295 2.65625ZM66.3295 4.76562C65.8139 4.75781 65.3725 4.96484 65.0053 5.38672C64.6381 5.80859 64.3569 6.41797 64.1616 7.21484C63.9663 8.00391 63.8686 8.95312 63.8686 10.0625C63.8686 11.1562 63.9663 12.1016 64.1616 12.8984C64.3569 13.6953 64.642 14.3047 65.017 14.7266C65.392 15.1406 65.8295 15.3477 66.3295 15.3477C66.8373 15.3477 67.2788 15.1406 67.6538 14.7266C68.0288 14.3047 68.3178 13.6953 68.5209 12.8984C68.7241 12.1016 68.8256 11.1562 68.8256 10.0625C68.8256 8.95312 68.7241 8.00391 68.5209 7.21484C68.3178 6.41797 68.0288 5.80859 67.6538 5.38672C67.2788 4.96484 66.8373 4.75781 66.3295 4.76562ZM103.08 7.80078H98.5453V5.94922H103.08V7.80078ZM104.686 12.418H102.483V0.980469H104.686V12.418ZM93.2367 15.7812H102.483V13.3672H104.686V21.7227H91.0102V13.3672H93.2367V15.7812ZM102.483 19.918V17.5273H93.2367V19.918H102.483ZM94.2914 4.26172C94.2914 5.54297 94.0492 6.75 93.5648 7.88281C93.0883 9.01562 92.4047 10.0078 91.5141 10.8594C90.6234 11.7109 89.5805 12.3516 88.3852 12.7812L87.225 11.0234C88.2797 10.6484 89.2016 10.1133 89.9906 9.41797C90.7875 8.72266 91.3969 7.92969 91.8187 7.03906C92.2484 6.14844 92.4633 5.22266 92.4633 4.26172V2.62109H94.2914V4.26172ZM94.7133 4.27344C94.7133 5.14062 94.9164 5.99219 95.3227 6.82812C95.7367 7.65625 96.3227 8.40234 97.0805 9.06641C97.8461 9.73047 98.7445 10.2383 99.7758 10.5898L98.6391 12.3125C97.4594 11.8828 96.4398 11.2656 95.5805 10.4609C94.7211 9.65625 94.0609 8.72266 93.6 7.66016C93.1391 6.58984 92.9086 5.46094 92.9086 4.27344V2.62109H94.7133V4.27344ZM99.2367 3.98047H87.893V2.15234H99.2367V3.98047ZM113.159 2.5625C114.19 2.5625 115.104 2.86719 115.901 3.47656C116.706 4.08594 117.335 4.94531 117.788 6.05469C118.241 7.16406 118.468 8.45703 118.468 9.93359C118.468 11.418 118.241 12.7148 117.788 13.8242C117.335 14.9336 116.706 15.793 115.901 16.4023C115.104 17.0039 114.19 17.3047 113.159 17.3047C112.128 17.3047 111.206 17.0039 110.393 16.4023C109.589 15.8008 108.96 14.9453 108.507 13.8359C108.054 12.7188 107.827 11.418 107.827 9.93359C107.827 8.45703 108.054 7.16406 108.507 6.05469C108.96 4.94531 109.589 4.08594 110.393 3.47656C111.206 2.86719 112.128 2.5625 113.159 2.5625ZM113.159 4.55469C112.534 4.55469 111.975 4.77344 111.483 5.21094C110.991 5.64844 110.612 6.27344 110.347 7.08594C110.089 7.89062 109.96 8.83984 109.96 9.93359C109.96 11.0195 110.089 11.9688 110.347 12.7812C110.612 13.5938 110.991 14.2188 111.483 14.6562C111.975 15.0859 112.534 15.3008 113.159 15.3008C113.784 15.3008 114.343 15.0859 114.835 14.6562C115.327 14.2188 115.706 13.5938 115.972 12.7812C116.237 11.9688 116.37 11.0195 116.37 9.93359C116.37 8.83984 116.233 7.89062 115.96 7.08594C115.694 6.27344 115.319 5.64844 114.835 5.21094C114.358 4.77344 113.8 4.55469 113.159 4.55469ZM124.983 22.0391H122.768V0.980469H124.983V22.0391ZM123.741 10.6836H117.765V8.86719H123.741V10.6836ZM146.898 11.375H127.726V9.60547H146.898V11.375ZM144.601 8.07031H130.222V6.28906H144.601V8.07031ZM144.413 3.38281H132.449V7.73047H130.222V1.61328H144.413V3.38281ZM144.449 18.1133H132.238V20.5391H130.046V16.4844H142.269V14.7383H130.011V13.0391H144.449V18.1133ZM145.058 21.7695H130.046V20H145.058V21.7695ZM163.586 4.8125H150.004V3.00781H163.586V4.8125ZM167.137 19.1445H147.988V17.3164H167.137V19.1445ZM157.469 18.2656H155.277V9.91016H157.469V18.2656ZM164.98 5.07031C164.98 6.3125 164.965 7.35547 164.933 8.19922C164.902 9.03516 164.832 10.0273 164.723 11.1758C164.613 12.3164 164.437 13.5508 164.195 14.8789L161.933 14.6328C162.191 13.375 162.379 12.1875 162.496 11.0703C162.613 9.95312 162.683 8.96484 162.707 8.10547C162.738 7.23828 162.754 6.22656 162.754 5.07031V3.00781H164.98V5.07031ZM180.497 14.8789C180.497 15.8477 180.309 16.7852 179.934 17.6914C179.567 18.5898 179.024 19.3867 178.305 20.082C177.595 20.7773 176.731 21.3125 175.716 21.6875L174.602 20.0586C175.477 19.7383 176.223 19.3047 176.841 18.7578C177.466 18.2031 177.942 17.5898 178.27 16.918C178.598 16.2461 178.762 15.5664 178.762 14.8789V13.8711H180.497V14.8789ZM180.919 14.8789C180.919 15.582 181.059 16.2812 181.341 16.9766C181.622 17.6641 182.044 18.2891 182.606 18.8516C183.169 19.4141 183.864 19.8633 184.692 20.1992L183.778 21.8633C182.77 21.4805 181.93 20.9258 181.259 20.1992C180.595 19.4727 180.102 18.6523 179.782 17.7383C179.47 16.8242 179.313 15.8711 179.313 14.8789V13.8711H180.919V14.8789ZM188.208 14.8789C188.208 15.7852 188.044 16.6992 187.716 17.6211C187.395 18.5352 186.903 19.3672 186.239 20.1172C185.575 20.875 184.755 21.457 183.778 21.8633L182.841 20.1992C183.645 19.832 184.329 19.3516 184.891 18.7578C185.462 18.1562 185.884 17.5156 186.157 16.8359C186.438 16.1562 186.579 15.5039 186.579 14.8789V13.8711H188.208V14.8789ZM188.77 14.8789C188.77 15.6133 188.93 16.3203 189.251 17C189.571 17.6719 190.044 18.2773 190.669 18.8164C191.302 19.3555 192.055 19.7695 192.93 20.0586L191.841 21.6875C190.809 21.3281 189.934 20.8086 189.216 20.1289C188.497 19.4492 187.954 18.6602 187.587 17.7617C187.22 16.8555 187.036 15.8945 187.036 14.8789V13.8711H188.77V14.8789ZM191.044 12.957H188.829V1.00391H191.044V12.957ZM179.653 2.17578C180.716 2.17578 181.669 2.38672 182.512 2.80859C183.364 3.22266 184.032 3.80859 184.516 4.56641C185.001 5.31641 185.243 6.17578 185.243 7.14453C185.243 8.08984 185.001 8.9375 184.516 9.6875C184.032 10.4375 183.364 11.0195 182.512 11.4336C181.669 11.8477 180.716 12.0547 179.653 12.0547C178.591 12.0547 177.634 11.8477 176.782 11.4336C175.938 11.0195 175.274 10.4375 174.79 9.6875C174.305 8.9375 174.063 8.08984 174.063 7.14453C174.063 6.17578 174.305 5.31641 174.79 4.56641C175.274 3.80859 175.938 3.22266 176.782 2.80859C177.634 2.38672 178.591 2.17578 179.653 2.17578ZM179.653 4.0625C178.997 4.04688 178.407 4.16797 177.884 4.42578C177.368 4.68359 176.966 5.05078 176.677 5.52734C176.387 5.99609 176.243 6.53516 176.243 7.14453C176.243 7.73047 176.387 8.25781 176.677 8.72656C176.966 9.1875 177.368 9.54688 177.884 9.80469C178.407 10.0625 178.997 10.1992 179.653 10.2148C180.309 10.1992 180.891 10.0625 181.399 9.80469C181.915 9.54688 182.317 9.1875 182.606 8.72656C182.903 8.25781 183.052 7.73047 183.052 7.14453C183.052 6.53516 182.907 5.99609 182.618 5.52734C182.329 5.05078 181.927 4.68359 181.411 4.42578C180.895 4.16797 180.309 4.04688 179.653 4.0625ZM199.587 2.5625C200.618 2.5625 201.533 2.86719 202.329 3.47656C203.134 4.08594 203.763 4.94531 204.216 6.05469C204.669 7.16406 204.896 8.45703 204.896 9.93359C204.896 11.418 204.669 12.7148 204.216 13.8242C203.763 14.9336 203.134 15.793 202.329 16.4023C201.533 17.0039 200.618 17.3047 199.587 17.3047C198.556 17.3047 197.634 17.0039 196.822 16.4023C196.017 15.8008 195.388 14.9453 194.935 13.8359C194.482 12.7188 194.255 11.418 194.255 9.93359C194.255 8.45703 194.482 7.16406 194.935 6.05469C195.388 4.94531 196.017 4.08594 196.822 3.47656C197.634 2.86719 198.556 2.5625 199.587 2.5625ZM199.587 4.55469C198.962 4.55469 198.404 4.77344 197.911 5.21094C197.419 5.64844 197.04 6.27344 196.775 7.08594C196.517 7.89062 196.388 8.83984 196.388 9.93359C196.388 11.0195 196.517 11.9688 196.775 12.7812C197.04 13.5938 197.419 14.2188 197.911 14.6562C198.404 15.0859 198.962 15.3008 199.587 15.3008C200.212 15.3008 200.771 15.0859 201.263 14.6562C201.755 14.2188 202.134 13.5938 202.4 12.7812C202.665 11.9688 202.798 11.0195 202.798 9.93359C202.798 8.83984 202.661 7.89062 202.388 7.08594C202.122 6.27344 201.747 5.64844 201.263 5.21094C200.786 4.77344 200.228 4.55469 199.587 4.55469ZM211.411 22.0391H209.197V0.980469H211.411V22.0391ZM210.169 10.6836H204.193V8.86719H210.169V10.6836ZM220.951 17.9258H218.76V11.7734H220.951V17.9258ZM228.779 17.9258H226.541V11.7734H228.779V17.9258ZM233.373 19.3672H214.154V17.5273H233.373V19.3672ZM223.728 2.19922C225.228 2.19922 226.564 2.42969 227.736 2.89062C228.908 3.34375 229.822 3.98828 230.478 4.82422C231.142 5.65234 231.474 6.60547 231.474 7.68359C231.474 8.76953 231.142 9.72656 230.478 10.5547C229.822 11.375 228.908 12.0156 227.736 12.4766C226.564 12.9297 225.228 13.1562 223.728 13.1562C222.236 13.1562 220.9 12.9297 219.72 12.4766C218.549 12.0156 217.631 11.375 216.967 10.5547C216.303 9.72656 215.97 8.76953 215.97 7.68359C215.97 6.60547 216.303 5.65234 216.967 4.82422C217.631 3.98828 218.549 3.34375 219.72 2.89062C220.9 2.42969 222.236 2.19922 223.728 2.19922ZM223.728 4.00391C222.635 3.99609 221.666 4.14453 220.822 4.44922C219.986 4.74609 219.33 5.17578 218.853 5.73828C218.385 6.29297 218.15 6.94141 218.15 7.68359C218.15 8.42578 218.385 9.07812 218.853 9.64062C219.33 10.2031 219.99 10.6406 220.834 10.9531C221.678 11.2656 222.642 11.4219 223.728 11.4219C224.806 11.4219 225.767 11.2656 226.611 10.9531C227.455 10.6406 228.115 10.2031 228.592 9.64062C229.068 9.07812 229.306 8.42578 229.306 7.68359C229.306 6.94141 229.068 6.29297 228.592 5.73828C228.123 5.17578 227.467 4.74609 226.623 4.44922C225.779 4.14453 224.814 3.99609 223.728 4.00391Z" fill="black"/>
</svg>
