<svg width="144" height="19" viewBox="0 0 144 19" fill="none" xmlns="http://www.w3.org/2000/svg">
<path d="M6.89453 3.40625C6.89453 4.66276 6.71224 5.82487 6.34766 6.89258C5.98307 7.96029 5.41667 8.89128 4.64844 9.68555C3.88672 10.4733 2.91992 11.0658 1.74805 11.4629L0.253906 9.2168C1.26953 8.9043 2.09961 8.44857 2.74414 7.84961C3.39518 7.25065 3.86719 6.57682 4.16016 5.82812C4.45312 5.07292 4.59961 4.26562 4.59961 3.40625V1.86328H6.89453V3.40625ZM7.43164 3.25977C7.43164 4.08659 7.56185 4.85807 7.82227 5.57422C8.08919 6.28385 8.52214 6.91536 9.12109 7.46875C9.72005 8.01562 10.4915 8.43229 11.4355 8.71875L9.94141 10.9062C8.83464 10.5286 7.92643 9.97201 7.2168 9.23633C6.51367 8.49414 5.99935 7.62174 5.67383 6.61914C5.34831 5.61654 5.18555 4.49674 5.18555 3.25977V1.86328H7.43164V3.25977ZM15.6445 11.4043H12.8516V0.935547H15.6445V11.4043ZM9.47266 11.8535C10.7617 11.8535 11.8717 11.9902 12.8027 12.2637C13.7337 12.5371 14.4499 12.9408 14.9512 13.4746C15.4525 14.002 15.7031 14.6367 15.7031 15.3789C15.7031 16.1146 15.4525 16.7461 14.9512 17.2734C14.4499 17.8008 13.7337 18.2012 12.8027 18.4746C11.8717 18.748 10.7617 18.8848 9.47266 18.8848C8.19661 18.8848 7.08984 18.748 6.15234 18.4746C5.22135 18.2012 4.50521 17.8008 4.00391 17.2734C3.50911 16.7461 3.26172 16.1146 3.26172 15.3789C3.26172 14.6367 3.50911 14.002 4.00391 13.4746C4.50521 12.9408 5.22135 12.5371 6.15234 12.2637C7.08984 11.9902 8.19661 11.8535 9.47266 11.8535ZM9.47266 14.0312C8.71745 14.0312 8.08594 14.0768 7.57812 14.168C7.07682 14.2591 6.69596 14.4056 6.43555 14.6074C6.18164 14.8092 6.05469 15.0664 6.05469 15.3789C6.05469 15.6719 6.18164 15.9193 6.43555 16.1211C6.69596 16.3164 7.07682 16.4629 7.57812 16.5605C8.08594 16.6582 8.71745 16.707 9.47266 16.707C10.2344 16.707 10.8691 16.6582 11.377 16.5605C11.8848 16.4629 12.2656 16.3164 12.5195 16.1211C12.7734 15.9193 12.9004 15.6719 12.9004 15.3789C12.9004 15.0664 12.7734 14.8092 12.5195 14.6074C12.2656 14.4056 11.8848 14.2591 11.377 14.168C10.8691 14.0768 10.2344 14.0312 9.47266 14.0312ZM13.1934 6.35547H9.6875V4.06055H13.1934V6.35547ZM30.3617 5.22266H26.1137V3.14258H30.3617V5.22266ZM30.3617 8.48438H26.1137V6.375H30.3617V8.48438ZM32.5199 10.125H29.7367V0.935547H32.5199V10.125ZM32.5199 15.6914H23.35V17.8496H20.518V13.6504H29.7367V12.8691H20.5082V10.7305H32.5199V15.6914ZM33.0082 18.6895H20.518V16.4824H33.0082V18.6895ZM20.9086 3.64062H23.9457V1.6875H26.7387V9.68555H18.0668V1.6875H20.9086V3.64062ZM23.9457 7.48828V5.73047H20.9086V7.48828H23.9457Z" fill="#3D5684"/>
<path d="M47.882 12.0586H45.0598V9.58789H47.882V12.0586ZM43.1555 2.30273H49.8059V1.21875H52.5988V7.24414H40.3918V1.21875H43.1555V2.30273ZM49.8059 5.18359V4.31445H43.1555V5.18359H49.8059ZM54.6789 10.2715H38.341V8.01562H54.6789V10.2715ZM52.7258 15.8867H42.9602V17.3809H40.1965V13.9727H49.9328V13.2305H40.1965V11.1895H52.7258V15.8867ZM53.1652 18.7676H40.1965V16.6777H53.1652V18.7676ZM68.3609 5.91602H63.9664V3.65039H68.3609V5.91602ZM68.4391 9.74414H63.9664V7.52734H68.4391V9.74414ZM64.5328 11.2188H55.9293V2.37109H64.5328V11.2188ZM58.7223 9.04102H61.7789V4.58789H58.7223V9.04102ZM70.3922 13.9922H67.5992V0.974609H70.3922V13.9922ZM70.7633 18.5918H58.3512V16.3359H70.7633V18.5918ZM61.2027 17.5371H58.3512V12.7324H61.2027V17.5371ZM88.4492 11.3652H72.1113V9.12891H88.4492V11.3652ZM80.2461 12.1855C81.5417 12.1855 82.6615 12.3158 83.6055 12.5762C84.5495 12.8366 85.2689 13.2207 85.7637 13.7285C86.2585 14.2298 86.5059 14.832 86.5059 15.5352C86.5059 16.2383 86.2585 16.8405 85.7637 17.3418C85.2689 17.8496 84.5495 18.2337 83.6055 18.4941C82.668 18.7546 81.5482 18.8848 80.2461 18.8848C78.944 18.8848 77.8177 18.7546 76.8672 18.4941C75.9232 18.2337 75.1973 17.8496 74.6895 17.3418C74.1882 16.8405 73.9375 16.2383 73.9375 15.5352C73.9375 14.832 74.1914 14.2298 74.6992 13.7285C75.207 13.2207 75.9329 12.8366 76.877 12.5762C77.8275 12.3158 78.9505 12.1855 80.2461 12.1855ZM80.2461 14.3535C79.4518 14.3535 78.8008 14.3958 78.293 14.4805C77.7917 14.5586 77.4173 14.6855 77.1699 14.8613C76.9225 15.0371 76.7988 15.2617 76.7988 15.5352C76.7988 15.8086 76.9225 16.0332 77.1699 16.209C77.4173 16.3783 77.7884 16.5052 78.2832 16.5898C78.7845 16.668 79.4388 16.707 80.2461 16.707C81.0339 16.707 81.6784 16.668 82.1797 16.5898C82.681 16.5052 83.0553 16.3783 83.3027 16.209C83.5501 16.0332 83.6738 15.8086 83.6738 15.5352C83.6738 15.2617 83.5501 15.0371 83.3027 14.8613C83.0553 14.6855 82.681 14.5586 82.1797 14.4805C81.6784 14.3958 81.0339 14.3535 80.2461 14.3535ZM80.793 3.25977C80.793 4.17122 80.5358 5.00456 80.0215 5.75977C79.5137 6.50846 78.7259 7.13346 77.6582 7.63477C76.5905 8.13607 75.2624 8.45508 73.6738 8.5918L72.7656 6.4043C74.0482 6.28711 75.1061 6.0625 75.9395 5.73047C76.7728 5.39844 77.3783 5.01758 77.7559 4.58789C78.1335 4.1582 78.3223 3.71549 78.3223 3.25977V2.81055H80.793V3.25977ZM82.1992 3.25977C82.1992 3.71549 82.3848 4.1582 82.7559 4.58789C83.1335 5.01758 83.7422 5.39844 84.582 5.73047C85.4219 6.0625 86.5026 6.28711 87.8242 6.4043L86.8477 8.5918C85.2721 8.45508 83.9473 8.13607 82.873 7.63477C81.8053 7.13346 81.0046 6.50846 80.4707 5.75977C79.9434 5.00456 79.6797 4.17122 79.6797 3.25977V2.81055H82.1992V3.25977ZM86.9746 3.99219H73.5859V1.74609H86.9746V3.99219ZM107.512 14.9297H104.69V0.935547H107.512V14.9297ZM109.69 9.01172H106.546V6.70703H109.69V9.01172ZM108.108 18.5918H95.3055V16.3359H108.108V18.5918ZM98.1375 16.9902H95.3055V14.0117H98.1375V16.9902ZM99.8367 12.1855H97.0242V9.49023H99.8367V12.1855ZM92.8543 11.1406C94.9051 11.1406 96.8582 11.1016 98.7137 11.0234C100.576 10.9388 102.324 10.7793 103.958 10.5449L104.153 12.459C103.007 12.6803 101.796 12.8496 100.52 12.9668C99.2508 13.084 98.0952 13.1589 97.0535 13.1914C96.0184 13.224 94.7098 13.2565 93.1277 13.2891L92.8543 11.1406ZM103.528 4.31445H93.3133V2.30273H103.528V4.31445ZM98.4207 4.70508C99.3061 4.70508 100.084 4.81576 100.755 5.03711C101.432 5.25846 101.953 5.58073 102.317 6.00391C102.688 6.42708 102.874 6.9349 102.874 7.52734C102.874 8.08073 102.688 8.5625 102.317 8.97266C101.953 9.38281 101.432 9.70182 100.755 9.92969C100.084 10.151 99.3061 10.2617 98.4207 10.2617C97.5353 10.2617 96.754 10.151 96.077 9.92969C95.3999 9.70182 94.8758 9.38281 94.5047 8.97266C94.1401 8.5625 93.9578 8.08073 93.9578 7.52734C93.9578 6.9349 94.1401 6.43034 94.5047 6.01367C94.8758 5.59049 95.3966 5.26823 96.0672 5.04688C96.7378 4.81901 97.5223 4.70508 98.4207 4.70508ZM98.4207 6.56055C98.0366 6.56055 97.7111 6.5931 97.4441 6.6582C97.1837 6.72331 96.9852 6.82747 96.8484 6.9707C96.7117 7.11393 96.6434 7.29948 96.6434 7.52734C96.6434 7.70964 96.7117 7.86914 96.8484 8.00586C96.9852 8.13607 97.1837 8.23372 97.4441 8.29883C97.7111 8.36393 98.0366 8.39648 98.4207 8.39648C98.8048 8.39648 99.1238 8.36393 99.3777 8.29883C99.6381 8.23372 99.8335 8.13607 99.9637 8.00586C100.1 7.86914 100.169 7.70964 100.169 7.52734C100.169 7.29948 100.104 7.11393 99.9734 6.9707C99.8432 6.82747 99.6479 6.72331 99.3875 6.6582C99.1271 6.5931 98.8048 6.56055 98.4207 6.56055ZM99.8367 3.19141H97.0242V0.886719H99.8367V3.19141ZM116.155 5.62305C116.155 7.04883 115.97 8.41927 115.599 9.73438C115.234 11.0495 114.674 12.2181 113.919 13.2402C113.164 14.2559 112.236 15.0176 111.136 15.5254L109.505 13.3086C110.508 12.8464 111.335 12.2051 111.986 11.3848C112.643 10.5579 113.131 9.65299 113.45 8.66992C113.769 7.68034 113.929 6.66471 113.929 5.62305V3.82617H116.155V5.62305ZM116.751 5.62305C116.751 6.57357 116.904 7.51432 117.21 8.44531C117.516 9.3763 117.991 10.2324 118.636 11.0137C119.28 11.7949 120.088 12.4134 121.058 12.8691L119.505 15.0664C118.411 14.5716 117.493 13.8359 116.751 12.8594C116.009 11.8763 115.452 10.763 115.081 9.51953C114.717 8.26953 114.534 6.9707 114.534 5.62305V3.82617H116.751V5.62305ZM120.238 4.92969H110.247V2.64453H120.238V4.92969ZM124.183 18.8652H121.361V0.935547H124.183V18.8652ZM126.722 9.99805H123.568V7.66406H126.722V9.99805ZM136.019 2.26367C136.019 3.42904 135.733 4.51302 135.16 5.51562C134.593 6.51172 133.744 7.35482 132.611 8.04492C131.485 8.72852 130.117 9.18424 128.509 9.41211L127.416 7.16602C128.783 7.00326 129.929 6.66146 130.853 6.14062C131.784 5.61979 132.464 5.02083 132.894 4.34375C133.33 3.66667 133.548 2.97331 133.548 2.26367V1.44336H136.019V2.26367ZM136.517 2.26367C136.517 2.97982 136.735 3.67969 137.171 4.36328C137.614 5.04036 138.298 5.63607 139.222 6.15039C140.153 6.66471 141.306 7.00326 142.679 7.16602L141.605 9.41211C139.99 9.18424 138.617 8.72852 137.484 8.04492C136.351 7.36133 135.495 6.52148 134.916 5.52539C134.343 4.52279 134.056 3.43555 134.056 2.26367V1.44336H136.517V2.26367ZM136.361 18.8652H133.578V12.3613H136.361V18.8652ZM143.197 12.8691H126.859V10.5742H143.197V12.8691Z" fill="black"/>
</svg>
