<svg width="129" height="18" viewBox="0 0 129 18" fill="none" xmlns="http://www.w3.org/2000/svg">
<path d="M5.33203 1.37109C6.21745 1.37109 7.00521 1.62826 7.69531 2.14258C8.38542 2.65039 8.92904 3.3763 9.32617 4.32031C9.72331 5.25781 9.92188 6.35156 9.92188 7.60156C9.92188 8.85807 9.72331 9.95833 9.32617 10.9023C8.92904 11.8398 8.38216 12.5658 7.68555 13.0801C6.99544 13.5944 6.21094 13.8516 5.33203 13.8516C4.44661 13.8516 3.6556 13.5944 2.95898 13.0801C2.26237 12.5658 1.71875 11.8398 1.32812 10.9023C0.9375 9.95833 0.742188 8.85807 0.742188 7.60156C0.742188 6.35156 0.9375 5.25781 1.32812 4.32031C1.71875 3.3763 2.26237 2.65039 2.95898 2.14258C3.6556 1.62826 4.44661 1.37109 5.33203 1.37109ZM5.33203 3.32422C4.83724 3.31771 4.39779 3.48698 4.01367 3.83203C3.63607 4.17708 3.3431 4.67188 3.13477 5.31641C2.93294 5.95443 2.83203 6.71615 2.83203 7.60156C2.83203 8.48698 2.93294 9.25521 3.13477 9.90625C3.3431 10.5508 3.63932 11.0423 4.02344 11.3809C4.40755 11.7129 4.84375 11.8789 5.33203 11.8789C5.82682 11.8789 6.26302 11.7129 6.64062 11.3809C7.02474 11.0423 7.31771 10.5508 7.51953 9.90625C7.72135 9.25521 7.82227 8.48698 7.82227 7.60156C7.82227 6.70964 7.72135 5.94466 7.51953 5.30664C7.31771 4.66211 7.02474 4.17057 6.64062 3.83203C6.26302 3.48698 5.82682 3.31771 5.33203 3.32422ZM14.4141 17.7188H12.2461V0.0820312H14.4141V17.7188ZM17.1387 8.69531H13.9258V6.86914H17.1387V8.69531ZM32.2074 17.7188H30.0492V0.0820312H32.2074V17.7188ZM20.6352 12.7285H18.4867V1.79102H20.6352V12.7285ZM20.0004 11.459C21.4066 11.459 22.8161 11.3971 24.2289 11.2734C25.6417 11.1432 27.0512 10.9382 28.4574 10.6582L28.7406 12.4648C27.2758 12.7643 25.824 12.9792 24.3852 13.1094C22.9464 13.2396 21.4848 13.3047 20.0004 13.3047H18.4867V11.459H20.0004ZM44.6105 3.10938C44.6105 4.20964 44.4152 5.24154 44.0246 6.20508C43.6405 7.16862 43.0741 8.01172 42.3254 8.73438C41.5767 9.45052 40.6717 9.98763 39.6105 10.3457L38.4777 8.59766C39.4152 8.29818 40.2095 7.86849 40.8605 7.30859C41.5116 6.74219 42.0031 6.10091 42.3352 5.38477C42.6672 4.66211 42.8332 3.90365 42.8332 3.10938V1.78125H44.6105V3.10938ZM45.0305 3.09961C45.0305 3.82878 45.1867 4.5319 45.4992 5.20898C45.8182 5.87956 46.2935 6.47852 46.925 7.00586C47.5565 7.52669 48.3247 7.93034 49.2297 8.2168L48.1359 9.93555C47.0943 9.59701 46.2056 9.08919 45.4699 8.41211C44.7342 7.72852 44.1776 6.93099 43.8 6.01953C43.4224 5.10156 43.2336 4.12826 43.2336 3.09961V1.78125H45.0305V3.09961ZM48.673 2.93359H39.1027V1.19531H48.673V2.93359ZM52.6477 10.3652H50.4797V0.0820312H52.6477V10.3652ZM55.1184 6H52.0324V4.21289H55.1184V6ZM52.6477 17.5137H41.2512V11.1074H52.6477V17.5137ZM43.3996 15.7656H50.4992V12.8262H43.3996V15.7656ZM70.2945 17.7676H68.0973V0.0820312H70.2945V17.7676ZM60.7828 1.37109C61.6682 1.37109 62.4592 1.62826 63.1559 2.14258C63.8525 2.65039 64.3961 3.3763 64.7867 4.32031C65.1773 5.25781 65.3727 6.35156 65.3727 7.60156C65.3727 8.85807 65.1773 9.95833 64.7867 10.9023C64.3961 11.8398 63.8525 12.5658 63.1559 13.0801C62.4592 13.5944 61.6682 13.8516 60.7828 13.8516C59.8909 13.8516 59.0966 13.5944 58.4 13.0801C57.7034 12.5658 57.1565 11.8398 56.7594 10.9023C56.3688 9.95833 56.1734 8.85807 56.1734 7.60156C56.1734 6.35156 56.3688 5.25781 56.7594 4.32031C57.1565 3.3763 57.7034 2.65039 58.4 2.14258C59.0966 1.62826 59.8909 1.37109 60.7828 1.37109ZM60.7828 3.32422C60.288 3.31771 59.8486 3.48698 59.4645 3.83203C59.0869 4.17057 58.7939 4.66211 58.5855 5.30664C58.3772 5.95117 58.273 6.71615 58.273 7.60156C58.273 8.48698 58.3772 9.25521 58.5855 9.90625C58.7939 10.5508 59.0869 11.0423 59.4645 11.3809C59.8486 11.7129 60.288 11.8789 60.7828 11.8789C61.2776 11.8789 61.7138 11.7129 62.0914 11.3809C62.469 11.0423 62.762 10.5508 62.9703 9.90625C63.1786 9.25521 63.2828 8.48698 63.2828 7.60156C63.2828 6.71615 63.1786 5.95117 62.9703 5.30664C62.762 4.66211 62.469 4.17057 62.0914 3.83203C61.7203 3.48698 61.2841 3.31771 60.7828 3.32422ZM90.7836 12.9922H88.6156V0.0917969H90.7836V12.9922ZM93.2543 7.05469H90.1391V5.25781H93.2543V7.05469ZM91.477 17.4062H79.475V15.6289H91.477V17.4062ZM81.6332 16.4004H79.475V11.6445H81.6332V16.4004ZM81.809 1.25391C82.7009 1.25391 83.5082 1.44596 84.2309 1.83008C84.96 2.20768 85.5329 2.73177 85.9496 3.40234C86.3663 4.07292 86.5746 4.83789 86.5746 5.69727C86.5746 6.54362 86.3663 7.30534 85.9496 7.98242C85.5329 8.65299 84.96 9.18034 84.2309 9.56445C83.5082 9.94857 82.7009 10.1406 81.809 10.1406C80.9301 10.1406 80.126 9.94857 79.3969 9.56445C78.6677 9.18034 78.0948 8.64974 77.6781 7.97266C77.2615 7.29557 77.0531 6.53711 77.0531 5.69727C77.0531 4.83789 77.2615 4.07292 77.6781 3.40234C78.0948 2.73177 78.6645 2.20768 79.3871 1.83008C80.1163 1.44596 80.9236 1.25391 81.809 1.25391ZM81.809 3.1582C81.3337 3.15169 80.891 3.2526 80.4809 3.46094C80.0772 3.66927 79.7582 3.96875 79.5238 4.35938C79.296 4.74349 79.182 5.18945 79.182 5.69727C79.182 6.19857 79.296 6.64128 79.5238 7.02539C79.7582 7.40299 80.0772 7.69922 80.4809 7.91406C80.891 8.12891 81.3337 8.23633 81.809 8.23633C82.3168 8.23633 82.7693 8.13216 83.1664 7.92383C83.5701 7.70898 83.8858 7.40951 84.1137 7.02539C84.3415 6.64128 84.4555 6.19857 84.4555 5.69727C84.4555 5.18294 84.3415 4.73372 84.1137 4.34961C83.8858 3.96549 83.5701 3.66927 83.1664 3.46094C82.7693 3.2526 82.3168 3.15169 81.809 3.1582ZM104.495 13.1777H102.327V9.00781H104.495V13.1777ZM103.382 1.16602C104.287 1.16602 105.101 1.34831 105.823 1.71289C106.553 2.07096 107.126 2.57552 107.542 3.22656C107.965 3.87109 108.177 4.60677 108.177 5.43359C108.177 6.26042 107.965 6.99609 107.542 7.64062C107.126 8.27865 106.553 8.77995 105.823 9.14453C105.101 9.50911 104.287 9.69141 103.382 9.69141C102.464 9.69141 101.64 9.50911 100.911 9.14453C100.182 8.77995 99.6125 8.27865 99.2023 7.64062C98.7922 6.99609 98.5871 6.26042 98.5871 5.43359C98.5871 4.60677 98.7922 3.87109 99.2023 3.22656C99.6125 2.57552 100.182 2.07096 100.911 1.71289C101.64 1.34831 102.464 1.16602 103.382 1.16602ZM103.382 3.02148C102.868 3.02148 102.409 3.11914 102.005 3.31445C101.601 3.50977 101.282 3.79297 101.048 4.16406C100.82 4.52865 100.706 4.95182 100.706 5.43359C100.706 5.91536 100.82 6.33854 101.048 6.70312C101.282 7.06771 101.601 7.35091 102.005 7.55273C102.415 7.74805 102.874 7.8457 103.382 7.8457C103.89 7.8457 104.342 7.74805 104.739 7.55273C105.143 7.35091 105.459 7.06771 105.687 6.70312C105.921 6.33854 106.038 5.91536 106.038 5.43359C106.038 4.95182 105.921 4.52865 105.687 4.16406C105.459 3.79948 105.146 3.51953 104.749 3.32422C104.352 3.1224 103.896 3.02148 103.382 3.02148ZM111.995 17.7188H109.827V0.0820312H111.995V17.7188ZM114.554 8.96875H111.351V7.12305H114.554V8.96875ZM97.9035 12.3184C99.4986 12.3118 100.817 12.2988 101.859 12.2793C102.907 12.2598 104.056 12.2174 105.306 12.1523C106.556 12.0807 107.728 11.9701 108.821 11.8203L108.968 13.4316C107.829 13.64 106.637 13.7962 105.394 13.9004C104.15 13.998 102.965 14.0566 101.839 14.0762C100.713 14.0892 99.5018 14.0957 98.2063 14.0957L97.9035 12.3184ZM117.142 16.1562C116.869 16.1562 116.615 16.0879 116.38 15.9512C116.146 15.8079 115.961 15.6224 115.824 15.3945C115.694 15.1602 115.629 14.9062 115.629 14.6328C115.629 14.3659 115.694 14.1185 115.824 13.8906C115.961 13.6562 116.146 13.474 116.38 13.3438C116.615 13.207 116.869 13.1387 117.142 13.1387C117.403 13.1387 117.65 13.207 117.884 13.3438C118.119 13.474 118.304 13.6562 118.441 13.8906C118.578 14.1185 118.646 14.3659 118.646 14.6328C118.646 14.9062 118.578 15.1602 118.441 15.3945C118.304 15.6224 118.119 15.8079 117.884 15.9512C117.65 16.0879 117.403 16.1562 117.142 16.1562ZM122.191 16.1562C121.918 16.1562 121.664 16.0879 121.43 15.9512C121.195 15.8079 121.01 15.6224 120.873 15.3945C120.743 15.1602 120.678 14.9062 120.678 14.6328C120.678 14.3659 120.743 14.1185 120.873 13.8906C121.01 13.6562 121.195 13.474 121.43 13.3438C121.664 13.207 121.918 13.1387 122.191 13.1387C122.452 13.1387 122.699 13.207 122.934 13.3438C123.168 13.474 123.354 13.6562 123.49 13.8906C123.627 14.1185 123.695 14.3659 123.695 14.6328C123.695 14.9062 123.627 15.1602 123.49 15.3945C123.354 15.6224 123.168 15.8079 122.934 15.9512C122.699 16.0879 122.452 16.1562 122.191 16.1562ZM127.241 16.1562C126.967 16.1562 126.713 16.0879 126.479 15.9512C126.245 15.8079 126.059 15.6224 125.922 15.3945C125.792 15.1602 125.727 14.9062 125.727 14.6328C125.727 14.3659 125.792 14.1185 125.922 13.8906C126.059 13.6562 126.245 13.474 126.479 13.3438C126.713 13.207 126.967 13.1387 127.241 13.1387C127.501 13.1387 127.748 13.207 127.983 13.3438C128.217 13.474 128.403 13.6562 128.539 13.8906C128.676 14.1185 128.745 14.3659 128.745 14.6328C128.745 14.9062 128.676 15.1602 128.539 15.3945C128.403 15.6224 128.217 15.8079 127.983 15.9512C127.748 16.0879 127.501 16.1562 127.241 16.1562Z" fill="white"/>
</svg>
