<svg width="65" height="21" viewBox="0 0 65 21" fill="none" xmlns="http://www.w3.org/2000/svg">
<path d="M5.41016 1.37109C6.28255 1.37109 7.05729 1.62826 7.73438 2.14258C8.41797 2.65039 8.95182 3.3763 9.33594 4.32031C9.72656 5.25781 9.92188 6.35156 9.92188 7.60156C9.92188 8.85807 9.72656 9.95833 9.33594 10.9023C8.95182 11.8398 8.41797 12.5658 7.73438 13.0801C7.05729 13.5944 6.28255 13.8516 5.41016 13.8516C4.53125 13.8516 3.75 13.5977 3.06641 13.0898C2.38281 12.5755 1.8457 11.8464 1.45508 10.9023C1.07096 9.95833 0.878906 8.85807 0.878906 7.60156C0.878906 6.35156 1.07096 5.25781 1.45508 4.32031C1.8457 3.3763 2.38281 2.65039 3.06641 2.14258C3.75 1.62826 4.53125 1.37109 5.41016 1.37109ZM5.41016 3.32422C4.92839 3.31771 4.4987 3.48698 4.12109 3.83203C3.75 4.17708 3.46354 4.67188 3.26172 5.31641C3.0599 5.95443 2.95898 6.71615 2.95898 7.60156C2.95898 8.48698 3.0599 9.25521 3.26172 9.90625C3.46354 10.5508 3.75 11.0423 4.12109 11.3809C4.4987 11.7129 4.92839 11.8789 5.41016 11.8789C5.89193 11.8789 6.31836 11.7129 6.68945 11.3809C7.06706 11.0423 7.35677 10.5508 7.55859 9.90625C7.76042 9.25521 7.86133 8.48698 7.86133 7.60156C7.86133 6.70964 7.76042 5.94466 7.55859 5.30664C7.35677 4.66211 7.07031 4.17057 6.69922 3.83203C6.33464 3.48698 5.90495 3.31771 5.41016 3.32422ZM15.3809 17.7676H13.2324V0.0820312H15.3809V17.7676ZM14.1699 8.33398H9.25781V6.57617H14.1699V8.33398ZM19.2777 20.082H17.4223L18.4281 14.6035H20.9184L19.2777 20.082ZM35.4992 8.92969H27.1398V1.24414H35.4992V8.92969ZM29.2785 7.19141H33.3703V2.98242H29.2785V7.19141ZM40.4602 10.0332H38.2922V0.0820312H40.4602V10.0332ZM42.9309 5.84375H39.8449V4.05664H42.9309V5.84375ZM35.4895 12.1816C35.4895 13.0931 35.2225 13.9297 34.6887 14.6914C34.1548 15.4466 33.3964 16.0814 32.4133 16.5957C31.4302 17.1165 30.2844 17.4648 28.9758 17.6406L28.175 16C29.3013 15.8503 30.2779 15.5833 31.1047 15.1992C31.9315 14.8151 32.563 14.3626 32.9992 13.8418C33.4419 13.3145 33.6633 12.7611 33.6633 12.1816V11.7227H35.4895V12.1816ZM35.968 12.1816C35.968 12.7415 36.1893 13.2852 36.632 13.8125C37.0747 14.3398 37.7128 14.8021 38.5461 15.1992C39.3794 15.5898 40.3495 15.8633 41.4562 16.0195L40.675 17.6797C39.3599 17.4909 38.2043 17.1361 37.2082 16.6152C36.2186 16.0944 35.4536 15.4499 34.9133 14.6816C34.3729 13.9134 34.1027 13.0801 34.1027 12.1816V11.7227H35.968V12.1816ZM40.7141 12.6602H28.9074V10.9316H40.7141V12.6602ZM48.1656 1.37109C49.051 1.37109 49.8388 1.62826 50.5289 2.14258C51.219 2.65039 51.7626 3.3763 52.1598 4.32031C52.5569 5.25781 52.7555 6.35156 52.7555 7.60156C52.7555 8.85807 52.5569 9.95833 52.1598 10.9023C51.7626 11.8398 51.2158 12.5658 50.5191 13.0801C49.829 13.5944 49.0445 13.8516 48.1656 13.8516C47.2802 13.8516 46.4892 13.5944 45.7926 13.0801C45.096 12.5658 44.5523 11.8398 44.1617 10.9023C43.7711 9.95833 43.5758 8.85807 43.5758 7.60156C43.5758 6.35156 43.7711 5.25781 44.1617 4.32031C44.5523 3.3763 45.096 2.65039 45.7926 2.14258C46.4892 1.62826 47.2802 1.37109 48.1656 1.37109ZM48.1656 3.32422C47.6708 3.31771 47.2314 3.48698 46.8473 3.83203C46.4697 4.17708 46.1767 4.67188 45.9684 5.31641C45.7665 5.95443 45.6656 6.71615 45.6656 7.60156C45.6656 8.48698 45.7665 9.25521 45.9684 9.90625C46.1767 10.5508 46.4729 11.0423 46.857 11.3809C47.2411 11.7129 47.6773 11.8789 48.1656 11.8789C48.6604 11.8789 49.0966 11.7129 49.4742 11.3809C49.8583 11.0423 50.1513 10.5508 50.3531 9.90625C50.5549 9.25521 50.6559 8.48698 50.6559 7.60156C50.6559 6.70964 50.5549 5.94466 50.3531 5.30664C50.1513 4.66211 49.8583 4.17057 49.4742 3.83203C49.0966 3.48698 48.6604 3.31771 48.1656 3.32422ZM57.2477 17.7188H55.0797V0.0820312H57.2477V17.7188ZM59.9723 8.69531H56.7594V6.86914H59.9723V8.69531ZM63.7129 11.8496H61.5059L61.291 1.85938H63.9375L63.7129 11.8496ZM62.6191 16.1562C62.3457 16.1562 62.0918 16.0879 61.8574 15.9512C61.623 15.8079 61.4375 15.6224 61.3008 15.3945C61.1706 15.1602 61.1055 14.9062 61.1055 14.6328C61.1055 14.3659 61.1706 14.1185 61.3008 13.8906C61.4375 13.6562 61.623 13.474 61.8574 13.3438C62.0918 13.207 62.3457 13.1387 62.6191 13.1387C62.8861 13.1387 63.1335 13.207 63.3613 13.3438C63.5957 13.474 63.7812 13.6562 63.918 13.8906C64.0547 14.1185 64.123 14.3659 64.123 14.6328C64.123 14.9062 64.0547 15.1602 63.918 15.3945C63.7812 15.6224 63.5957 15.8079 63.3613 15.9512C63.1335 16.0879 62.8861 16.1562 62.6191 16.1562Z" fill="white"/>
</svg>
