<svg width="177" height="19" viewBox="0 0 177 19" fill="none" xmlns="http://www.w3.org/2000/svg">
<path d="M13.8574 5.62305H8.58398V3.37695H13.8574V5.62305ZM13.8574 9.96875H8.58398V7.73242H13.8574V9.96875ZM15.6445 14.0215H12.8516V0.974609H15.6445V14.0215ZM16.0547 18.5918H3.63281V16.3359H16.0547V18.5918ZM6.44531 17.5273H3.63281V12.7227H6.44531V17.5273ZM5.48828 1.98047C6.36719 1.98047 7.16471 2.18555 7.88086 2.5957C8.60352 2.99935 9.17969 3.55924 9.60938 4.27539C10.0456 4.99154 10.2637 5.79557 10.2637 6.6875C10.2637 7.5599 10.0456 8.35417 9.60938 9.07031C9.17969 9.77995 8.60026 10.3398 7.87109 10.75C7.14844 11.1602 6.35417 11.3652 5.48828 11.3652C4.58984 11.3652 3.77279 11.1602 3.03711 10.75C2.30794 10.3398 1.73177 9.77995 1.30859 9.07031C0.891927 8.35417 0.683594 7.5599 0.683594 6.6875C0.683594 5.79557 0.891927 4.99154 1.30859 4.27539C1.73177 3.55273 2.30794 2.98958 3.03711 2.58594C3.77279 2.18229 4.58984 1.98047 5.48828 1.98047ZM5.48828 4.48047C5.07161 4.46745 4.70052 4.54883 4.375 4.72461C4.04948 4.89388 3.79557 5.14779 3.61328 5.48633C3.43099 5.82487 3.33984 6.22526 3.33984 6.6875C3.33984 7.14323 3.43099 7.53385 3.61328 7.85938C3.79557 8.1849 4.04948 8.43229 4.375 8.60156C4.70052 8.77083 5.07161 8.86198 5.48828 8.875C5.87891 8.86198 6.23372 8.77083 6.55273 8.60156C6.87826 8.43229 7.12891 8.1849 7.30469 7.85938C7.48698 7.52734 7.57812 7.13672 7.57812 6.6875C7.57812 6.22526 7.48698 5.82487 7.30469 5.48633C7.12891 5.14779 6.87826 4.89388 6.55273 4.72461C6.23372 4.54883 5.87891 4.46745 5.48828 4.48047ZM19.4145 9.09961C21.1462 9.09961 22.5167 9.07031 23.5258 9.01172C24.5414 8.95312 25.5342 8.84245 26.5043 8.67969L26.768 10.9258C25.7849 11.0951 24.7628 11.2122 23.7016 11.2773C22.6469 11.3424 21.2178 11.3717 19.4145 11.3652H18.0375V9.09961H19.4145ZM25.977 7.5957H20.8109V10.7891H18.0375V5.49609H23.2035V4.11914H18.0082V1.86328H25.977V7.5957ZM32.5297 11.8047H29.7074V0.974609H32.5297V11.8047ZM30.225 5.47656H26.973V3.2207H30.225V5.47656ZM30.225 9.17773H26.973V6.93164H30.225V9.17773ZM26.3871 12.0781C27.6762 12.0781 28.7862 12.2148 29.7172 12.4883C30.6547 12.7617 31.3708 13.1556 31.8656 13.6699C32.3669 14.1777 32.6176 14.793 32.6176 15.5156C32.6176 16.2253 32.3669 16.834 31.8656 17.3418C31.3708 17.8561 30.6547 18.2467 29.7172 18.5137C28.7862 18.7806 27.6762 18.9141 26.3871 18.9141C25.098 18.9141 23.9848 18.7806 23.0473 18.5137C22.1098 18.2467 21.3904 17.8561 20.8891 17.3418C20.3943 16.834 20.1469 16.2253 20.1469 15.5156C20.1469 14.793 20.3975 14.1777 20.8988 13.6699C21.4066 13.1556 22.126 12.7617 23.057 12.4883C23.9945 12.2148 25.1046 12.0781 26.3871 12.0781ZM26.3871 14.207C25.6189 14.207 24.9841 14.2526 24.4828 14.3438C23.9815 14.4349 23.6072 14.5781 23.3598 14.7734C23.1189 14.9688 22.9984 15.2161 22.9984 15.5156C22.9984 15.8086 23.1189 16.0495 23.3598 16.2383C23.6072 16.4206 23.9815 16.5605 24.4828 16.6582C24.9841 16.7493 25.6189 16.7949 26.3871 16.7949C27.1618 16.7949 27.7999 16.7493 28.3012 16.6582C28.809 16.5605 29.1898 16.4206 29.4438 16.2383C29.7042 16.0495 29.8344 15.8086 29.8344 15.5156C29.8344 15.2161 29.7042 14.9688 29.4438 14.7734C29.1898 14.5781 28.809 14.4349 28.3012 14.3438C27.7934 14.2526 27.1553 14.207 26.3871 14.207ZM49.7762 18.8652H47.1297V0.935547H49.7762V18.8652ZM47.7547 10.0078H44.8738V7.78125H47.7547V10.0078ZM45.6941 18.0254H43.1258V1.22852H45.6941V18.0254ZM35.9773 12.5957C37.2339 12.5957 38.3309 12.5697 39.2684 12.5176C40.2059 12.459 41.1661 12.3451 42.1492 12.1758L42.3445 14.4414C41.3419 14.6237 40.3556 14.7507 39.3855 14.8223C38.422 14.8874 37.2859 14.9232 35.9773 14.9297H34.6883V12.5957H35.9773ZM41.368 5.23242H37.5105V13.748H34.6883V2.99609H41.368V5.23242ZM64.132 5.22266H59.884V3.14258H64.132V5.22266ZM64.132 8.48438H59.884V6.375H64.132V8.48438ZM66.2902 10.125H63.507V0.935547H66.2902V10.125ZM66.2902 15.6914H57.1203V17.8496H54.2883V13.6504H63.507V12.8691H54.2785V10.7305H66.2902V15.6914ZM66.7785 18.6895H54.2883V16.4824H66.7785V18.6895ZM54.6789 3.64062H57.716V1.6875H60.509V9.68555H51.8371V1.6875H54.6789V3.64062ZM57.716 7.48828V5.73047H54.6789V7.48828H57.716Z" fill="#3D5684"/>
<path d="M81.6523 12.0586H78.8301V9.58789H81.6523V12.0586ZM76.9258 2.30273H83.5762V1.21875H86.3691V7.24414H74.1621V1.21875H76.9258V2.30273ZM83.5762 5.18359V4.31445H76.9258V5.18359H83.5762ZM88.4492 10.2715H72.1113V8.01562H88.4492V10.2715ZM86.4961 15.8867H76.7305V17.3809H73.9668V13.9727H83.7031V13.2305H73.9668V11.1895H86.4961V15.8867ZM86.9355 18.7676H73.9668V16.6777H86.9355V18.7676ZM102.131 5.91602H97.7367V3.65039H102.131V5.91602ZM102.209 9.74414H97.7367V7.52734H102.209V9.74414ZM98.3031 11.2188H89.6996V2.37109H98.3031V11.2188ZM92.4926 9.04102H95.5492V4.58789H92.4926V9.04102ZM104.162 13.9922H101.37V0.974609H104.162V13.9922ZM104.534 18.5918H92.1215V16.3359H104.534V18.5918ZM94.973 17.5371H92.1215V12.7324H94.973V17.5371ZM122.22 11.3652H105.882V9.12891H122.22V11.3652ZM114.016 12.1855C115.312 12.1855 116.432 12.3158 117.376 12.5762C118.32 12.8366 119.039 13.2207 119.534 13.7285C120.029 14.2298 120.276 14.832 120.276 15.5352C120.276 16.2383 120.029 16.8405 119.534 17.3418C119.039 17.8496 118.32 18.2337 117.376 18.4941C116.438 18.7546 115.318 18.8848 114.016 18.8848C112.714 18.8848 111.588 18.7546 110.637 18.4941C109.693 18.2337 108.968 17.8496 108.46 17.3418C107.958 16.8405 107.708 16.2383 107.708 15.5352C107.708 14.832 107.962 14.2298 108.47 13.7285C108.977 13.2207 109.703 12.8366 110.647 12.5762C111.598 12.3158 112.721 12.1855 114.016 12.1855ZM114.016 14.3535C113.222 14.3535 112.571 14.3958 112.063 14.4805C111.562 14.5586 111.188 14.6855 110.94 14.8613C110.693 15.0371 110.569 15.2617 110.569 15.5352C110.569 15.8086 110.693 16.0332 110.94 16.209C111.188 16.3783 111.559 16.5052 112.054 16.5898C112.555 16.668 113.209 16.707 114.016 16.707C114.804 16.707 115.449 16.668 115.95 16.5898C116.451 16.5052 116.826 16.3783 117.073 16.209C117.32 16.0332 117.444 15.8086 117.444 15.5352C117.444 15.2617 117.32 15.0371 117.073 14.8613C116.826 14.6855 116.451 14.5586 115.95 14.4805C115.449 14.3958 114.804 14.3535 114.016 14.3535ZM114.563 3.25977C114.563 4.17122 114.306 5.00456 113.792 5.75977C113.284 6.50846 112.496 7.13346 111.429 7.63477C110.361 8.13607 109.033 8.45508 107.444 8.5918L106.536 6.4043C107.818 6.28711 108.876 6.0625 109.71 5.73047C110.543 5.39844 111.149 5.01758 111.526 4.58789C111.904 4.1582 112.093 3.71549 112.093 3.25977V2.81055H114.563V3.25977ZM115.97 3.25977C115.97 3.71549 116.155 4.1582 116.526 4.58789C116.904 5.01758 117.512 5.39844 118.352 5.73047C119.192 6.0625 120.273 6.28711 121.595 6.4043L120.618 8.5918C119.042 8.45508 117.718 8.13607 116.643 7.63477C115.576 7.13346 114.775 6.50846 114.241 5.75977C113.714 5.00456 113.45 4.17122 113.45 3.25977V2.81055H115.97V3.25977ZM120.745 3.99219H107.356V1.74609H120.745V3.99219ZM141.283 14.9297H138.461V0.935547H141.283V14.9297ZM143.461 9.01172H140.316V6.70703H143.461V9.01172ZM141.879 18.5918H129.076V16.3359H141.879V18.5918ZM131.908 16.9902H129.076V14.0117H131.908V16.9902ZM133.607 12.1855H130.795V9.49023H133.607V12.1855ZM126.625 11.1406C128.675 11.1406 130.629 11.1016 132.484 11.0234C134.346 10.9388 136.094 10.7793 137.728 10.5449L137.923 12.459C136.778 12.6803 135.567 12.8496 134.291 12.9668C133.021 13.084 131.865 13.1589 130.824 13.1914C129.789 13.224 128.48 13.2565 126.898 13.2891L126.625 11.1406ZM137.298 4.31445H127.084V2.30273H137.298V4.31445ZM132.191 4.70508C133.076 4.70508 133.854 4.81576 134.525 5.03711C135.202 5.25846 135.723 5.58073 136.088 6.00391C136.459 6.42708 136.644 6.9349 136.644 7.52734C136.644 8.08073 136.459 8.5625 136.088 8.97266C135.723 9.38281 135.202 9.70182 134.525 9.92969C133.854 10.151 133.076 10.2617 132.191 10.2617C131.306 10.2617 130.524 10.151 129.847 9.92969C129.17 9.70182 128.646 9.38281 128.275 8.97266C127.91 8.5625 127.728 8.08073 127.728 7.52734C127.728 6.9349 127.91 6.43034 128.275 6.01367C128.646 5.59049 129.167 5.26823 129.838 5.04688C130.508 4.81901 131.293 4.70508 132.191 4.70508ZM132.191 6.56055C131.807 6.56055 131.481 6.5931 131.214 6.6582C130.954 6.72331 130.755 6.82747 130.619 6.9707C130.482 7.11393 130.414 7.29948 130.414 7.52734C130.414 7.70964 130.482 7.86914 130.619 8.00586C130.755 8.13607 130.954 8.23372 131.214 8.29883C131.481 8.36393 131.807 8.39648 132.191 8.39648C132.575 8.39648 132.894 8.36393 133.148 8.29883C133.408 8.23372 133.604 8.13607 133.734 8.00586C133.871 7.86914 133.939 7.70964 133.939 7.52734C133.939 7.29948 133.874 7.11393 133.744 6.9707C133.614 6.82747 133.418 6.72331 133.158 6.6582C132.897 6.5931 132.575 6.56055 132.191 6.56055ZM133.607 3.19141H130.795V0.886719H133.607V3.19141ZM149.926 5.62305C149.926 7.04883 149.74 8.41927 149.369 9.73438C149.005 11.0495 148.445 12.2181 147.689 13.2402C146.934 14.2559 146.007 15.0176 144.906 15.5254L143.275 13.3086C144.278 12.8464 145.105 12.2051 145.756 11.3848C146.413 10.5579 146.902 9.65299 147.221 8.66992C147.54 7.68034 147.699 6.66471 147.699 5.62305V3.82617H149.926V5.62305ZM150.521 5.62305C150.521 6.57357 150.674 7.51432 150.98 8.44531C151.286 9.3763 151.762 10.2324 152.406 11.0137C153.051 11.7949 153.858 12.4134 154.828 12.8691L153.275 15.0664C152.182 14.5716 151.264 13.8359 150.521 12.8594C149.779 11.8763 149.223 10.763 148.852 9.51953C148.487 8.26953 148.305 6.9707 148.305 5.62305V3.82617H150.521V5.62305ZM154.008 4.92969H144.018V2.64453H154.008V4.92969ZM157.953 18.8652H155.131V0.935547H157.953V18.8652ZM160.492 9.99805H157.338V7.66406H160.492V9.99805ZM169.789 2.26367C169.789 3.42904 169.503 4.51302 168.93 5.51562C168.364 6.51172 167.514 7.35482 166.381 8.04492C165.255 8.72852 163.888 9.18424 162.28 9.41211L161.186 7.16602C162.553 7.00326 163.699 6.66146 164.623 6.14062C165.554 5.61979 166.235 5.02083 166.664 4.34375C167.101 3.66667 167.319 2.97331 167.319 2.26367V1.44336H169.789V2.26367ZM170.288 2.26367C170.288 2.97982 170.506 3.67969 170.942 4.36328C171.385 5.04036 172.068 5.63607 172.993 6.15039C173.924 6.66471 175.076 7.00326 176.45 7.16602L175.375 9.41211C173.761 9.18424 172.387 8.72852 171.254 8.04492C170.121 7.36133 169.265 6.52148 168.686 5.52539C168.113 4.52279 167.827 3.43555 167.827 2.26367V1.44336H170.288V2.26367ZM170.131 18.8652H167.348V12.3613H170.131V18.8652ZM176.967 12.8691H160.629V10.5742H176.967V12.8691Z" fill="black"/>
</svg>
