<svg width="58" height="13" viewBox="0 0 58 13" fill="none" xmlns="http://www.w3.org/2000/svg">
<path d="M6.78125 10.7285H5.28418V7.80273H6.78125V10.7285ZM6.04297 1.54785C6.91797 1.54785 7.7041 1.68685 8.40137 1.96484C9.10319 2.24284 9.65234 2.63477 10.0488 3.14062C10.4453 3.64648 10.6436 4.22754 10.6436 4.88379C10.6436 5.55827 10.4453 6.14844 10.0488 6.6543C9.65234 7.16016 9.10547 7.55208 8.4082 7.83008C7.71094 8.10352 6.92253 8.24023 6.04297 8.24023C5.16341 8.24023 4.37272 8.10352 3.6709 7.83008C2.97363 7.55208 2.42676 7.16016 2.03027 6.6543C1.63835 6.14844 1.44238 5.55827 1.44238 4.88379C1.44238 4.22754 1.63835 3.64648 2.03027 3.14062C2.42676 2.63477 2.97363 2.24284 3.6709 1.96484C4.37272 1.68685 5.16341 1.54785 6.04297 1.54785ZM6.04297 2.77148C5.44141 2.77148 4.90365 2.85807 4.42969 3.03125C3.95573 3.20443 3.58659 3.45052 3.32227 3.76953C3.0625 4.08854 2.93262 4.45996 2.93262 4.88379C2.93262 5.32129 3.0625 5.70182 3.32227 6.02539C3.58659 6.34896 3.95345 6.59733 4.42285 6.77051C4.89225 6.93913 5.43229 7.02572 6.04297 7.03027C6.65365 7.02572 7.19141 6.93913 7.65625 6.77051C8.12565 6.59733 8.49023 6.34896 8.75 6.02539C9.01432 5.70182 9.14648 5.32129 9.14648 4.88379C9.14648 4.45996 9.01432 4.08854 8.75 3.76953C8.49023 3.45052 8.12565 3.20443 7.65625 3.03125C7.18685 2.85807 6.64909 2.77148 6.04297 2.77148ZM11.71 11.7197H0.416992V10.4688H11.71V11.7197ZM22.1553 5.37598H19.1475V4.13867H22.1553V5.37598ZM22.8594 9.90137H21.3418V0.871094H22.8594V9.90137ZM23.1738 12.9844H14.752V11.7402H23.1738V12.9844ZM16.2764 12.4375H14.752V9.10156H16.2764V12.4375ZM16.748 3.31836C16.748 4.0931 16.6136 4.82227 16.3447 5.50586C16.0758 6.18945 15.6794 6.78874 15.1553 7.30371C14.6357 7.81413 14.0068 8.19922 13.2686 8.45898L12.4824 7.22852C13.1204 7.01888 13.6673 6.71126 14.123 6.30566C14.5788 5.90007 14.9229 5.44206 15.1553 4.93164C15.3877 4.41667 15.5039 3.87891 15.5039 3.31836V2.4502H16.748V3.31836ZM17.0488 3.33203C17.0488 3.83789 17.1605 4.33008 17.3838 4.80859C17.6071 5.28711 17.9375 5.71777 18.375 6.10059C18.8125 6.4834 19.3389 6.77734 19.9541 6.98242L19.1953 8.19238C18.4753 7.94629 17.8623 7.57943 17.3564 7.0918C16.8506 6.59961 16.4655 6.02995 16.2012 5.38281C15.9414 4.73568 15.8115 4.05208 15.8115 3.33203V2.4502H17.0488V3.33203ZM19.6123 2.99023H12.9268V1.75977H19.6123V2.99023ZM31.9512 12.1367C31.2539 12.1367 30.6296 12.0182 30.0781 11.7812C29.5267 11.5443 29.0938 11.2116 28.7793 10.7832C28.4694 10.3503 28.3053 9.86035 28.2871 9.31348H30.085C30.1032 9.56868 30.1943 9.79655 30.3584 9.99707C30.5225 10.1976 30.7435 10.3548 31.0215 10.4688C31.2995 10.5781 31.6071 10.6328 31.9443 10.6328C32.3044 10.6328 32.6279 10.5713 32.915 10.4482C33.2067 10.3206 33.4323 10.1475 33.5918 9.92871C33.7513 9.7054 33.8288 9.4502 33.8242 9.16309C33.8288 8.85775 33.749 8.59115 33.585 8.36328C33.4255 8.13086 33.1885 7.95085 32.874 7.82324C32.5641 7.69108 32.1973 7.625 31.7734 7.625H30.8916V6.25098H31.7734C32.1243 6.25098 32.4342 6.19173 32.7031 6.07324C32.9766 5.9502 33.1862 5.7793 33.332 5.56055C33.4824 5.3418 33.5576 5.09115 33.5576 4.80859C33.5576 4.5306 33.4915 4.28678 33.3594 4.07715C33.2318 3.86296 33.0472 3.69889 32.8057 3.58496C32.5687 3.46647 32.2907 3.40723 31.9717 3.40723C31.6618 3.40723 31.3724 3.46419 31.1035 3.57812C30.8392 3.6875 30.625 3.84473 30.4609 4.0498C30.3014 4.25033 30.2148 4.48958 30.2012 4.76758H28.4854C28.5081 4.2207 28.6722 3.73535 28.9775 3.31152C29.2874 2.8877 29.7044 2.55729 30.2285 2.32031C30.7526 2.08333 31.3359 1.96484 31.9785 1.96484C32.6348 1.96484 33.2113 2.08561 33.708 2.32715C34.2093 2.56868 34.5967 2.89909 34.8701 3.31836C35.1481 3.73307 35.2826 4.19564 35.2734 4.70605C35.2826 5.06608 35.2119 5.39648 35.0615 5.69727C34.9111 5.99349 34.6969 6.23958 34.4189 6.43555C34.141 6.63151 33.8219 6.76823 33.4619 6.8457V6.9209C33.9268 6.98014 34.3232 7.11686 34.6514 7.33105C34.9795 7.54069 35.2301 7.80957 35.4033 8.1377C35.5765 8.46126 35.6585 8.83268 35.6494 9.25195C35.6585 9.79427 35.5013 10.2865 35.1777 10.7285C34.8587 11.166 34.4167 11.5101 33.8516 11.7607C33.291 12.0114 32.6576 12.1367 31.9512 12.1367ZM38.2949 10.7627C38.1035 10.7627 37.9258 10.7148 37.7617 10.6191C37.5977 10.5189 37.4678 10.389 37.3721 10.2295C37.2809 10.0654 37.2354 9.8877 37.2354 9.69629C37.2354 9.50944 37.2809 9.33626 37.3721 9.17676C37.4678 9.0127 37.5977 8.88509 37.7617 8.79395C37.9258 8.69824 38.1035 8.65039 38.2949 8.65039C38.4772 8.65039 38.6504 8.69824 38.8145 8.79395C38.9785 8.88509 39.1084 9.0127 39.2041 9.17676C39.2998 9.33626 39.3477 9.50944 39.3477 9.69629C39.3477 9.8877 39.2998 10.0654 39.2041 10.2295C39.1084 10.389 38.9785 10.5189 38.8145 10.6191C38.6504 10.7148 38.4772 10.7627 38.2949 10.7627ZM38.2949 5.45801C38.1035 5.45801 37.9258 5.41016 37.7617 5.31445C37.5977 5.21419 37.4678 5.08431 37.3721 4.9248C37.2809 4.76074 37.2354 4.58301 37.2354 4.3916C37.2354 4.20475 37.2809 4.03158 37.3721 3.87207C37.4678 3.70801 37.5977 3.5804 37.7617 3.48926C37.9258 3.39355 38.1035 3.3457 38.2949 3.3457C38.4772 3.3457 38.6504 3.39355 38.8145 3.48926C38.9785 3.5804 39.1084 3.70801 39.2041 3.87207C39.2998 4.03158 39.3477 4.20475 39.3477 4.3916C39.3477 4.58301 39.2998 4.76074 39.2041 4.9248C39.1084 5.08431 38.9785 5.21419 38.8145 5.31445C38.6504 5.41016 38.4772 5.45801 38.2949 5.45801ZM44.666 12.1367C43.873 12.1367 43.1917 11.9385 42.6221 11.542C42.057 11.1455 41.6217 10.5667 41.3164 9.80566C41.0156 9.04004 40.8652 8.12174 40.8652 7.05078C40.8652 5.97982 41.0156 5.0638 41.3164 4.30273C41.6217 3.54167 42.0592 2.96289 42.6289 2.56641C43.1986 2.16536 43.8776 1.96484 44.666 1.96484C45.4544 1.96484 46.1335 2.16536 46.7031 2.56641C47.2773 2.96289 47.7148 3.54395 48.0156 4.30957C48.3164 5.07064 48.4668 5.98438 48.4668 7.05078C48.4668 8.1263 48.3164 9.0446 48.0156 9.80566C47.7194 10.5667 47.2842 11.1455 46.71 11.542C46.1403 11.9385 45.459 12.1367 44.666 12.1367ZM44.666 10.6396C45.0807 10.6396 45.4385 10.5052 45.7393 10.2363C46.04 9.96289 46.2702 9.55957 46.4297 9.02637C46.5938 8.48861 46.6735 7.83008 46.6689 7.05078C46.6689 6.27604 46.5869 5.61979 46.4229 5.08203C46.2633 4.53971 46.0332 4.13184 45.7324 3.8584C45.4362 3.5804 45.0807 3.44141 44.666 3.44141C44.2513 3.44141 43.8936 3.5804 43.5928 3.8584C43.2965 4.13184 43.0664 4.53971 42.9023 5.08203C42.7383 5.61979 42.6562 6.27604 42.6562 7.05078C42.6562 7.83008 42.736 8.48861 42.8955 9.02637C43.0596 9.55957 43.292 9.96289 43.5928 10.2363C43.8936 10.5052 44.2513 10.6396 44.666 10.6396ZM49.7725 8.73926L54.0518 2.10156H55.2275V4.125H54.4961L51.5977 8.61621V8.69824H57.5723V10.1543H49.7725V8.73926ZM54.5781 9.73047L54.5986 9.08789V2.10156H56.2803V12H54.5781V9.73047Z" fill="#3D5684"/>
</svg>
