<svg width="171" height="19" viewBox="0 0 171 19" fill="none" xmlns="http://www.w3.org/2000/svg">
<path d="M16.709 12.8105H0.576172V11.0332H16.709V12.8105ZM9.6582 18.7383H7.51953V12.1367H9.6582V18.7383ZM8.59375 1.7168C9.84375 1.7168 10.9473 1.8763 11.9043 2.19531C12.8678 2.51432 13.6165 2.97331 14.1504 3.57227C14.6842 4.17122 14.9512 4.87435 14.9512 5.68164C14.9512 6.46289 14.6842 7.14648 14.1504 7.73242C13.6165 8.31836 12.8678 8.77409 11.9043 9.09961C10.9473 9.41862 9.84375 9.57812 8.59375 9.57812C7.35026 9.57812 6.24674 9.41862 5.2832 9.09961C4.31966 8.77409 3.57422 8.31836 3.04688 7.73242C2.51953 7.14648 2.25586 6.46289 2.25586 5.68164C2.25586 4.87435 2.51953 4.17122 3.04688 3.57227C3.57422 2.97331 4.31966 2.51432 5.2832 2.19531C6.24674 1.8763 7.35026 1.7168 8.59375 1.7168ZM8.59375 3.45508C7.76693 3.45508 7.04427 3.54297 6.42578 3.71875C5.80729 3.89453 5.33203 4.15169 5 4.49023C4.66797 4.82227 4.50195 5.2194 4.50195 5.68164C4.50195 6.13086 4.66797 6.52148 5 6.85352C5.33203 7.17904 5.80729 7.42643 6.42578 7.5957C7.04427 7.76497 7.76693 7.85286 8.59375 7.85938C9.43359 7.85286 10.1628 7.76497 10.7812 7.5957C11.3997 7.42643 11.875 7.17904 12.207 6.85352C12.5456 6.52148 12.7148 6.13086 12.7148 5.68164C12.7148 5.2194 12.5456 4.82227 12.207 4.49023C11.875 4.15169 11.3965 3.89453 10.7715 3.71875C10.153 3.54297 9.42708 3.45508 8.59375 3.45508ZM32.1781 18.7676H30.0199V1.08203H32.1781V18.7676ZM19.9906 12.791C21.6378 12.7975 23.1319 12.7552 24.473 12.6641C25.8207 12.5729 27.2009 12.4134 28.6137 12.1855L28.809 13.9629C27.4027 14.2038 26.016 14.3698 24.6488 14.4609C23.2882 14.5456 21.7354 14.5879 19.9906 14.5879H18.4477V12.791H19.9906ZM26.7484 9.23633H20.684V13.4648H18.4477V7.51758H24.5414V4.38281H18.4281V2.61523H26.7484V9.23633ZM53.9367 4.14844H39.5129V2.48828H53.9367V4.14844ZM46.7687 4.67578C48.6437 4.67578 50.0858 4.89714 51.0949 5.33984C52.1105 5.78255 52.6184 6.42383 52.6184 7.26367C52.6184 8.10352 52.1138 8.74154 51.1047 9.17773C50.1021 9.61393 48.6568 9.82878 46.7687 9.82227C44.8742 9.82878 43.4191 9.61393 42.4035 9.17773C41.3944 8.74154 40.8898 8.10352 40.8898 7.26367C40.8898 6.70378 41.1177 6.23177 41.5734 5.84766C42.0357 5.45703 42.703 5.16406 43.5754 4.96875C44.4543 4.77344 45.5187 4.67578 46.7687 4.67578ZM46.7687 6.18945C45.9484 6.18945 45.2681 6.22852 44.7277 6.30664C44.1874 6.38477 43.7837 6.50521 43.5168 6.66797C43.2564 6.82422 43.1262 7.02279 43.1262 7.26367C43.1262 7.49805 43.2564 7.69661 43.5168 7.85938C43.7772 8.01562 44.1776 8.13281 44.718 8.21094C45.2583 8.28906 45.9419 8.32812 46.7687 8.32812C47.5956 8.32812 48.2727 8.28906 48.8 8.21094C49.3273 8.13281 49.7245 8.01562 49.9914 7.85938C50.2648 7.69661 50.4016 7.49805 50.4016 7.26367C50.4016 7.02279 50.2648 6.82422 49.9914 6.66797C49.7245 6.50521 49.3241 6.38477 48.7902 6.30664C48.2564 6.22852 47.5826 6.18945 46.7687 6.18945ZM47.843 3.55273H45.675V0.916016H47.843V3.55273ZM54.8059 12.6641H38.7316V10.9453H54.8059V12.6641ZM47.843 11.7363H45.675V9.24609H47.843V11.7363ZM52.7551 18.7188H50.5871V15.457H40.4602V13.7969H52.7551V18.7188ZM61.8766 5.32031C61.8766 6.79167 61.6747 8.18164 61.2711 9.49023C60.874 10.7923 60.2913 11.9382 59.523 12.9277C58.7548 13.9173 57.8303 14.6693 56.7496 15.1836L55.4215 13.3672C56.3785 12.944 57.2086 12.3223 57.9117 11.502C58.6148 10.6751 59.152 9.72786 59.523 8.66016C59.9007 7.58594 60.0895 6.47266 60.0895 5.32031V2.49805H61.8766V5.32031ZM62.277 5.32031C62.277 6.41406 62.4592 7.47201 62.8238 8.49414C63.1884 9.51628 63.7158 10.4277 64.4059 11.2285C65.1025 12.0293 65.9163 12.6315 66.8473 13.0352L65.5582 14.7734C64.5165 14.2852 63.6116 13.5658 62.8434 12.6152C62.0751 11.6582 61.4892 10.5547 61.0855 9.30469C60.6819 8.05469 60.4801 6.72656 60.4801 5.32031V2.49805H62.277V5.32031ZM70.2945 18.7676H68.0973V1.08203H70.2945V18.7676ZM85.9594 12.1465H83.7914V9.55859H85.9594V12.1465ZM81.0863 2.73242H88.7035V1.36523H90.8617V7.23438H78.9477V1.36523H81.0863V2.73242ZM88.7035 5.60352V4.32422H81.0863V5.60352H88.7035ZM92.9418 10.0957H76.8676V8.33789H92.9418V10.0957ZM90.9496 15.6816H80.9105V17.5078H78.7621V14.1582H88.8012V13.0156H78.7523V11.4043H90.9496V15.6816ZM91.4281 18.582H78.7621V16.9219H91.4281V18.582ZM106.975 5.74023H102.317V3.97266H106.975V5.74023ZM107.034 9.50977H102.317V7.77148H107.034V9.50977ZM102.796 11.0332H94.5145V2.55664H102.796V11.0332ZM96.6727 9.33398H100.667V4.29492H96.6727V9.33398ZM108.528 13.9531H106.36V1.10156H108.528V13.9531ZM108.909 18.4062H96.8875V16.6289H108.909V18.4062ZM99.0945 17.5078H96.8875V12.7617H99.0945V17.5078ZM126.712 11.0625H110.638V9.30469H126.712V11.0625ZM118.655 12.2246C119.925 12.2246 121.019 12.3548 121.937 12.6152C122.855 12.8691 123.555 13.2402 124.036 13.7285C124.525 14.2103 124.769 14.793 124.769 15.4766C124.769 16.1602 124.525 16.7428 124.036 17.2246C123.555 17.7129 122.855 18.0807 121.937 18.3281C121.025 18.582 119.932 18.709 118.655 18.709C117.379 18.709 116.279 18.582 115.355 18.3281C114.437 18.0807 113.73 17.7129 113.236 17.2246C112.747 16.7428 112.503 16.1602 112.503 15.4766C112.503 14.793 112.751 14.2103 113.245 13.7285C113.74 13.2402 114.446 12.8691 115.364 12.6152C116.289 12.3548 117.386 12.2246 118.655 12.2246ZM118.655 13.9238C117.796 13.9238 117.07 13.9824 116.478 14.0996C115.892 14.2103 115.452 14.3828 115.159 14.6172C114.866 14.8516 114.72 15.138 114.72 15.4766C114.72 15.8086 114.87 16.0918 115.169 16.3262C115.469 16.554 115.908 16.7266 116.488 16.8438C117.067 16.9544 117.79 17.0098 118.655 17.0098C119.508 17.0098 120.228 16.9544 120.814 16.8438C121.4 16.7266 121.842 16.554 122.142 16.3262C122.441 16.0918 122.591 15.8086 122.591 15.4766C122.591 15.138 122.441 14.8516 122.142 14.6172C121.842 14.3828 121.4 14.2103 120.814 14.0996C120.228 13.9824 119.508 13.9238 118.655 13.9238ZM119.114 3.28906C119.114 4.1875 118.828 5.00781 118.255 5.75C117.689 6.48568 116.878 7.0944 115.823 7.57617C114.775 8.05794 113.548 8.3737 112.142 8.52344L111.409 6.80469C112.575 6.6875 113.594 6.45638 114.466 6.11133C115.345 5.75977 116.019 5.33659 116.488 4.8418C116.956 4.34701 117.191 3.82943 117.191 3.28906V2.80078H119.114V3.28906ZM120.13 3.28906C120.13 3.82943 120.361 4.34701 120.823 4.8418C121.292 5.33659 121.969 5.75977 122.855 6.11133C123.74 6.45638 124.775 6.6875 125.96 6.80469L125.189 8.52344C123.795 8.3737 122.568 8.05794 121.507 7.57617C120.452 7.0944 119.635 6.48568 119.056 5.75C118.476 5.00781 118.187 4.1875 118.187 3.28906V2.80078H120.13V3.28906ZM125.267 3.68945H112.093V1.93164H125.267V3.68945ZM142.211 13.8555H140.033V1.10156H142.211V13.8555ZM142.709 18.4062H130.531V16.6289H142.709V18.4062ZM132.718 17.3223H130.531V12.5664H132.718V17.3223ZM132.591 2.25391C133.483 2.25391 134.291 2.44271 135.013 2.82031C135.742 3.19792 136.312 3.72201 136.722 4.39258C137.139 5.06315 137.347 5.81836 137.347 6.6582C137.347 7.51758 137.139 8.28581 136.722 8.96289C136.312 9.63346 135.742 10.1576 135.013 10.5352C134.291 10.9128 133.483 11.1016 132.591 11.1016C131.699 11.1016 130.892 10.9128 130.17 10.5352C129.453 10.1576 128.884 9.63346 128.461 8.96289C128.044 8.28581 127.836 7.51758 127.836 6.6582C127.836 5.81836 128.044 5.06315 128.461 4.39258C128.884 3.72201 129.453 3.19792 130.17 2.82031C130.892 2.44271 131.699 2.25391 132.591 2.25391ZM132.591 4.1582C132.09 4.15169 131.638 4.2526 131.234 4.46094C130.837 4.66276 130.524 4.95573 130.296 5.33984C130.069 5.72396 129.955 6.16341 129.955 6.6582C129.955 7.16602 130.069 7.61523 130.296 8.00586C130.524 8.38997 130.837 8.6862 131.234 8.89453C131.638 9.09635 132.09 9.19727 132.591 9.19727C133.086 9.19727 133.532 9.09635 133.929 8.89453C134.326 8.6862 134.636 8.38997 134.857 8.00586C135.085 7.61523 135.199 7.16602 135.199 6.6582C135.199 6.16341 135.085 5.72396 134.857 5.33984C134.636 4.95573 134.326 4.66276 133.929 4.46094C133.532 4.2526 133.086 4.15169 132.591 4.1582ZM158.227 18.709H156.059V1.08203H158.227V18.709ZM160.844 9.7832H157.67V7.98633H160.844V9.7832ZM153.568 2.92773C153.568 4.72461 153.298 6.39779 152.758 7.94727C152.224 9.49023 151.361 10.9095 150.17 12.2051C148.979 13.4941 147.436 14.6107 145.541 15.5547L144.32 13.875C145.915 13.0677 147.237 12.1465 148.285 11.1113C149.34 10.0762 150.128 8.91406 150.648 7.625C151.169 6.32943 151.43 4.89062 151.43 3.30859V2.92773H153.568ZM152.533 4.71484H145.238V2.92773H152.533V4.71484ZM164.282 12.6641C164.288 11.8568 164.363 11.2057 164.506 10.7109C164.656 10.2161 164.864 9.81901 165.131 9.51953C165.398 9.21354 165.763 8.92383 166.225 8.65039C166.694 8.35742 167.055 8.03516 167.309 7.68359C167.563 7.33203 167.69 6.9349 167.69 6.49219C167.69 6.13411 167.608 5.82161 167.446 5.55469C167.283 5.28125 167.052 5.07292 166.752 4.92969C166.459 4.77995 166.137 4.70508 165.786 4.70508C165.447 4.70508 165.131 4.77669 164.838 4.91992C164.545 5.05664 164.304 5.27148 164.116 5.56445C163.927 5.85742 163.823 6.21224 163.803 6.62891H161.362C161.388 5.78255 161.599 5.06315 161.996 4.4707C162.394 3.87174 162.921 3.42253 163.579 3.12305C164.236 2.81706 164.972 2.66406 165.786 2.66406C166.671 2.66406 167.449 2.82031 168.12 3.13281C168.797 3.4388 169.321 3.87826 169.692 4.45117C170.063 5.01758 170.248 5.6849 170.248 6.45312C170.248 7.21484 170.069 7.86914 169.711 8.41602C169.36 8.95638 168.852 9.43164 168.188 9.8418C167.797 10.0697 167.488 10.3073 167.26 10.5547C167.032 10.8021 166.86 11.0918 166.743 11.4238C166.625 11.7559 166.564 12.1693 166.557 12.6641V12.8496H164.282V12.6641ZM165.483 17.1562C165.209 17.1562 164.955 17.0879 164.721 16.9512C164.487 16.8079 164.301 16.6224 164.164 16.3945C164.034 16.1602 163.969 15.9062 163.969 15.6328C163.969 15.3659 164.034 15.1185 164.164 14.8906C164.301 14.6562 164.487 14.474 164.721 14.3438C164.955 14.207 165.209 14.1387 165.483 14.1387C165.743 14.1387 165.991 14.207 166.225 14.3438C166.459 14.474 166.645 14.6562 166.782 14.8906C166.918 15.1185 166.987 15.3659 166.987 15.6328C166.987 15.9062 166.918 16.1602 166.782 16.3945C166.645 16.6224 166.459 16.8079 166.225 16.9512C165.991 17.0879 165.743 17.1562 165.483 17.1562Z" fill="white"/>
</svg>
