<svg width="149" height="18" viewBox="0 0 149 18" fill="none" xmlns="http://www.w3.org/2000/svg">
<path d="M16.709 11.8105H0.576172V10.0332H16.709V11.8105ZM9.6582 17.7383H7.51953V11.1367H9.6582V17.7383ZM8.59375 0.716797C9.84375 0.716797 10.9473 0.876302 11.9043 1.19531C12.8678 1.51432 13.6165 1.97331 14.1504 2.57227C14.6842 3.17122 14.9512 3.87435 14.9512 4.68164C14.9512 5.46289 14.6842 6.14648 14.1504 6.73242C13.6165 7.31836 12.8678 7.77409 11.9043 8.09961C10.9473 8.41862 9.84375 8.57812 8.59375 8.57812C7.35026 8.57812 6.24674 8.41862 5.2832 8.09961C4.31966 7.77409 3.57422 7.31836 3.04688 6.73242C2.51953 6.14648 2.25586 5.46289 2.25586 4.68164C2.25586 3.87435 2.51953 3.17122 3.04688 2.57227C3.57422 1.97331 4.31966 1.51432 5.2832 1.19531C6.24674 0.876302 7.35026 0.716797 8.59375 0.716797ZM8.59375 2.45508C7.76693 2.45508 7.04427 2.54297 6.42578 2.71875C5.80729 2.89453 5.33203 3.15169 5 3.49023C4.66797 3.82227 4.50195 4.2194 4.50195 4.68164C4.50195 5.13086 4.66797 5.52148 5 5.85352C5.33203 6.17904 5.80729 6.42643 6.42578 6.5957C7.04427 6.76497 7.76693 6.85286 8.59375 6.85938C9.43359 6.85286 10.1628 6.76497 10.7812 6.5957C11.3997 6.42643 11.875 6.17904 12.207 5.85352C12.5456 5.52148 12.7148 5.13086 12.7148 4.68164C12.7148 4.2194 12.5456 3.82227 12.207 3.49023C11.875 3.15169 11.3965 2.89453 10.7715 2.71875C10.153 2.54297 9.42708 2.45508 8.59375 2.45508ZM32.1781 17.7676H30.0199V0.0820312H32.1781V17.7676ZM19.9906 11.791C21.6378 11.7975 23.1319 11.7552 24.473 11.6641C25.8207 11.5729 27.2009 11.4134 28.6137 11.1855L28.809 12.9629C27.4027 13.2038 26.016 13.3698 24.6488 13.4609C23.2882 13.5456 21.7354 13.5879 19.9906 13.5879H18.4477V11.791H19.9906ZM26.7484 8.23633H20.684V12.4648H18.4477V6.51758H24.5414V3.38281H18.4281V1.61523H26.7484V8.23633ZM47.8234 11.1465H45.6555V8.55859H47.8234V11.1465ZM42.9504 1.73242H50.5676V0.365234H52.7258V6.23438H40.8117V0.365234H42.9504V1.73242ZM50.5676 4.60352V3.32422H42.9504V4.60352H50.5676ZM54.8059 9.0957H38.7316V7.33789H54.8059V9.0957ZM52.8137 14.6816H42.7746V16.5078H40.6262V13.1582H50.6652V12.0156H40.6164V10.4043H52.8137V14.6816ZM53.2922 17.582H40.6262V15.9219H53.2922V17.582ZM68.8395 4.74023H64.1813V2.97266H68.8395V4.74023ZM68.898 8.50977H64.1813V6.77148H68.898V8.50977ZM64.6598 10.0332H56.3785V1.55664H64.6598V10.0332ZM58.5367 8.33398H62.5309V3.29492H58.5367V8.33398ZM70.3922 12.9531H68.2242V0.101562H70.3922V12.9531ZM70.773 17.4062H58.7516V15.6289H70.773V17.4062ZM60.9586 16.5078H58.7516V11.7617H60.9586V16.5078ZM88.5762 10.0625H72.502V8.30469H88.5762V10.0625ZM80.5195 11.2246C81.7891 11.2246 82.8828 11.3548 83.8008 11.6152C84.7188 11.8691 85.4186 12.2402 85.9004 12.7285C86.3887 13.2103 86.6328 13.793 86.6328 14.4766C86.6328 15.1602 86.3887 15.7428 85.9004 16.2246C85.4186 16.7129 84.7188 17.0807 83.8008 17.3281C82.8893 17.582 81.7956 17.709 80.5195 17.709C79.2435 17.709 78.1432 17.582 77.2188 17.3281C76.3008 17.0807 75.5944 16.7129 75.0996 16.2246C74.6113 15.7428 74.3672 15.1602 74.3672 14.4766C74.3672 13.793 74.6146 13.2103 75.1094 12.7285C75.6042 12.2402 76.3105 11.8691 77.2285 11.6152C78.153 11.3548 79.25 11.2246 80.5195 11.2246ZM80.5195 12.9238C79.6602 12.9238 78.9342 12.9824 78.3418 13.0996C77.7559 13.2103 77.3164 13.3828 77.0234 13.6172C76.7305 13.8516 76.584 14.138 76.584 14.4766C76.584 14.8086 76.7337 15.0918 77.0332 15.3262C77.3327 15.554 77.7721 15.7266 78.3516 15.8438C78.931 15.9544 79.6536 16.0098 80.5195 16.0098C81.3724 16.0098 82.0918 15.9544 82.6777 15.8438C83.2637 15.7266 83.7064 15.554 84.0059 15.3262C84.3053 15.0918 84.4551 14.8086 84.4551 14.4766C84.4551 14.138 84.3053 13.8516 84.0059 13.6172C83.7064 13.3828 83.2637 13.2103 82.6777 13.0996C82.0918 12.9824 81.3724 12.9238 80.5195 12.9238ZM80.9785 2.28906C80.9785 3.1875 80.6921 4.00781 80.1191 4.75C79.5527 5.48568 78.7422 6.0944 77.6875 6.57617C76.6393 7.05794 75.4121 7.3737 74.0059 7.52344L73.2734 5.80469C74.4388 5.6875 75.4577 5.45638 76.3301 5.11133C77.209 4.75977 77.8828 4.33659 78.3516 3.8418C78.8203 3.34701 79.0547 2.82943 79.0547 2.28906V1.80078H80.9785V2.28906ZM81.9941 2.28906C81.9941 2.82943 82.2253 3.34701 82.6875 3.8418C83.1562 4.33659 83.8333 4.75977 84.7188 5.11133C85.6042 5.45638 86.6393 5.6875 87.8242 5.80469L87.0527 7.52344C85.6595 7.3737 84.4323 7.05794 83.3711 6.57617C82.3164 6.0944 81.4993 5.48568 80.9199 4.75C80.3405 4.00781 80.0508 3.1875 80.0508 2.28906V1.80078H81.9941V2.28906ZM87.1309 2.68945H73.957V0.931641H87.1309V2.68945ZM104.075 12.8555H101.897V0.101562H104.075V12.8555ZM104.573 17.4062H92.3949V15.6289H104.573V17.4062ZM94.5824 16.3223H92.3949V11.5664H94.5824V16.3223ZM94.4555 1.25391C95.3474 1.25391 96.1547 1.44271 96.8773 1.82031C97.6065 2.19792 98.1762 2.72201 98.5863 3.39258C99.003 4.06315 99.2113 4.81836 99.2113 5.6582C99.2113 6.51758 99.003 7.28581 98.5863 7.96289C98.1762 8.63346 97.6065 9.15755 96.8773 9.53516C96.1547 9.91276 95.3474 10.1016 94.4555 10.1016C93.5635 10.1016 92.7562 9.91276 92.0336 9.53516C91.3174 9.15755 90.7478 8.63346 90.3246 7.96289C89.9079 7.28581 89.6996 6.51758 89.6996 5.6582C89.6996 4.81836 89.9079 4.06315 90.3246 3.39258C90.7478 2.72201 91.3174 2.19792 92.0336 1.82031C92.7562 1.44271 93.5635 1.25391 94.4555 1.25391ZM94.4555 3.1582C93.9542 3.15169 93.5017 3.2526 93.098 3.46094C92.7009 3.66276 92.3884 3.95573 92.1605 4.33984C91.9327 4.72396 91.8187 5.16341 91.8187 5.6582C91.8187 6.16602 91.9327 6.61523 92.1605 7.00586C92.3884 7.38997 92.7009 7.6862 93.098 7.89453C93.5017 8.09635 93.9542 8.19727 94.4555 8.19727C94.9503 8.19727 95.3962 8.09635 95.7934 7.89453C96.1905 7.6862 96.4997 7.38997 96.7211 7.00586C96.949 6.61523 97.0629 6.16602 97.0629 5.6582C97.0629 5.16341 96.949 4.72396 96.7211 4.33984C96.4997 3.95573 96.1905 3.66276 95.7934 3.46094C95.3962 3.2526 94.9503 3.15169 94.4555 3.1582ZM120.091 17.709H117.923V0.0820312H120.091V17.709ZM122.708 8.7832H119.534V6.98633H122.708V8.7832ZM115.432 1.92773C115.432 3.72461 115.162 5.39779 114.622 6.94727C114.088 8.49023 113.225 9.90951 112.034 11.2051C110.843 12.4941 109.3 13.6107 107.405 14.5547L106.184 12.875C107.779 12.0677 109.101 11.1465 110.149 10.1113C111.204 9.07617 111.992 7.91406 112.512 6.625C113.033 5.32943 113.294 3.89062 113.294 2.30859V1.92773H115.432ZM114.397 3.71484H107.102V1.92773H114.397V3.71484ZM126.185 3.88086H130.794V1.50781H132.962V9.56445H124.056V1.50781H126.185V3.88086ZM130.794 7.8457V5.53125H126.185V7.8457H130.794ZM129.603 12.9824H127.425V9.04688H129.603V12.9824ZM137.034 17.7188H134.866V0.0820312H137.034V17.7188ZM139.593 9.06641H136.39V7.25977H139.593V9.06641ZM124.193 12.5234C126.289 12.5039 128.083 12.4648 129.573 12.4062C131.071 12.3477 132.5 12.2272 133.861 12.0449L134.007 13.6367C132.868 13.8255 131.676 13.9688 130.433 14.0664C129.196 14.1641 128.027 14.2292 126.927 14.2617C125.827 14.2878 124.599 14.304 123.245 14.3105L122.943 12.5234H124.193ZM142.181 16.1562C141.908 16.1562 141.654 16.0879 141.42 15.9512C141.185 15.8079 141 15.6224 140.863 15.3945C140.733 15.1602 140.668 14.9062 140.668 14.6328C140.668 14.3659 140.733 14.1185 140.863 13.8906C141 13.6562 141.185 13.474 141.42 13.3438C141.654 13.207 141.908 13.1387 142.181 13.1387C142.442 13.1387 142.689 13.207 142.923 13.3438C143.158 13.474 143.343 13.6562 143.48 13.8906C143.617 14.1185 143.685 14.3659 143.685 14.6328C143.685 14.9062 143.617 15.1602 143.48 15.3945C143.343 15.6224 143.158 15.8079 142.923 15.9512C142.689 16.0879 142.442 16.1562 142.181 16.1562ZM147.23 16.1562C146.957 16.1562 146.703 16.0879 146.469 15.9512C146.234 15.8079 146.049 15.6224 145.912 15.3945C145.782 15.1602 145.717 14.9062 145.717 14.6328C145.717 14.3659 145.782 14.1185 145.912 13.8906C146.049 13.6562 146.234 13.474 146.469 13.3438C146.703 13.207 146.957 13.1387 147.23 13.1387C147.491 13.1387 147.738 13.207 147.973 13.3438C148.207 13.474 148.393 13.6562 148.529 13.8906C148.666 14.1185 148.734 14.3659 148.734 14.6328C148.734 14.9062 148.666 15.1602 148.529 15.3945C148.393 15.6224 148.207 15.8079 147.973 15.9512C147.738 16.0879 147.491 16.1562 147.23 16.1562Z" fill="white"/>
</svg>
