<svg width="259" height="18" viewBox="0 0 259 18" fill="none" xmlns="http://www.w3.org/2000/svg">
<path d="M6.47461 5.08203C6.47461 6.38411 6.26953 7.6569 5.85938 8.90039C5.45573 10.1439 4.8763 11.2507 4.12109 12.2207C3.36589 13.1842 2.49023 13.9036 1.49414 14.3789L0.214844 12.6699C1.1263 12.2337 1.92383 11.6087 2.60742 10.7949C3.29102 9.98112 3.81836 9.07617 4.18945 8.08008C4.56706 7.08398 4.75586 6.08464 4.75586 5.08203V2.75781H6.47461V5.08203ZM6.92383 5.08203C6.92383 6.01302 7.09635 6.94727 7.44141 7.88477C7.79297 8.82227 8.30404 9.67839 8.97461 10.4531C9.64518 11.2214 10.4297 11.8138 11.3281 12.2305L10.1074 13.9395C9.11133 13.4707 8.24219 12.7773 7.5 11.8594C6.75781 10.9349 6.18815 9.88346 5.79102 8.70508C5.39388 7.52669 5.19531 6.31901 5.19531 5.08203V2.75781H6.92383V5.08203ZM10.6152 3.60742H0.898438V1.83008H10.6152V3.60742ZM14.4141 17.7188H12.2461V0.0820312H14.4141V17.7188ZM17.1387 8.7832H13.9258V6.95703H17.1387V8.7832ZM30.4984 3.44141H19.141V1.69336H30.4984V3.44141ZM33.5551 15.4531H17.4809V13.6855H33.5551V15.4531ZM25.557 14.5938H23.4184V7.5332H25.557V14.5938ZM31.8754 3.40234C31.8754 4.4375 31.8624 5.31641 31.8363 6.03906C31.8103 6.75521 31.7484 7.60156 31.6508 8.57812C31.5531 9.54818 31.4001 10.6029 31.1918 11.7422L28.9945 11.5078C29.2094 10.4401 29.3689 9.43424 29.473 8.49023C29.5772 7.53971 29.6391 6.69661 29.6586 5.96094C29.6781 5.22526 29.6879 4.3724 29.6879 3.40234V1.69336H31.8754V3.40234ZM53.4191 9.88672H51.2414V0.101562H53.4191V9.88672ZM44.884 2.44531C44.884 3.53255 44.6822 4.55794 44.2785 5.52148C43.8749 6.47852 43.2922 7.31185 42.5305 8.02148C41.7753 8.72461 40.8605 9.2487 39.7863 9.59375L38.7121 7.88477C39.6431 7.57878 40.4341 7.14909 41.0852 6.5957C41.7427 6.03581 42.2375 5.40104 42.5695 4.69141C42.9016 3.97526 43.0676 3.22656 43.0676 2.44531V0.716797H44.884V2.44531ZM45.3137 2.44531C45.3137 3.1875 45.4764 3.90039 45.802 4.58398C46.1275 5.26107 46.6092 5.86003 47.2473 6.38086C47.8918 6.90169 48.673 7.29883 49.591 7.57227L48.5461 9.29102C47.4784 8.95898 46.5669 8.45768 45.8117 7.78711C45.0565 7.11654 44.4803 6.32552 44.0832 5.41406C43.6926 4.49609 43.4973 3.50651 43.4973 2.44531V0.716797H45.3137V2.44531ZM53.5266 12.4844H41.5051V10.7656H53.5266V12.4844ZM53.6926 17.5137H41.3488V15.7656H53.6926V17.5137ZM45.8801 16.8203H43.7414V11.4199H45.8801V16.8203ZM51.3098 16.8203H49.1613V11.4199H51.3098V16.8203ZM60.4313 1.37109C61.3036 1.37109 62.0784 1.62826 62.7555 2.14258C63.4391 2.65039 63.9729 3.3763 64.357 4.32031C64.7477 5.25781 64.943 6.35156 64.943 7.60156C64.943 8.85807 64.7477 9.95833 64.357 10.9023C63.9729 11.8398 63.4391 12.5658 62.7555 13.0801C62.0784 13.5944 61.3036 13.8516 60.4313 13.8516C59.5523 13.8516 58.7711 13.5977 58.0875 13.0898C57.4039 12.5755 56.8668 11.8464 56.4762 10.9023C56.0921 9.95833 55.9 8.85807 55.9 7.60156C55.9 6.35156 56.0921 5.25781 56.4762 4.32031C56.8668 3.3763 57.4039 2.65039 58.0875 2.14258C58.7711 1.62826 59.5523 1.37109 60.4313 1.37109ZM60.4313 3.32422C59.9495 3.31771 59.5198 3.48698 59.1422 3.83203C58.7711 4.17708 58.4846 4.67188 58.2828 5.31641C58.081 5.95443 57.9801 6.71615 57.9801 7.60156C57.9801 8.48698 58.081 9.25521 58.2828 9.90625C58.4846 10.5508 58.7711 11.0423 59.1422 11.3809C59.5198 11.7129 59.9495 11.8789 60.4313 11.8789C60.913 11.8789 61.3395 11.7129 61.7105 11.3809C62.0882 11.0423 62.3779 10.5508 62.5797 9.90625C62.7815 9.25521 62.8824 8.48698 62.8824 7.60156C62.8824 6.70964 62.7815 5.94466 62.5797 5.30664C62.3779 4.66211 62.0914 4.17057 61.7203 3.83203C61.3557 3.48698 60.926 3.31771 60.4313 3.32422ZM70.402 17.7676H68.2535V0.0820312H70.402V17.7676ZM69.191 8.33398H64.2789V6.57617H69.191V8.33398ZM86.8281 9.83789H74.4453V8.10938H86.8281V9.83789ZM88.6348 15.6484H72.502V13.8613H88.6348V15.6484ZM81.5938 14.4766H79.4551V8.89062H81.5938V14.4766ZM86.6816 3.13867H76.623V8.90039H74.4453V1.40039H86.6816V3.13867ZM100.96 11.4395H98.8113V8.30469H100.96V11.4395ZM98.616 12.6406H106.292V11.0098H108.421V17.5137H96.4676V11.0098H98.616V12.6406ZM106.292 15.7852V14.3008H98.616V15.7852H106.292ZM108.421 10.2578H106.262V0.101562H108.421V10.2578ZM93.7723 7.61133C96.103 7.61784 98.1733 7.59505 99.9832 7.54297C101.8 7.48438 103.544 7.35091 105.218 7.14258L105.335 8.67578C103.629 8.96875 101.868 9.15755 100.052 9.24219C98.2417 9.32031 96.2365 9.35938 94.0359 9.35938L93.7723 7.61133ZM100.354 1.30273C100.354 2.18164 100.162 2.99219 99.7781 3.73438C99.394 4.47005 98.8309 5.10482 98.0887 5.63867C97.3465 6.16602 96.4513 6.55013 95.4031 6.79102L94.4363 5.11133C95.3217 4.92253 96.077 4.63932 96.702 4.26172C97.3335 3.88411 97.8087 3.44141 98.1277 2.93359C98.4533 2.41927 98.616 1.87565 98.616 1.30273V0.53125H100.354V1.30273ZM100.843 1.30273C100.843 1.83659 101.002 2.3444 101.321 2.82617C101.647 3.30143 102.119 3.7181 102.737 4.07617C103.356 4.42773 104.098 4.69466 104.964 4.87695L104.036 6.50781C103.001 6.28646 102.112 5.92839 101.37 5.43359C100.628 4.9388 100.065 4.33984 99.6805 3.63672C99.2964 2.92708 99.1043 2.14909 99.1043 1.30273V0.53125H100.843V1.30273ZM125.853 17.7188H123.802V0.0820312H125.853V17.7188ZM120.53 8.76367H116.458V7.03516H120.53V8.76367ZM122.113 16.9082H120.062V0.511719H122.113V16.9082ZM118.314 2.24023C118.314 3.93294 118.099 5.48893 117.669 6.9082C117.239 8.32747 116.54 9.63607 115.57 10.834C114.599 12.0254 113.32 13.0833 111.732 14.0078L110.491 12.4648C111.846 11.6641 112.943 10.7754 113.782 9.79883C114.622 8.82227 115.234 7.74805 115.618 6.57617C116.009 5.39779 116.204 4.0957 116.204 2.66992V2.24023H118.314ZM116.937 3.99805H111.39V2.24023H116.937V3.99805ZM137.768 3.10938C137.768 4.20964 137.572 5.24154 137.182 6.20508C136.798 7.16862 136.231 8.01172 135.482 8.73438C134.734 9.45052 133.829 9.98763 132.768 10.3457L131.635 8.59766C132.572 8.29818 133.367 7.86849 134.018 7.30859C134.669 6.74219 135.16 6.10091 135.492 5.38477C135.824 4.66211 135.99 3.90365 135.99 3.10938V1.78125H137.768V3.10938ZM138.188 3.09961C138.188 3.82878 138.344 4.5319 138.656 5.20898C138.975 5.87956 139.451 6.47852 140.082 7.00586C140.714 7.52669 141.482 7.93034 142.387 8.2168L141.293 9.93555C140.251 9.59701 139.363 9.08919 138.627 8.41211C137.891 7.72852 137.335 6.93099 136.957 6.01953C136.579 5.10156 136.391 4.12826 136.391 3.09961V1.78125H138.188V3.09961ZM141.83 2.93359H132.26V1.19531H141.83V2.93359ZM145.805 10.3652H143.637V0.0820312H145.805V10.3652ZM148.275 6H145.189V4.21289H148.275V6ZM145.805 17.5137H134.408V11.1074H145.805V17.5137ZM136.557 15.7656H143.656V12.8262H136.557V15.7656ZM164.877 8.86133H148.774V7.15234H164.877V8.86133ZM162.954 6.01953H150.815V4.29102H162.954V6.01953ZM162.807 2.25H152.993V5.73633H150.815V0.53125H162.807V2.25ZM162.856 14.5156H152.817V16.3223H150.668V12.9531H160.707V11.7324H150.659V10.082H162.856V14.5156ZM163.334 17.5625H150.668V15.8535H163.334V17.5625ZM171.87 5.08203C171.87 6.41016 171.662 7.69271 171.245 8.92969C170.835 10.1602 170.249 11.2572 169.487 12.2207C168.725 13.1777 167.837 13.8971 166.821 14.3789L165.561 12.6699C166.466 12.2467 167.264 11.6315 167.954 10.8242C168.644 10.0169 169.175 9.11523 169.546 8.11914C169.917 7.11654 170.102 6.10417 170.102 5.08203V2.75781H171.87V5.08203ZM172.309 5.08203C172.309 6.0651 172.492 7.02865 172.856 7.97266C173.227 8.91667 173.755 9.76628 174.438 10.5215C175.128 11.2702 175.932 11.8398 176.85 12.2305L175.669 13.9395C174.627 13.4772 173.722 12.7969 172.954 11.8984C172.186 11 171.6 9.96484 171.196 8.79297C170.792 7.61458 170.591 6.3776 170.591 5.08203V2.75781H172.309V5.08203ZM176.177 3.60742H166.225V1.83008H176.177V3.60742ZM180.337 17.7188H178.139V0.0820312H180.337V17.7188ZM198.657 9.7207H182.525V8.08984H198.657V9.7207ZM196.704 14.7988H186.577V16.5371H184.4V13.4023H194.546V12.3184H184.39V10.7754H196.704V14.7988ZM197.232 17.543H184.4V16.0391H197.232V17.543ZM196.665 4.45703H186.724V6.08789H184.566V3.05078H194.478V1.97656H184.517V0.472656H196.665V4.45703ZM196.968 7.09375H184.566V5.60938H196.968V7.09375ZM217.838 6.83984H205.816V0.804688H217.838V6.83984ZM207.936 5.12109H215.689V2.50391H207.936V5.12109ZM219.869 10.3359H203.795V8.58789H219.869V10.3359ZM212.896 9.23242H210.758V6.41016H212.896V9.23242ZM212.594 11.6934C212.594 12.7155 212.311 13.6367 211.744 14.457C211.178 15.2773 210.377 15.9577 209.342 16.498C208.307 17.0449 207.096 17.4225 205.709 17.6309L204.918 15.9414C206.109 15.7852 207.141 15.502 208.014 15.0918C208.886 14.6751 209.553 14.1738 210.016 13.5879C210.484 13.002 210.719 12.3704 210.719 11.6934V11.2246H212.594V11.6934ZM212.906 11.6934C212.906 12.3704 213.137 13.002 213.6 13.5879C214.068 14.1738 214.742 14.6751 215.621 15.0918C216.507 15.502 217.545 15.7852 218.736 15.9414L217.916 17.6309C216.536 17.4225 215.328 17.0449 214.293 16.498C213.258 15.9577 212.46 15.2773 211.9 14.457C211.34 13.6367 211.061 12.7155 211.061 11.6934V11.2246H212.906V11.6934ZM233.639 4.63281H225.007V2.89453H233.639V4.63281ZM229.343 5.56055C230.091 5.56055 230.755 5.73633 231.335 6.08789C231.921 6.43294 232.38 6.91797 232.712 7.54297C233.044 8.16797 233.21 8.88086 233.21 9.68164C233.21 10.4824 233.044 11.1986 232.712 11.8301C232.38 12.4551 231.921 12.9466 231.335 13.3047C230.755 13.6628 230.091 13.8418 229.343 13.8418C228.607 13.8418 227.946 13.6628 227.36 13.3047C226.781 12.9466 226.325 12.4518 225.993 11.8203C225.661 11.1888 225.495 10.4759 225.495 9.68164C225.495 8.89388 225.661 8.18424 225.993 7.55273C226.325 6.92122 226.781 6.43294 227.36 6.08789C227.946 5.73633 228.607 5.56055 229.343 5.56055ZM229.343 7.36719C228.971 7.36068 228.639 7.45508 228.346 7.65039C228.054 7.8457 227.826 8.11914 227.663 8.4707C227.5 8.81576 227.419 9.2194 227.419 9.68164C227.419 10.1439 227.5 10.5508 227.663 10.9023C227.832 11.2539 228.06 11.5208 228.346 11.7031C228.639 11.8854 228.971 11.9766 229.343 11.9766C229.72 11.9766 230.055 11.8854 230.348 11.7031C230.641 11.5208 230.873 11.2539 231.042 10.9023C231.211 10.5508 231.296 10.1439 231.296 9.68164C231.296 9.2194 231.211 8.81576 231.042 8.4707C230.873 8.11914 230.641 7.8457 230.348 7.65039C230.055 7.45508 229.72 7.36068 229.343 7.36719ZM240.212 17.7188H238.141V0.0820312H240.212V17.7188ZM238.825 9.0957H235.729V7.34766H238.825V9.0957ZM236.423 16.9277H234.382V0.462891H236.423V16.9277ZM230.417 3.97852H228.278V0.589844H230.417V3.97852ZM258.064 7.71875H242.029V5.96094H258.064V7.71875ZM251.13 15.0625H248.962V7.21094H251.13V15.0625Z" fill="white"/>
</svg>
