<svg width="161" height="19" viewBox="0 0 161 19" fill="none" xmlns="http://www.w3.org/2000/svg">
<path d="M6.98242 5.62305C6.98242 7.0944 6.79362 8.48112 6.41602 9.7832C6.04492 11.0853 5.47852 12.2409 4.7168 13.25C3.95508 14.2526 3.01107 15.0111 1.88477 15.5254L0.292969 13.3086C1.28906 12.8659 2.11589 12.2409 2.77344 11.4336C3.4375 10.6198 3.92578 9.71484 4.23828 8.71875C4.55078 7.71615 4.70703 6.68424 4.70703 5.62305V3.82617H6.98242V5.62305ZM7.57812 5.62305C7.57812 6.63216 7.73112 7.60872 8.03711 8.55273C8.34961 9.49023 8.83138 10.3431 9.48242 11.1113C10.14 11.873 10.9668 12.459 11.9629 12.8691L10.4492 15.0664C9.29688 14.5781 8.33984 13.8555 7.57812 12.8984C6.82292 11.9414 6.26628 10.8444 5.9082 9.60742C5.55013 8.37044 5.37109 7.04232 5.37109 5.62305V3.82617H7.57812V5.62305ZM11.1719 4.92969H1.04492V2.64453H11.1719V4.92969ZM15.5371 18.8652H12.6758V0.935547H15.5371V18.8652ZM30.5863 5.54492H25.3031V3.2793H30.5863V5.54492ZM30.5863 9.38281H25.3031V7.15625H30.5863V9.38281ZM32.5297 18.8652H29.7367V14.5098H20.1371V12.293H32.5297V18.8652ZM32.5297 11.5605H29.7367V0.935547H32.5297V11.5605ZM22.3734 1.89258C23.2589 1.87956 24.0661 2.0651 24.7953 2.44922C25.5245 2.82682 26.0974 3.35417 26.5141 4.03125C26.9372 4.70833 27.1488 5.4668 27.1488 6.30664C27.1488 7.16602 26.9372 7.9375 26.5141 8.62109C26.0974 9.29818 25.5245 9.83203 24.7953 10.2227C24.0661 10.6133 23.2589 10.8086 22.3734 10.8086C21.475 10.8086 20.6579 10.6133 19.9223 10.2227C19.1931 9.83203 18.6169 9.29818 18.1938 8.62109C17.7771 7.9375 17.5688 7.16602 17.5688 6.30664C17.5688 5.4668 17.7771 4.70833 18.1938 4.03125C18.6169 3.35417 19.1931 2.82682 19.9223 2.44922C20.6579 2.0651 21.475 1.87956 22.3734 1.89258ZM22.3734 4.25586C21.9568 4.25586 21.5857 4.33724 21.2602 4.5C20.9346 4.65625 20.6807 4.88737 20.4984 5.19336C20.3161 5.49935 20.225 5.87044 20.225 6.30664C20.225 6.74935 20.3161 7.13346 20.4984 7.45898C20.6807 7.78451 20.9346 8.02865 21.2602 8.19141C21.5857 8.34766 21.9568 8.42578 22.3734 8.42578C22.7641 8.42578 23.1189 8.3444 23.4379 8.18164C23.7634 8.01237 24.0141 7.76823 24.1898 7.44922C24.3721 7.13021 24.4633 6.74935 24.4633 6.30664C24.4633 5.88346 24.3721 5.51562 24.1898 5.20312C24.0141 4.89062 23.7634 4.65625 23.4379 4.5C23.1189 4.33724 22.7641 4.25586 22.3734 4.25586ZM47.2469 5.22266H42.9988V3.14258H47.2469V5.22266ZM47.2469 8.48438H42.9988V6.375H47.2469V8.48438ZM49.4051 10.125H46.6219V0.935547H49.4051V10.125ZM49.4051 15.6914H40.2352V17.8496H37.4031V13.6504H46.6219V12.8691H37.3934V10.7305H49.4051V15.6914ZM49.8934 18.6895H37.4031V16.4824H49.8934V18.6895ZM37.7938 3.64062H40.8309V1.6875H43.6238V9.68555H34.952V1.6875H37.7938V3.64062ZM40.8309 7.48828V5.73047H37.7938V7.48828H40.8309Z" fill="#3D5684"/>
<path d="M64.7672 12.0586H61.9449V9.58789H64.7672V12.0586ZM60.0406 2.30273H66.691V1.21875H69.484V7.24414H57.277V1.21875H60.0406V2.30273ZM66.691 5.18359V4.31445H60.0406V5.18359H66.691ZM71.5641 10.2715H55.2262V8.01562H71.5641V10.2715ZM69.6109 15.8867H59.8453V17.3809H57.0816V13.9727H66.818V13.2305H57.0816V11.1895H69.6109V15.8867ZM70.0504 18.7676H57.0816V16.6777H70.0504V18.7676ZM85.2461 5.91602H80.8516V3.65039H85.2461V5.91602ZM85.3242 9.74414H80.8516V7.52734H85.3242V9.74414ZM81.418 11.2188H72.8145V2.37109H81.418V11.2188ZM75.6074 9.04102H78.6641V4.58789H75.6074V9.04102ZM87.2773 13.9922H84.4844V0.974609H87.2773V13.9922ZM87.6484 18.5918H75.2363V16.3359H87.6484V18.5918ZM78.0879 17.5371H75.2363V12.7324H78.0879V17.5371ZM105.334 11.3652H88.9965V9.12891H105.334V11.3652ZM97.1312 12.1855C98.4268 12.1855 99.5466 12.3158 100.491 12.5762C101.435 12.8366 102.154 13.2207 102.649 13.7285C103.144 14.2298 103.391 14.832 103.391 15.5352C103.391 16.2383 103.144 16.8405 102.649 17.3418C102.154 17.8496 101.435 18.2337 100.491 18.4941C99.5531 18.7546 98.4333 18.8848 97.1312 18.8848C95.8292 18.8848 94.7029 18.7546 93.7523 18.4941C92.8083 18.2337 92.0824 17.8496 91.5746 17.3418C91.0733 16.8405 90.8227 16.2383 90.8227 15.5352C90.8227 14.832 91.0766 14.2298 91.5844 13.7285C92.0922 13.2207 92.8181 12.8366 93.7621 12.5762C94.7126 12.3158 95.8357 12.1855 97.1312 12.1855ZM97.1312 14.3535C96.337 14.3535 95.6859 14.3958 95.1781 14.4805C94.6768 14.5586 94.3025 14.6855 94.0551 14.8613C93.8077 15.0371 93.684 15.2617 93.684 15.5352C93.684 15.8086 93.8077 16.0332 94.0551 16.209C94.3025 16.3783 94.6736 16.5052 95.1684 16.5898C95.6697 16.668 96.324 16.707 97.1312 16.707C97.919 16.707 98.5635 16.668 99.0648 16.5898C99.5661 16.5052 99.9405 16.3783 100.188 16.209C100.435 16.0332 100.559 15.8086 100.559 15.5352C100.559 15.2617 100.435 15.0371 100.188 14.8613C99.9405 14.6855 99.5661 14.5586 99.0648 14.4805C98.5635 14.3958 97.919 14.3535 97.1312 14.3535ZM97.6781 3.25977C97.6781 4.17122 97.421 5.00456 96.9066 5.75977C96.3988 6.50846 95.6111 7.13346 94.5434 7.63477C93.4756 8.13607 92.1475 8.45508 90.559 8.5918L89.6508 6.4043C90.9333 6.28711 91.9913 6.0625 92.8246 5.73047C93.6579 5.39844 94.2634 5.01758 94.641 4.58789C95.0186 4.1582 95.2074 3.71549 95.2074 3.25977V2.81055H97.6781V3.25977ZM99.0844 3.25977C99.0844 3.71549 99.2699 4.1582 99.641 4.58789C100.019 5.01758 100.627 5.39844 101.467 5.73047C102.307 6.0625 103.388 6.28711 104.709 6.4043L103.733 8.5918C102.157 8.45508 100.832 8.13607 99.7582 7.63477C98.6905 7.13346 97.8897 6.50846 97.3559 5.75977C96.8285 5.00456 96.5648 4.17122 96.5648 3.25977V2.81055H99.0844V3.25977ZM103.86 3.99219H90.4711V1.74609H103.86V3.99219ZM124.398 14.9297H121.575V0.935547H124.398V14.9297ZM126.575 9.01172H123.431V6.70703H126.575V9.01172ZM124.993 18.5918H112.191V16.3359H124.993V18.5918ZM115.023 16.9902H112.191V14.0117H115.023V16.9902ZM116.722 12.1855H113.909V9.49023H116.722V12.1855ZM109.739 11.1406C111.79 11.1406 113.743 11.1016 115.599 11.0234C117.461 10.9388 119.209 10.7793 120.843 10.5449L121.038 12.459C119.892 12.6803 118.682 12.8496 117.405 12.9668C116.136 13.084 114.98 13.1589 113.939 13.1914C112.904 13.224 111.595 13.2565 110.013 13.2891L109.739 11.1406ZM120.413 4.31445H110.198V2.30273H120.413V4.31445ZM115.306 4.70508C116.191 4.70508 116.969 4.81576 117.64 5.03711C118.317 5.25846 118.838 5.58073 119.202 6.00391C119.573 6.42708 119.759 6.9349 119.759 7.52734C119.759 8.08073 119.573 8.5625 119.202 8.97266C118.838 9.38281 118.317 9.70182 117.64 9.92969C116.969 10.151 116.191 10.2617 115.306 10.2617C114.42 10.2617 113.639 10.151 112.962 9.92969C112.285 9.70182 111.761 9.38281 111.39 8.97266C111.025 8.5625 110.843 8.08073 110.843 7.52734C110.843 6.9349 111.025 6.43034 111.39 6.01367C111.761 5.59049 112.282 5.26823 112.952 5.04688C113.623 4.81901 114.407 4.70508 115.306 4.70508ZM115.306 6.56055C114.922 6.56055 114.596 6.5931 114.329 6.6582C114.069 6.72331 113.87 6.82747 113.734 6.9707C113.597 7.11393 113.529 7.29948 113.529 7.52734C113.529 7.70964 113.597 7.86914 113.734 8.00586C113.87 8.13607 114.069 8.23372 114.329 8.29883C114.596 8.36393 114.922 8.39648 115.306 8.39648C115.69 8.39648 116.009 8.36393 116.263 8.29883C116.523 8.23372 116.719 8.13607 116.849 8.00586C116.986 7.86914 117.054 7.70964 117.054 7.52734C117.054 7.29948 116.989 7.11393 116.859 6.9707C116.728 6.82747 116.533 6.72331 116.273 6.6582C116.012 6.5931 115.69 6.56055 115.306 6.56055ZM116.722 3.19141H113.909V0.886719H116.722V3.19141ZM133.041 5.62305C133.041 7.04883 132.855 8.41927 132.484 9.73438C132.119 11.0495 131.56 12.2181 130.804 13.2402C130.049 14.2559 129.121 15.0176 128.021 15.5254L126.39 13.3086C127.393 12.8464 128.22 12.2051 128.871 11.3848C129.528 10.5579 130.017 9.65299 130.336 8.66992C130.655 7.68034 130.814 6.66471 130.814 5.62305V3.82617H133.041V5.62305ZM133.636 5.62305C133.636 6.57357 133.789 7.51432 134.095 8.44531C134.401 9.3763 134.877 10.2324 135.521 11.0137C136.166 11.7949 136.973 12.4134 137.943 12.8691L136.39 15.0664C135.296 14.5716 134.379 13.8359 133.636 12.8594C132.894 11.8763 132.338 10.763 131.966 9.51953C131.602 8.26953 131.42 6.9707 131.42 5.62305V3.82617H133.636V5.62305ZM137.123 4.92969H127.132V2.64453H137.123V4.92969ZM141.068 18.8652H138.246V0.935547H141.068V18.8652ZM143.607 9.99805H140.453V7.66406H143.607V9.99805ZM152.904 2.26367C152.904 3.42904 152.618 4.51302 152.045 5.51562C151.479 6.51172 150.629 7.35482 149.496 8.04492C148.37 8.72852 147.003 9.18424 145.395 9.41211L144.301 7.16602C145.668 7.00326 146.814 6.66146 147.738 6.14062C148.669 5.61979 149.35 5.02083 149.779 4.34375C150.215 3.66667 150.434 2.97331 150.434 2.26367V1.44336H152.904V2.26367ZM153.402 2.26367C153.402 2.97982 153.62 3.67969 154.057 4.36328C154.499 5.04036 155.183 5.63607 156.107 6.15039C157.038 6.66471 158.191 7.00326 159.564 7.16602L158.49 9.41211C156.876 9.18424 155.502 8.72852 154.369 8.04492C153.236 7.36133 152.38 6.52148 151.801 5.52539C151.228 4.52279 150.941 3.43555 150.941 2.26367V1.44336H153.402V2.26367ZM153.246 18.8652H150.463V12.3613H153.246V18.8652ZM160.082 12.8691H143.744V10.5742H160.082V12.8691Z" fill="black"/>
</svg>
