<svg width="381" height="114" viewBox="0 0 381 114" fill="none" xmlns="http://www.w3.org/2000/svg">
<path d="M9.33281 12.582C8.94218 12.582 8.5776 12.4811 8.23906 12.2793C7.90703 12.0775 7.6401 11.8073 7.43828 11.4688C7.23646 11.1302 7.13554 10.7591 7.13554 10.3555C7.13554 9.95182 7.23646 9.58073 7.43828 9.24219C7.6401 8.90365 7.90703 8.63672 8.23906 8.44141C8.5776 8.24609 8.94218 8.14844 9.33281 8.14844C9.73646 8.14844 10.1108 8.24609 10.4559 8.44141C10.8009 8.63672 11.0711 8.90365 11.2664 9.24219C11.4617 9.58073 11.5594 9.95182 11.5594 10.3555C11.5594 10.7591 11.4617 11.1302 11.2664 11.4688C11.0711 11.8073 10.8009 12.0775 10.4559 12.2793C10.1108 12.4811 9.73646 12.582 9.33281 12.582ZM31.2371 3.70508C31.2371 4.71419 31.0288 5.66146 30.6121 6.54688C30.202 7.43229 29.6193 8.19727 28.8641 8.8418C28.1089 9.48633 27.2267 9.9681 26.2176 10.2871L25.3387 8.86133C26.2241 8.57487 26.9956 8.17122 27.6531 7.65039C28.3107 7.12305 28.8152 6.52083 29.1668 5.84375C29.5249 5.16016 29.7039 4.44727 29.7039 3.70508V2.97266H31.2371V3.70508ZM31.5496 3.70508C31.5496 4.39518 31.7319 5.05924 32.0965 5.69727C32.4611 6.33529 32.9754 6.89844 33.6395 7.38672C34.31 7.86849 35.0913 8.23307 35.9832 8.48047L35.1141 9.93555C34.0919 9.63607 33.1967 9.18359 32.4285 8.57812C31.6668 7.97266 31.0776 7.25 30.6609 6.41016C30.2508 5.5638 30.0457 4.66211 30.0457 3.70508V2.97266H31.5496V3.70508ZM35.4266 3.59766H25.827V2.12305H35.4266V3.59766ZM31.5691 2.80664H29.7039V0.0820312H31.5691V2.80664ZM39.5574 10.502H37.7117V0.169922H39.5574V10.502ZM39.5574 17.4355H28.0633V11.3418H39.5574V17.4355ZM29.8895 15.9316H37.741V12.8359H29.8895V15.9316ZM60.9059 17.6504H59.0504V0.150391H60.9059V17.6504ZM52.6637 5.78516C52.6637 7.00911 52.4553 8.19076 52.0387 9.33008C51.6285 10.4694 51.0426 11.472 50.2809 12.3379C49.5256 13.2038 48.663 13.8613 47.693 14.3105L46.6773 12.875C47.5628 12.4779 48.344 11.9082 49.0211 11.166C49.7047 10.4238 50.232 9.58398 50.6031 8.64648C50.9807 7.70898 51.1695 6.75521 51.1695 5.78516V4.4082H52.6637V5.78516ZM52.9957 5.78516C52.9957 6.71615 53.1878 7.63086 53.5719 8.5293C53.9625 9.42773 54.5029 10.2318 55.193 10.9414C55.8896 11.651 56.6839 12.1979 57.5758 12.582L56.5504 14.0078C55.5738 13.5846 54.7047 12.9564 53.943 12.123C53.1812 11.2832 52.5888 10.3132 52.1656 9.21289C51.7424 8.11263 51.5309 6.97005 51.5309 5.78516V4.4082H52.9957V5.78516ZM56.9312 4.63281H47.1852V3.13867H56.9312V4.63281ZM52.9957 3.94922H51.15V0.501953H52.9957V3.94922ZM73.9633 14.6621H72.1469V10.3848H73.9633V14.6621ZM79.598 14.6328H77.7816V10.3555H79.598V14.6328ZM83.7973 15.5605H67.7816V14.0273H83.7973V15.5605ZM81.8344 6.85938H71.5805V10.2188H69.7348V5.35547H80.0082V2.91406H69.7055V1.40039H81.8344V6.85938ZM82.2445 10.9121H69.7348V9.39844H82.2445V10.9121ZM98.8465 6.75195H86.7664V5.28711H98.8465V6.75195ZM100.663 10.4531H84.6473V8.96875H100.663V10.4531ZM88.6121 6.0293H86.7664V0.794922H88.6121V6.0293ZM98.9441 17.2402H86.6492V15.7168H98.9441V17.2402ZM88.5047 16.1562H86.6492V12.123H88.5047V16.1562ZM120.048 17.4355H107.949V11.6055H120.048V17.4355ZM109.785 15.9316H118.232V13.0898H109.785V15.9316ZM119.961 6.74219H108.076V0.785156H119.961V6.74219ZM109.892 5.25781H118.134V2.2793H109.892V5.25781ZM121.992 10.0527H106.035V8.53906H121.992V10.0527ZM114.931 9.17383H113.076V6.38086H114.931V9.17383ZM128.633 1.39062C129.551 1.39062 130.368 1.56966 131.084 1.92773C131.8 2.2793 132.36 2.77409 132.764 3.41211C133.174 4.04362 133.379 4.76302 133.379 5.57031C133.379 6.3776 133.174 7.10026 132.764 7.73828C132.36 8.36979 131.8 8.86458 131.084 9.22266C130.368 9.57422 129.551 9.75 128.633 9.75C127.721 9.75 126.901 9.57422 126.172 9.22266C125.443 8.86458 124.873 8.36979 124.463 7.73828C124.059 7.10026 123.857 6.3776 123.857 5.57031C123.857 4.76302 124.059 4.04362 124.463 3.41211C124.873 2.77409 125.443 2.2793 126.172 1.92773C126.901 1.56966 127.721 1.39062 128.633 1.39062ZM128.633 3.01172C128.066 3.01172 127.559 3.11589 127.109 3.32422C126.667 3.53255 126.318 3.83203 126.064 4.22266C125.811 4.61328 125.684 5.0625 125.684 5.57031C125.684 6.07812 125.811 6.52409 126.064 6.9082C126.318 7.29232 126.667 7.5918 127.109 7.80664C127.559 8.02148 128.066 8.12891 128.633 8.12891C129.199 8.12891 129.704 8.02148 130.146 7.80664C130.596 7.5918 130.944 7.29232 131.191 6.9082C131.445 6.52409 131.572 6.07812 131.572 5.57031C131.572 5.0625 131.445 4.61328 131.191 4.22266C130.944 3.83203 130.596 3.53255 130.146 3.32422C129.704 3.11589 129.199 3.01172 128.633 3.01172ZM137.393 17.6992H135.547V0.150391H137.393V17.6992ZM123.008 12.3867C124.453 12.3802 125.762 12.3639 126.934 12.3379C128.112 12.3118 129.362 12.2598 130.684 12.1816C132.012 12.097 133.265 11.9701 134.443 11.8008L134.58 13.1582C133.363 13.3796 132.096 13.5488 130.781 13.666C129.473 13.7767 128.242 13.8483 127.09 13.8809C125.938 13.9134 124.658 13.9297 123.252 13.9297L123.008 12.3867ZM154.639 8.37305H151.417V6.85938H154.639V8.37305ZM159.346 17.6504H157.559V0.150391H159.346V17.6504ZM155.782 16.791H154.024V0.482422H155.782V16.791ZM148.262 1.54688C149.024 1.54688 149.692 1.79753 150.264 2.29883C150.837 2.79362 151.28 3.50651 151.593 4.4375C151.912 5.36849 152.071 6.46224 152.071 7.71875C152.071 8.96224 151.912 10.0495 151.593 10.9805C151.28 11.9115 150.837 12.6309 150.264 13.1387C149.692 13.64 149.024 13.8939 148.262 13.9004C147.507 13.8939 146.843 13.64 146.27 13.1387C145.697 12.6309 145.255 11.9115 144.942 10.9805C144.636 10.0495 144.483 8.96224 144.483 7.71875C144.483 6.46224 144.636 5.36849 144.942 4.4375C145.255 3.50651 145.697 2.79362 146.27 2.29883C146.843 1.79753 147.507 1.54688 148.262 1.54688ZM148.262 3.30469C147.833 3.29818 147.465 3.4707 147.159 3.82227C146.853 4.17383 146.619 4.68164 146.456 5.3457C146.293 6.00326 146.212 6.79427 146.212 7.71875C146.212 8.63021 146.293 9.41797 146.456 10.082C146.619 10.7461 146.856 11.2539 147.169 11.6055C147.481 11.9505 147.846 12.123 148.262 12.123C148.686 12.123 149.054 11.9505 149.366 11.6055C149.679 11.2539 149.919 10.7461 150.089 10.082C150.258 9.41797 150.343 8.63021 150.343 7.71875C150.343 6.79427 150.258 6.00326 150.089 5.3457C149.919 4.68164 149.679 4.17383 149.366 3.82227C149.054 3.4707 148.686 3.29818 148.262 3.30469ZM175.792 17.6992H173.927V0.150391H175.792V17.6992ZM174.513 7.33789H168.702V5.81445H174.513V7.33789ZM163.976 12.9531H162.12V2.08398H163.976V12.9531ZM163.497 11.9375C164.975 11.931 166.342 11.8757 167.599 11.7715C168.855 11.6608 170.118 11.4818 171.388 11.2344L171.603 12.7578C170.281 13.0247 168.976 13.2135 167.687 13.3242C166.398 13.4349 165.001 13.4902 163.497 13.4902H162.12V11.9375H163.497ZM184.142 5.31641C184.142 6.57292 183.924 7.80339 183.488 9.00781C183.052 10.2057 182.453 11.2734 181.691 12.2109C180.929 13.1419 180.067 13.8418 179.103 14.3105L178.009 12.8555C178.875 12.4388 179.66 11.8301 180.363 11.0293C181.066 10.222 181.616 9.32031 182.013 8.32422C182.417 7.32161 182.619 6.31901 182.619 5.31641V2.71875H184.142V5.31641ZM184.494 5.31641C184.494 6.27995 184.689 7.23698 185.08 8.1875C185.477 9.13802 186.027 9.98438 186.73 10.7266C187.44 11.4688 188.237 12.0319 189.123 12.416L188.097 13.8711C187.108 13.4284 186.226 12.7708 185.451 11.8984C184.683 11.026 184.084 10.0202 183.654 8.88086C183.231 7.74154 183.019 6.55339 183.019 5.31641V2.71875H184.494V5.31641ZM188.498 3.45117H178.625V1.92773H188.498V3.45117ZM192.56 17.6504H190.695V0.150391H192.56V17.6504ZM214.592 4.24219H200.178V2.73828H214.592V4.24219ZM215.442 15.5996H199.426V14.0859H215.442V15.5996ZM207.395 5.27734C208.573 5.26432 209.602 5.39779 210.481 5.67773C211.36 5.95768 212.034 6.35807 212.502 6.87891C212.978 7.39974 213.215 8.02474 213.215 8.75391C213.215 9.47005 212.978 10.0918 212.502 10.6191C212.034 11.14 211.36 11.5404 210.481 11.8203C209.602 12.1003 208.573 12.2402 207.395 12.2402C206.204 12.2402 205.168 12.1003 204.289 11.8203C203.411 11.5404 202.737 11.14 202.268 10.6191C201.799 10.0918 201.565 9.47005 201.565 8.75391C201.565 8.02474 201.799 7.39974 202.268 6.87891C202.737 6.35807 203.411 5.95768 204.289 5.67773C205.168 5.39779 206.204 5.26432 207.395 5.27734ZM207.395 6.76172C206.575 6.75521 205.865 6.83333 205.266 6.99609C204.674 7.15234 204.218 7.38346 203.899 7.68945C203.586 7.98893 203.43 8.34375 203.43 8.75391C203.43 9.16406 203.586 9.51888 203.899 9.81836C204.218 10.1178 204.674 10.349 205.266 10.5117C205.865 10.668 206.575 10.7461 207.395 10.7461C208.209 10.7461 208.912 10.668 209.504 10.5117C210.097 10.349 210.546 10.1178 210.852 9.81836C211.164 9.51888 211.321 9.16406 211.321 8.75391C211.321 8.34375 211.164 7.98893 210.852 7.68945C210.546 7.38346 210.097 7.15234 209.504 6.99609C208.912 6.83333 208.209 6.75521 207.395 6.76172ZM208.303 3.62695H206.477V0.462891H208.303V3.62695ZM232.307 10.6191H216.292V9.125H232.307V10.6191ZM230.286 4.86719H220.188V7.05469H218.352V3.5H228.43V2.01562H218.304V0.550781H230.286V4.86719ZM230.647 7.79688H218.352V6.37109H230.647V7.79688ZM230.315 17.4355H218.43V12.0449H230.315V17.4355ZM220.247 15.9316H228.489V13.5391H220.247V15.9316ZM241.175 0.443359C242.49 0.443359 243.613 0.560547 244.544 0.794922C245.475 1.02279 246.185 1.36133 246.673 1.81055C247.168 2.25977 247.415 2.80339 247.415 3.44141C247.415 4.09245 247.168 4.64583 246.673 5.10156C246.185 5.55078 245.475 5.89258 244.544 6.12695C243.613 6.36133 242.49 6.48503 241.175 6.49805C239.86 6.48503 238.734 6.36133 237.796 6.12695C236.865 5.89258 236.149 5.55078 235.648 5.10156C235.153 4.64583 234.905 4.09245 234.905 3.44141C234.905 2.80339 235.153 2.25977 235.648 1.81055C236.149 1.36133 236.865 1.02279 237.796 0.794922C238.734 0.560547 239.86 0.443359 241.175 0.443359ZM241.175 1.82031C240.251 1.82031 239.463 1.88216 238.812 2.00586C238.167 2.12956 237.679 2.3151 237.347 2.5625C237.015 2.8099 236.849 3.10286 236.849 3.44141C236.849 3.8125 237.012 4.12174 237.337 4.36914C237.663 4.61003 238.148 4.79232 238.792 4.91602C239.437 5.03971 240.231 5.10156 241.175 5.10156C242.119 5.10156 242.913 5.03971 243.558 4.91602C244.202 4.79232 244.687 4.60677 245.013 4.35938C245.345 4.10547 245.511 3.79948 245.511 3.44141C245.511 3.10286 245.342 2.81315 245.003 2.57227C244.671 2.33138 244.18 2.14583 243.529 2.01562C242.884 1.88542 242.099 1.82031 241.175 1.82031ZM249.154 9.04688H233.196V7.5625H249.154V9.04688ZM247.132 14.4961H236.956V16.4395H235.13V13.1582H245.316V11.7812H235.101V10.3945H247.132V14.4961ZM247.64 17.4844H235.13V16.0488H247.64V17.4844ZM270.58 15.4824H254.564V13.9492H270.58V15.4824ZM263.5 14.4375H261.635V9.81836H263.5V14.4375ZM263.158 3.34375C263.158 4.51562 262.833 5.59961 262.182 6.5957C261.537 7.58529 260.671 8.41536 259.584 9.08594C258.497 9.75651 257.322 10.222 256.059 10.4824L255.307 8.99805C256.394 8.80924 257.419 8.4349 258.383 7.875C259.346 7.3151 260.118 6.63802 260.697 5.84375C261.283 5.04297 261.576 4.20964 261.576 3.34375V2.41602H263.158V3.34375ZM263.51 3.34375C263.51 4.22266 263.803 5.05599 264.389 5.84375C264.981 6.625 265.766 7.29232 266.742 7.8457C267.725 8.39258 268.77 8.75391 269.877 8.92969L269.135 10.3945C267.852 10.1471 266.664 9.69792 265.57 9.04688C264.477 8.38932 263.601 7.56901 262.943 6.58594C262.292 5.59635 261.967 4.51562 261.967 3.34375V2.41602H263.51V3.34375ZM269.203 3.1875H255.883V1.6543H269.203V3.1875ZM285.385 5.46289H280.922V3.95898H285.385V5.46289ZM277.328 2.77734C277.328 3.7474 277.123 4.67839 276.713 5.57031C276.31 6.46224 275.73 7.24349 274.975 7.91406C274.226 8.57812 273.357 9.07943 272.368 9.41797L271.45 7.96289C272.322 7.66341 273.087 7.24349 273.745 6.70312C274.402 6.15625 274.91 5.54102 275.268 4.85742C275.626 4.17383 275.805 3.48047 275.805 2.77734V1.63477H277.328V2.77734ZM277.67 2.79688C277.67 3.45443 277.84 4.09896 278.178 4.73047C278.523 5.35547 279.011 5.91536 279.643 6.41016C280.281 6.90495 281.02 7.28906 281.86 7.5625L280.961 9.01758C279.985 8.70508 279.132 8.23633 278.403 7.61133C277.68 6.98633 277.123 6.26042 276.733 5.43359C276.342 4.60026 276.147 3.72135 276.147 2.79688V1.63477H277.67V2.79688ZM281.44 2.50391H271.987V0.990234H281.44V2.50391ZM286.02 9.1543H284.184V0.150391H286.02V9.1543ZM286.02 14.3398H276.469V16.918H274.614V12.9434H284.184V11.4492H274.584V9.95508H286.02V14.3398ZM286.645 17.4648H274.614V16H286.645V17.4648ZM301.968 17.6504H300.132V0.150391H301.968V17.6504ZM304.79 8.7832H301.548V7.25H304.79V8.7832ZM298.608 4.4082H288.237V2.89453H298.608V4.4082ZM293.501 5.70703C294.334 5.70703 295.08 5.87956 295.737 6.22461C296.401 6.56966 296.919 7.05143 297.29 7.66992C297.667 8.28841 297.856 8.98828 297.856 9.76953C297.856 10.5573 297.667 11.2604 297.29 11.8789C296.919 12.4974 296.401 12.9792 295.737 13.3242C295.08 13.6693 294.334 13.8418 293.501 13.8418C292.661 13.8418 291.912 13.6693 291.255 13.3242C290.597 12.9792 290.08 12.4974 289.702 11.8789C289.331 11.2604 289.145 10.5573 289.145 9.76953C289.145 8.98828 289.331 8.28841 289.702 7.66992C290.08 7.05143 290.597 6.56966 291.255 6.22461C291.912 5.87956 292.661 5.70703 293.501 5.70703ZM293.501 7.24023C293.006 7.24023 292.563 7.34766 292.173 7.5625C291.782 7.77083 291.473 8.06706 291.245 8.45117C291.024 8.83529 290.913 9.27474 290.913 9.76953C290.913 10.2708 291.024 10.7103 291.245 11.0879C291.473 11.4655 291.782 11.7617 292.173 11.9766C292.563 12.1849 293.006 12.2891 293.501 12.2891C293.996 12.2891 294.438 12.1849 294.829 11.9766C295.22 11.7617 295.526 11.4655 295.747 11.0879C295.968 10.7103 296.079 10.2708 296.079 9.76953C296.079 9.27474 295.968 8.83529 295.747 8.45117C295.526 8.06706 295.22 7.77083 294.829 7.5625C294.438 7.34766 293.996 7.24023 293.501 7.24023ZM294.409 3.53906H292.563V0.384766H294.409V3.53906ZM318.218 3.34375H306.9V1.83984H318.218V3.34375ZM321.177 15.2871H305.22V13.7637H321.177V15.2871ZM313.12 14.5547H311.294V7.5918H313.12V14.5547ZM319.38 3.55859C319.38 4.59375 319.367 5.46289 319.341 6.16602C319.315 6.86263 319.256 7.68945 319.165 8.64648C319.074 9.59701 318.928 10.6257 318.726 11.7324L316.841 11.5273C317.056 10.4792 317.212 9.48958 317.31 8.55859C317.407 7.6276 317.466 6.80404 317.486 6.08789C317.512 5.36523 317.525 4.52214 317.525 3.55859V1.83984H319.38V3.55859ZM341.08 12.8848H339.215V0.169922H341.08V12.8848ZM335.992 1.47852C335.992 2.98893 335.657 4.36914 334.986 5.61914C334.316 6.86263 333.355 7.9401 332.105 8.85156C330.855 9.75651 329.358 10.4759 327.613 11.0098L326.871 9.51562C328.355 9.07292 329.632 8.49349 330.699 7.77734C331.773 7.05469 332.594 6.22786 333.16 5.29688C333.727 4.36589 334.01 3.36328 334.01 2.28906V1.47852H335.992ZM335.123 3.01172H327.818V1.47852H335.123V3.01172ZM341.52 17.3086H329.576V15.7754H341.52V17.3086ZM331.441 16.3613H329.576V11.8203H331.441V16.3613ZM349.235 3.40234C349.235 4.47656 349.036 5.48568 348.639 6.42969C348.248 7.36719 347.682 8.1875 346.94 8.89062C346.198 9.58724 345.312 10.1146 344.284 10.4727L343.346 8.99805C344.238 8.69206 345.013 8.25586 345.67 7.68945C346.334 7.11654 346.845 6.46224 347.203 5.72656C347.562 4.98438 347.741 4.20964 347.741 3.40234V2.06445H349.235V3.40234ZM349.577 3.39258C349.577 4.12826 349.746 4.83464 350.084 5.51172C350.423 6.18229 350.905 6.77474 351.53 7.28906C352.161 7.79688 352.913 8.19401 353.786 8.48047L352.907 9.93555C351.904 9.60352 351.041 9.11523 350.319 8.4707C349.596 7.82617 349.039 7.06771 348.649 6.19531C348.265 5.32292 348.073 4.38867 348.073 3.39258V2.06445H349.577V3.39258ZM353.366 2.91406H343.883V1.41016H353.366V2.91406ZM357.223 10.6582H355.377V0.150391H357.223V10.6582ZM359.772 6.01953H356.705V4.48633H359.772V6.01953ZM351.569 11.0879C352.767 11.0879 353.802 11.2148 354.674 11.4688C355.553 11.7227 356.224 12.0938 356.686 12.582C357.148 13.0703 357.379 13.6562 357.379 14.3398C357.379 15.0234 357.148 15.6094 356.686 16.0977C356.224 16.5924 355.553 16.9701 354.674 17.2305C353.802 17.4974 352.767 17.6309 351.569 17.6309C350.364 17.6309 349.319 17.4974 348.434 17.2305C347.555 16.9701 346.878 16.5924 346.403 16.0977C345.934 15.6094 345.7 15.0234 345.7 14.3398C345.7 13.6562 345.934 13.0703 346.403 12.582C346.878 12.0938 347.555 11.7227 348.434 11.4688C349.319 11.2148 350.364 11.0879 351.569 11.0879ZM351.569 12.5527C350.742 12.5527 350.026 12.6211 349.42 12.7578C348.815 12.8945 348.353 13.0964 348.034 13.3633C347.721 13.6302 347.565 13.9557 347.565 14.3398C347.565 14.7174 347.721 15.0462 348.034 15.3262C348.353 15.5996 348.812 15.8079 349.411 15.9512C350.009 16.0944 350.729 16.166 351.569 16.166C352.422 16.166 353.144 16.0944 353.737 15.9512C354.336 15.8079 354.791 15.5996 355.104 15.3262C355.416 15.0462 355.573 14.7174 355.573 14.3398C355.573 13.9557 355.416 13.6302 355.104 13.3633C354.791 13.0964 354.332 12.8945 353.727 12.7578C353.128 12.6211 352.409 12.5527 351.569 12.5527ZM368.337 0.443359C369.652 0.443359 370.775 0.560547 371.706 0.794922C372.637 1.02279 373.346 1.36133 373.835 1.81055C374.33 2.25977 374.577 2.80339 374.577 3.44141C374.577 4.09245 374.33 4.64583 373.835 5.10156C373.346 5.55078 372.637 5.89258 371.706 6.12695C370.775 6.36133 369.652 6.48503 368.337 6.49805C367.022 6.48503 365.895 6.36133 364.958 6.12695C364.027 5.89258 363.311 5.55078 362.809 5.10156C362.315 4.64583 362.067 4.09245 362.067 3.44141C362.067 2.80339 362.315 2.25977 362.809 1.81055C363.311 1.36133 364.027 1.02279 364.958 0.794922C365.895 0.560547 367.022 0.443359 368.337 0.443359ZM368.337 1.82031C367.412 1.82031 366.624 1.88216 365.973 2.00586C365.329 2.12956 364.841 2.3151 364.509 2.5625C364.177 2.8099 364.011 3.10286 364.011 3.44141C364.011 3.8125 364.173 4.12174 364.499 4.36914C364.824 4.61003 365.309 4.79232 365.954 4.91602C366.598 5.03971 367.393 5.10156 368.337 5.10156C369.281 5.10156 370.075 5.03971 370.72 4.91602C371.364 4.79232 371.849 4.60677 372.175 4.35938C372.507 4.10547 372.673 3.79948 372.673 3.44141C372.673 3.10286 372.503 2.81315 372.165 2.57227C371.833 2.33138 371.341 2.14583 370.69 2.01562C370.046 1.88542 369.261 1.82031 368.337 1.82031ZM376.315 9.04688H360.358V7.5625H376.315V9.04688ZM374.294 14.4961H364.118V16.4395H362.292V13.1582H372.477V11.7812H362.263V10.3945H374.294V14.4961ZM374.802 17.4844H362.292V16.0488H374.802V17.4844ZM101.245 42.0332H99.3793V39.3672H101.245V42.0332ZM100.268 32.9414C101.121 32.9414 101.876 33.0879 102.534 33.3809C103.191 33.6738 103.705 34.084 104.077 34.6113C104.454 35.1322 104.643 35.7409 104.643 36.4375C104.643 37.1081 104.454 37.707 104.077 38.2344C103.705 38.7617 103.191 39.1719 102.534 39.4648C101.876 39.7578 101.121 39.9043 100.268 39.9043C99.4281 39.9043 98.6729 39.7578 98.0023 39.4648C97.3383 39.1719 96.824 38.7617 96.4594 38.2344C96.0948 37.707 95.9125 37.1081 95.9125 36.4375C95.9125 35.7539 96.0948 35.1484 96.4594 34.6211C96.824 34.0872 97.3383 33.6738 98.0023 33.3809C98.6729 33.0879 99.4281 32.9414 100.268 32.9414ZM100.268 34.3672C99.7602 34.3672 99.3077 34.4518 98.9105 34.6211C98.5134 34.7904 98.2042 35.0312 97.9828 35.3438C97.7615 35.6562 97.6508 36.0208 97.6508 36.4375C97.6508 36.8411 97.7615 37.196 97.9828 37.502C98.2042 37.8079 98.5134 38.0488 98.9105 38.2246C99.3142 38.3939 99.7667 38.4818 100.268 38.4883C100.782 38.4818 101.238 38.3939 101.635 38.2246C102.032 38.0488 102.342 37.8079 102.563 37.502C102.784 37.196 102.895 36.8411 102.895 36.4375C102.895 36.0208 102.784 35.6562 102.563 35.3438C102.348 35.0247 102.039 34.7839 101.635 34.6211C101.238 34.4518 100.782 34.3672 100.268 34.3672ZM108.735 45.5488H106.87V32.1699H108.735V45.5488ZM111.225 39.5137H108.002V37.9512H111.225V39.5137ZM109.35 49.2793H97.3969V47.7559H109.35V49.2793ZM99.2719 48.4395H97.3969V44.3867H99.2719V48.4395ZM94.9262 41.5352C96.8793 41.5482 98.7803 41.5156 100.629 41.4375C102.478 41.3594 104.2 41.1999 105.795 40.959L105.932 42.3262C104.311 42.6126 102.615 42.8047 100.844 42.9023C99.0798 42.9935 97.1788 43.0391 95.141 43.0391L94.9262 41.5352ZM118.139 45.4121H116.274V42.5508H118.139V45.4121ZM125.561 49.6504H123.696V32.1504H125.561V49.6504ZM128.188 41.0469H124.966V39.5039H128.188V41.0469ZM111.626 44.8945C113.813 44.8945 115.805 44.8652 117.602 44.8066C119.399 44.7415 121.098 44.5918 122.7 44.3574L122.817 45.7441C121.652 45.946 120.438 46.099 119.175 46.2031C117.912 46.3008 116.717 46.3659 115.591 46.3984C114.464 46.431 113.237 46.4473 111.909 46.4473L111.626 44.8945ZM122.446 35.7148H111.948V34.2305H122.446V35.7148ZM117.221 36.6328C118.042 36.6328 118.768 36.7695 119.399 37.043C120.031 37.3099 120.526 37.6875 120.884 38.1758C121.248 38.6641 121.43 39.237 121.43 39.8945C121.43 40.5326 121.248 41.0957 120.884 41.584C120.526 42.0658 120.031 42.4434 119.399 42.7168C118.768 42.9902 118.042 43.127 117.221 43.127C116.401 43.127 115.672 42.9902 115.034 42.7168C114.396 42.4434 113.901 42.0658 113.55 41.584C113.205 41.0957 113.032 40.5326 113.032 39.8945C113.032 39.237 113.205 38.6641 113.55 38.1758C113.901 37.6875 114.396 37.3099 115.034 37.043C115.672 36.7695 116.401 36.6328 117.221 36.6328ZM117.221 38.0488C116.74 38.0488 116.313 38.127 115.942 38.2832C115.578 38.4329 115.291 38.6478 115.083 38.9277C114.874 39.2012 114.77 39.5234 114.77 39.8945C114.77 40.2526 114.871 40.5716 115.073 40.8516C115.275 41.125 115.561 41.3333 115.932 41.4766C116.31 41.6133 116.74 41.6816 117.221 41.6816C117.703 41.6816 118.126 41.6133 118.491 41.4766C118.862 41.3333 119.149 41.125 119.35 40.8516C119.552 40.5716 119.653 40.2526 119.653 39.8945C119.653 39.5234 119.552 39.2012 119.35 38.9277C119.149 38.6478 118.862 38.4329 118.491 38.2832C118.126 38.127 117.703 38.0488 117.221 38.0488ZM118.139 35.2461H116.274V32.209H118.139V35.2461ZM134.82 36.6035C134.82 37.9837 134.608 39.3053 134.185 40.5684C133.762 41.8249 133.169 42.9349 132.407 43.8984C131.646 44.8555 130.757 45.5814 129.741 46.0762L128.579 44.5234C129.491 44.1133 130.301 43.5013 131.011 42.6875C131.727 41.8672 132.284 40.9264 132.681 39.8652C133.085 38.7975 133.286 37.7103 133.286 36.6035V33.6055H134.82V36.6035ZM135.152 36.6035C135.152 37.6647 135.347 38.7031 135.738 39.7188C136.135 40.7344 136.685 41.6393 137.388 42.4336C138.098 43.2279 138.895 43.8236 139.78 44.2207L138.667 45.6953C137.684 45.2266 136.805 44.5299 136.03 43.6055C135.262 42.681 134.667 41.6133 134.243 40.4023C133.82 39.1914 133.609 37.9251 133.609 36.6035V33.6055H135.152V36.6035ZM143.228 49.6992H141.363V32.1504H143.228V49.6992ZM155.054 33.9277C155.054 35.7832 154.81 37.4857 154.322 39.0352C153.834 40.5781 152.987 42.0202 151.783 43.3613C150.585 44.696 148.961 45.8711 146.91 46.8867L145.904 45.4219C147.701 44.5495 149.14 43.5534 150.22 42.4336C151.301 41.3073 152.076 40.0671 152.545 38.7129C153.013 37.3522 153.248 35.832 153.248 34.1523V33.9277H155.054ZM154.195 35.4414H146.89V33.9277H154.195V35.4414ZM146.265 40.3242L145.992 38.7129L153.052 38.2637V39.6895L146.265 40.3242ZM160.162 49.6504H158.287V32.1504H160.162V49.6504ZM176.676 38.752H164.596V37.2871H176.676V38.752ZM178.492 42.4531H162.477V40.9688H178.492V42.4531ZM166.441 38.0293H164.596V32.7949H166.441V38.0293ZM176.773 49.2402H164.479V47.7168H176.773V49.2402ZM166.334 48.1562H164.479V44.123H166.334V48.1562ZM194.42 49.6504H192.643V32.1504H194.42V49.6504ZM189.84 40.2852H185.465V38.7422H189.84V40.2852ZM190.797 48.791H189.049V32.541H190.797V48.791ZM181.159 44.0059C182.578 44.0059 183.746 43.9701 184.664 43.8984C185.582 43.8268 186.513 43.6901 187.457 43.4883L187.633 45.041C186.683 45.2363 185.735 45.3665 184.791 45.4316C183.847 45.4967 182.636 45.5358 181.159 45.5488H180.016V44.0059H181.159ZM186.647 35.7637H181.823V44.6211H180.016V34.2598H186.647V35.7637ZM206.706 47.1406H204.841V42.9219H206.706V47.1406ZM212.575 47.1406H210.749V42.9219H212.575V47.1406ZM215.915 36.1445H201.501V34.6406H215.915V36.1445ZM216.765 47.7363H200.749V46.2227H216.765V47.7363ZM208.718 37.1504C209.909 37.1504 210.945 37.2806 211.823 37.541C212.702 37.7949 213.373 38.1725 213.835 38.6738C214.304 39.1686 214.538 39.7643 214.538 40.4609C214.538 41.151 214.304 41.7435 213.835 42.2383C213.373 42.7266 212.702 43.1042 211.823 43.3711C210.951 43.638 209.916 43.7715 208.718 43.7715C207.52 43.7715 206.482 43.6413 205.603 43.3809C204.73 43.1139 204.06 42.7331 203.591 42.2383C203.122 41.7435 202.888 41.151 202.888 40.4609C202.888 39.7643 203.122 39.1686 203.591 38.6738C204.06 38.1725 204.73 37.7949 205.603 37.541C206.482 37.2806 207.52 37.1504 208.718 37.1504ZM208.718 38.5957C207.891 38.5957 207.181 38.6673 206.589 38.8105C205.997 38.9538 205.544 39.1654 205.232 39.4453C204.926 39.7253 204.773 40.0638 204.773 40.4609C204.773 40.8516 204.926 41.1868 205.232 41.4668C205.544 41.7467 205.997 41.9583 206.589 42.1016C207.181 42.2448 207.891 42.3164 208.718 42.3164C209.532 42.3164 210.235 42.2448 210.827 42.1016C211.42 41.9583 211.869 41.7467 212.175 41.4668C212.487 41.1868 212.644 40.8516 212.644 40.4609C212.644 40.0638 212.487 39.7253 212.175 39.4453C211.869 39.1654 211.42 38.9538 210.827 38.8105C210.235 38.6673 209.532 38.5957 208.718 38.5957ZM209.626 35.5586H207.8V32.4141H209.626V35.5586ZM226.287 35.5293H218.425V34.0352H226.287V35.5293ZM222.879 44.9727H221.052V39.0352H222.879V44.9727ZM227.38 35.1094C227.374 35.9362 227.364 36.6296 227.351 37.1895C227.338 37.7428 227.296 38.4395 227.224 39.2793C227.153 40.1126 227.039 41.0111 226.882 41.9746L225.037 41.8184C225.252 40.4707 225.385 39.2891 225.437 38.2734C225.496 37.2578 225.525 36.2031 225.525 35.1094V34.0352H227.38V35.1094ZM231.257 49.6504H229.402V32.1504H231.257V49.6504ZM233.933 40.959H230.74V39.377H233.933V40.959ZM217.468 44.3867C219.623 44.3672 221.586 44.3249 223.357 44.2598C225.134 44.1882 226.814 44.0579 228.396 43.8691L228.494 45.2559C226.853 45.5098 225.121 45.6823 223.298 45.7734C221.476 45.8646 219.601 45.9036 217.673 45.8906L217.468 44.3867ZM240.428 35.2852C240.428 36.3464 240.226 37.3522 239.822 38.3027C239.425 39.2533 238.855 40.0833 238.113 40.793C237.371 41.4961 236.502 42.0234 235.506 42.375L234.539 40.9102C235.418 40.5977 236.186 40.1549 236.844 39.582C237.508 39.0026 238.016 38.3385 238.367 37.5898C238.725 36.8411 238.904 36.0729 238.904 35.2852V33.918H240.428V35.2852ZM240.779 35.2656C240.779 36.0013 240.949 36.7174 241.287 37.4141C241.626 38.1042 242.114 38.7227 242.752 39.2695C243.39 39.8099 244.139 40.2298 244.998 40.5293L244.051 41.9844C243.068 41.6393 242.218 41.1315 241.502 40.4609C240.786 39.7904 240.236 39.0059 239.852 38.1074C239.467 37.2025 239.275 36.2552 239.275 35.2656V33.918H240.779V35.2656ZM247.791 38.1465H244.021V36.6133H247.791V38.1465ZM244.549 34.7871H235.096V33.293H244.549V34.7871ZM249.109 49.6504H247.254V45.0117H237.254V43.498H249.109V49.6504ZM249.109 42.6191H247.254V32.1504H249.109V42.6191ZM265.916 41.5547H264.071V32.1504H265.916V41.5547ZM256.297 44.3477H264.08V42.3945H265.916V49.4355H254.461V42.3945H256.297V44.3477ZM264.08 47.9316V45.8125H256.297V47.9316H264.08ZM256.424 32.9707C257.31 32.9577 258.104 33.1237 258.807 33.4688C259.517 33.8073 260.073 34.2891 260.477 34.9141C260.881 35.5326 261.082 36.2389 261.082 37.0332C261.082 37.8079 260.881 38.5046 260.477 39.123C260.073 39.735 259.517 40.2135 258.807 40.5586C258.104 40.9036 257.31 41.0762 256.424 41.0762C255.539 41.0762 254.741 40.9036 254.032 40.5586C253.329 40.2135 252.775 39.735 252.371 39.123C251.968 38.5046 251.766 37.8079 251.766 37.0332C251.766 36.2389 251.968 35.5326 252.371 34.9141C252.775 34.2891 253.329 33.8073 254.032 33.4688C254.741 33.1237 255.539 32.9577 256.424 32.9707ZM256.424 34.5234C255.877 34.5104 255.386 34.6113 254.95 34.8262C254.52 35.041 254.185 35.3405 253.944 35.7246C253.703 36.1022 253.582 36.5384 253.582 37.0332C253.582 37.5215 253.703 37.9577 253.944 38.3418C254.185 38.7194 254.52 39.0156 254.95 39.2305C255.386 39.4453 255.877 39.5527 256.424 39.5527C256.971 39.5527 257.459 39.4453 257.889 39.2305C258.319 39.0156 258.654 38.7194 258.895 38.3418C259.136 37.9577 259.256 37.5215 259.256 37.0332C259.256 36.5384 259.133 36.1022 258.885 35.7246C258.644 35.3405 258.309 35.041 257.879 34.8262C257.456 34.6113 256.971 34.5104 256.424 34.5234ZM282.811 49.6504H280.975V32.1504H282.811V49.6504ZM271.19 44.709H269.364V33.8594H271.19V44.709ZM270.829 43.6152C272.235 43.6152 273.638 43.5534 275.038 43.4297C276.444 43.2995 277.85 43.0879 279.257 42.7949L279.501 44.3574C278.029 44.6569 276.584 44.875 275.165 45.0117C273.752 45.1419 272.307 45.207 270.829 45.207H269.364V43.6152H270.829ZM298.808 49.6992H296.962V32.1504H298.808V49.6992ZM301.63 40.4707H298.388V38.9375H301.63V40.4707ZM287.333 43.8105C288.987 43.8105 290.432 43.7682 291.669 43.6836C292.906 43.5924 294.153 43.4329 295.409 43.2051L295.634 44.7871C294.358 45.015 293.095 45.168 291.845 45.2461C290.601 45.3177 289.098 45.3535 287.333 45.3535H285.917V43.8105H287.333ZM294.101 35.3535H287.763V44.5332H285.917V33.8301H294.101V35.3535ZM304.052 48.1367C303.805 48.1367 303.574 48.0716 303.359 47.9414C303.144 47.8112 302.975 47.6419 302.851 47.4336C302.734 47.2188 302.675 46.9876 302.675 46.7402C302.675 46.4993 302.734 46.2715 302.851 46.0566C302.975 45.8418 303.144 45.6758 303.359 45.5586C303.574 45.4349 303.805 45.373 304.052 45.373C304.293 45.373 304.521 45.4349 304.736 45.5586C304.951 45.6758 305.12 45.8418 305.244 46.0566C305.367 46.2715 305.429 46.4993 305.429 46.7402C305.429 46.9876 305.367 47.2188 305.244 47.4336C305.12 47.6419 304.951 47.8112 304.736 47.9414C304.521 48.0716 304.293 48.1367 304.052 48.1367ZM2.93164 76.582C2.54102 76.582 2.17643 76.4811 1.83789 76.2793C1.50586 76.0775 1.23893 75.8073 1.03711 75.4688C0.835286 75.1302 0.734375 74.7591 0.734375 74.3555C0.734375 73.9518 0.835286 73.5807 1.03711 73.2422C1.23893 72.9036 1.50586 72.6367 1.83789 72.4414C2.17643 72.2461 2.54102 72.1484 2.93164 72.1484C3.33529 72.1484 3.70964 72.2461 4.05469 72.4414C4.39974 72.6367 4.66992 72.9036 4.86523 73.2422C5.06055 73.5807 5.1582 73.9518 5.1582 74.3555C5.1582 74.7591 5.06055 75.1302 4.86523 75.4688C4.66992 75.8073 4.39974 76.0775 4.05469 76.2793C3.70964 76.4811 3.33529 76.582 2.93164 76.582ZM24.8359 67.7051C24.8359 68.7142 24.6276 69.6615 24.2109 70.5469C23.8008 71.4323 23.2181 72.1973 22.4629 72.8418C21.7077 73.4863 20.8255 73.9681 19.8164 74.2871L18.9375 72.8613C19.8229 72.5749 20.5944 72.1712 21.252 71.6504C21.9095 71.123 22.4141 70.5208 22.7656 69.8438C23.1237 69.1602 23.3027 68.4473 23.3027 67.7051V66.9727H24.8359V67.7051ZM25.1484 67.7051C25.1484 68.3952 25.3307 69.0592 25.6953 69.6973C26.0599 70.3353 26.5742 70.8984 27.2383 71.3867C27.9089 71.8685 28.6901 72.2331 29.582 72.4805L28.7129 73.9355C27.6908 73.6361 26.7956 73.1836 26.0273 72.5781C25.2656 71.9727 24.6764 71.25 24.2598 70.4102C23.8496 69.5638 23.6445 68.6621 23.6445 67.7051V66.9727H25.1484V67.7051ZM29.0254 67.5977H19.4258V66.123H29.0254V67.5977ZM25.168 66.8066H23.3027V64.082H25.168V66.8066ZM33.1562 74.502H31.3105V64.1699H33.1562V74.502ZM33.1562 81.4355H21.6621V75.3418H33.1562V81.4355ZM23.4883 79.9316H31.3398V76.8359H23.4883V79.9316ZM43.5082 64.4434C44.8233 64.4434 45.9464 64.5605 46.8773 64.7949C47.8083 65.0228 48.518 65.3613 49.0062 65.8105C49.501 66.2598 49.7484 66.8034 49.7484 67.4414C49.7484 68.0924 49.501 68.6458 49.0062 69.1016C48.518 69.5508 47.8083 69.8926 46.8773 70.127C45.9464 70.3613 44.8233 70.485 43.5082 70.498C42.1931 70.485 41.0668 70.3613 40.1293 70.127C39.1983 69.8926 38.4822 69.5508 37.9809 69.1016C37.4861 68.6458 37.2387 68.0924 37.2387 67.4414C37.2387 66.8034 37.4861 66.2598 37.9809 65.8105C38.4822 65.3613 39.1983 65.0228 40.1293 64.7949C41.0668 64.5605 42.1931 64.4434 43.5082 64.4434ZM43.5082 65.8203C42.5837 65.8203 41.796 65.8822 41.1449 66.0059C40.5004 66.1296 40.0121 66.3151 39.6801 66.5625C39.348 66.8099 39.182 67.1029 39.182 67.4414C39.182 67.8125 39.3448 68.1217 39.6703 68.3691C39.9958 68.61 40.4809 68.7923 41.1254 68.916C41.7699 69.0397 42.5642 69.1016 43.5082 69.1016C44.4522 69.1016 45.2465 69.0397 45.891 68.916C46.5355 68.7923 47.0206 68.6068 47.3461 68.3594C47.6781 68.1055 47.8441 67.7995 47.8441 67.4414C47.8441 67.1029 47.6749 66.8132 47.3363 66.5723C47.0043 66.3314 46.5128 66.1458 45.8617 66.0156C45.2172 65.8854 44.4327 65.8203 43.5082 65.8203ZM51.4867 73.0469H35.5297V71.5625H51.4867V73.0469ZM49.4652 78.4961H39.2895V80.4395H37.4633V77.1582H47.6488V75.7812H37.434V74.3945H49.4652V78.4961ZM49.973 81.4844H37.4633V80.0488H49.973V81.4844ZM72.8547 74.834H56.8781V73.3496H72.8547V74.834ZM65.7746 73.9453H63.9289V71.1816H65.7746V73.9453ZM71.0188 71.8457H58.9582V70.3809H71.0188V71.8457ZM70.9016 66.1133H60.8137V71.1719H58.9582V64.6387H70.9016V66.1133ZM70.4523 68.9062H60.2668V67.5195H70.4523V68.9062ZM64.8664 75.9766C66.1555 75.9635 67.246 76.0677 68.1379 76.2891C69.0363 76.5104 69.7232 76.8327 70.1984 77.2559C70.6737 77.679 70.9113 78.1934 70.9113 78.7988C70.9113 79.4108 70.6737 79.9251 70.1984 80.3418C69.7232 80.765 69.0363 81.084 68.1379 81.2988C67.246 81.5202 66.1555 81.6309 64.8664 81.6309C63.5773 81.6309 62.4771 81.5202 61.5656 81.2988C60.6542 81.084 59.9641 80.765 59.4953 80.3418C59.0266 79.9251 58.7922 79.4108 58.7922 78.7988C58.7922 78.1868 59.0298 77.6725 59.5051 77.2559C59.9803 76.8327 60.6704 76.5104 61.5754 76.2891C62.4803 76.0677 63.5773 75.9635 64.8664 75.9766ZM64.8664 77.3633C63.9419 77.3633 63.1672 77.4186 62.5422 77.5293C61.9237 77.6335 61.455 77.793 61.1359 78.0078C60.8169 78.2161 60.6574 78.4798 60.6574 78.7988C60.6574 79.1178 60.8137 79.3848 61.1262 79.5996C61.4387 79.8079 61.9107 79.9609 62.5422 80.0586C63.1737 80.1628 63.9484 80.2148 64.8664 80.2148C65.7779 80.2148 66.5428 80.1628 67.1613 80.0586C67.7798 79.9609 68.2486 79.8079 68.5676 79.5996C68.8866 79.3848 69.0461 79.1178 69.0461 78.7988C69.0461 78.4798 68.8866 78.2161 68.5676 78.0078C68.2551 77.793 67.7863 77.6335 67.1613 77.5293C66.5363 77.4186 65.7714 77.3633 64.8664 77.3633ZM82.4254 68.5547H73.7438V67.0605H82.4254V68.5547ZM78.0992 69.5996C78.8349 69.5996 79.4892 69.7721 80.0621 70.1172C80.6415 70.4557 81.094 70.931 81.4195 71.543C81.7451 72.1549 81.9078 72.8548 81.9078 73.6426C81.9078 74.4238 81.7451 75.1237 81.4195 75.7422C81.094 76.3542 80.6415 76.8359 80.0621 77.1875C79.4892 77.5391 78.8349 77.7148 78.0992 77.7148C77.3701 77.7148 76.7158 77.5391 76.1363 77.1875C75.5634 76.8359 75.1142 76.3509 74.7887 75.7324C74.4697 75.1139 74.3102 74.4173 74.3102 73.6426C74.3102 72.8678 74.4697 72.1712 74.7887 71.5527C75.1142 70.9342 75.5634 70.4557 76.1363 70.1172C76.7158 69.7721 77.3701 69.5996 78.0992 69.5996ZM78.0992 71.1523C77.6891 71.1523 77.318 71.2598 76.9859 71.4746C76.6604 71.6829 76.4065 71.9759 76.2242 72.3535C76.0419 72.7246 75.9508 73.1543 75.9508 73.6426C75.9508 74.1243 76.0419 74.554 76.2242 74.9316C76.413 75.3092 76.6702 75.599 76.9957 75.8008C77.3212 76.0026 77.6891 76.1035 78.0992 76.1035C78.5159 76.1035 78.887 76.0026 79.2125 75.8008C79.5445 75.599 79.8049 75.3092 79.9938 74.9316C80.1826 74.554 80.277 74.1243 80.277 73.6426C80.277 73.1543 80.1826 72.7246 79.9938 72.3535C79.8049 71.9759 79.5445 71.6829 79.2125 71.4746C78.887 71.2598 78.5159 71.1523 78.0992 71.1523ZM88.7633 81.6504H86.9957V64.1504H88.7633V81.6504ZM87.5816 72.959H84.3785V71.4453H87.5816V72.959ZM84.984 80.8301H83.2359V64.5605H84.984V80.8301ZM79.027 67.9883H77.191V64.668H79.027V67.9883ZM111.108 74.4336H95.1508V72.9395H111.108V74.4336ZM109.145 81.6504H107.289V77.6172H96.9184V76.1328H109.145V81.6504ZM104.028 66.6309H102.202V64.1406H104.028V66.6309ZM103.725 67.1191C103.725 68.0306 103.419 68.8379 102.807 69.541C102.202 70.2441 101.362 70.8105 100.287 71.2402C99.2133 71.6634 97.9828 71.9434 96.5961 72.0801L96.0004 70.6445C97.2113 70.5469 98.2758 70.3385 99.1937 70.0195C100.118 69.694 100.831 69.2839 101.332 68.7891C101.84 68.2878 102.094 67.7311 102.094 67.1191V66.8066H103.725V67.1191ZM104.145 67.1191C104.145 67.7311 104.396 68.2878 104.897 68.7891C105.405 69.2839 106.118 69.694 107.036 70.0195C107.96 70.3385 109.028 70.5469 110.239 70.6445L109.643 72.0801C108.256 71.9434 107.026 71.6634 105.952 71.2402C104.877 70.8105 104.034 70.2441 103.422 69.541C102.817 68.8379 102.514 68.0306 102.514 67.1191V66.8066H104.145V67.1191ZM109.516 67.3438H96.7621V65.8789H109.516V67.3438ZM125.298 70.1367H121.518V68.6133H125.298V70.1367ZM126.626 74.5703H124.77V64.1504H126.626V74.5703ZM120.757 75.0684C121.987 75.0684 123.045 75.1986 123.93 75.459C124.822 75.7194 125.503 76.097 125.971 76.5918C126.447 77.0801 126.684 77.6693 126.684 78.3594C126.684 79.0495 126.447 79.6387 125.971 80.127C125.503 80.6217 124.822 80.9993 123.93 81.2598C123.045 81.5202 121.987 81.6536 120.757 81.6602C119.539 81.6536 118.488 81.5202 117.602 81.2598C116.717 80.9993 116.037 80.6217 115.561 80.127C115.086 79.6387 114.848 79.0495 114.848 78.3594C114.848 77.6693 115.086 77.0801 115.561 76.5918C116.037 76.097 116.717 75.7194 117.602 75.459C118.488 75.1986 119.539 75.0684 120.757 75.0684ZM120.757 76.4941C119.917 76.4941 119.188 76.569 118.569 76.7188C117.957 76.862 117.488 77.0736 117.163 77.3535C116.844 77.6335 116.684 77.9688 116.684 78.3594C116.684 78.737 116.844 79.0658 117.163 79.3457C117.488 79.6257 117.957 79.8405 118.569 79.9902C119.188 80.1335 119.917 80.2051 120.757 80.2051C121.616 80.2051 122.348 80.1335 122.954 79.9902C123.566 79.8405 124.031 79.6257 124.35 79.3457C124.676 79.0658 124.839 78.737 124.839 78.3594C124.839 77.9688 124.676 77.6335 124.35 77.3535C124.031 77.0736 123.566 76.862 122.954 76.7188C122.348 76.569 121.616 76.4941 120.757 76.4941ZM117.944 67.2754C117.944 68.3496 117.742 69.3652 117.339 70.3223C116.942 71.2793 116.372 72.1191 115.63 72.8418C114.887 73.5579 114.018 74.1016 113.022 74.4727L112.055 72.9883C112.941 72.6758 113.712 72.2233 114.37 71.6309C115.034 71.0384 115.542 70.3646 115.893 69.6094C116.245 68.8477 116.421 68.0697 116.421 67.2754V65.918H117.944V67.2754ZM118.296 67.2559C118.296 67.9915 118.465 68.7077 118.804 69.4043C119.142 70.0944 119.63 70.7129 120.268 71.2598C120.906 71.8001 121.655 72.2201 122.514 72.5195L121.567 73.9941C120.584 73.6491 119.735 73.138 119.018 72.4609C118.302 71.7839 117.752 70.9961 117.368 70.0977C116.984 69.1927 116.792 68.2454 116.792 67.2559V65.918H118.296V67.2559ZM122.065 66.8848H112.612V65.3516H122.065V66.8848ZM146.451 68.7598H141.871V67.2852H146.451V68.7598ZM146.324 72.4023H141.734V70.8887H146.324V72.4023ZM147.994 74.541H146.138V64.1699H147.994V74.541ZM142.525 65.4297C142.525 66.9336 142.203 68.291 141.558 69.502C140.914 70.7129 139.983 71.748 138.765 72.6074C137.554 73.4603 136.089 74.1374 134.371 74.6387L133.609 73.1738C135.106 72.7507 136.369 72.2005 137.398 71.5234C138.433 70.8398 139.214 70.0553 139.742 69.1699C140.276 68.2845 140.543 67.3242 140.543 66.2891V65.4297H142.525ZM141.812 66.9531H134.517V65.4297H141.812V66.9531ZM142.232 74.7266C143.41 74.7266 144.442 74.8665 145.328 75.1465C146.22 75.4199 146.903 75.8105 147.379 76.3184C147.86 76.8262 148.101 77.4349 148.101 78.1445C148.101 78.8477 147.86 79.4596 147.379 79.9805C146.903 80.4948 146.22 80.8887 145.328 81.1621C144.442 81.4355 143.41 81.5723 142.232 81.5723C141.047 81.5723 140.012 81.4355 139.127 81.1621C138.241 80.8887 137.554 80.4948 137.066 79.9805C136.584 79.4596 136.343 78.8477 136.343 78.1445C136.343 77.4349 136.584 76.8262 137.066 76.3184C137.554 75.8105 138.241 75.4199 139.127 75.1465C140.012 74.8665 141.047 74.7266 142.232 74.7266ZM142.232 76.1914C141.412 76.1784 140.692 76.25 140.074 76.4062C139.462 76.5625 138.99 76.7904 138.658 77.0898C138.332 77.3828 138.17 77.7344 138.17 78.1445C138.17 78.5482 138.332 78.8965 138.658 79.1895C138.99 79.4759 139.459 79.6973 140.064 79.8535C140.676 80.0098 141.399 80.0879 142.232 80.0879C143.052 80.0879 143.762 80.0098 144.361 79.8535C144.966 79.6973 145.432 79.4759 145.757 79.1895C146.089 78.8965 146.255 78.5482 146.255 78.1445C146.255 77.7344 146.089 77.3828 145.757 77.0898C145.432 76.7904 144.966 76.5625 144.361 76.4062C143.762 76.25 143.052 76.1784 142.232 76.1914ZM163.727 69.3262H160.221V67.8809H163.727V69.3262ZM163.697 72.4512H160.201V70.9961H163.697V72.4512ZM160.152 67.041H150.318V65.6055H160.152V67.041ZM155.299 67.7637C156.1 67.7637 156.803 67.8841 157.408 68.125C158.02 68.3659 158.495 68.7142 158.834 69.1699C159.179 69.6257 159.352 70.153 159.352 70.752C159.352 71.3379 159.179 71.8555 158.834 72.3047C158.495 72.7474 158.02 73.0924 157.408 73.3398C156.803 73.5872 156.1 73.7109 155.299 73.7109C154.518 73.7109 153.821 73.5872 153.209 73.3398C152.604 73.0924 152.132 72.7474 151.793 72.3047C151.461 71.8555 151.295 71.3379 151.295 70.752C151.295 70.153 151.461 69.6257 151.793 69.1699C152.132 68.7142 152.604 68.3659 153.209 68.125C153.821 67.8841 154.518 67.7637 155.299 67.7637ZM155.299 69.1406C154.863 69.1276 154.469 69.1895 154.117 69.3262C153.766 69.4564 153.495 69.6452 153.307 69.8926C153.118 70.1335 153.023 70.4199 153.023 70.752C153.023 71.071 153.121 71.3542 153.316 71.6016C153.512 71.8424 153.782 72.0345 154.127 72.1777C154.472 72.3145 154.863 72.3828 155.299 72.3828C155.755 72.3828 156.155 72.3145 156.5 72.1777C156.845 72.0345 157.115 71.8424 157.311 71.6016C157.506 71.3542 157.604 71.071 157.604 70.752C157.604 70.4199 157.506 70.1335 157.311 69.8926C157.115 69.6452 156.845 69.4564 156.5 69.3262C156.155 69.1895 155.755 69.1276 155.299 69.1406ZM156.246 66.7871H154.4V63.9453H156.246V66.7871ZM164.859 73.877H163.023V64.1504H164.859V73.877ZM164.859 78.6426H155.309V80.5371H153.453V77.3438H163.023V76.0449H153.424V74.6777H164.859V78.6426ZM165.357 81.4844H153.453V80.0879H165.357V81.4844ZM175.153 64.4434C176.468 64.4434 177.591 64.5605 178.522 64.7949C179.453 65.0228 180.163 65.3613 180.651 65.8105C181.146 66.2598 181.393 66.8034 181.393 67.4414C181.393 68.0924 181.146 68.6458 180.651 69.1016C180.163 69.5508 179.453 69.8926 178.522 70.127C177.591 70.3613 176.468 70.485 175.153 70.498C173.838 70.485 172.711 70.3613 171.774 70.127C170.843 69.8926 170.127 69.5508 169.625 69.1016C169.131 68.6458 168.883 68.0924 168.883 67.4414C168.883 66.8034 169.131 66.2598 169.625 65.8105C170.127 65.3613 170.843 65.0228 171.774 64.7949C172.711 64.5605 173.838 64.4434 175.153 64.4434ZM175.153 65.8203C174.228 65.8203 173.441 65.8822 172.789 66.0059C172.145 66.1296 171.657 66.3151 171.325 66.5625C170.993 66.8099 170.827 67.1029 170.827 67.4414C170.827 67.8125 170.989 68.1217 171.315 68.3691C171.64 68.61 172.125 68.7923 172.77 68.916C173.414 69.0397 174.209 69.1016 175.153 69.1016C176.097 69.1016 176.891 69.0397 177.536 68.916C178.18 68.7923 178.665 68.6068 178.991 68.3594C179.323 68.1055 179.489 67.7995 179.489 67.4414C179.489 67.1029 179.319 66.8132 178.981 66.5723C178.649 66.3314 178.157 66.1458 177.506 66.0156C176.862 65.8854 176.077 65.8203 175.153 65.8203ZM183.131 73.0469H167.174V71.5625H183.131V73.0469ZM181.11 78.4961H170.934V80.4395H169.108V77.1582H179.293V75.7812H169.079V74.3945H181.11V78.4961ZM181.618 81.4844H169.108V80.0488H181.618V81.4844ZM194.275 69.3164C194.275 70.5534 194.06 71.7773 193.63 72.9883C193.207 74.1927 192.618 75.2637 191.863 76.2012C191.107 77.1387 190.261 77.8418 189.323 78.3105L188.21 76.8555C189.083 76.4323 189.867 75.8171 190.564 75.0098C191.26 74.196 191.807 73.291 192.204 72.2949C192.608 71.2923 192.81 70.2995 192.81 69.3164V66.7188H194.275V69.3164ZM194.646 69.3164C194.646 70.2409 194.831 71.1719 195.202 72.1094C195.58 73.0404 196.107 73.89 196.784 74.6582C197.468 75.4264 198.243 76.0124 199.109 76.416L198.064 77.8711C197.113 77.4219 196.267 76.7513 195.525 75.8594C194.782 74.9609 194.203 73.9421 193.786 72.8027C193.376 71.6569 193.171 70.4948 193.171 69.3164V66.7188H194.646V69.3164ZM198.445 67.4512H188.864V65.9277H198.445V67.4512ZM202.175 81.6504H200.329V64.1504H202.175V81.6504ZM204.997 72.666H201.755V71.1035H204.997V72.666ZM218.748 66.4746H207.429V64.9902H218.748V66.4746ZM221.443 72.959H205.427V71.4453H221.443V72.959ZM219.412 66.2012C219.412 67.2103 219.382 68.1543 219.324 69.0332C219.265 69.9056 219.119 70.9049 218.884 72.0312L217.058 71.8555C217.221 71.0807 217.338 70.3581 217.41 69.6875C217.488 69.0169 217.533 68.4342 217.546 67.9395C217.559 67.4382 217.566 66.8587 217.566 66.2012V64.9902H219.412V66.2012ZM219.519 81.6992H217.664V76.8555H207.117V75.3809H219.519V81.6992ZM235.945 81.6504H234.109V64.1504H235.945V81.6504ZM238.768 72.7832H235.525V71.25H238.768V72.7832ZM232.586 68.4082H222.215V66.8945H232.586V68.4082ZM227.479 69.707C228.312 69.707 229.057 69.8796 229.715 70.2246C230.379 70.5697 230.896 71.0514 231.268 71.6699C231.645 72.2884 231.834 72.9883 231.834 73.7695C231.834 74.5573 231.645 75.2604 231.268 75.8789C230.896 76.4974 230.379 76.9792 229.715 77.3242C229.057 77.6693 228.312 77.8418 227.479 77.8418C226.639 77.8418 225.89 77.6693 225.232 77.3242C224.575 76.9792 224.057 76.4974 223.68 75.8789C223.309 75.2604 223.123 74.5573 223.123 73.7695C223.123 72.9883 223.309 72.2884 223.68 71.6699C224.057 71.0514 224.575 70.5697 225.232 70.2246C225.89 69.8796 226.639 69.707 227.479 69.707ZM227.479 71.2402C226.984 71.2402 226.541 71.3477 226.15 71.5625C225.76 71.7708 225.451 72.0671 225.223 72.4512C225.001 72.8353 224.891 73.2747 224.891 73.7695C224.891 74.2708 225.001 74.7103 225.223 75.0879C225.451 75.4655 225.76 75.7617 226.15 75.9766C226.541 76.1849 226.984 76.2891 227.479 76.2891C227.973 76.2891 228.416 76.1849 228.807 75.9766C229.197 75.7617 229.503 75.4655 229.725 75.0879C229.946 74.7103 230.057 74.2708 230.057 73.7695C230.057 73.2747 229.946 72.8353 229.725 72.4512C229.503 72.0671 229.197 71.7708 228.807 71.5625C228.416 71.3477 227.973 71.2402 227.479 71.2402ZM228.387 67.5391H226.541V64.3848H228.387V67.5391ZM252.469 68.6621H247.684V67.1289H252.469V68.6621ZM252.528 72.4023H247.684V70.8984H252.528V72.4023ZM248.123 73.9355H239.989V65.6543H248.123V73.9355ZM241.834 72.4707H246.297V67.1582H241.834V72.4707ZM253.788 76.9336H251.932V64.1699H253.788V76.9336ZM254.178 81.3086H242.352V79.7754H254.178V81.3086ZM244.227 80.498H242.352V75.7715H244.227V80.498ZM275.077 76.9922H273.232V64.1699H275.077V76.9922ZM275.605 81.3086H263.642V79.7754H275.605V81.3086ZM265.497 80.5469H263.642V75.7812H265.497V80.5469ZM266.581 66.875C266.581 68.0208 266.379 69.1016 265.976 70.1172C265.579 71.1263 265.009 72.0117 264.267 72.7734C263.525 73.5352 262.652 74.1113 261.65 74.502L260.663 73.0469C261.562 72.7148 262.343 72.2331 263.007 71.6016C263.671 70.9635 264.176 70.2376 264.521 69.4238C264.866 68.6035 265.038 67.7539 265.038 66.875V65.1465H266.581V66.875ZM266.943 66.875C266.943 67.7214 267.112 68.5319 267.45 69.3066C267.789 70.0749 268.287 70.7585 268.945 71.3574C269.602 71.9499 270.367 72.4023 271.239 72.7148L270.282 74.1895C269.273 73.8118 268.401 73.2682 267.665 72.5586C266.936 71.8424 266.373 70.9993 265.976 70.0293C265.579 69.0527 265.38 68.0013 265.38 66.875V65.1465H266.943V66.875ZM290.498 68.7598H285.918V67.2852H290.498V68.7598ZM290.371 72.4023H285.781V70.8887H290.371V72.4023ZM292.041 74.541H290.185V64.1699H292.041V74.541ZM286.572 65.4297C286.572 66.9336 286.25 68.291 285.605 69.502C284.961 70.7129 284.03 71.748 282.812 72.6074C281.601 73.4603 280.136 74.1374 278.418 74.6387L277.656 73.1738C279.153 72.7507 280.416 72.2005 281.445 71.5234C282.48 70.8398 283.261 70.0553 283.789 69.1699C284.323 68.2845 284.589 67.3242 284.589 66.2891V65.4297H286.572ZM285.859 66.9531H278.564V65.4297H285.859V66.9531ZM286.279 74.7266C287.457 74.7266 288.489 74.8665 289.375 75.1465C290.267 75.4199 290.95 75.8105 291.425 76.3184C291.907 76.8262 292.148 77.4349 292.148 78.1445C292.148 78.8477 291.907 79.4596 291.425 79.9805C290.95 80.4948 290.267 80.8887 289.375 81.1621C288.489 81.4355 287.457 81.5723 286.279 81.5723C285.094 81.5723 284.059 81.4355 283.173 81.1621C282.288 80.8887 281.601 80.4948 281.113 79.9805C280.631 79.4596 280.39 78.8477 280.39 78.1445C280.39 77.4349 280.631 76.8262 281.113 76.3184C281.601 75.8105 282.288 75.4199 283.173 75.1465C284.059 74.8665 285.094 74.7266 286.279 74.7266ZM286.279 76.1914C285.459 76.1784 284.739 76.25 284.121 76.4062C283.509 76.5625 283.037 76.7904 282.705 77.0898C282.379 77.3828 282.216 77.7344 282.216 78.1445C282.216 78.5482 282.379 78.8965 282.705 79.1895C283.037 79.4759 283.505 79.6973 284.111 79.8535C284.723 80.0098 285.446 80.0879 286.279 80.0879C287.099 80.0879 287.809 80.0098 288.408 79.8535C289.013 79.6973 289.479 79.4759 289.804 79.1895C290.136 78.8965 290.302 78.5482 290.302 78.1445C290.302 77.7344 290.136 77.3828 289.804 77.0898C289.479 76.7904 289.013 76.5625 288.408 76.4062C287.809 76.25 287.099 76.1784 286.279 76.1914ZM304.99 70.4688H301.172V68.9453H304.99V70.4688ZM304.961 74.8438H301.055V73.3301H304.961V74.8438ZM309.375 81.6504H307.617V64.1504H309.375V81.6504ZM305.801 80.8105H304.033V64.5996H305.801V80.8105ZM301.904 66.3379C301.904 67.959 301.683 69.4694 301.24 70.8691C300.798 72.2624 300.091 73.5547 299.121 74.7461C298.158 75.9375 296.898 76.9954 295.342 77.9199L294.229 76.5918C295.583 75.791 296.693 74.8893 297.559 73.8867C298.431 72.8776 299.072 71.7773 299.482 70.5859C299.899 69.388 300.107 68.0892 300.107 66.6895V66.3379H301.904ZM300.791 67.8516H295.098V66.3379H300.791V67.8516ZM327.217 73.6133H311.202V72.1875H327.217V73.6133ZM325.245 78.6914H314.971V80.5859H313.116V77.4609H323.409V76.1719H313.096V74.8242H325.245V78.6914ZM325.791 81.4453H313.116V80.1367H325.791V81.4453ZM325.196 68.3984H315.098V70.166H313.262V67.168H323.34V65.918H313.213V64.6094H325.196V68.3984ZM325.508 71.0352H313.262V69.7363H325.508V71.0352ZM346.339 77.0117H344.493V64.1602H346.339V77.0117ZM348.888 70.9277H345.773V69.3848H348.888V70.9277ZM347.081 81.3086H335.255V79.7754H347.081V81.3086ZM337.091 80.4102H335.255V75.6738H337.091V80.4102ZM337.511 65.3516C338.383 65.3516 339.174 65.5371 339.884 65.9082C340.6 66.2793 341.16 66.7969 341.564 67.4609C341.974 68.1185 342.179 68.8672 342.179 69.707C342.179 70.5404 341.974 71.2891 341.564 71.9531C341.16 72.6172 340.6 73.138 339.884 73.5156C339.174 73.8867 338.383 74.0723 337.511 74.0723C336.639 74.0723 335.848 73.8867 335.138 73.5156C334.428 73.138 333.868 72.6172 333.458 71.9531C333.055 71.2891 332.853 70.5404 332.853 69.707C332.853 68.8672 333.055 68.1185 333.458 67.4609C333.868 66.7969 334.425 66.2793 335.128 65.9082C335.838 65.5371 336.632 65.3516 337.511 65.3516ZM337.511 66.9727C336.99 66.9727 336.512 67.0866 336.075 67.3145C335.639 67.5423 335.294 67.8678 335.04 68.291C334.793 68.7077 334.669 69.1797 334.669 69.707C334.669 70.2409 334.793 70.7161 335.04 71.1328C335.294 71.543 335.639 71.8652 336.075 72.0996C336.512 72.3275 336.99 72.4414 337.511 72.4414C338.058 72.4414 338.546 72.3275 338.976 72.0996C339.405 71.8652 339.744 71.543 339.991 71.1328C340.239 70.7161 340.362 70.2409 340.362 69.707C340.362 69.1667 340.239 68.6914 339.991 68.2812C339.744 67.8646 339.405 67.5423 338.976 67.3145C338.546 67.0866 338.058 66.9727 337.511 66.9727ZM362.736 70.1367H358.957V68.6133H362.736V70.1367ZM364.064 74.5703H362.209V64.1504H364.064V74.5703ZM358.195 75.0684C359.425 75.0684 360.483 75.1986 361.369 75.459C362.261 75.7194 362.941 76.097 363.41 76.5918C363.885 77.0801 364.123 77.6693 364.123 78.3594C364.123 79.0495 363.885 79.6387 363.41 80.127C362.941 80.6217 362.261 80.9993 361.369 81.2598C360.483 81.5202 359.425 81.6536 358.195 81.6602C356.977 81.6536 355.926 81.5202 355.041 81.2598C354.155 80.9993 353.475 80.6217 353 80.127C352.524 79.6387 352.287 79.0495 352.287 78.3594C352.287 77.6693 352.524 77.0801 353 76.5918C353.475 76.097 354.155 75.7194 355.041 75.459C355.926 75.1986 356.977 75.0684 358.195 75.0684ZM358.195 76.4941C357.355 76.4941 356.626 76.569 356.007 76.7188C355.395 76.862 354.927 77.0736 354.601 77.3535C354.282 77.6335 354.123 77.9688 354.123 78.3594C354.123 78.737 354.282 79.0658 354.601 79.3457C354.927 79.6257 355.395 79.8405 356.007 79.9902C356.626 80.1335 357.355 80.2051 358.195 80.2051C359.054 80.2051 359.787 80.1335 360.392 79.9902C361.004 79.8405 361.47 79.6257 361.789 79.3457C362.114 79.0658 362.277 78.737 362.277 78.3594C362.277 77.9688 362.114 77.6335 361.789 77.3535C361.47 77.0736 361.004 76.862 360.392 76.7188C359.787 76.569 359.054 76.4941 358.195 76.4941ZM355.382 67.2754C355.382 68.3496 355.181 69.3652 354.777 70.3223C354.38 71.2793 353.81 72.1191 353.068 72.8418C352.326 73.5579 351.457 74.1016 350.461 74.4727L349.494 72.9883C350.379 72.6758 351.151 72.2233 351.808 71.6309C352.472 71.0384 352.98 70.3646 353.332 69.6094C353.683 68.8477 353.859 68.0697 353.859 67.2754V65.918H355.382V67.2754ZM355.734 67.2559C355.734 67.9915 355.903 68.7077 356.242 69.4043C356.58 70.0944 357.069 70.7129 357.707 71.2598C358.345 71.8001 359.093 72.2201 359.953 72.5195L359.005 73.9941C358.022 73.6491 357.173 73.138 356.457 72.4609C355.74 71.7839 355.19 70.9961 354.806 70.0977C354.422 69.1927 354.23 68.2454 354.23 67.2559V65.918H355.734V67.2559ZM359.504 66.8848H350.05V65.3516H359.504V66.8848ZM372.453 68.6035C372.453 69.9837 372.242 71.3053 371.818 72.5684C371.395 73.8249 370.803 74.9349 370.041 75.8984C369.279 76.8555 368.391 77.5814 367.375 78.0762L366.213 76.5234C367.124 76.1133 367.935 75.5013 368.645 74.6875C369.361 73.8672 369.917 72.9264 370.314 71.8652C370.718 70.7975 370.92 69.7103 370.92 68.6035V65.6055H372.453V68.6035ZM372.785 68.6035C372.785 69.6647 372.98 70.7031 373.371 71.7188C373.768 72.7344 374.318 73.6393 375.021 74.4336C375.731 75.2279 376.529 75.8236 377.414 76.2207L376.301 77.6953C375.318 77.2266 374.439 76.5299 373.664 75.6055C372.896 74.681 372.3 73.6133 371.877 72.4023C371.454 71.1914 371.242 69.9251 371.242 68.6035V65.6055H372.785V68.6035ZM380.861 81.6992H378.996V64.1504H380.861V81.6992ZM39.8801 102.488H35.2219V100.975H39.8801V102.488ZM39.6848 107.166H35.0266V105.672H39.6848V107.166ZM35.8176 97.9277C35.8176 99.7832 35.58 101.482 35.1047 103.025C34.6294 104.562 33.8059 105.994 32.634 107.322C31.4686 108.65 29.8898 109.826 27.8977 110.848L26.8527 109.432C28.6171 108.54 30.0233 107.534 31.0715 106.414C32.1262 105.288 32.8814 104.051 33.3371 102.703C33.7928 101.349 34.0207 99.832 34.0207 98.1523V97.9277H35.8176ZM35.134 99.4414H27.8293V97.9277H35.134V99.4414ZM27.2238 104.295L26.9309 102.713L34.0109 102.264V103.67L27.2238 104.295ZM41.4621 113.66H39.6262V96.1406H41.4621V113.66ZM52.3219 98.6309C52.3219 99.64 52.0094 100.568 51.3844 101.414C50.7594 102.26 49.9228 102.967 48.8746 103.533C47.8264 104.1 46.6611 104.484 45.3785 104.686L44.6656 103.23C45.7594 103.074 46.7685 102.768 47.693 102.312C48.6174 101.857 49.3499 101.307 49.8902 100.662C50.4306 100.018 50.7008 99.3405 50.7008 98.6309V97.957H52.3219V98.6309ZM52.8102 98.6309C52.8102 99.3405 53.0771 100.018 53.6109 100.662C54.1513 101.307 54.8837 101.857 55.8082 102.312C56.7392 102.768 57.7516 103.074 58.8453 103.23L58.1715 104.686C56.8824 104.484 55.7073 104.103 54.6461 103.543C53.5914 102.983 52.7516 102.277 52.1266 101.424C51.5081 100.571 51.1988 99.64 51.1988 98.6309V97.957H52.8102V98.6309ZM52.6344 113.66H50.8082V107.049H52.6344V113.66ZM59.734 107.537H43.777V106.023H59.734V107.537ZM58.2398 98.6797H45.2516V97.1953H58.2398V98.6797ZM73.6602 99.3438H62.3418V97.8398H73.6602V99.3438ZM76.6191 111.287H60.6621V109.764H76.6191V111.287ZM68.5625 110.555H66.7363V103.592H68.5625V110.555ZM74.8223 99.5586C74.8223 100.594 74.8092 101.463 74.7832 102.166C74.7572 102.863 74.6986 103.689 74.6074 104.646C74.5163 105.597 74.3698 106.626 74.168 107.732L72.2832 107.527C72.498 106.479 72.6543 105.49 72.752 104.559C72.8496 103.628 72.9082 102.804 72.9277 102.088C72.9538 101.365 72.9668 100.522 72.9668 99.5586V97.8398H74.8223V99.5586ZM90.5945 98.6406C90.5945 99.8646 90.2658 101.014 89.6082 102.088C88.9572 103.156 88.088 104.061 87.0008 104.803C85.9135 105.545 84.7254 106.059 83.4363 106.346L82.6063 104.793C83.7195 104.572 84.7645 104.155 85.741 103.543C86.7176 102.931 87.4988 102.192 88.0848 101.326C88.6707 100.46 88.9637 99.5651 88.9637 98.6406V97.332H90.5945V98.6406ZM90.9168 98.6406C90.9168 99.5586 91.213 100.454 91.8055 101.326C92.3979 102.199 93.1857 102.944 94.1688 103.562C95.1518 104.174 96.1967 104.585 97.3035 104.793L96.4734 106.346C95.1974 106.059 94.0158 105.548 92.9285 104.812C91.8413 104.077 90.9689 103.172 90.3113 102.098C89.6538 101.023 89.325 99.8711 89.325 98.6406V97.332H90.9168V98.6406ZM98.0457 111.355H82.0301V109.822H98.0457V111.355ZM113.124 106.971H100.917V105.477H113.124V106.971ZM114.931 111.453H98.9152V109.93H114.931V111.453ZM112.948 99.1289H102.812V105.906H100.917V97.5859H112.948V99.1289ZM112.558 102.938H102.236V101.473H112.558V102.938ZM117.548 107.869C118.818 107.869 119.941 107.84 120.918 107.781C121.901 107.716 122.936 107.586 124.023 107.391L124.17 108.914C123.076 109.109 122.041 109.24 121.064 109.305C120.094 109.363 118.922 109.399 117.548 109.412H116.357V107.869H117.548ZM122.578 104.275H118.144V108.504H116.357V102.771H120.81V99.5391H116.328V98.0352H122.578V104.275ZM130.82 113.65H129.062V96.1504H130.82V113.65ZM126.259 103.855H123.388V102.352H126.259V103.855ZM127.226 112.752H125.478V96.5508H127.226V112.752ZM141.25 98.6406C141.25 99.8646 140.921 101.014 140.264 102.088C139.613 103.156 138.743 104.061 137.656 104.803C136.569 105.545 135.381 106.059 134.092 106.346L133.262 104.793C134.375 104.572 135.42 104.155 136.396 103.543C137.373 102.931 138.154 102.192 138.74 101.326C139.326 100.46 139.619 99.5651 139.619 98.6406V97.332H141.25V98.6406ZM141.572 98.6406C141.572 99.5586 141.868 100.454 142.461 101.326C143.053 102.199 143.841 102.944 144.824 103.562C145.807 104.174 146.852 104.585 147.959 104.793L147.129 106.346C145.853 106.059 144.671 105.548 143.584 104.812C142.497 104.077 141.624 103.172 140.967 102.098C140.309 101.023 139.98 99.8711 139.98 98.6406V97.332H141.572V98.6406ZM148.701 111.355H132.686V109.822H148.701V111.355ZM165.567 105.613H149.551V104.188H165.567V105.613ZM163.594 110.691H153.321V112.586H151.465V109.461H161.758V108.172H151.446V106.824H163.594V110.691ZM164.141 113.445H151.465V112.137H164.141V113.445ZM163.545 100.398H153.448V102.166H151.612V99.168H161.69V97.918H151.563V96.6094H163.545V100.398ZM163.858 103.035H151.612V101.736H163.858V103.035ZM177.228 106.033H175.363V103.367H177.228V106.033ZM176.251 96.9414C177.104 96.9414 177.859 97.0879 178.517 97.3809C179.174 97.6738 179.689 98.084 180.06 98.6113C180.437 99.1322 180.626 99.7409 180.626 100.438C180.626 101.108 180.437 101.707 180.06 102.234C179.689 102.762 179.174 103.172 178.517 103.465C177.859 103.758 177.104 103.904 176.251 103.904C175.411 103.904 174.656 103.758 173.986 103.465C173.321 103.172 172.807 102.762 172.443 102.234C172.078 101.707 171.896 101.108 171.896 100.438C171.896 99.7539 172.078 99.1484 172.443 98.6211C172.807 98.0872 173.321 97.6738 173.986 97.3809C174.656 97.0879 175.411 96.9414 176.251 96.9414ZM176.251 98.3672C175.743 98.3672 175.291 98.4518 174.894 98.6211C174.497 98.7904 174.187 99.0312 173.966 99.3438C173.745 99.6562 173.634 100.021 173.634 100.438C173.634 100.841 173.745 101.196 173.966 101.502C174.187 101.808 174.497 102.049 174.894 102.225C175.297 102.394 175.75 102.482 176.251 102.488C176.765 102.482 177.221 102.394 177.618 102.225C178.015 102.049 178.325 101.808 178.546 101.502C178.767 101.196 178.878 100.841 178.878 100.438C178.878 100.021 178.767 99.6562 178.546 99.3438C178.331 99.0247 178.022 98.7839 177.618 98.6211C177.221 98.4518 176.765 98.3672 176.251 98.3672ZM184.718 109.549H182.853V96.1699H184.718V109.549ZM187.208 103.514H183.986V101.951H187.208V103.514ZM185.333 113.279H173.38V111.756H185.333V113.279ZM175.255 112.439H173.38V108.387H175.255V112.439ZM170.909 105.535C172.863 105.548 174.764 105.516 176.613 105.438C178.461 105.359 180.183 105.2 181.779 104.959L181.915 106.326C180.294 106.613 178.598 106.805 176.827 106.902C175.063 106.993 173.162 107.039 171.124 107.039L170.909 105.535ZM194.123 109.412H192.257V106.551H194.123V109.412ZM201.545 113.65H199.679V96.1504H201.545V113.65ZM204.171 105.047H200.949V103.504H204.171V105.047ZM187.609 108.895C189.796 108.895 191.789 108.865 193.586 108.807C195.382 108.742 197.082 108.592 198.683 108.357L198.8 109.744C197.635 109.946 196.421 110.099 195.158 110.203C193.895 110.301 192.7 110.366 191.574 110.398C190.448 110.431 189.22 110.447 187.892 110.447L187.609 108.895ZM198.429 99.7148H187.931V98.2305H198.429V99.7148ZM193.205 100.633C194.025 100.633 194.751 100.77 195.382 101.043C196.014 101.31 196.509 101.688 196.867 102.176C197.231 102.664 197.414 103.237 197.414 103.895C197.414 104.533 197.231 105.096 196.867 105.584C196.509 106.066 196.014 106.443 195.382 106.717C194.751 106.99 194.025 107.127 193.205 107.127C192.384 107.127 191.655 106.99 191.017 106.717C190.379 106.443 189.884 106.066 189.533 105.584C189.188 105.096 189.015 104.533 189.015 103.895C189.015 103.237 189.188 102.664 189.533 102.176C189.884 101.688 190.379 101.31 191.017 101.043C191.655 100.77 192.384 100.633 193.205 100.633ZM193.205 102.049C192.723 102.049 192.296 102.127 191.925 102.283C191.561 102.433 191.274 102.648 191.066 102.928C190.858 103.201 190.754 103.523 190.754 103.895C190.754 104.253 190.854 104.572 191.056 104.852C191.258 105.125 191.545 105.333 191.916 105.477C192.293 105.613 192.723 105.682 193.205 105.682C193.686 105.682 194.11 105.613 194.474 105.477C194.845 105.333 195.132 105.125 195.334 104.852C195.535 104.572 195.636 104.253 195.636 103.895C195.636 103.523 195.535 103.201 195.334 102.928C195.132 102.648 194.845 102.433 194.474 102.283C194.11 102.127 193.686 102.049 193.205 102.049ZM194.123 99.2461H192.257V96.209H194.123V99.2461ZM218.342 113.65H216.506V96.1504H218.342V113.65ZM221.164 104.783H217.922V103.25H221.164V104.783ZM214.982 100.408H204.611V98.8945H214.982V100.408ZM209.875 101.707C210.708 101.707 211.454 101.88 212.111 102.225C212.775 102.57 213.293 103.051 213.664 103.67C214.042 104.288 214.23 104.988 214.23 105.77C214.23 106.557 214.042 107.26 213.664 107.879C213.293 108.497 212.775 108.979 212.111 109.324C211.454 109.669 210.708 109.842 209.875 109.842C209.035 109.842 208.286 109.669 207.629 109.324C206.971 108.979 206.454 108.497 206.076 107.879C205.705 107.26 205.52 106.557 205.52 105.77C205.52 104.988 205.705 104.288 206.076 103.67C206.454 103.051 206.971 102.57 207.629 102.225C208.286 101.88 209.035 101.707 209.875 101.707ZM209.875 103.24C209.38 103.24 208.938 103.348 208.547 103.562C208.156 103.771 207.847 104.067 207.619 104.451C207.398 104.835 207.287 105.275 207.287 105.77C207.287 106.271 207.398 106.71 207.619 107.088C207.847 107.465 208.156 107.762 208.547 107.977C208.938 108.185 209.38 108.289 209.875 108.289C210.37 108.289 210.812 108.185 211.203 107.977C211.594 107.762 211.9 107.465 212.121 107.088C212.342 106.71 212.453 106.271 212.453 105.77C212.453 105.275 212.342 104.835 212.121 104.451C211.9 104.067 211.594 103.771 211.203 103.562C210.812 103.348 210.37 103.24 209.875 103.24ZM210.783 99.5391H208.938V96.3848H210.783V99.5391ZM235.774 102.752H223.694V101.287H235.774V102.752ZM237.59 106.453H221.575V104.969H237.59V106.453ZM225.539 102.029H223.694V96.7949H225.539V102.029ZM235.871 113.24H223.577V111.717H235.871V113.24ZM225.432 112.156H223.577V108.123H225.432V112.156ZM258.001 113.65H256.224V96.1504H258.001V113.65ZM253.421 104.285H249.046V102.742H253.421V104.285ZM254.378 112.791H252.63V96.541H254.378V112.791ZM244.739 108.006C246.159 108.006 247.327 107.97 248.245 107.898C249.163 107.827 250.094 107.69 251.038 107.488L251.214 109.041C250.264 109.236 249.316 109.367 248.372 109.432C247.428 109.497 246.217 109.536 244.739 109.549H243.597V108.006H244.739ZM250.228 99.7637H245.404V108.621H243.597V98.2598H250.228V99.7637ZM278.51 105.73H266.322V104.236H278.51V105.73ZM280.346 111.521H264.33V109.988H280.346V111.521ZM273.207 110.555H271.391V104.9H273.207V110.555ZM278.344 99.0117H268.188V104.92H266.322V97.5273H278.344V99.0117ZM290.092 108.094H288.266V105.135H290.092V108.094ZM289.194 96.4531C290.463 96.4531 291.567 96.5866 292.504 96.8535C293.448 97.1204 294.171 97.5013 294.672 97.9961C295.18 98.4909 295.434 99.0898 295.434 99.793C295.434 100.464 295.18 101.049 294.672 101.551C294.171 102.046 293.448 102.423 292.504 102.684C291.567 102.944 290.463 103.074 289.194 103.074C287.924 103.074 286.817 102.944 285.873 102.684C284.936 102.423 284.21 102.046 283.696 101.551C283.181 101.049 282.924 100.464 282.924 99.793C282.924 99.0964 283.181 98.5007 283.696 98.0059C284.21 97.5046 284.936 97.1204 285.873 96.8535C286.817 96.5866 287.924 96.4531 289.194 96.4531ZM289.194 97.8984C288.289 97.8984 287.511 97.9733 286.86 98.123C286.215 98.2663 285.717 98.4811 285.366 98.7676C285.021 99.0475 284.848 99.3893 284.848 99.793C284.848 100.177 285.021 100.506 285.366 100.779C285.717 101.053 286.215 101.264 286.86 101.414C287.511 101.557 288.289 101.629 289.194 101.629C290.079 101.629 290.847 101.557 291.498 101.414C292.156 101.264 292.657 101.053 293.002 100.779C293.354 100.506 293.53 100.177 293.53 99.793C293.53 99.3893 293.354 99.0475 293.002 98.7676C292.657 98.4811 292.156 98.2663 291.498 98.123C290.847 97.9733 290.079 97.8984 289.194 97.8984ZM295.229 113.436H283.129V107.605H295.229V113.436ZM284.965 111.932H293.412V109.09H284.965V111.932ZM297.172 105.77H281.215V104.256H297.172V105.77ZM312.602 113.699H310.737V96.1504H312.602V113.699ZM303.227 97.4688C304.1 97.4688 304.878 97.7227 305.561 98.2305C306.245 98.7383 306.779 99.4544 307.163 100.379C307.547 101.303 307.739 102.381 307.739 103.611C307.739 104.848 307.547 105.929 307.163 106.854C306.779 107.778 306.245 108.494 305.561 109.002C304.878 109.503 304.1 109.754 303.227 109.754C302.355 109.754 301.574 109.503 300.884 109.002C300.2 108.494 299.666 107.778 299.282 106.854C298.898 105.929 298.706 104.848 298.706 103.611C298.706 102.381 298.898 101.303 299.282 100.379C299.666 99.4544 300.2 98.7383 300.884 98.2305C301.574 97.7227 302.355 97.4688 303.227 97.4688ZM303.227 99.1289C302.694 99.1289 302.218 99.3112 301.802 99.6758C301.385 100.04 301.063 100.561 300.835 101.238C300.613 101.909 300.503 102.7 300.503 103.611C300.503 104.516 300.613 105.307 300.835 105.984C301.063 106.661 301.385 107.182 301.802 107.547C302.218 107.905 302.694 108.084 303.227 108.084C303.761 108.084 304.233 107.905 304.643 107.547C305.06 107.182 305.382 106.661 305.61 105.984C305.838 105.307 305.952 104.516 305.952 103.611C305.952 102.7 305.838 101.909 305.61 101.238C305.382 100.561 305.063 100.04 304.653 99.6758C304.243 99.3112 303.768 99.1289 303.227 99.1289ZM326.246 104.959H324.38V102.068H326.246V104.959ZM334.009 106.258H332.144V96.1699H334.009V106.258ZM319.517 104.402C321.653 104.402 323.655 104.367 325.523 104.295C327.398 104.223 329.159 104.083 330.806 103.875L330.914 105.184C329.748 105.379 328.521 105.529 327.232 105.633C325.943 105.737 324.726 105.805 323.58 105.838C322.434 105.87 321.168 105.89 319.781 105.896L319.517 104.402ZM329.586 102.635H321.08V101.16H329.586V102.635ZM329.439 98.5137H322.935V101.688H321.08V97.0098H329.439V98.5137ZM324.185 108.709H332.183V107.01H334.009V113.436H322.339V107.01H324.185V108.709ZM332.183 111.932V110.115H324.185V111.932H332.183ZM350.875 113.65H349.039V96.1504H350.875V113.65ZM339.254 108.709H337.428V97.8594H339.254V108.709ZM338.893 107.615C340.299 107.615 341.702 107.553 343.102 107.43C344.508 107.299 345.914 107.088 347.32 106.795L347.564 108.357C346.093 108.657 344.648 108.875 343.229 109.012C341.816 109.142 340.37 109.207 338.893 109.207H337.428V107.615H338.893ZM366.871 113.699H365.026V96.1504H366.871V113.699ZM369.694 104.471H366.452V102.938H369.694V104.471ZM355.397 107.811C357.05 107.811 358.496 107.768 359.733 107.684C360.97 107.592 362.217 107.433 363.473 107.205L363.698 108.787C362.422 109.015 361.159 109.168 359.909 109.246C358.665 109.318 357.161 109.354 355.397 109.354H353.981V107.811H355.397ZM362.164 99.3535H355.827V108.533H353.981V97.8301H362.164V99.3535ZM372.116 112.137C371.869 112.137 371.638 112.072 371.423 111.941C371.208 111.811 371.039 111.642 370.915 111.434C370.798 111.219 370.739 110.988 370.739 110.74C370.739 110.499 370.798 110.271 370.915 110.057C371.039 109.842 371.208 109.676 371.423 109.559C371.638 109.435 371.869 109.373 372.116 109.373C372.357 109.373 372.585 109.435 372.8 109.559C373.014 109.676 373.184 109.842 373.307 110.057C373.431 110.271 373.493 110.499 373.493 110.74C373.493 110.988 373.431 111.219 373.307 111.434C373.184 111.642 373.014 111.811 372.8 111.941C372.585 112.072 372.357 112.137 372.116 112.137Z" fill="white"/>
</svg>
