<svg width="383" height="178" viewBox="0 0 383 178" fill="none" xmlns="http://www.w3.org/2000/svg">
<path d="M11.1445 12.3672C10.793 12.3672 10.4642 12.276 10.1582 12.0938C9.85221 11.9115 9.60807 11.6673 9.42578 11.3613C9.24349 11.0553 9.15234 10.7201 9.15234 10.3555C9.15234 9.99089 9.24349 9.6556 9.42578 9.34961C9.60807 9.04362 9.85221 8.80273 10.1582 8.62695C10.4642 8.45117 10.793 8.36328 11.1445 8.36328C11.5091 8.36328 11.8477 8.45117 12.1602 8.62695C12.4727 8.80273 12.7168 9.04362 12.8926 9.34961C13.0684 9.6556 13.1562 9.99089 13.1562 10.3555C13.1562 10.7201 13.0684 11.0553 12.8926 11.3613C12.7168 11.6673 12.4727 11.9115 12.1602 12.0938C11.8477 12.276 11.5091 12.3672 11.1445 12.3672ZM40.5 13.2461H38.9766V0.238281H40.5V13.2461ZM43.1172 7.25H40.0117V5.96094H43.1172V7.25ZM37.3164 3.61719H26.9648V2.36719H37.3164V3.61719ZM32.1406 4.57422C32.9609 4.57422 33.6868 4.70768 34.3184 4.97461C34.9499 5.24154 35.4414 5.61914 35.793 6.10742C36.1445 6.5957 36.3203 7.16536 36.3203 7.81641C36.3203 8.45443 36.1445 9.01432 35.793 9.49609C35.4414 9.97786 34.9499 10.3522 34.3184 10.6191C33.6868 10.8861 32.9609 11.0195 32.1406 11.0195C31.3203 11.0195 30.5911 10.8861 29.9531 10.6191C29.3151 10.3522 28.8236 9.97786 28.4785 9.49609C28.1335 9.01432 27.9609 8.45443 27.9609 7.81641C27.9609 7.16536 28.1335 6.5957 28.4785 6.10742C28.8236 5.61914 29.3151 5.24154 29.9531 4.97461C30.5911 4.70768 31.3203 4.57422 32.1406 4.57422ZM32.1406 5.78516C31.6068 5.78516 31.1315 5.86654 30.7148 6.0293C30.2982 6.19206 29.9792 6.42969 29.7578 6.74219C29.5365 7.05469 29.4258 7.41276 29.4258 7.81641C29.4258 8.22005 29.5365 8.57161 29.7578 8.87109C29.9792 9.17057 30.2982 9.40169 30.7148 9.56445C31.1315 9.72721 31.6068 9.80859 32.1406 9.80859C32.6745 9.80859 33.1497 9.72721 33.5664 9.56445C33.9831 9.40169 34.3053 9.17057 34.5332 8.87109C34.7611 8.57161 34.875 8.22005 34.875 7.81641C34.875 7.41276 34.7611 7.05469 34.5332 6.74219C34.3053 6.42969 33.9831 6.19206 33.5664 6.0293C33.1497 5.86654 32.6745 5.78516 32.1406 5.78516ZM32.9023 3.01172H31.3789V0.238281H32.9023V3.01172ZM41.3008 17.2109H29.6406V15.9219H41.3008V17.2109ZM31.1445 16.4492H29.6406V12.2109H31.1445V16.4492ZM59.9633 4.16406H56.9359V2.91406H59.9633V4.16406ZM59.9633 7.91406H56.9359V6.60547H59.9633V7.91406ZM57.3852 10.5508H55.8617V0.21875H57.3852V10.5508ZM57.3852 17.582H55.8617V12.6211H46.018V11.3516H57.3852V17.582ZM48.6937 1.27344C49.5661 1.26042 50.3474 1.42643 51.0375 1.77148C51.7276 2.11654 52.2712 2.60156 52.6684 3.22656C53.0655 3.85156 53.2641 4.5612 53.2641 5.35547C53.2641 6.14974 53.0655 6.85938 52.6684 7.48438C52.2712 8.10938 51.7276 8.59766 51.0375 8.94922C50.3474 9.30078 49.5661 9.47656 48.6937 9.47656C47.8214 9.47656 47.0401 9.30078 46.35 8.94922C45.6599 8.59766 45.1195 8.10938 44.7289 7.48438C44.3383 6.85938 44.143 6.14974 44.143 5.35547C44.143 4.5612 44.3383 3.85482 44.7289 3.23633C45.1195 2.61784 45.6599 2.13281 46.35 1.78125C47.0401 1.42969 47.8214 1.26042 48.6937 1.27344ZM48.6937 2.58203C48.1208 2.58203 47.6 2.69922 47.1312 2.93359C46.6625 3.16797 46.2979 3.49349 46.0375 3.91016C45.7771 4.32682 45.6469 4.80859 45.6469 5.35547C45.6469 5.90234 45.7771 6.38737 46.0375 6.81055C46.2979 7.23372 46.6625 7.5625 47.1312 7.79688C47.6 8.03125 48.1208 8.14844 48.6937 8.14844C49.2797 8.14844 49.807 8.03125 50.2758 7.79688C50.7445 7.5625 51.1091 7.23372 51.3695 6.81055C51.6299 6.38737 51.7602 5.90234 51.7602 5.35547C51.7602 4.80859 51.6299 4.32682 51.3695 3.91016C51.1091 3.49349 50.7445 3.16797 50.2758 2.93359C49.807 2.69922 49.2797 2.58203 48.6937 2.58203ZM76.5164 10.6289H60.6961V9.37891H76.5164V10.6289ZM74.7586 17.2109H62.7469V15.9219H74.7586V17.2109ZM64.2898 16.3125H62.7469V12.1523H64.2898V16.3125ZM68.6062 0.84375C69.8432 0.830729 70.924 0.960938 71.8484 1.23438C72.7729 1.50781 73.4858 1.90495 73.9871 2.42578C74.4884 2.94661 74.7391 3.5651 74.7391 4.28125C74.7391 4.9974 74.4884 5.61263 73.9871 6.12695C73.4858 6.64128 72.7729 7.03841 71.8484 7.31836C70.924 7.59831 69.8432 7.73828 68.6062 7.73828C67.3562 7.73828 66.269 7.59831 65.3445 7.31836C64.42 7.03841 63.7072 6.64128 63.2059 6.12695C62.7046 5.61263 62.4539 4.9974 62.4539 4.28125C62.4539 3.5651 62.7046 2.94661 63.2059 2.42578C63.7072 1.90495 64.42 1.50781 65.3445 1.23438C66.269 0.960938 67.3562 0.830729 68.6062 0.84375ZM68.6062 2.07422C67.6818 2.07422 66.8745 2.16211 66.1844 2.33789C65.4943 2.51367 64.9637 2.76758 64.5926 3.09961C64.2215 3.43164 64.0359 3.82552 64.0359 4.28125C64.0359 4.72396 64.2215 5.11133 64.5926 5.44336C64.9637 5.77539 65.4943 6.03255 66.1844 6.21484C66.8745 6.39714 67.6818 6.48828 68.6062 6.48828C69.5307 6.48828 70.338 6.39714 71.0281 6.21484C71.7182 6.03255 72.2488 5.77539 72.6199 5.44336C72.991 5.11133 73.1766 4.72396 73.1766 4.28125C73.1766 3.82552 72.991 3.43164 72.6199 3.09961C72.2488 2.76758 71.7182 2.51367 71.0281 2.33789C70.338 2.16211 69.5307 2.07422 68.6062 2.07422ZM97.025 17.582H95.5211V0.21875H97.025V17.582ZM96.0875 8.5H92.6695V7.23047H96.0875V8.5ZM89.6813 2.48438C89.6813 4.04688 89.4729 5.51497 89.0563 6.88867C88.6396 8.26237 87.9462 9.54492 86.9762 10.7363C86.0061 11.9277 84.7203 12.9661 83.1188 13.8516L82.2203 12.7773C83.6526 11.9831 84.8115 11.0651 85.6969 10.0234C86.5823 8.98177 87.2236 7.85547 87.6207 6.64453C88.0178 5.43359 88.2164 4.13151 88.2164 2.73828V2.48438H89.6813ZM88.7242 3.75391H82.8844V2.48438H88.7242V3.75391ZM93.1188 16.7227H91.6539V0.6875H93.1188V16.7227ZM113.422 12.9336H111.898V0.238281H113.422V12.9336ZM113.969 17.2109H102.211V15.9219H113.969V17.2109ZM103.734 16.3516H102.211V11.6445H103.734V16.3516ZM104.047 1.44922C104.906 1.44922 105.684 1.62826 106.381 1.98633C107.077 2.3444 107.621 2.84896 108.012 3.5C108.402 4.15104 108.598 4.88672 108.598 5.70703C108.598 6.54036 108.402 7.2793 108.012 7.92383C107.621 8.56836 107.077 9.07292 106.381 9.4375C105.684 9.80208 104.906 9.98438 104.047 9.98438C103.188 9.98438 102.413 9.80208 101.723 9.4375C101.033 9.07292 100.489 8.56836 100.092 7.92383C99.6947 7.2793 99.4961 6.54036 99.4961 5.70703C99.4961 4.88672 99.6947 4.15104 100.092 3.5C100.489 2.84896 101.033 2.3444 101.723 1.98633C102.413 1.62826 103.188 1.44922 104.047 1.44922ZM104.047 2.79688C103.474 2.79688 102.953 2.92057 102.484 3.16797C102.016 3.41536 101.651 3.76042 101.391 4.20312C101.13 4.64583 101 5.14714 101 5.70703C101 6.26693 101.13 6.77148 101.391 7.2207C101.651 7.66992 102.016 8.01823 102.484 8.26562C102.953 8.51302 103.474 8.63672 104.047 8.63672C104.62 8.63672 105.137 8.51302 105.6 8.26562C106.062 8.01823 106.426 7.66992 106.693 7.2207C106.96 6.77148 107.094 6.26693 107.094 5.70703C107.094 5.14714 106.96 4.64583 106.693 4.20312C106.426 3.76042 106.062 3.41536 105.6 3.16797C105.137 2.92057 104.62 2.79688 104.047 2.79688ZM129.233 3.91016H124.233V2.71875H129.233V3.91016ZM129.233 7.07422H124.233V5.86328H129.233V7.07422ZM130.346 9.30078H128.823V0.21875H130.346V9.30078ZM130.346 14.2227H120.659V16.957H119.135V13.0508H128.823V11.3711H119.096V10.1406H130.346V14.2227ZM131.01 17.3477H119.135V16.1172H131.01V17.3477ZM118.373 3.53906H123.217V1.03906H124.721V8.59766H116.85V1.03906H118.373V3.53906ZM123.217 7.34766V4.75H118.373V7.34766H123.217ZM147.964 8.38281H144.624V7.07422H147.964V8.38281ZM142.3 5.57031C142.3 6.72917 142.137 7.85872 141.812 8.95898C141.486 10.0592 141.021 11.0521 140.415 11.9375C139.81 12.8229 139.09 13.5195 138.257 14.0273L137.339 12.8555C138.107 12.4128 138.775 11.804 139.341 11.0293C139.907 10.2546 140.344 9.39193 140.65 8.44141C140.956 7.49089 141.109 6.53385 141.109 5.57031V4.65234H142.3V5.57031ZM142.554 5.57031C142.554 6.49479 142.707 7.40951 143.013 8.31445C143.319 9.2194 143.758 10.0365 144.331 10.7656C144.904 11.4948 145.575 12.0677 146.343 12.4844L145.464 13.6367C144.631 13.181 143.905 12.5332 143.286 11.6934C142.668 10.8535 142.196 9.90299 141.87 8.8418C141.545 7.7806 141.382 6.6901 141.382 5.57031V4.65234H142.554V5.57031ZM145.816 4.71094H137.808V3.44141H145.816V4.71094ZM142.573 4.39844H141.109V0.863281H142.573V4.39844ZM152.32 17.582H150.855V0.21875H152.32V17.582ZM148.804 16.6836H147.359V0.648438H148.804V16.6836ZM168.677 9.24219H167.173V0.21875H168.677V9.24219ZM168.697 14.2227H158.951V16.7227H157.447V13.0703H167.173V11.293H157.408V10.082H168.697V14.2227ZM169.322 17.3867H157.447V16.1562H169.322V17.3867ZM160.318 2.67969C160.318 3.68229 160.11 4.62305 159.693 5.50195C159.276 6.38086 158.69 7.14583 157.935 7.79688C157.18 8.44792 156.314 8.9362 155.337 9.26172L154.615 8.05078C155.487 7.76432 156.259 7.34766 156.929 6.80078C157.6 6.25391 158.124 5.62565 158.502 4.91602C158.879 4.20638 159.068 3.46094 159.068 2.67969V1.74219H160.318V2.67969ZM160.611 2.67969C160.611 3.42188 160.8 4.12826 161.177 4.79883C161.555 5.4694 162.082 6.05534 162.759 6.55664C163.436 7.05794 164.211 7.4388 165.084 7.69922L164.322 8.89062C163.358 8.57812 162.502 8.11914 161.754 7.51367C161.005 6.9082 160.422 6.1888 160.005 5.35547C159.589 4.52214 159.38 3.63021 159.38 2.67969V1.74219H160.611V2.67969ZM164.615 2.48438H155.005V1.21484H164.615V2.48438ZM179.977 3.40234H172.047V2.15234H179.977V3.40234ZM176.324 12.9922H174.82V7.11328H176.324V12.9922ZM180.875 3.05078C180.862 3.87109 180.849 4.55143 180.836 5.0918C180.823 5.63216 180.781 6.32878 180.709 7.18164C180.637 8.03451 180.523 8.95573 180.367 9.94531L178.824 9.80859C179.046 8.42839 179.186 7.2207 179.244 6.18555C179.303 5.15039 179.332 4.10547 179.332 3.05078V2.15234H180.875V3.05078ZM184.645 17.582H183.121V0.21875H184.645V17.582ZM187.457 8.8125H184.234V7.48438H187.457V8.8125ZM171.07 12.4844C173.18 12.4714 175.136 12.429 176.939 12.3574C178.743 12.2858 180.439 12.1589 182.027 11.9766L182.105 13.1289C180.465 13.3763 178.727 13.5456 176.891 13.6367C175.055 13.7279 173.18 13.7669 171.266 13.7539L171.07 12.4844ZM208.571 9.75H192.751V8.48047H208.571V9.75ZM200.661 11.2734C201.898 11.2734 202.966 11.3971 203.864 11.6445C204.762 11.8919 205.449 12.25 205.925 12.7188C206.4 13.1875 206.637 13.7539 206.637 14.418C206.637 15.082 206.4 15.6484 205.925 16.1172C205.449 16.5859 204.766 16.9408 203.874 17.1816C202.982 17.4225 201.911 17.543 200.661 17.543C199.411 17.543 198.337 17.4225 197.438 17.1816C196.54 16.9408 195.853 16.5859 195.378 16.1172C194.902 15.6484 194.665 15.082 194.665 14.418C194.665 13.7539 194.906 13.1875 195.387 12.7188C195.869 12.25 196.559 11.8919 197.458 11.6445C198.356 11.3971 199.424 11.2734 200.661 11.2734ZM200.661 12.4844C199.736 12.4844 198.939 12.5592 198.268 12.709C197.598 12.8587 197.09 13.0801 196.745 13.373C196.4 13.666 196.227 14.0143 196.227 14.418C196.227 14.8086 196.403 15.1471 196.755 15.4336C197.106 15.7201 197.614 15.9382 198.278 16.0879C198.942 16.2376 199.736 16.3125 200.661 16.3125C201.585 16.3125 202.38 16.2376 203.044 16.0879C203.708 15.9382 204.216 15.7201 204.567 15.4336C204.919 15.1471 205.095 14.8086 205.095 14.418C205.095 14.0143 204.919 13.666 204.567 13.373C204.216 13.0801 203.708 12.8587 203.044 12.709C202.38 12.5592 201.585 12.4844 200.661 12.4844ZM201.032 2.30859C201.032 3.20703 200.72 4.01758 200.095 4.74023C199.47 5.46289 198.636 6.05534 197.595 6.51758C196.553 6.97982 195.42 7.28906 194.196 7.44531L193.649 6.21484C194.691 6.09766 195.674 5.85352 196.598 5.48242C197.523 5.11133 198.265 4.64909 198.825 4.0957C199.385 3.54232 199.665 2.94661 199.665 2.30859V1.78125H201.032V2.30859ZM201.657 2.30859C201.657 2.94661 201.937 3.54232 202.497 4.0957C203.057 4.64909 203.799 5.11133 204.723 5.48242C205.648 5.85352 206.637 6.09766 207.692 6.21484L207.126 7.44531C205.915 7.28906 204.789 6.97982 203.747 6.51758C202.705 6.05534 201.869 5.46289 201.237 4.74023C200.606 4.01758 200.29 3.20703 200.29 2.30859V1.78125H201.657V2.30859ZM207.165 2.38672H194.196V1.11719H207.165V2.38672ZM215.202 2.91406C215.202 4.00781 215.001 5.0332 214.597 5.99023C214.193 6.94727 213.633 7.7806 212.917 8.49023C212.201 9.19987 211.361 9.74349 210.398 10.1211L209.577 8.89062C210.437 8.5651 211.195 8.10286 211.853 7.50391C212.51 6.90495 213.021 6.20833 213.386 5.41406C213.751 4.61979 213.933 3.78646 213.933 2.91406V1.11719H215.202V2.91406ZM215.437 3.03125C215.437 3.79948 215.622 4.54492 215.993 5.26758C216.364 5.99023 216.876 6.625 217.527 7.17188C218.178 7.71875 218.92 8.13542 219.753 8.42188L218.913 9.63281C217.989 9.29427 217.168 8.79622 216.452 8.13867C215.736 7.48112 215.18 6.71289 214.782 5.83398C214.385 4.95508 214.187 4.02083 214.187 3.03125V1.11719H215.437V3.03125ZM223.21 10.7852H221.687V0.21875H223.21V10.7852ZM225.827 6.03906H222.78V4.75H225.827V6.03906ZM217.644 11.2344C218.829 11.2344 219.851 11.3581 220.71 11.6055C221.57 11.8529 222.227 12.2109 222.683 12.6797C223.139 13.1484 223.366 13.7148 223.366 14.3789C223.366 15.043 223.139 15.6126 222.683 16.0879C222.227 16.5632 221.573 16.9245 220.72 17.1719C219.867 17.4193 218.842 17.543 217.644 17.543C216.459 17.543 215.433 17.4193 214.568 17.1719C213.702 16.9245 213.038 16.5632 212.575 16.0879C212.113 15.6126 211.882 15.043 211.882 14.3789C211.882 13.7148 212.113 13.1484 212.575 12.6797C213.038 12.2109 213.702 11.8529 214.568 11.6055C215.433 11.3581 216.459 11.2344 217.644 11.2344ZM217.644 12.4648C216.784 12.4648 216.036 12.5397 215.398 12.6895C214.76 12.8392 214.271 13.0605 213.933 13.3535C213.594 13.6465 213.425 13.9883 213.425 14.3789C213.425 14.7826 213.594 15.1309 213.933 15.4238C214.271 15.7168 214.756 15.9382 215.388 16.0879C216.019 16.2376 216.771 16.319 217.644 16.332C218.529 16.319 219.288 16.2376 219.919 16.0879C220.551 15.9382 221.036 15.7168 221.374 15.4238C221.713 15.1309 221.882 14.7826 221.882 14.3789C221.882 13.9753 221.713 13.6302 221.374 13.3438C221.036 13.0573 220.547 12.8392 219.909 12.6895C219.271 12.5397 218.516 12.4648 217.644 12.4648ZM236.97 8.26562H233.63V6.99609H236.97V8.26562ZM241.404 17.582H239.92V0.21875H241.404V17.582ZM237.908 16.7031H236.443V0.589844H237.908V16.7031ZM230.466 1.68359C231.222 1.68359 231.879 1.92773 232.439 2.41602C232.999 2.9043 233.435 3.60417 233.748 4.51562C234.06 5.42708 234.216 6.49479 234.216 7.71875C234.216 8.92969 234.06 9.99089 233.748 10.9023C233.435 11.8138 232.999 12.5169 232.439 13.0117C231.879 13.5065 231.222 13.7539 230.466 13.7539C229.724 13.7539 229.07 13.5065 228.504 13.0117C227.937 12.5169 227.501 11.8138 227.195 10.9023C226.889 9.99089 226.736 8.92969 226.736 7.71875C226.736 6.49479 226.889 5.42708 227.195 4.51562C227.501 3.60417 227.937 2.9043 228.504 2.41602C229.07 1.92773 229.724 1.68359 230.466 1.68359ZM230.466 3.12891C229.998 3.12891 229.591 3.31445 229.246 3.68555C228.901 4.05664 228.637 4.58724 228.455 5.27734C228.272 5.96745 228.181 6.78125 228.181 7.71875C228.181 8.64323 228.272 9.45052 228.455 10.1406C228.637 10.8307 228.904 11.3613 229.255 11.7324C229.607 12.1035 230.011 12.2891 230.466 12.2891C230.935 12.2891 231.342 12.1035 231.687 11.7324C232.032 11.3613 232.299 10.8307 232.488 10.1406C232.677 9.45052 232.771 8.64323 232.771 7.71875C232.771 6.78125 232.677 5.96745 232.488 5.27734C232.299 4.58724 232.032 4.05664 231.687 3.68555C231.342 3.31445 230.935 3.12891 230.466 3.12891ZM256.795 8.83203H248.768V1.41016H256.795V8.83203ZM250.272 7.58203H255.311V2.66016H250.272V7.58203ZM261.6 10.1406H260.077V0.21875H261.6V10.1406ZM264.217 5.6875H261.17V4.39844H264.217V5.6875ZM256.678 12.2109C256.678 13.0833 256.395 13.8874 255.829 14.623C255.262 15.3587 254.497 15.9772 253.534 16.4785C252.57 16.9798 251.515 17.3216 250.37 17.5039L249.784 16.332C250.786 16.1758 251.714 15.8958 252.567 15.4922C253.42 15.0885 254.103 14.6003 254.618 14.0273C255.132 13.4544 255.389 12.849 255.389 12.2109V11.7227H256.678V12.2109ZM256.971 12.2109C256.971 12.8359 257.232 13.4349 257.752 14.0078C258.273 14.5807 258.963 15.0723 259.823 15.4824C260.682 15.8926 261.6 16.1758 262.577 16.332L262.01 17.5234C260.864 17.3281 259.806 16.9798 258.836 16.4785C257.866 15.9772 257.092 15.3555 256.512 14.6133C255.933 13.8711 255.643 13.0703 255.643 12.2109V11.7227H256.971V12.2109ZM261.913 12.4062H250.467V11.1562H261.913V12.4062ZM271.005 3.44141C271.005 4.27474 270.806 5.04297 270.409 5.74609C270.012 6.44922 269.452 7.04818 268.729 7.54297C268.007 8.03776 267.17 8.40885 266.22 8.65625L265.555 7.48438C266.363 7.28906 267.085 6.99284 267.723 6.5957C268.361 6.19857 268.856 5.72656 269.208 5.17969C269.559 4.63281 269.735 4.05339 269.735 3.44141V3.16797H271.005V3.44141ZM271.317 3.44141C271.317 4.01432 271.496 4.55469 271.854 5.0625C272.212 5.57031 272.707 6.00977 273.339 6.38086C273.97 6.75195 274.69 7.02865 275.497 7.21094L274.833 8.42188C273.895 8.1875 273.069 7.82943 272.352 7.34766C271.636 6.86589 271.08 6.28971 270.682 5.61914C270.285 4.94857 270.087 4.22266 270.087 3.44141V3.16797H271.317V3.44141ZM275.106 3.38281H265.927V2.15234H275.106V3.38281ZM271.298 2.875H269.774V0.277344H271.298V2.875ZM271.239 17.0547H269.696V10.082H271.239V17.0547ZM279.286 17.6016H277.723V0.238281H279.286V17.6016ZM264.833 9.78906C266.968 9.80208 268.996 9.77279 270.917 9.70117C272.837 9.62956 274.651 9.47005 276.356 9.22266L276.454 10.3945C274.696 10.694 272.873 10.8893 270.985 10.9805C269.097 11.0716 267.118 11.1107 265.048 11.0977L264.833 9.78906ZM278.134 13.5781H273.72V12.3477H278.134V13.5781ZM300.81 17.6211H299.267V0.21875H300.81V17.6211ZM299.736 8.48047H295.459V7.21094H299.736V8.48047ZM292.138 5.88281C292.138 7.06771 291.93 8.2168 291.513 9.33008C291.097 10.4434 290.524 11.4264 289.795 12.2793C289.065 13.1322 288.245 13.7799 287.334 14.2227L286.455 13.0312C287.301 12.6276 288.063 12.0547 288.74 11.3125C289.417 10.5703 289.948 9.72396 290.332 8.77344C290.716 7.82292 290.908 6.85938 290.908 5.88281V4.32031H292.138V5.88281ZM292.412 5.88281C292.412 6.82031 292.61 7.74154 293.007 8.64648C293.405 9.55143 293.948 10.3587 294.638 11.0684C295.328 11.778 296.097 12.3281 296.943 12.7188L296.064 13.9102C295.14 13.4805 294.306 12.8587 293.564 12.0449C292.822 11.2311 292.242 10.2871 291.826 9.21289C291.409 8.13867 291.201 7.02865 291.201 5.88281V4.32031H292.412V5.88281ZM296.357 4.49609H286.923V3.24609H296.357V4.49609ZM292.431 3.94922H290.908V0.550781H292.431V3.94922ZM311.309 11.1367C312.493 11.1367 313.516 11.2604 314.375 11.5078C315.234 11.7552 315.892 12.1198 316.348 12.6016C316.803 13.0833 317.031 13.6628 317.031 14.3398C317.031 15.0169 316.803 15.5964 316.348 16.0781C315.892 16.5599 315.238 16.9277 314.385 17.1816C313.532 17.4355 312.507 17.569 311.309 17.582C310.124 17.569 309.098 17.4355 308.232 17.1816C307.367 16.9277 306.702 16.5599 306.24 16.0781C305.778 15.5964 305.547 15.0169 305.547 14.3398C305.547 13.6628 305.778 13.0833 306.24 12.6016C306.702 12.1198 307.367 11.7552 308.232 11.5078C309.098 11.2604 310.124 11.1367 311.309 11.1367ZM311.309 12.3477C310.436 12.3477 309.684 12.429 309.053 12.5918C308.421 12.7546 307.936 12.9824 307.598 13.2754C307.259 13.5684 307.09 13.9232 307.09 14.3398C307.09 14.7435 307.259 15.0951 307.598 15.3945C307.936 15.694 308.424 15.9251 309.062 16.0879C309.701 16.2507 310.449 16.332 311.309 16.332C312.181 16.332 312.936 16.2507 313.574 16.0879C314.212 15.9251 314.701 15.694 315.039 15.3945C315.378 15.0951 315.547 14.7435 315.547 14.3398C315.547 13.9232 315.378 13.5684 315.039 13.2754C314.701 12.9824 314.215 12.7546 313.584 12.5918C312.952 12.429 312.194 12.3477 311.309 12.3477ZM316.875 10.668H315.352V0.21875H316.875V10.668ZM319.492 5.90234H316.445V4.59375H319.492V5.90234ZM305.547 3.96875H310.605V1.3125H312.129V9.32031H304.043V1.3125H305.547V3.96875ZM310.605 8.07031V5.17969H305.547V8.07031H310.605ZM333.76 10.3164H332.237V0.21875H333.76V10.3164ZM336.377 5.98047H333.096V4.67188H336.377V5.98047ZM324.307 12.9336H332.237V11.0781H333.76V17.3477H322.784V11.0781H324.307V12.9336ZM332.237 16.1172V14.1445H324.307V16.1172H332.237ZM330.577 3.28516H320.225V2.01562H330.577V3.28516ZM325.401 4.08594C326.234 4.08594 326.963 4.20964 327.588 4.45703C328.213 4.70443 328.702 5.05924 329.053 5.52148C329.405 5.98372 329.58 6.52083 329.58 7.13281C329.58 7.74479 329.405 8.27865 329.053 8.73438C328.702 9.1901 328.213 9.54492 327.588 9.79883C326.963 10.0527 326.234 10.1797 325.401 10.1797C324.567 10.1797 323.835 10.0527 323.204 9.79883C322.572 9.54492 322.084 9.1901 321.739 8.73438C321.394 8.27865 321.221 7.74479 321.221 7.13281C321.221 6.52083 321.394 5.98372 321.739 5.52148C322.084 5.05924 322.572 4.70443 323.204 4.45703C323.835 4.20964 324.567 4.08594 325.401 4.08594ZM325.401 5.27734C324.867 5.26432 324.392 5.33594 323.975 5.49219C323.558 5.64844 323.239 5.86979 323.018 6.15625C322.797 6.44271 322.686 6.76823 322.686 7.13281C322.686 7.4974 322.797 7.82292 323.018 8.10938C323.239 8.39583 323.558 8.61719 323.975 8.77344C324.392 8.92969 324.867 9.00781 325.401 9.00781C325.935 9.00781 326.41 8.92969 326.827 8.77344C327.243 8.61719 327.566 8.39583 327.793 8.10938C328.021 7.82292 328.135 7.4974 328.135 7.13281C328.135 6.75521 328.018 6.42643 327.784 6.14648C327.549 5.86654 327.227 5.64844 326.817 5.49219C326.407 5.33594 325.935 5.26432 325.401 5.27734ZM326.163 2.69922H324.639V0.0625H326.163V2.69922ZM351.388 17.582H349.864V0.21875H351.388V17.582ZM339.708 12.6797H338.204V1.9375H339.708V12.6797ZM339.61 11.7812C341.029 11.7812 342.432 11.7161 343.819 11.5859C345.206 11.4557 346.602 11.2409 348.009 10.9414L348.223 12.25C346.752 12.5495 345.317 12.7676 343.917 12.9043C342.517 13.041 341.082 13.1094 339.61 13.1094H338.204V11.7812H339.61ZM367.394 17.6211H365.87V0.21875H367.394V17.6211ZM370.304 8.38281H367.042V7.09375H370.304V8.38281ZM356.085 11.9766C357.765 11.9766 359.22 11.931 360.45 11.8398C361.681 11.7487 362.928 11.5859 364.191 11.3516L364.386 12.6797C363.11 12.9141 361.853 13.0703 360.616 13.1484C359.379 13.2266 357.869 13.2656 356.085 13.2656H354.718V11.9766H356.085ZM362.823 3.1875H356.241V12.5625H354.718V1.91797H362.823V3.1875ZM372.677 16.1172C372.456 16.1172 372.248 16.0586 372.052 15.9414C371.857 15.8242 371.704 15.668 371.593 15.4727C371.483 15.2773 371.427 15.069 371.427 14.8477C371.427 14.6263 371.483 14.418 371.593 14.2227C371.704 14.0273 371.857 13.8743 372.052 13.7637C372.248 13.653 372.456 13.5977 372.677 13.5977C372.899 13.5977 373.107 13.653 373.302 13.7637C373.498 13.8743 373.651 14.0273 373.761 14.2227C373.872 14.418 373.927 14.6263 373.927 14.8477C373.927 15.069 373.872 15.2773 373.761 15.4727C373.651 15.668 373.498 15.8242 373.302 15.9414C373.107 16.0586 372.899 16.1172 372.677 16.1172ZM81.9664 34.7773C81.9664 35.9753 81.6279 37.0951 80.9508 38.1367C80.2737 39.1784 79.398 40.0573 78.3238 40.7734C77.2496 41.4896 76.12 41.9844 74.9352 42.2578L74.232 40.9688C75.2607 40.7604 76.2698 40.3535 77.2594 39.748C78.249 39.1426 79.0562 38.4004 79.6812 37.5215C80.3062 36.6426 80.6187 35.7279 80.6187 34.7773V33.4492H81.9664V34.7773ZM82.2203 34.7773C82.2203 35.7148 82.5393 36.6263 83.1773 37.5117C83.8154 38.3971 84.6324 39.1458 85.6285 39.7578C86.6246 40.3698 87.6305 40.7734 88.6461 40.9688L87.943 42.2578C86.7711 41.9844 85.648 41.4928 84.5738 40.7832C83.4996 40.0736 82.6207 39.1947 81.9371 38.1465C81.2535 37.0983 80.9117 35.9753 80.9117 34.7773V33.4492H82.2203V34.7773ZM89.4664 47.2188H73.568V45.9492H89.4664V47.2188ZM104.516 42.8633H92.5039V41.6133H104.516V42.8633ZM106.352 47.3164H90.4531V46.0469H106.352V47.3164ZM104.32 35.0117H94.0664V41.9844H92.5039V33.7227H104.32V35.0117ZM103.949 38.8203H93.5781V37.5898H103.949V38.8203ZM109.077 44.0156C110.327 44.0156 111.45 43.9831 112.446 43.918C113.442 43.8529 114.5 43.7227 115.62 43.5273L115.737 44.7969C114.617 44.9922 113.569 45.1224 112.592 45.1875C111.616 45.2526 110.444 45.2917 109.077 45.3047H107.924V44.0156H109.077ZM114.116 40.1484H109.409V44.5625H107.924V38.8789H112.651V35.4219H107.885V34.1523H114.116V40.1484ZM122.182 49.582H120.717V32.2188H122.182V49.582ZM117.846 39.7383H114.955V38.4883H117.846V39.7383ZM118.627 48.6641H117.182V32.6484H118.627V48.6641ZM132.622 34.7773C132.622 35.9753 132.283 37.0951 131.606 38.1367C130.929 39.1784 130.054 40.0573 128.979 40.7734C127.905 41.4896 126.776 41.9844 125.591 42.2578L124.887 40.9688C125.916 40.7604 126.925 40.3535 127.915 39.748C128.904 39.1426 129.712 38.4004 130.337 37.5215C130.962 36.6426 131.274 35.7279 131.274 34.7773V33.4492H132.622V34.7773ZM132.876 34.7773C132.876 35.7148 133.195 36.6263 133.833 37.5117C134.471 38.3971 135.288 39.1458 136.284 39.7578C137.28 40.3698 138.286 40.7734 139.302 40.9688L138.598 42.2578C137.427 41.9844 136.304 41.4928 135.229 40.7832C134.155 40.0736 133.276 39.1947 132.593 38.1465C131.909 37.0983 131.567 35.9753 131.567 34.7773V33.4492H132.876V34.7773ZM140.122 47.2188H124.223V45.9492H140.122V47.2188ZM156.987 41.4961H141.089V40.2852H156.987V41.4961ZM154.995 46.5742H144.566V48.6445H143.023V45.5195H153.472V44.0352H143.003V42.8828H154.995V46.5742ZM155.562 49.3477H143.023V48.2344H155.562V49.3477ZM154.937 36.3398H144.683V38.2539H143.159V35.2852H153.394V33.8594H143.101V32.7461H154.937V36.3398ZM155.249 38.9766H143.159V37.8633H155.249V38.9766ZM168.727 42.082H167.184V39.4453H168.727V42.082ZM167.906 33.0391C168.753 33.0391 169.501 33.1823 170.152 33.4688C170.803 33.7552 171.311 34.1556 171.676 34.6699C172.04 35.1842 172.223 35.7865 172.223 36.4766C172.223 37.1406 172.04 37.7298 171.676 38.2441C171.311 38.7585 170.803 39.1589 170.152 39.4453C169.501 39.7318 168.753 39.875 167.906 39.875C167.073 39.875 166.327 39.7318 165.67 39.4453C165.012 39.1589 164.505 38.7585 164.146 38.2441C163.788 37.7298 163.609 37.1406 163.609 36.4766C163.609 35.7995 163.788 35.2005 164.146 34.6797C164.505 34.1589 165.012 33.7552 165.67 33.4688C166.327 33.1823 167.073 33.0391 167.906 33.0391ZM167.906 34.2305C167.359 34.2305 166.868 34.3249 166.432 34.5137C165.995 34.7025 165.657 34.9661 165.416 35.3047C165.175 35.6432 165.055 36.0339 165.055 36.4766C165.055 36.9062 165.175 37.2871 165.416 37.6191C165.657 37.9512 165.995 38.2116 166.432 38.4004C166.868 38.5892 167.359 38.6901 167.906 38.7031C168.466 38.6901 168.964 38.5892 169.4 38.4004C169.837 38.2116 170.175 37.9512 170.416 37.6191C170.657 37.2871 170.777 36.9062 170.777 36.4766C170.777 36.0339 170.657 35.64 170.416 35.2949C170.175 34.9499 169.837 34.6862 169.4 34.5039C168.964 34.3216 168.466 34.2305 167.906 34.2305ZM176.168 45.5195H174.625V32.2383H176.168V45.5195ZM178.766 39.4258H175.523V38.1172H178.766V39.4258ZM176.793 49.1914H165.133V47.9023H176.793V49.1914ZM166.676 48.4883H165.133V44.3672H166.676V48.4883ZM162.594 41.6523C164.547 41.6654 166.454 41.6328 168.316 41.5547C170.178 41.4766 171.91 41.3138 173.512 41.0664L173.629 42.2188C172.001 42.5052 170.305 42.694 168.541 42.7852C166.777 42.8763 164.859 42.9219 162.789 42.9219L162.594 41.6523ZM185.612 45.4023H184.069V42.5703H185.612V45.4023ZM192.975 49.582H191.432V32.2188H192.975V49.582ZM195.748 40.9102H192.506V39.6211H195.748V40.9102ZM179.284 44.9531C181.484 44.9531 183.483 44.9206 185.28 44.8555C187.077 44.7904 188.776 44.6406 190.377 44.4062L190.475 45.5781C189.303 45.7734 188.086 45.9199 186.823 46.0176C185.56 46.1152 184.358 46.1803 183.219 46.2129C182.08 46.2454 180.853 46.2617 179.537 46.2617L179.284 44.9531ZM190.065 35.5977H179.596V34.3477H190.065V35.5977ZM184.85 36.6133C185.657 36.6133 186.37 36.7467 186.989 37.0137C187.607 37.2806 188.092 37.6549 188.444 38.1367C188.795 38.6185 188.971 39.1849 188.971 39.8359C188.971 40.474 188.795 41.0306 188.444 41.5059C188.092 41.9811 187.607 42.3522 186.989 42.6191C186.37 42.8861 185.657 43.0195 184.85 43.0195C184.043 43.0195 183.327 42.8861 182.702 42.6191C182.077 42.3522 181.595 41.9811 181.256 41.5059C180.918 41.0306 180.748 40.474 180.748 39.8359C180.748 39.1849 180.918 38.6185 181.256 38.1367C181.595 37.6549 182.077 37.2806 182.702 37.0137C183.327 36.7467 184.043 36.6133 184.85 36.6133ZM184.85 37.8047C184.329 37.8047 183.867 37.8893 183.463 38.0586C183.06 38.2279 182.744 38.4655 182.516 38.7715C182.288 39.0775 182.174 39.4323 182.174 39.8359C182.174 40.2266 182.285 40.5749 182.506 40.8809C182.728 41.1868 183.043 41.418 183.454 41.5742C183.864 41.7305 184.329 41.8086 184.85 41.8086C185.371 41.8086 185.833 41.7305 186.237 41.5742C186.64 41.418 186.953 41.1868 187.174 40.8809C187.396 40.5749 187.506 40.2266 187.506 39.8359C187.506 39.4323 187.396 39.0775 187.174 38.7715C186.953 38.4655 186.64 38.2279 186.237 38.0586C185.833 37.8893 185.371 37.8047 184.85 37.8047ZM185.612 35.1484H184.069V32.2578H185.612V35.1484ZM209.821 49.582H208.298V32.2188H209.821V49.582ZM212.731 40.6562H209.47V39.3867H212.731V40.6562ZM206.618 36.2812H196.286V35.0117H206.618V36.2812ZM201.54 37.7266C202.36 37.7266 203.093 37.8958 203.737 38.2344C204.382 38.5729 204.886 39.0449 205.251 39.6504C205.615 40.2559 205.798 40.9427 205.798 41.7109C205.798 42.4792 205.615 43.166 205.251 43.7715C204.886 44.377 204.382 44.849 203.737 45.1875C203.093 45.526 202.36 45.6953 201.54 45.6953C200.72 45.6953 199.987 45.526 199.343 45.1875C198.698 44.849 198.193 44.377 197.829 43.7715C197.464 43.166 197.282 42.4792 197.282 41.7109C197.282 40.9427 197.464 40.2559 197.829 39.6504C198.193 39.0449 198.698 38.5729 199.343 38.2344C199.987 37.8958 200.72 37.7266 201.54 37.7266ZM201.54 39.0156C201.006 39.0156 200.527 39.1296 200.104 39.3574C199.681 39.5853 199.349 39.9043 199.108 40.3145C198.867 40.7246 198.747 41.1901 198.747 41.7109C198.747 42.2318 198.867 42.694 199.108 43.0977C199.349 43.5013 199.681 43.8171 200.104 44.0449C200.527 44.2728 201.006 44.3867 201.54 44.3867C202.074 44.3867 202.552 44.2728 202.975 44.0449C203.399 43.8171 203.731 43.5013 203.971 43.0977C204.212 42.694 204.333 42.2318 204.333 41.7109C204.333 41.1901 204.212 40.7246 203.971 40.3145C203.731 39.9043 203.399 39.5853 202.975 39.3574C202.552 39.1296 202.074 39.0156 201.54 39.0156ZM202.282 35.5977H200.759V32.4336H202.282V35.5977ZM226.237 35.2461H214.948V33.9766H226.237V35.2461ZM229.089 47.1211H213.269V45.8516H229.089V47.1211ZM220.984 46.5156H219.48V39.6406H220.984V46.5156ZM227.195 35.7148C227.195 36.7435 227.181 37.5996 227.155 38.2832C227.129 38.9668 227.071 39.7741 226.98 40.7051C226.889 41.6361 226.745 42.6419 226.55 43.7227L224.987 43.5469C225.196 42.5182 225.349 41.5482 225.446 40.6367C225.544 39.7253 225.603 38.9147 225.622 38.2051C225.642 37.4954 225.652 36.6654 225.652 35.7148V33.9766H227.195V35.7148ZM243.25 33.8398C243.25 34.8945 242.921 35.8613 242.264 36.7402C241.606 37.6191 240.737 38.3451 239.656 38.918C238.576 39.4909 237.43 39.8815 236.219 40.0898L235.594 38.8398C236.648 38.6966 237.661 38.3809 238.631 37.8926C239.601 37.4043 240.389 36.8053 240.994 36.0957C241.6 35.3861 241.902 34.6341 241.902 33.8398V32.8438H243.25V33.8398ZM243.484 33.8398C243.484 34.6211 243.79 35.3698 244.402 36.0859C245.014 36.8021 245.809 37.4043 246.785 37.8926C247.762 38.3809 248.771 38.6966 249.812 38.8398L249.188 40.0898C247.977 39.8815 246.834 39.4876 245.76 38.9082C244.686 38.3288 243.816 37.5996 243.152 36.7207C242.488 35.8418 242.156 34.8815 242.156 33.8398V32.8438H243.484V33.8398ZM243.406 49.582H241.902V42.9609H243.406V49.582ZM250.594 43.293H234.773V42.0039H250.594V43.293ZM264.979 36.5742H260.057V35.2852H264.979V36.5742ZM265.018 40.2852H260.057V39.0156H265.018V40.2852ZM260.448 41.8477H252.479V33.7422H260.448V41.8477ZM254.002 40.6172H258.944V35.0117H254.002V40.6172ZM266.053 44.9141H264.51V32.2383H266.053V44.9141ZM266.444 49.2109H254.823V47.9219H266.444V49.2109ZM256.366 48.4883H254.823V43.7812H256.366V48.4883ZM274.227 33.4883C275.139 33.4883 275.946 33.6608 276.649 34.0059C277.352 34.3509 277.902 34.8327 278.3 35.4512C278.697 36.0697 278.895 36.776 278.895 37.5703C278.895 38.3646 278.697 39.071 278.3 39.6895C277.902 40.3079 277.352 40.7897 276.649 41.1348C275.946 41.4798 275.139 41.6523 274.227 41.6523C273.329 41.6523 272.522 41.4798 271.805 41.1348C271.089 40.7897 270.533 40.3079 270.136 39.6895C269.738 39.071 269.54 38.3646 269.54 37.5703C269.54 36.776 269.738 36.0697 270.136 35.4512C270.533 34.8327 271.089 34.3509 271.805 34.0059C272.522 33.6608 273.329 33.4883 274.227 33.4883ZM274.227 34.8359C273.615 34.8359 273.069 34.9499 272.587 35.1777C272.105 35.4056 271.727 35.7279 271.454 36.1445C271.18 36.5612 271.044 37.0365 271.044 37.5703C271.044 38.1042 271.18 38.5762 271.454 38.9863C271.727 39.3965 272.105 39.7188 272.587 39.9531C273.069 40.1875 273.615 40.3047 274.227 40.3047C274.839 40.3047 275.386 40.1875 275.868 39.9531C276.35 39.7188 276.724 39.3965 276.991 38.9863C277.258 38.5762 277.391 38.1042 277.391 37.5703C277.391 37.0365 277.258 36.5612 276.991 36.1445C276.724 35.7279 276.35 35.4056 275.868 35.1777C275.386 34.9499 274.839 34.8359 274.227 34.8359ZM282.782 49.6211H281.259V32.2188H282.782V49.6211ZM268.641 44.4844C270.087 44.4844 271.399 44.4714 272.577 44.4453C273.755 44.4193 275.009 44.3639 276.337 44.2793C277.665 44.1947 278.921 44.0677 280.106 43.8984L280.223 45.0312C278.999 45.2526 277.73 45.4186 276.415 45.5293C275.1 45.64 273.866 45.7116 272.714 45.7441C271.561 45.7767 270.276 45.793 268.856 45.793L268.641 44.4844ZM304.365 41.2422H302.861V32.2188H304.365V41.2422ZM304.384 46.2227H294.638V48.7227H293.134V45.0703H302.861V43.293H293.095V42.082H304.384V46.2227ZM305.009 49.3867H293.134V48.1562H305.009V49.3867ZM296.005 34.6797C296.005 35.6823 295.797 36.623 295.38 37.502C294.964 38.3809 294.378 39.1458 293.623 39.7969C292.867 40.4479 292.002 40.9362 291.025 41.2617L290.302 40.0508C291.175 39.7643 291.946 39.3477 292.617 38.8008C293.287 38.2539 293.811 37.6257 294.189 36.916C294.567 36.2064 294.755 35.4609 294.755 34.6797V33.7422H296.005V34.6797ZM296.298 34.6797C296.298 35.4219 296.487 36.1283 296.865 36.7988C297.242 37.4694 297.77 38.0553 298.447 38.5566C299.124 39.0579 299.899 39.4388 300.771 39.6992L300.009 40.8906C299.046 40.5781 298.19 40.1191 297.441 39.5137C296.692 38.9082 296.11 38.1888 295.693 37.3555C295.276 36.5221 295.068 35.6302 295.068 34.6797V33.7422H296.298V34.6797ZM300.302 34.4844H290.693V33.2148H300.302V34.4844ZM314.844 32.5312C316.133 32.5312 317.236 32.6452 318.154 32.873C319.072 33.1009 319.772 33.4395 320.254 33.8887C320.736 34.3379 320.977 34.8815 320.977 35.5195C320.977 36.1706 320.736 36.7207 320.254 37.1699C319.772 37.6191 319.072 37.9609 318.154 38.1953C317.236 38.4297 316.133 38.5534 314.844 38.5664C313.555 38.5534 312.451 38.4297 311.533 38.1953C310.615 37.9609 309.912 37.6191 309.424 37.1699C308.936 36.7207 308.691 36.1706 308.691 35.5195C308.691 34.8815 308.936 34.3379 309.424 33.8887C309.912 33.4395 310.615 33.1009 311.533 32.873C312.451 32.6452 313.555 32.5312 314.844 32.5312ZM314.844 33.6836C313.893 33.6836 313.076 33.7552 312.393 33.8984C311.709 34.0417 311.188 34.2533 310.83 34.5332C310.472 34.8132 310.293 35.1419 310.293 35.5195C310.293 35.9232 310.469 36.265 310.82 36.5449C311.172 36.8249 311.689 37.0365 312.373 37.1797C313.057 37.3229 313.88 37.3945 314.844 37.3945C315.807 37.3945 316.631 37.3229 317.314 37.1797C317.998 37.0365 318.519 36.8216 318.877 36.5352C319.235 36.2487 319.414 35.9102 319.414 35.5195C319.414 35.1419 319.232 34.8164 318.867 34.543C318.503 34.2695 317.979 34.0579 317.295 33.9082C316.611 33.7585 315.794 33.6836 314.844 33.6836ZM322.754 40.9883H306.934V39.7383H322.754V40.9883ZM320.723 46.3789H310.41V48.4883H308.887V45.2461H319.219V43.6641H308.848V42.4922H320.723V46.3789ZM321.25 49.3867H308.887V48.1758H321.25V49.3867ZM48.0645 81.582H46.5605V64.2188H48.0645V81.582ZM47.127 72.5H43.709V71.2305H47.127V72.5ZM40.7207 66.4844C40.7207 68.0469 40.5124 69.515 40.0957 70.8887C39.679 72.2624 38.9857 73.5449 38.0156 74.7363C37.0456 75.9277 35.7598 76.9661 34.1582 77.8516L33.2598 76.7773C34.6921 75.9831 35.8509 75.0651 36.7363 74.0234C37.6217 72.9818 38.263 71.8555 38.6602 70.6445C39.0573 69.4336 39.2559 68.1315 39.2559 66.7383V66.4844H40.7207ZM39.7637 67.7539H33.9238V66.4844H39.7637V67.7539ZM44.1582 80.7227H42.6934V64.6875H44.1582V80.7227ZM63.5434 69.6094H59.1098V68.3203H63.5434V69.6094ZM55.7895 67.4414C55.7895 68.5352 55.5876 69.5671 55.184 70.5371C54.7803 71.5072 54.2172 72.3535 53.4945 73.0762C52.7719 73.7988 51.9288 74.3555 50.9652 74.7461L50.1449 73.4961C51.0043 73.1706 51.766 72.7018 52.4301 72.0898C53.0941 71.4779 53.615 70.7682 53.9926 69.9609C54.3702 69.1536 54.559 68.3138 54.559 67.4414V65.293H55.7895V67.4414ZM56.0629 67.5C56.0629 68.2943 56.2452 69.0658 56.6098 69.8145C56.9743 70.5632 57.4822 71.224 58.1332 71.7969C58.7842 72.3698 59.5264 72.8125 60.3598 73.125L59.5004 74.3164C58.5889 73.9518 57.7816 73.4277 57.0785 72.7441C56.3754 72.0605 55.8253 71.2663 55.4281 70.3613C55.031 69.4564 54.8324 68.5026 54.8324 67.5V65.293H56.0629V67.5ZM64.5199 77.2461H62.977V64.2383H64.5199V77.2461ZM64.9105 81.2109H53.2895V79.9219H64.9105V81.2109ZM54.8324 80.4883H53.2895V75.7617H54.8324V80.4883ZM80.448 81.582H78.9246V64.2188H80.448V81.582ZM83.3582 72.6562H80.0965V71.3867H83.3582V72.6562ZM77.2449 68.2812H66.9129V67.0117H77.2449V68.2812ZM72.1668 69.7266C72.9871 69.7266 73.7195 69.8958 74.3641 70.2344C75.0086 70.5729 75.5131 71.0449 75.8777 71.6504C76.2423 72.2559 76.4246 72.9427 76.4246 73.7109C76.4246 74.4792 76.2423 75.166 75.8777 75.7715C75.5131 76.377 75.0086 76.849 74.3641 77.1875C73.7195 77.526 72.9871 77.6953 72.1668 77.6953C71.3465 77.6953 70.6141 77.526 69.9695 77.1875C69.325 76.849 68.8204 76.377 68.4559 75.7715C68.0913 75.166 67.909 74.4792 67.909 73.7109C67.909 72.9427 68.0913 72.2559 68.4559 71.6504C68.8204 71.0449 69.325 70.5729 69.9695 70.2344C70.6141 69.8958 71.3465 69.7266 72.1668 69.7266ZM72.1668 71.0156C71.6329 71.0156 71.1544 71.1296 70.7312 71.3574C70.3081 71.5853 69.976 71.9043 69.7352 72.3145C69.4943 72.7246 69.3738 73.1901 69.3738 73.7109C69.3738 74.2318 69.4943 74.694 69.7352 75.0977C69.976 75.5013 70.3081 75.8171 70.7312 76.0449C71.1544 76.2728 71.6329 76.3867 72.1668 76.3867C72.7006 76.3867 73.1792 76.2728 73.6023 76.0449C74.0255 75.8171 74.3575 75.5013 74.5984 75.0977C74.8393 74.694 74.9598 74.2318 74.9598 73.7109C74.9598 73.1901 74.8393 72.7246 74.5984 72.3145C74.3575 71.9043 74.0255 71.5853 73.6023 71.3574C73.1792 71.1296 72.7006 71.0156 72.1668 71.0156ZM72.909 67.5977H71.3855V64.4336H72.909V67.5977ZM97.9387 70.7227H86.0441V69.4922H97.9387V70.7227ZM99.7746 74.3359H83.8762V73.0859H99.7746V74.3359ZM87.5676 70.1172H86.0441V64.8633H87.5676V70.1172ZM98.0363 81.1523H85.9465V79.8828H98.0363V81.1523ZM87.4699 80.2539H85.9465V76.1133H87.4699V80.2539ZM118.975 77.2461H117.451V64.2383H118.975V77.2461ZM121.592 71.25H118.486V69.9609H121.592V71.25ZM115.791 67.6172H105.439V66.3672H115.791V67.6172ZM110.615 68.5742C111.436 68.5742 112.161 68.7077 112.793 68.9746C113.424 69.2415 113.916 69.6191 114.268 70.1074C114.619 70.5957 114.795 71.1654 114.795 71.8164C114.795 72.4544 114.619 73.0143 114.268 73.4961C113.916 73.9779 113.424 74.3522 112.793 74.6191C112.161 74.8861 111.436 75.0195 110.615 75.0195C109.795 75.0195 109.066 74.8861 108.428 74.6191C107.79 74.3522 107.298 73.9779 106.953 73.4961C106.608 73.0143 106.436 72.4544 106.436 71.8164C106.436 71.1654 106.608 70.5957 106.953 70.1074C107.298 69.6191 107.79 69.2415 108.428 68.9746C109.066 68.7077 109.795 68.5742 110.615 68.5742ZM110.615 69.7852C110.081 69.7852 109.606 69.8665 109.189 70.0293C108.773 70.1921 108.454 70.4297 108.232 70.7422C108.011 71.0547 107.9 71.4128 107.9 71.8164C107.9 72.2201 108.011 72.5716 108.232 72.8711C108.454 73.1706 108.773 73.4017 109.189 73.5645C109.606 73.7272 110.081 73.8086 110.615 73.8086C111.149 73.8086 111.624 73.7272 112.041 73.5645C112.458 73.4017 112.78 73.1706 113.008 72.8711C113.236 72.5716 113.35 72.2201 113.35 71.8164C113.35 71.4128 113.236 71.0547 113.008 70.7422C112.78 70.4297 112.458 70.1921 112.041 70.0293C111.624 69.8665 111.149 69.7852 110.615 69.7852ZM111.377 67.0117H109.854V64.2383H111.377V67.0117ZM119.775 81.2109H108.115V79.9219H119.775V81.2109ZM109.619 80.4492H108.115V76.2109H109.619V80.4492ZM138.438 68.1641H135.411V66.9141H138.438V68.1641ZM138.438 71.9141H135.411V70.6055H138.438V71.9141ZM135.86 74.5508H134.336V64.2188H135.86V74.5508ZM135.86 81.582H134.336V76.6211H124.493V75.3516H135.86V81.582ZM127.168 65.2734C128.041 65.2604 128.822 65.4264 129.512 65.7715C130.202 66.1165 130.746 66.6016 131.143 67.2266C131.54 67.8516 131.739 68.5612 131.739 69.3555C131.739 70.1497 131.54 70.8594 131.143 71.4844C130.746 72.1094 130.202 72.5977 129.512 72.9492C128.822 73.3008 128.041 73.4766 127.168 73.4766C126.296 73.4766 125.515 73.3008 124.825 72.9492C124.135 72.5977 123.594 72.1094 123.204 71.4844C122.813 70.8594 122.618 70.1497 122.618 69.3555C122.618 68.5612 122.813 67.8548 123.204 67.2363C123.594 66.6178 124.135 66.1328 124.825 65.7812C125.515 65.4297 126.296 65.2604 127.168 65.2734ZM127.168 66.582C126.595 66.582 126.075 66.6992 125.606 66.9336C125.137 67.168 124.773 67.4935 124.512 67.9102C124.252 68.3268 124.121 68.8086 124.121 69.3555C124.121 69.9023 124.252 70.3874 124.512 70.8105C124.773 71.2337 125.137 71.5625 125.606 71.7969C126.075 72.0312 126.595 72.1484 127.168 72.1484C127.754 72.1484 128.282 72.0312 128.75 71.7969C129.219 71.5625 129.584 71.2337 129.844 70.8105C130.105 70.3874 130.235 69.9023 130.235 69.3555C130.235 68.8086 130.105 68.3268 129.844 67.9102C129.584 67.4935 129.219 67.168 128.75 66.9336C128.282 66.6992 127.754 66.582 127.168 66.582ZM154.093 81.582H152.608V64.2188H154.093V81.582ZM153.175 72.5586H149.796V71.25H153.175V72.5586ZM150.245 80.7031H148.78V64.5898H150.245V80.7031ZM144.014 68.9648C144.014 70.3451 143.861 71.6211 143.555 72.793C143.249 73.9648 142.794 74.9935 142.188 75.8789C141.583 76.7643 140.837 77.4674 139.952 77.9883L138.995 76.8164C139.815 76.3607 140.512 75.7422 141.085 74.9609C141.658 74.1797 142.091 73.278 142.384 72.2559C142.677 71.2337 142.823 70.1367 142.823 68.9648V66.9141H144.014V68.9648ZM144.307 68.9648C144.307 70.0326 144.454 71.0384 144.747 71.9824C145.04 72.9264 145.47 73.763 146.036 74.4922C146.602 75.2214 147.289 75.7943 148.096 76.2109L147.179 77.4023C146.306 76.9206 145.567 76.2598 144.962 75.4199C144.356 74.5801 143.897 73.61 143.585 72.5098C143.272 71.4095 143.116 70.2279 143.116 68.9648V66.9141H144.307V68.9648ZM147.53 67.5781H139.405V66.2891H147.53V67.5781ZM171.935 73.4961H156.036V72.2852H171.935V73.4961ZM169.943 78.5742H159.513V80.6445H157.97V77.5195H168.419V76.0352H157.95V74.8828H169.943V78.5742ZM170.509 81.3477H157.97V80.2344H170.509V81.3477ZM169.884 68.3398H159.63V70.2539H158.107V67.2852H168.341V65.8594H158.048V64.7461H169.884V68.3398ZM170.196 70.9766H158.107V69.8633H170.196V70.9766ZM183.127 68.8867C183.127 70.1367 182.915 71.3607 182.492 72.5586C182.069 73.7565 181.49 74.8177 180.754 75.7422C180.018 76.6667 179.195 77.3763 178.283 77.8711L177.307 76.6406C178.153 76.224 178.921 75.6055 179.611 74.7852C180.301 73.9648 180.852 73.0339 181.262 71.9922C181.672 70.9505 181.877 69.9154 181.877 68.8867V65.7227H183.127V68.8867ZM183.381 68.8867C183.381 69.8763 183.583 70.8691 183.986 71.8652C184.39 72.8613 184.937 73.75 185.627 74.5312C186.317 75.3125 187.066 75.9049 187.873 76.3086L186.936 77.5391C186.037 77.0573 185.223 76.3704 184.494 75.4785C183.765 74.5866 183.192 73.5645 182.775 72.4121C182.359 71.2598 182.15 70.0846 182.15 68.8867V65.7227H183.381V68.8867ZM190.998 81.582H189.475V64.2188H190.998V81.582ZM193.908 72.5977H190.646V71.2695H193.908V72.5977ZM199.895 73.3984H198.371V70.1172H199.895V73.3984ZM206.34 73.3984H204.817V70.1172H206.34V73.3984ZM210.266 74.082H194.446V72.8125H210.266V74.082ZM202.356 75.4102C203.606 75.4102 204.677 75.5273 205.569 75.7617C206.461 75.9961 207.144 76.3411 207.62 76.7969C208.095 77.2526 208.332 77.8125 208.332 78.4766C208.332 79.1276 208.095 79.681 207.62 80.1367C207.144 80.5924 206.461 80.9408 205.569 81.1816C204.677 81.4225 203.606 81.543 202.356 81.543C201.106 81.543 200.032 81.4225 199.133 81.1816C198.235 80.9408 197.548 80.5924 197.073 80.1367C196.597 79.681 196.36 79.1276 196.36 78.4766C196.36 77.8125 196.597 77.2526 197.073 76.7969C197.548 76.3411 198.235 75.9961 199.133 75.7617C200.032 75.5273 201.106 75.4102 202.356 75.4102ZM202.356 76.582C201.431 76.582 200.637 76.6569 199.973 76.8066C199.309 76.9564 198.801 77.1745 198.45 77.4609C198.098 77.7474 197.922 78.0859 197.922 78.4766C197.922 78.8672 198.098 79.2025 198.45 79.4824C198.801 79.7624 199.309 79.9772 199.973 80.127C200.637 80.2767 201.431 80.3516 202.356 80.3516C203.267 80.3516 204.058 80.2767 204.729 80.127C205.399 79.9772 205.911 79.7624 206.262 79.4824C206.614 79.2025 206.789 78.8672 206.789 78.4766C206.789 78.0859 206.614 77.7474 206.262 77.4609C205.911 77.1745 205.403 76.9564 204.739 76.8066C204.075 76.6569 203.28 76.582 202.356 76.582ZM202.356 64.5508C203.619 64.5508 204.709 64.6777 205.627 64.9316C206.545 65.1855 207.252 65.5534 207.746 66.0352C208.241 66.5169 208.489 67.0964 208.489 67.7734C208.489 68.4375 208.241 69.0104 207.746 69.4922C207.252 69.974 206.545 70.3418 205.627 70.5957C204.709 70.8496 203.619 70.9766 202.356 70.9766C201.093 70.9766 199.999 70.8496 199.075 70.5957C198.15 70.3418 197.441 69.974 196.946 69.4922C196.451 69.0104 196.204 68.4375 196.204 67.7734C196.204 67.0964 196.451 66.5169 196.946 66.0352C197.441 65.5534 198.15 65.1855 199.075 64.9316C199.999 64.6777 201.093 64.5508 202.356 64.5508ZM202.356 65.7617C201.418 65.7617 200.605 65.8431 199.914 66.0059C199.224 66.1686 198.697 66.3997 198.332 66.6992C197.968 66.9987 197.786 67.3568 197.786 67.7734C197.786 68.1901 197.968 68.5482 198.332 68.8477C198.697 69.1471 199.224 69.3783 199.914 69.541C200.605 69.7038 201.418 69.7852 202.356 69.7852C203.293 69.7852 204.104 69.7038 204.788 69.541C205.471 69.3783 205.998 69.1471 206.37 68.8477C206.741 68.5482 206.926 68.1901 206.926 67.7734C206.926 67.3568 206.741 66.9987 206.37 66.6992C205.998 66.3997 205.471 66.1686 204.788 66.0059C204.104 65.8431 203.293 65.7617 202.356 65.7617ZM224.768 81.582H223.245V64.2188H224.768V81.582ZM227.679 72.6562H224.417V71.3867H227.679V72.6562ZM221.565 68.2812H211.233V67.0117H221.565V68.2812ZM216.487 69.7266C217.307 69.7266 218.04 69.8958 218.684 70.2344C219.329 70.5729 219.833 71.0449 220.198 71.6504C220.563 72.2559 220.745 72.9427 220.745 73.7109C220.745 74.4792 220.563 75.166 220.198 75.7715C219.833 76.377 219.329 76.849 218.684 77.1875C218.04 77.526 217.307 77.6953 216.487 77.6953C215.667 77.6953 214.934 77.526 214.29 77.1875C213.645 76.849 213.141 76.377 212.776 75.7715C212.412 75.166 212.229 74.4792 212.229 73.7109C212.229 72.9427 212.412 72.2559 212.776 71.6504C213.141 71.0449 213.645 70.5729 214.29 70.2344C214.934 69.8958 215.667 69.7266 216.487 69.7266ZM216.487 71.0156C215.953 71.0156 215.475 71.1296 215.052 71.3574C214.628 71.5853 214.296 71.9043 214.055 72.3145C213.815 72.7246 213.694 73.1901 213.694 73.7109C213.694 74.2318 213.815 74.694 214.055 75.0977C214.296 75.5013 214.628 75.8171 215.052 76.0449C215.475 76.2728 215.953 76.3867 216.487 76.3867C217.021 76.3867 217.499 76.2728 217.923 76.0449C218.346 75.8171 218.678 75.5013 218.919 75.0977C219.16 74.694 219.28 74.2318 219.28 73.7109C219.28 73.1901 219.16 72.7246 218.919 72.3145C218.678 71.9043 218.346 71.5853 217.923 71.3574C217.499 71.1296 217.021 71.0156 216.487 71.0156ZM217.229 67.5977H215.706V64.4336H217.229V67.5977ZM241.458 69.3945H236.107V68.1055H241.458V69.3945ZM241.458 74.8828H236.107V73.6133H241.458V74.8828ZM232.884 65.5664C233.73 65.5664 234.479 65.8171 235.13 66.3184C235.781 66.8197 236.292 67.526 236.663 68.4375C237.034 69.349 237.22 70.4102 237.22 71.6211C237.22 72.832 237.034 73.8932 236.663 74.8047C236.292 75.7161 235.781 76.4193 235.13 76.9141C234.479 77.4089 233.73 77.6562 232.884 77.6562C232.038 77.6562 231.286 77.4089 230.628 76.9141C229.971 76.4193 229.456 75.7161 229.085 74.8047C228.714 73.8932 228.529 72.832 228.529 71.6211C228.529 70.4102 228.714 69.349 229.085 68.4375C229.456 67.526 229.971 66.8197 230.628 66.3184C231.286 65.8171 232.038 65.5664 232.884 65.5664ZM232.884 66.9336C232.324 66.9336 231.823 67.1289 231.38 67.5195C230.937 67.9102 230.596 68.457 230.355 69.1602C230.114 69.8633 229.993 70.6836 229.993 71.6211C229.993 72.5456 230.114 73.3626 230.355 74.0723C230.596 74.7819 230.937 75.3288 231.38 75.7129C231.823 76.097 232.324 76.2891 232.884 76.2891C233.444 76.2891 233.945 76.097 234.388 75.7129C234.831 75.3288 235.172 74.7819 235.413 74.0723C235.654 73.3626 235.775 72.5456 235.775 71.6211C235.775 70.6836 235.654 69.8633 235.413 69.1602C235.172 68.457 234.834 67.9102 234.398 67.5195C233.961 67.1289 233.457 66.9336 232.884 66.9336ZM242.611 81.6211H241.087V64.2188H242.611V81.6211ZM263.607 81.3477H251.654V75.6445H263.607V81.3477ZM253.178 80.0977H262.104V76.875H253.178V80.0977ZM263.529 70.6836H251.771V64.8633H263.529V70.6836ZM253.275 69.4336H262.006V66.1133H253.275V69.4336ZM265.541 73.9258H249.721V72.6562H265.541V73.9258ZM258.393 73.2031H256.869V70.3516H258.393V73.2031ZM272.289 65.4883C273.201 65.4883 274.008 65.6608 274.711 66.0059C275.414 66.3509 275.965 66.8327 276.362 67.4512C276.759 68.0697 276.957 68.776 276.957 69.5703C276.957 70.3646 276.759 71.071 276.362 71.6895C275.965 72.3079 275.414 72.7897 274.711 73.1348C274.008 73.4798 273.201 73.6523 272.289 73.6523C271.391 73.6523 270.584 73.4798 269.868 73.1348C269.151 72.7897 268.595 72.3079 268.198 71.6895C267.801 71.071 267.602 70.3646 267.602 69.5703C267.602 68.776 267.801 68.0697 268.198 67.4512C268.595 66.8327 269.151 66.3509 269.868 66.0059C270.584 65.6608 271.391 65.4883 272.289 65.4883ZM272.289 66.8359C271.677 66.8359 271.131 66.9499 270.649 67.1777C270.167 67.4056 269.789 67.7279 269.516 68.1445C269.243 68.5612 269.106 69.0365 269.106 69.5703C269.106 70.1042 269.243 70.5762 269.516 70.9863C269.789 71.3965 270.167 71.7188 270.649 71.9531C271.131 72.1875 271.677 72.3047 272.289 72.3047C272.901 72.3047 273.448 72.1875 273.93 71.9531C274.412 71.7188 274.786 71.3965 275.053 70.9863C275.32 70.5762 275.454 70.1042 275.454 69.5703C275.454 69.0365 275.32 68.5612 275.053 68.1445C274.786 67.7279 274.412 67.4056 273.93 67.1777C273.448 66.9499 272.901 66.8359 272.289 66.8359ZM280.844 81.6211H279.321V64.2188H280.844V81.6211ZM266.704 76.4844C268.149 76.4844 269.461 76.4714 270.639 76.4453C271.817 76.4193 273.071 76.3639 274.399 76.2793C275.727 76.1947 276.983 76.0677 278.168 75.8984L278.286 77.0312C277.062 77.2526 275.792 77.4186 274.477 77.5293C273.162 77.64 271.928 77.7116 270.776 77.7441C269.623 77.7767 268.338 77.793 266.918 77.793L266.704 76.4844ZM301.275 66.4258H290.122V65.1758H301.275V66.4258ZM304.009 72.9492H288.111V71.6797H304.009V72.9492ZM294.888 77.1484H293.384V72.4609H294.888V77.1484ZM301.919 66.4844C301.919 67.526 301.89 68.4733 301.831 69.3262C301.773 70.179 301.626 71.1523 301.392 72.2461L299.907 72.0703C300.064 71.3281 300.178 70.6283 300.249 69.9707C300.321 69.3132 300.363 68.7337 300.376 68.2324C300.389 67.7311 300.396 67.1484 300.396 66.4844V65.1758H301.919V66.4844ZM302.388 81.2109H290.064V79.9219H302.388V81.2109ZM291.587 80.2539H290.064V75.7812H291.587V80.2539ZM299.556 77.1484H298.071V72.4609H299.556V77.1484ZM318.433 69.668H314.839V68.3984H318.433V69.668ZM318.414 73.0469H314.82V71.7773H318.414V73.0469ZM314.839 67.4219H305.015V66.1719H314.839V67.4219ZM309.976 68.3203C310.744 68.3203 311.431 68.4538 312.037 68.7207C312.642 68.9876 313.111 69.362 313.443 69.8438C313.775 70.3255 313.941 70.8854 313.941 71.5234C313.941 72.1615 313.775 72.7246 313.443 73.2129C313.111 73.7012 312.642 74.0788 312.037 74.3457C311.431 74.6126 310.744 74.7461 309.976 74.7461C309.208 74.7461 308.524 74.6126 307.925 74.3457C307.326 74.0788 306.864 73.7012 306.539 73.2129C306.213 72.7246 306.05 72.1615 306.05 71.5234C306.05 70.8854 306.213 70.3223 306.539 69.834C306.864 69.3457 307.326 68.9714 307.925 68.7109C308.524 68.4505 309.208 68.3203 309.976 68.3203ZM309.976 69.4727C309.481 69.4727 309.045 69.5605 308.668 69.7363C308.29 69.9121 307.997 70.153 307.789 70.459C307.58 70.765 307.476 71.1198 307.476 71.5234C307.476 71.9271 307.58 72.2819 307.789 72.5879C307.997 72.8939 308.29 73.1315 308.668 73.3008C309.045 73.4701 309.481 73.5547 309.976 73.5547C310.471 73.5547 310.91 73.4701 311.295 73.3008C311.679 73.1315 311.978 72.8939 312.193 72.5879C312.408 72.2819 312.515 71.9271 312.515 71.5234C312.515 71.1198 312.408 70.765 312.193 70.459C311.978 70.153 311.679 69.9121 311.295 69.7363C310.91 69.5605 310.471 69.4727 309.976 69.4727ZM310.757 67.0312H309.234V64.082H310.757V67.0312ZM319.39 75.4492H317.847V64.2188H319.39V75.4492ZM313.668 75.625C314.879 75.625 315.92 75.7389 316.793 75.9668C317.665 76.1947 318.332 76.5332 318.795 76.9824C319.257 77.4316 319.488 77.9688 319.488 78.5938C319.488 79.2057 319.257 79.7331 318.795 80.1758C318.332 80.6185 317.662 80.957 316.783 81.1914C315.904 81.4258 314.865 81.543 313.668 81.543C312.457 81.543 311.415 81.4258 310.543 81.1914C309.67 80.957 309 80.6185 308.531 80.1758C308.062 79.7331 307.828 79.2057 307.828 78.5938C307.828 77.9688 308.062 77.4316 308.531 76.9824C309 76.5332 309.67 76.1947 310.543 75.9668C311.415 75.7389 312.457 75.625 313.668 75.625ZM313.668 76.8164C312.795 76.8164 312.04 76.8848 311.402 77.0215C310.764 77.1582 310.272 77.36 309.927 77.627C309.582 77.8939 309.41 78.2161 309.41 78.5938C309.41 78.9583 309.582 79.2708 309.927 79.5312C310.272 79.7917 310.764 79.9935 311.402 80.1367C312.04 80.2799 312.795 80.3516 313.668 80.3516C314.527 80.3516 315.272 80.2799 315.904 80.1367C316.535 79.9935 317.02 79.7917 317.359 79.5312C317.698 79.2708 317.867 78.9583 317.867 78.5938C317.867 78.2161 317.698 77.8939 317.359 77.627C317.02 77.36 316.539 77.1582 315.914 77.0215C315.289 76.8848 314.54 76.8164 313.668 76.8164ZM329.791 64.5312C331.08 64.5312 332.184 64.6452 333.102 64.873C334.02 65.1009 334.719 65.4395 335.201 65.8887C335.683 66.3379 335.924 66.8815 335.924 67.5195C335.924 68.1706 335.683 68.7207 335.201 69.1699C334.719 69.6191 334.02 69.9609 333.102 70.1953C332.184 70.4297 331.08 70.5534 329.791 70.5664C328.502 70.5534 327.398 70.4297 326.48 70.1953C325.562 69.9609 324.859 69.6191 324.371 69.1699C323.883 68.7207 323.639 68.1706 323.639 67.5195C323.639 66.8815 323.883 66.3379 324.371 65.8887C324.859 65.4395 325.562 65.1009 326.48 64.873C327.398 64.6452 328.502 64.5312 329.791 64.5312ZM329.791 65.6836C328.84 65.6836 328.023 65.7552 327.34 65.8984C326.656 66.0417 326.135 66.2533 325.777 66.5332C325.419 66.8132 325.24 67.1419 325.24 67.5195C325.24 67.9232 325.416 68.265 325.768 68.5449C326.119 68.8249 326.637 69.0365 327.32 69.1797C328.004 69.3229 328.827 69.3945 329.791 69.3945C330.755 69.3945 331.578 69.3229 332.262 69.1797C332.945 69.0365 333.466 68.8216 333.824 68.5352C334.182 68.2487 334.361 67.9102 334.361 67.5195C334.361 67.1419 334.179 66.8164 333.814 66.543C333.45 66.2695 332.926 66.0579 332.242 65.9082C331.559 65.7585 330.742 65.6836 329.791 65.6836ZM337.701 72.9883H321.881V71.7383H337.701V72.9883ZM335.67 78.3789H325.357V80.4883H323.834V77.2461H334.166V75.6641H323.795V74.4922H335.67V78.3789ZM336.197 81.3867H323.834V80.1758H336.197V81.3867ZM86.6254 109.5H85.0824V106.629H86.6254V109.5ZM94.2816 113.582H92.7582V96.2188H94.2816V113.582ZM81.1957 108.953C83.1879 108.94 85.0401 108.895 86.7523 108.816C88.4646 108.738 90.0824 108.602 91.6059 108.406L91.723 109.578C90.0043 109.852 88.2139 110.034 86.352 110.125C84.49 110.216 82.4978 110.262 80.3754 110.262L80.141 108.953H81.1957ZM91.1566 99.6172H80.5121V98.3672H91.1566V99.6172ZM85.8246 100.613C86.6579 100.613 87.3904 100.747 88.0219 101.014C88.6534 101.281 89.1449 101.655 89.4965 102.137C89.848 102.618 90.0238 103.185 90.0238 103.836C90.0238 104.474 89.848 105.031 89.4965 105.506C89.1449 105.981 88.6534 106.352 88.0219 106.619C87.3904 106.886 86.6579 107.02 85.8246 107.02C85.0043 107.02 84.2784 106.889 83.6469 106.629C83.0154 106.368 82.5271 105.997 82.182 105.516C81.837 105.034 81.6645 104.474 81.6645 103.836C81.6645 103.185 81.837 102.618 82.182 102.137C82.5271 101.655 83.0154 101.281 83.6469 101.014C84.2784 100.747 85.0043 100.613 85.8246 100.613ZM85.8246 101.805C85.3038 101.805 84.835 101.889 84.4184 102.059C84.0017 102.228 83.6762 102.465 83.4418 102.771C83.2074 103.077 83.0902 103.432 83.0902 103.836C83.0902 104.227 83.2074 104.572 83.4418 104.871C83.6762 105.171 84.0017 105.402 84.4184 105.564C84.835 105.727 85.3038 105.809 85.8246 105.809C86.3585 105.809 86.8337 105.73 87.2504 105.574C87.6671 105.418 87.9893 105.187 88.2172 104.881C88.4451 104.575 88.559 104.227 88.559 103.836C88.559 103.432 88.4451 103.077 88.2172 102.771C87.9893 102.465 87.6671 102.228 87.2504 102.059C86.8337 101.889 86.3585 101.805 85.8246 101.805ZM86.6254 99.0312H85.0824V96.2383H86.6254V99.0312ZM112.749 106.473H96.9285V105.203H112.749V106.473ZM105.6 105.613H104.077V102.586H105.6V105.613ZM110.796 113.582H109.253V109.422H98.6863V108.191H110.796V113.582ZM100.561 98.6406H109.155V96.6289H110.679V103.113H99.0379V96.6289H100.561V98.6406ZM109.155 101.883V99.8125H100.561V101.883H109.155ZM119.732 100.887C119.732 102.176 119.51 103.429 119.068 104.646C118.625 105.864 118.023 106.935 117.261 107.859C116.499 108.784 115.643 109.487 114.693 109.969L113.716 108.68C114.575 108.276 115.366 107.671 116.089 106.863C116.812 106.056 117.388 105.125 117.818 104.07C118.247 103.016 118.462 101.954 118.462 100.887V97.7227H119.732V100.887ZM119.986 100.887C119.986 101.915 120.197 102.934 120.62 103.943C121.043 104.952 121.616 105.851 122.339 106.639C123.062 107.426 123.846 108.016 124.693 108.406L123.755 109.617C122.831 109.161 121.981 108.488 121.206 107.596C120.432 106.704 119.82 105.672 119.37 104.5C118.921 103.328 118.696 102.124 118.696 100.887V97.7227H119.986V100.887ZM128.13 113.621H126.587V96.2188H128.13V113.621ZM140.015 98.0352C140.015 99.819 139.765 101.476 139.263 103.006C138.762 104.536 137.912 105.962 136.714 107.283C135.517 108.605 133.915 109.76 131.91 110.75L131.05 109.52C132.847 108.66 134.296 107.658 135.396 106.512C136.496 105.366 137.291 104.106 137.779 102.732C138.267 101.359 138.511 99.8516 138.511 98.2109V98.0352H140.015ZM139.312 99.3047H132.007V98.0352H139.312V99.3047ZM131.382 104.188L131.129 102.82L138.257 102.352V103.523L131.382 104.188ZM145.054 113.582H143.511V96.2188H145.054V113.582ZM161.627 102.723H149.732V101.492H161.627V102.723ZM163.463 106.336H147.564V105.086H163.463V106.336ZM151.256 102.117H149.732V96.8633H151.256V102.117ZM161.725 113.152H149.635V111.883H161.725V113.152ZM151.158 112.254H149.635V108.113H151.158V112.254ZM183.483 107.996H181.94V96.2383H183.483V107.996ZM182.272 102.41H178.132V101.121H182.272V102.41ZM178.054 97.6055C178.054 99.0638 177.738 100.395 177.106 101.6C176.475 102.804 175.563 103.849 174.372 104.734C173.18 105.62 171.745 106.329 170.065 106.863L169.382 105.633C170.866 105.177 172.136 104.585 173.19 103.855C174.245 103.126 175.052 102.283 175.612 101.326C176.172 100.369 176.452 99.3307 176.452 98.2109V97.6055H178.054ZM177.526 98.8555H170.241V97.6055H177.526V98.8555ZM178.405 107.273C178.405 108.341 178.106 109.308 177.507 110.174C176.908 111.04 176.11 111.756 175.114 112.322C174.118 112.889 173.021 113.289 171.823 113.523L171.198 112.312C172.24 112.13 173.21 111.801 174.108 111.326C175.007 110.851 175.729 110.262 176.276 109.559C176.823 108.855 177.096 108.094 177.096 107.273V106.473H178.405V107.273ZM178.6 107.273C178.6 108.081 178.867 108.829 179.401 109.52C179.935 110.21 180.648 110.789 181.54 111.258C182.432 111.727 183.399 112.059 184.44 112.254L183.796 113.484C182.611 113.25 181.524 112.853 180.534 112.293C179.544 111.733 178.757 111.023 178.171 110.164C177.585 109.305 177.292 108.341 177.292 107.273V106.473H178.6V107.273ZM200.29 113.621H198.747V96.2188H200.29V113.621ZM191.052 97.5664C191.911 97.5664 192.676 97.8171 193.347 98.3184C194.017 98.8197 194.542 99.526 194.919 100.438C195.297 101.349 195.486 102.41 195.486 103.621C195.486 104.832 195.297 105.893 194.919 106.805C194.542 107.716 194.017 108.419 193.347 108.914C192.676 109.409 191.911 109.656 191.052 109.656C190.193 109.656 189.428 109.409 188.757 108.914C188.086 108.419 187.562 107.716 187.185 106.805C186.807 105.893 186.618 104.832 186.618 103.621C186.618 102.41 186.807 101.349 187.185 100.438C187.562 99.526 188.086 98.8197 188.757 98.3184C189.428 97.8171 190.193 97.5664 191.052 97.5664ZM191.052 98.9336C190.479 98.9336 189.968 99.1289 189.519 99.5195C189.07 99.9102 188.721 100.457 188.474 101.16C188.226 101.863 188.103 102.684 188.103 103.621C188.103 104.546 188.226 105.363 188.474 106.072C188.721 106.782 189.07 107.329 189.519 107.713C189.968 108.097 190.479 108.289 191.052 108.289C191.625 108.289 192.136 108.097 192.585 107.713C193.034 107.329 193.383 106.782 193.63 106.072C193.877 105.363 194.001 104.546 194.001 103.621C194.001 102.684 193.877 101.863 193.63 101.16C193.383 100.457 193.038 99.9102 192.595 99.5195C192.152 99.1289 191.638 98.9336 191.052 98.9336ZM221.287 102.82H209.529V96.9609H221.287V102.82ZM211.033 101.59H219.764V98.1914H211.033V101.59ZM223.299 106.297H207.479V105.047H223.299V106.297ZM216.15 105.535H214.627V102.508H216.15V105.535ZM221.346 113.582H219.803V109.344H209.236V108.113H221.346V113.582ZM230.34 110.613H228.797V105.613H230.34V110.613ZM235.711 110.613H234.188V105.613H235.711V110.613ZM240.262 111.453H224.364V110.184H240.262V111.453ZM238.739 99.1094H225.77V97.8398H238.739V99.1094ZM238.7 106.043H225.809V104.773H238.7V106.043ZM230.047 105.047H228.524V98.8555H230.047V105.047ZM235.985 105.047H234.481V98.8555H235.985V105.047ZM255.585 105.535H254.061V96.2188H255.585V105.535ZM245.858 108.523H254.061V106.414H255.585V113.348H244.335V106.414H245.858V108.523ZM254.061 112.098V109.754H245.858V112.098H254.061ZM246.21 97.0781C247.082 97.0651 247.863 97.2246 248.554 97.5566C249.244 97.8887 249.784 98.3607 250.175 98.9727C250.565 99.5846 250.761 100.281 250.761 101.062C250.761 101.831 250.565 102.518 250.175 103.123C249.784 103.729 249.244 104.201 248.554 104.539C247.863 104.878 247.082 105.047 246.21 105.047C245.337 105.047 244.556 104.878 243.866 104.539C243.176 104.201 242.636 103.729 242.245 103.123C241.854 102.518 241.659 101.831 241.659 101.062C241.659 100.281 241.854 99.5846 242.245 98.9727C242.636 98.3607 243.176 97.8887 243.866 97.5566C244.556 97.2246 245.337 97.0651 246.21 97.0781ZM246.21 98.3672C245.624 98.3542 245.1 98.4648 244.637 98.6992C244.175 98.9336 243.814 99.2559 243.554 99.666C243.293 100.076 243.163 100.542 243.163 101.062C243.163 101.583 243.293 102.049 243.554 102.459C243.814 102.869 244.175 103.191 244.637 103.426C245.1 103.66 245.624 103.777 246.21 103.777C246.796 103.777 247.32 103.66 247.782 103.426C248.244 103.191 248.606 102.869 248.866 102.459C249.126 102.049 249.257 101.583 249.257 101.062C249.257 100.542 249.126 100.076 248.866 99.666C248.606 99.2559 248.244 98.9336 247.782 98.6992C247.32 98.4648 246.796 98.3542 246.21 98.3672ZM272.45 113.582H270.927V96.2188H272.45V113.582ZM260.771 108.68H259.267V97.9375H260.771V108.68ZM260.673 107.781C262.092 107.781 263.495 107.716 264.882 107.586C266.269 107.456 267.665 107.241 269.071 106.941L269.286 108.25C267.815 108.549 266.379 108.768 264.98 108.904C263.58 109.041 262.144 109.109 260.673 109.109H259.267V107.781H260.673ZM288.457 113.621H286.933V96.2188H288.457V113.621ZM291.367 104.383H288.105V103.094H291.367V104.383ZM277.148 107.977C278.828 107.977 280.283 107.931 281.513 107.84C282.744 107.749 283.99 107.586 285.254 107.352L285.449 108.68C284.173 108.914 282.916 109.07 281.679 109.148C280.442 109.227 278.932 109.266 277.148 109.266H275.781V107.977H277.148ZM283.886 99.1875H277.304V108.562H275.781V97.918H283.886V99.1875ZM293.74 112.117C293.519 112.117 293.311 112.059 293.115 111.941C292.92 111.824 292.767 111.668 292.656 111.473C292.546 111.277 292.49 111.069 292.49 110.848C292.49 110.626 292.546 110.418 292.656 110.223C292.767 110.027 292.92 109.874 293.115 109.764C293.311 109.653 293.519 109.598 293.74 109.598C293.962 109.598 294.17 109.653 294.365 109.764C294.561 109.874 294.714 110.027 294.824 110.223C294.935 110.418 294.99 110.626 294.99 110.848C294.99 111.069 294.935 111.277 294.824 111.473C294.714 111.668 294.561 111.824 294.365 111.941C294.17 112.059 293.962 112.117 293.74 112.117ZM2.46289 140.367C2.11133 140.367 1.78255 140.276 1.47656 140.094C1.17057 139.911 0.926432 139.667 0.744141 139.361C0.561849 139.055 0.470703 138.72 0.470703 138.355C0.470703 137.991 0.561849 137.656 0.744141 137.35C0.926432 137.044 1.17057 136.803 1.47656 136.627C1.78255 136.451 2.11133 136.363 2.46289 136.363C2.82747 136.363 3.16602 136.451 3.47852 136.627C3.79102 136.803 4.03516 137.044 4.21094 137.35C4.38672 137.656 4.47461 137.991 4.47461 138.355C4.47461 138.72 4.38672 139.055 4.21094 139.361C4.03516 139.667 3.79102 139.911 3.47852 140.094C3.16602 140.276 2.82747 140.367 2.46289 140.367ZM28.7324 136.383H25.3926V135.074H28.7324V136.383ZM23.0684 133.57C23.0684 134.729 22.9056 135.859 22.5801 136.959C22.2546 138.059 21.7891 139.052 21.1836 139.938C20.5781 140.823 19.8587 141.52 19.0254 142.027L18.1074 140.855C18.8757 140.413 19.543 139.804 20.1094 139.029C20.6758 138.255 21.112 137.392 21.418 136.441C21.724 135.491 21.877 134.534 21.877 133.57V132.652H23.0684V133.57ZM23.3223 133.57C23.3223 134.495 23.4753 135.41 23.7812 136.314C24.0872 137.219 24.5267 138.036 25.0996 138.766C25.6725 139.495 26.3431 140.068 27.1113 140.484L26.2324 141.637C25.3991 141.181 24.6732 140.533 24.0547 139.693C23.4362 138.854 22.9642 137.903 22.6387 136.842C22.3132 135.781 22.1504 134.69 22.1504 133.57V132.652H23.3223V133.57ZM26.584 132.711H18.5762V131.441H26.584V132.711ZM23.3418 132.398H21.877V128.863H23.3418V132.398ZM33.0879 145.582H31.623V128.219H33.0879V145.582ZM29.5723 144.684H28.127V128.648H29.5723V144.684ZM37.102 136.852C38.99 136.852 40.4288 136.826 41.4184 136.773C42.4079 136.721 43.3975 136.604 44.3871 136.422L44.5434 137.691C43.5147 137.861 42.4828 137.971 41.4477 138.023C40.4125 138.076 38.9639 138.102 37.102 138.102H35.8715V136.852H37.102ZM43.3715 134.156H37.3949V137.594H35.8715V132.984H41.848V130.523H35.8324V129.293H43.3715V134.156ZM49.5238 138.902H47.9809V128.238H49.5238V138.902ZM48.352 132.066H44.5238V130.816H48.352V132.066ZM48.352 135.68H44.5238V134.41H48.352V135.68ZM49.5238 145.621H47.9809V141.09H37.8246V139.84H49.5238V145.621ZM59.9246 128.531C61.2137 128.531 62.3172 128.645 63.2352 128.873C64.1531 129.101 64.853 129.439 65.3348 129.889C65.8165 130.338 66.0574 130.882 66.0574 131.52C66.0574 132.171 65.8165 132.721 65.3348 133.17C64.853 133.619 64.1531 133.961 63.2352 134.195C62.3172 134.43 61.2137 134.553 59.9246 134.566C58.6355 134.553 57.532 134.43 56.6141 134.195C55.6961 133.961 54.993 133.619 54.5047 133.17C54.0164 132.721 53.7723 132.171 53.7723 131.52C53.7723 130.882 54.0164 130.338 54.5047 129.889C54.993 129.439 55.6961 129.101 56.6141 128.873C57.532 128.645 58.6355 128.531 59.9246 128.531ZM59.9246 129.684C58.9741 129.684 58.157 129.755 57.4734 129.898C56.7898 130.042 56.269 130.253 55.9109 130.533C55.5529 130.813 55.3738 131.142 55.3738 131.52C55.3738 131.923 55.5496 132.265 55.9012 132.545C56.2527 132.825 56.7703 133.036 57.4539 133.18C58.1375 133.323 58.9611 133.395 59.9246 133.395C60.8881 133.395 61.7117 133.323 62.3953 133.18C63.0789 133.036 63.5997 132.822 63.9578 132.535C64.3159 132.249 64.4949 131.91 64.4949 131.52C64.4949 131.142 64.3126 130.816 63.948 130.543C63.5835 130.27 63.0594 130.058 62.3758 129.908C61.6922 129.758 60.8751 129.684 59.9246 129.684ZM67.8348 136.988H52.0145V135.738H67.8348V136.988ZM65.8035 142.379H55.491V144.488H53.9676V141.246H64.2996V139.664H53.9285V138.492H65.8035V142.379ZM66.3309 145.387H53.9676V144.176H66.3309V145.387ZM89.4176 143.355H73.5191V142.086H89.4176V143.355ZM82.1715 142.477H80.6676V137.887H82.1715V142.477ZM76.9371 132.594H85.9605V129.449H87.4645V138.336H75.3941V129.449H76.9371V132.594ZM85.9605 137.086V133.844H76.9371V137.086H85.9605ZM103.979 138.648H102.455V128.219H103.979V138.648ZM106.596 134.02H103.549V132.75H106.596V134.02ZM99.252 129.508C99.252 130.953 98.9232 132.278 98.2656 133.482C97.6081 134.687 96.6673 135.729 95.4434 136.607C94.2194 137.486 92.7611 138.173 91.0684 138.668L90.4238 137.418C91.9082 136.988 93.1908 136.415 94.2715 135.699C95.3522 134.983 96.1823 134.16 96.7617 133.229C97.3411 132.298 97.6309 131.292 97.6309 130.211V129.508H99.252ZM98.4902 130.777H91.1855V129.508H98.4902V130.777ZM98.4902 138.844C99.6491 138.844 100.658 138.977 101.518 139.244C102.377 139.511 103.035 139.895 103.49 140.396C103.946 140.898 104.174 141.493 104.174 142.184C104.174 142.874 103.946 143.473 103.49 143.98C103.035 144.488 102.377 144.876 101.518 145.143C100.658 145.41 99.6491 145.543 98.4902 145.543C97.3444 145.543 96.3418 145.41 95.4824 145.143C94.623 144.876 93.9622 144.488 93.5 143.98C93.0378 143.473 92.8066 142.874 92.8066 142.184C92.8066 141.493 93.0378 140.898 93.5 140.396C93.9622 139.895 94.623 139.511 95.4824 139.244C96.3418 138.977 97.3444 138.844 98.4902 138.844ZM98.4902 140.074C97.6569 140.061 96.9245 140.139 96.293 140.309C95.6615 140.478 95.1764 140.725 94.8379 141.051C94.4993 141.376 94.3301 141.754 94.3301 142.184C94.3301 142.613 94.4993 142.988 94.8379 143.307C95.1764 143.626 95.6615 143.873 96.293 144.049C96.9245 144.225 97.6569 144.312 98.4902 144.312C99.3366 144.312 100.076 144.225 100.707 144.049C101.339 143.873 101.827 143.626 102.172 143.307C102.517 142.988 102.689 142.613 102.689 142.184C102.689 141.754 102.517 141.376 102.172 141.051C101.827 140.725 101.339 140.478 100.707 140.309C100.076 140.139 99.3366 140.061 98.4902 140.074ZM120.727 145.582H119.204V128.219H120.727V145.582ZM123.637 136.656H120.375V135.387H123.637V136.656ZM117.524 132.281H107.192V131.012H117.524V132.281ZM112.446 133.727C113.266 133.727 113.998 133.896 114.643 134.234C115.287 134.573 115.792 135.045 116.157 135.65C116.521 136.256 116.704 136.943 116.704 137.711C116.704 138.479 116.521 139.166 116.157 139.771C115.792 140.377 115.287 140.849 114.643 141.188C113.998 141.526 113.266 141.695 112.446 141.695C111.625 141.695 110.893 141.526 110.248 141.188C109.604 140.849 109.099 140.377 108.735 139.771C108.37 139.166 108.188 138.479 108.188 137.711C108.188 136.943 108.37 136.256 108.735 135.65C109.099 135.045 109.604 134.573 110.248 134.234C110.893 133.896 111.625 133.727 112.446 133.727ZM112.446 135.016C111.912 135.016 111.433 135.13 111.01 135.357C110.587 135.585 110.255 135.904 110.014 136.314C109.773 136.725 109.653 137.19 109.653 137.711C109.653 138.232 109.773 138.694 110.014 139.098C110.255 139.501 110.587 139.817 111.01 140.045C111.433 140.273 111.912 140.387 112.446 140.387C112.98 140.387 113.458 140.273 113.881 140.045C114.304 139.817 114.636 139.501 114.877 139.098C115.118 138.694 115.239 138.232 115.239 137.711C115.239 137.19 115.118 136.725 114.877 136.314C114.636 135.904 114.304 135.585 113.881 135.357C113.458 135.13 112.98 135.016 112.446 135.016ZM113.188 131.598H111.664V128.434H113.188V131.598ZM137.143 131.246H125.854V129.977H137.143V131.246ZM139.995 143.121H124.175V141.852H139.995V143.121ZM131.889 142.516H130.386V135.641H131.889V142.516ZM138.1 131.715C138.1 132.743 138.087 133.6 138.061 134.283C138.035 134.967 137.977 135.774 137.886 136.705C137.794 137.636 137.651 138.642 137.456 139.723L135.893 139.547C136.102 138.518 136.255 137.548 136.352 136.637C136.45 135.725 136.509 134.915 136.528 134.205C136.548 133.495 136.557 132.665 136.557 131.715V129.977H138.1V131.715ZM154.078 130.777C154.078 131.975 153.739 133.095 153.062 134.137C152.385 135.178 151.509 136.057 150.435 136.773C149.361 137.49 148.231 137.984 147.046 138.258L146.343 136.969C147.372 136.76 148.381 136.354 149.371 135.748C150.36 135.143 151.168 134.4 151.793 133.521C152.418 132.643 152.73 131.728 152.73 130.777V129.449H154.078V130.777ZM154.332 130.777C154.332 131.715 154.651 132.626 155.289 133.512C155.927 134.397 156.744 135.146 157.74 135.758C158.736 136.37 159.742 136.773 160.757 136.969L160.054 138.258C158.882 137.984 157.759 137.493 156.685 136.783C155.611 136.074 154.732 135.195 154.048 134.146C153.365 133.098 153.023 131.975 153.023 130.777V129.449H154.332V130.777ZM161.578 143.219H145.679V141.949H161.578V143.219ZM176.627 138.863H164.615V137.613H176.627V138.863ZM178.463 143.316H162.564V142.047H178.463V143.316ZM176.432 131.012H166.178V137.984H164.615V129.723H176.432V131.012ZM176.061 134.82H165.689V133.59H176.061V134.82ZM181.188 140.016C182.438 140.016 183.561 139.983 184.557 139.918C185.553 139.853 186.611 139.723 187.731 139.527L187.848 140.797C186.728 140.992 185.68 141.122 184.704 141.188C183.727 141.253 182.555 141.292 181.188 141.305H180.036V140.016H181.188ZM186.227 136.148H181.52V140.562H180.036V134.879H184.762V131.422H179.996V130.152H186.227V136.148ZM194.293 145.582H192.829V128.219H194.293V145.582ZM189.957 135.738H187.067V134.488H189.957V135.738ZM190.739 144.664H189.293V128.648H190.739V144.664ZM204.733 130.777C204.733 131.975 204.395 133.095 203.718 134.137C203.04 135.178 202.165 136.057 201.091 136.773C200.016 137.49 198.887 137.984 197.702 138.258L196.999 136.969C198.027 136.76 199.037 136.354 200.026 135.748C201.016 135.143 201.823 134.4 202.448 133.521C203.073 132.643 203.386 131.728 203.386 130.777V129.449H204.733V130.777ZM204.987 130.777C204.987 131.715 205.306 132.626 205.944 133.512C206.582 134.397 207.399 135.146 208.395 135.758C209.391 136.37 210.397 136.773 211.413 136.969L210.71 138.258C209.538 137.984 208.415 137.493 207.341 136.783C206.266 136.074 205.387 135.195 204.704 134.146C204.02 133.098 203.679 131.975 203.679 130.777V129.449H204.987V130.777ZM212.233 143.219H196.335V141.949H212.233V143.219ZM229.099 137.496H213.2V136.285H229.099V137.496ZM227.107 142.574H216.677V144.645H215.134V141.52H225.583V140.035H215.114V138.883H227.107V142.574ZM227.673 145.348H215.134V144.234H227.673V145.348ZM227.048 132.34H216.794V134.254H215.271V131.285H225.505V129.859H215.212V128.746H227.048V132.34ZM227.361 134.977H215.271V133.863H227.361V134.977ZM243.377 139.059H241.873V136.383H243.377V139.059ZM250.545 136.734H234.725V135.484H250.545V136.734ZM248.514 142.438H238.201V144.488H236.678V141.305H247.01V139.664H236.639V138.492H248.514V142.438ZM249.041 145.387H236.678V144.176H249.041V145.387ZM243.104 129.82C243.104 130.693 242.781 131.467 242.137 132.145C241.492 132.822 240.639 133.372 239.578 133.795C238.517 134.218 237.355 134.495 236.092 134.625L235.584 133.453C236.665 133.362 237.677 133.147 238.621 132.809C239.565 132.47 240.327 132.04 240.906 131.52C241.486 130.999 241.775 130.432 241.775 129.82V129.312H243.104V129.82ZM243.514 129.82C243.514 130.432 243.8 130.999 244.373 131.52C244.946 132.04 245.711 132.47 246.668 132.809C247.625 133.147 248.637 133.362 249.705 133.453L249.197 134.625C247.947 134.495 246.788 134.218 245.721 133.795C244.653 133.372 243.797 132.818 243.152 132.135C242.508 131.451 242.186 130.68 242.186 129.82V129.312H243.514V129.82ZM249.139 130.055H236.17V128.844H249.139V130.055ZM264.852 133.395H259.5V132.105H264.852V133.395ZM264.852 138.883H259.5V137.613H264.852V138.883ZM256.278 129.566C257.124 129.566 257.873 129.817 258.524 130.318C259.175 130.82 259.686 131.526 260.057 132.438C260.428 133.349 260.614 134.41 260.614 135.621C260.614 136.832 260.428 137.893 260.057 138.805C259.686 139.716 259.175 140.419 258.524 140.914C257.873 141.409 257.124 141.656 256.278 141.656C255.431 141.656 254.679 141.409 254.022 140.914C253.364 140.419 252.85 139.716 252.479 138.805C252.108 137.893 251.922 136.832 251.922 135.621C251.922 134.41 252.108 133.349 252.479 132.438C252.85 131.526 253.364 130.82 254.022 130.318C254.679 129.817 255.431 129.566 256.278 129.566ZM256.278 130.934C255.718 130.934 255.217 131.129 254.774 131.52C254.331 131.91 253.989 132.457 253.748 133.16C253.508 133.863 253.387 134.684 253.387 135.621C253.387 136.546 253.508 137.363 253.748 138.072C253.989 138.782 254.331 139.329 254.774 139.713C255.217 140.097 255.718 140.289 256.278 140.289C256.838 140.289 257.339 140.097 257.782 139.713C258.224 139.329 258.566 138.782 258.807 138.072C259.048 137.363 259.168 136.546 259.168 135.621C259.168 134.684 259.048 133.863 258.807 133.16C258.566 132.457 258.228 131.91 257.791 131.52C257.355 131.129 256.851 130.934 256.278 130.934ZM266.004 145.621H264.481V128.219H266.004V145.621ZM276.893 130.68C276.893 131.669 276.568 132.581 275.917 133.414C275.266 134.247 274.419 134.941 273.378 135.494C272.336 136.048 271.223 136.428 270.038 136.637L269.432 135.426C270.448 135.27 271.428 134.96 272.372 134.498C273.316 134.036 274.081 133.469 274.667 132.799C275.253 132.128 275.546 131.422 275.546 130.68V129.938H276.893V130.68ZM277.264 130.68C277.264 131.422 277.557 132.128 278.143 132.799C278.729 133.469 279.494 134.036 280.438 134.498C281.382 134.96 282.362 135.27 283.378 135.426L282.811 136.637C281.613 136.428 280.49 136.051 279.442 135.504C278.394 134.957 277.548 134.264 276.903 133.424C276.259 132.584 275.936 131.669 275.936 130.68V129.938H277.264V130.68ZM277.128 145.582H275.624V138.941H277.128V145.582ZM284.315 139.391H268.495V138.121H284.315V139.391ZM282.811 130.562H269.979V129.312H282.811V130.562ZM298.857 133.668H293.407V132.398H298.857V133.668ZM298.857 138.453H293.407V137.184H298.857V138.453ZM293.993 141.188H286.083V129.957H293.993V141.188ZM287.607 139.957H292.509V131.168H287.607V139.957ZM299.775 145.621H298.251V128.219H299.775V145.621ZM303.593 148.004H302.148L303.222 142.691H305.117L303.593 148.004ZM320.079 129.84C320.079 130.895 319.75 131.861 319.092 132.74C318.435 133.619 317.566 134.345 316.485 134.918C315.404 135.491 314.258 135.882 313.047 136.09L312.422 134.84C313.477 134.697 314.489 134.381 315.459 133.893C316.429 133.404 317.217 132.805 317.823 132.096C318.428 131.386 318.731 130.634 318.731 129.84V128.844H320.079V129.84ZM320.313 129.84C320.313 130.621 320.619 131.37 321.231 132.086C321.843 132.802 322.637 133.404 323.614 133.893C324.59 134.381 325.599 134.697 326.641 134.84L326.016 136.09C324.805 135.882 323.663 135.488 322.588 134.908C321.514 134.329 320.645 133.6 319.981 132.721C319.317 131.842 318.985 130.882 318.985 129.84V128.844H320.313V129.84ZM320.235 145.582H318.731V138.961H320.235V145.582ZM327.422 139.293H311.602V138.004H327.422V139.293ZM341.807 132.574H336.886V131.285H341.807V132.574ZM341.846 136.285H336.886V135.016H341.846V136.285ZM337.276 137.848H329.307V129.742H337.276V137.848ZM330.831 136.617H335.772V131.012H330.831V136.617ZM342.882 140.914H341.339V128.238H342.882V140.914ZM343.272 145.211H331.651V143.922H343.272V145.211ZM333.194 144.488H331.651V139.781H333.194V144.488ZM353.282 128.531C354.571 128.531 355.675 128.645 356.593 128.873C357.511 129.101 358.211 129.439 358.693 129.889C359.174 130.338 359.415 130.882 359.415 131.52C359.415 132.171 359.174 132.721 358.693 133.17C358.211 133.619 357.511 133.961 356.593 134.195C355.675 134.43 354.571 134.553 353.282 134.566C351.993 134.553 350.89 134.43 349.972 134.195C349.054 133.961 348.351 133.619 347.862 133.17C347.374 132.721 347.13 132.171 347.13 131.52C347.13 130.882 347.374 130.338 347.862 129.889C348.351 129.439 349.054 129.101 349.972 128.873C350.89 128.645 351.993 128.531 353.282 128.531ZM353.282 129.684C352.332 129.684 351.515 129.755 350.831 129.898C350.148 130.042 349.627 130.253 349.269 130.533C348.911 130.813 348.732 131.142 348.732 131.52C348.732 131.923 348.907 132.265 349.259 132.545C349.611 132.825 350.128 133.036 350.812 133.18C351.495 133.323 352.319 133.395 353.282 133.395C354.246 133.395 355.07 133.323 355.753 133.18C356.437 133.036 356.958 132.822 357.316 132.535C357.674 132.249 357.853 131.91 357.853 131.52C357.853 131.142 357.67 130.816 357.306 130.543C356.941 130.27 356.417 130.058 355.734 129.908C355.05 129.758 354.233 129.684 353.282 129.684ZM361.193 136.988H345.372V135.738H361.193V136.988ZM359.161 142.379H348.849V144.488H347.325V141.246H357.657V139.664H347.286V138.492H359.161V142.379ZM359.689 145.387H347.325V144.176H359.689V145.387ZM382.697 138.688H366.877V137.438H382.697V138.688ZM375.529 137.984H374.025V135.25H375.529V137.984ZM380.744 145.582H379.201V141.578H368.635V140.348H380.744V145.582ZM375.529 130.562H374.025V128.141H375.529V130.562ZM375.295 131.09C375.295 132.001 374.982 132.809 374.357 133.512C373.732 134.215 372.893 134.778 371.838 135.201C370.783 135.624 369.611 135.908 368.322 136.051L367.814 134.859C368.947 134.755 369.979 134.534 370.91 134.195C371.841 133.857 372.58 133.421 373.127 132.887C373.674 132.353 373.947 131.754 373.947 131.09V130.777H375.295V131.09ZM375.627 131.09C375.627 131.754 375.9 132.353 376.447 132.887C376.994 133.421 377.733 133.857 378.664 134.195C379.595 134.534 380.627 134.755 381.76 134.859L381.252 136.051C379.963 135.908 378.791 135.624 377.736 135.201C376.682 134.778 375.842 134.215 375.217 133.512C374.592 132.809 374.279 132.001 374.279 131.09V130.777H375.627V131.09ZM381.096 131.188H368.518V129.938H381.096V131.188ZM115.595 163.949C115.595 164.978 115.387 165.951 114.97 166.869C114.554 167.787 113.974 168.585 113.232 169.262C112.49 169.939 111.637 170.453 110.673 170.805L109.873 169.574C110.732 169.262 111.5 168.819 112.177 168.246C112.854 167.673 113.382 167.016 113.759 166.273C114.137 165.531 114.326 164.757 114.326 163.949V162.133H115.595V163.949ZM115.869 163.949C115.869 164.717 116.058 165.453 116.435 166.156C116.813 166.859 117.34 167.478 118.017 168.012C118.694 168.546 119.463 168.949 120.322 169.223L119.541 170.453C118.577 170.128 117.721 169.643 116.972 168.998C116.224 168.354 115.641 167.598 115.224 166.732C114.808 165.867 114.599 164.939 114.599 163.949V162.133H115.869V163.949ZM119.873 162.934H110.263V161.684H119.873V162.934ZM123.955 172.973H122.431V160.238H123.955V172.973ZM124.502 177.211H112.744V175.922H124.502V177.211ZM114.267 176.488H112.744V171.762H114.267V176.488ZM139.941 177.582H138.418V160.219H139.941V177.582ZM142.852 168.656H139.59V167.387H142.852V168.656ZM136.738 164.281H126.406V163.012H136.738V164.281ZM131.66 165.727C132.48 165.727 133.213 165.896 133.857 166.234C134.502 166.573 135.007 167.045 135.371 167.65C135.736 168.256 135.918 168.943 135.918 169.711C135.918 170.479 135.736 171.166 135.371 171.771C135.007 172.377 134.502 172.849 133.857 173.188C133.213 173.526 132.48 173.695 131.66 173.695C130.84 173.695 130.107 173.526 129.463 173.188C128.818 172.849 128.314 172.377 127.949 171.771C127.585 171.166 127.402 170.479 127.402 169.711C127.402 168.943 127.585 168.256 127.949 167.65C128.314 167.045 128.818 166.573 129.463 166.234C130.107 165.896 130.84 165.727 131.66 165.727ZM131.66 167.016C131.126 167.016 130.648 167.13 130.225 167.357C129.801 167.585 129.469 167.904 129.229 168.314C128.988 168.725 128.867 169.19 128.867 169.711C128.867 170.232 128.988 170.694 129.229 171.098C129.469 171.501 129.801 171.817 130.225 172.045C130.648 172.273 131.126 172.387 131.66 172.387C132.194 172.387 132.673 172.273 133.096 172.045C133.519 171.817 133.851 171.501 134.092 171.098C134.333 170.694 134.453 170.232 134.453 169.711C134.453 169.19 134.333 168.725 134.092 168.314C133.851 167.904 133.519 167.585 133.096 167.357C132.673 167.13 132.194 167.016 131.66 167.016ZM132.402 163.598H130.879V160.434H132.402V163.598ZM157.432 166.723H145.538V165.492H157.432V166.723ZM159.268 170.336H143.37V169.086H159.268V170.336ZM147.061 166.117H145.538V160.863H147.061V166.117ZM157.53 177.152H145.44V175.883H157.53V177.152ZM146.963 176.254H145.44V172.113H146.963V176.254ZM170.636 175.023H169.093V170.941H170.636V175.023ZM176.495 175.023H174.991V170.941H176.495V175.023ZM179.894 164.086H165.675V162.816H179.894V164.086ZM180.792 175.59H164.894V174.32H180.792V175.59ZM172.804 165.219C173.976 165.219 174.991 165.346 175.851 165.6C176.71 165.854 177.368 166.225 177.823 166.713C178.279 167.201 178.507 167.79 178.507 168.48C178.507 169.158 178.279 169.737 177.823 170.219C177.368 170.701 176.71 171.072 175.851 171.332C174.991 171.592 173.976 171.723 172.804 171.723C171.632 171.723 170.616 171.592 169.757 171.332C168.898 171.072 168.24 170.701 167.784 170.219C167.329 169.737 167.101 169.158 167.101 168.48C167.101 167.79 167.329 167.201 167.784 166.713C168.24 166.225 168.898 165.854 169.757 165.6C170.616 165.346 171.632 165.219 172.804 165.219ZM172.804 166.43C171.945 166.43 171.202 166.511 170.577 166.674C169.952 166.837 169.474 167.071 169.142 167.377C168.81 167.683 168.644 168.051 168.644 168.48C168.644 168.897 168.81 169.258 169.142 169.564C169.474 169.87 169.952 170.105 170.577 170.268C171.202 170.43 171.945 170.512 172.804 170.512C173.65 170.512 174.386 170.43 175.011 170.268C175.636 170.105 176.114 169.87 176.446 169.564C176.779 169.258 176.945 168.897 176.945 168.48C176.945 168.051 176.779 167.683 176.446 167.377C176.114 167.071 175.636 166.837 175.011 166.674C174.386 166.511 173.65 166.43 172.804 166.43ZM173.546 163.578H172.042V160.512H173.546V163.578ZM190.509 163.402H182.58V162.152H190.509V163.402ZM186.857 172.992H185.353V167.113H186.857V172.992ZM191.408 163.051C191.395 163.871 191.382 164.551 191.369 165.092C191.356 165.632 191.313 166.329 191.242 167.182C191.17 168.035 191.056 168.956 190.9 169.945L189.357 169.809C189.578 168.428 189.718 167.221 189.777 166.186C189.836 165.15 189.865 164.105 189.865 163.051V162.152H191.408V163.051ZM195.177 177.582H193.654V160.219H195.177V177.582ZM197.99 168.812H194.767V167.484H197.99V168.812ZM181.603 172.484C183.712 172.471 185.669 172.429 187.472 172.357C189.276 172.286 190.972 172.159 192.56 171.977L192.638 173.129C190.998 173.376 189.259 173.546 187.423 173.637C185.587 173.728 183.712 173.767 181.798 173.754L181.603 172.484ZM212.102 177.582H210.578V160.219H212.102V177.582ZM214.914 168.578H211.711V167.289H214.914V168.578ZM207.609 162.094C207.609 163.786 207.333 165.382 206.779 166.879C206.226 168.376 205.357 169.757 204.172 171.02C202.987 172.283 201.477 173.37 199.641 174.281L198.781 173.07C200.396 172.263 201.747 171.319 202.834 170.238C203.921 169.158 204.738 167.956 205.285 166.635C205.832 165.313 206.105 163.884 206.105 162.348V162.094H207.609ZM206.887 163.383H199.582V162.094H206.887V163.383ZM225.774 171.879C225.774 172.634 225.615 173.373 225.296 174.096C224.977 174.818 224.521 175.463 223.929 176.029C223.336 176.596 222.63 177.035 221.809 177.348L221.028 176.215C221.744 175.941 222.366 175.574 222.893 175.111C223.421 174.649 223.831 174.135 224.124 173.568C224.417 173.002 224.563 172.439 224.563 171.879V170.922H225.774V171.879ZM226.048 171.879C226.048 172.465 226.168 173.048 226.409 173.627C226.65 174.206 227.008 174.73 227.483 175.199C227.958 175.668 228.535 176.039 229.212 176.312L228.567 177.484C227.76 177.172 227.083 176.723 226.536 176.137C225.989 175.551 225.582 174.89 225.315 174.154C225.048 173.419 224.915 172.66 224.915 171.879V170.922H226.048V171.879ZM232.2 171.879C232.2 172.582 232.063 173.301 231.79 174.037C231.516 174.773 231.106 175.447 230.559 176.059C230.013 176.671 229.348 177.146 228.567 177.484L227.903 176.312C228.567 176.013 229.137 175.613 229.612 175.111C230.087 174.61 230.445 174.073 230.686 173.5C230.927 172.927 231.048 172.387 231.048 171.879V170.922H232.2V171.879ZM232.552 171.879C232.552 172.478 232.695 173.061 232.981 173.627C233.268 174.193 233.678 174.704 234.212 175.16C234.746 175.616 235.371 175.967 236.087 176.215L235.325 177.348C234.492 177.048 233.776 176.622 233.177 176.068C232.578 175.515 232.122 174.877 231.809 174.154C231.497 173.432 231.341 172.673 231.341 171.879V170.922H232.552V171.879ZM234.505 170.16H232.981V160.238H234.505V170.16ZM225.13 161.254C226.002 161.254 226.783 161.423 227.473 161.762C228.164 162.1 228.704 162.579 229.095 163.197C229.485 163.816 229.68 164.522 229.68 165.316C229.68 166.098 229.485 166.794 229.095 167.406C228.704 168.018 228.164 168.493 227.473 168.832C226.783 169.171 226.002 169.34 225.13 169.34C224.257 169.34 223.476 169.171 222.786 168.832C222.096 168.493 221.555 168.018 221.165 167.406C220.774 166.794 220.579 166.098 220.579 165.316C220.579 164.522 220.774 163.816 221.165 163.197C221.555 162.579 222.096 162.1 222.786 161.762C223.476 161.423 224.257 161.254 225.13 161.254ZM225.13 162.562C224.544 162.549 224.02 162.66 223.557 162.895C223.095 163.129 222.734 163.458 222.473 163.881C222.213 164.304 222.083 164.783 222.083 165.316C222.083 165.837 222.213 166.306 222.473 166.723C222.734 167.139 223.095 167.465 223.557 167.699C224.02 167.934 224.544 168.057 225.13 168.07C225.716 168.057 226.24 167.934 226.702 167.699C227.164 167.465 227.526 167.139 227.786 166.723C228.046 166.306 228.177 165.837 228.177 165.316C228.177 164.783 228.046 164.304 227.786 163.881C227.526 163.458 227.164 163.129 226.702 162.895C226.24 162.66 225.716 162.549 225.13 162.562ZM240.589 172.68H249.261V170.648H250.804V177.348H239.066V170.648H240.589V172.68ZM249.261 176.117V173.891H240.589V176.117H249.261ZM252.874 169.418H237.054V168.148H252.874V169.418ZM245.511 161.234C245.511 162.185 245.182 163.061 244.525 163.861C243.867 164.662 243.004 165.326 241.937 165.854C240.869 166.381 239.736 166.736 238.538 166.918L237.952 165.688C238.994 165.544 239.997 165.258 240.96 164.828C241.924 164.398 242.702 163.868 243.294 163.236C243.887 162.605 244.183 161.938 244.183 161.234V160.414H245.511V161.234ZM245.765 161.234C245.765 161.924 246.064 162.585 246.663 163.217C247.262 163.848 248.043 164.385 249.007 164.828C249.971 165.271 250.96 165.557 251.976 165.688L251.409 166.918C250.211 166.736 249.079 166.378 248.011 165.844C246.943 165.31 246.081 164.643 245.423 163.842C244.765 163.041 244.437 162.172 244.437 161.234V160.414H245.765V161.234ZM268.255 177.582H266.732V160.219H268.255V177.582ZM256.576 172.68H255.072V161.938H256.576V172.68ZM256.478 171.781C257.897 171.781 259.3 171.716 260.687 171.586C262.074 171.456 263.47 171.241 264.877 170.941L265.091 172.25C263.62 172.549 262.184 172.768 260.785 172.904C259.385 173.041 257.949 173.109 256.478 173.109H255.072V171.781H256.478ZM284.262 177.621H282.738V160.219H284.262V177.621ZM287.172 168.383H283.91V167.094H287.172V168.383ZM272.953 171.977C274.633 171.977 276.088 171.931 277.318 171.84C278.549 171.749 279.796 171.586 281.059 171.352L281.254 172.68C279.978 172.914 278.721 173.07 277.484 173.148C276.247 173.227 274.737 173.266 272.953 173.266H271.586V171.977H272.953ZM279.691 163.188H273.109V172.562H271.586V161.918H279.691V163.188ZM289.545 176.117C289.324 176.117 289.116 176.059 288.92 175.941C288.725 175.824 288.572 175.668 288.461 175.473C288.351 175.277 288.295 175.069 288.295 174.848C288.295 174.626 288.351 174.418 288.461 174.223C288.572 174.027 288.725 173.874 288.92 173.764C289.116 173.653 289.324 173.598 289.545 173.598C289.767 173.598 289.975 173.653 290.17 173.764C290.366 173.874 290.519 174.027 290.629 174.223C290.74 174.418 290.795 174.626 290.795 174.848C290.795 175.069 290.74 175.277 290.629 175.473C290.519 175.668 290.366 175.824 290.17 175.941C289.975 176.059 289.767 176.117 289.545 176.117Z" fill="white"/>
</svg>
