<svg width="87" height="22" viewBox="0 0 87 22" fill="none" xmlns="http://www.w3.org/2000/svg">
<path d="M15.3613 10.7207H13.2031V1.08203H15.3613V10.7207ZM15.3613 15.7402H5.92773V17.3613H3.75V14.207H13.2031V13.0547H3.7207V11.4727H15.3613V15.7402ZM15.8398 18.582H3.75V16.9609H15.8398V18.582ZM14.0625 7.41016H10.5762V5.67188H14.0625V7.41016ZM10.9863 4.10938H0.615234V2.44922H10.9863V4.10938ZM5.80078 4.70508C6.61458 4.70508 7.33724 4.82552 7.96875 5.06641C8.60677 5.30729 9.10482 5.64909 9.46289 6.0918C9.82096 6.53451 10 7.04883 10 7.63477C10 8.21419 9.82096 8.72201 9.46289 9.1582C9.10482 9.5944 8.60677 9.93294 7.96875 10.1738C7.33724 10.4082 6.61458 10.5254 5.80078 10.5254C4.98698 10.5254 4.26432 10.4082 3.63281 10.1738C3.0013 9.93294 2.50651 9.5944 2.14844 9.1582C1.79688 8.72201 1.62109 8.21419 1.62109 7.63477C1.62109 7.04883 1.79688 6.53451 2.14844 6.0918C2.50651 5.64909 3.0013 5.30729 3.63281 5.06641C4.26432 4.82552 4.98698 4.70508 5.80078 4.70508ZM5.80078 6.29688C5.38411 6.28385 5.01628 6.33268 4.69727 6.44336C4.38477 6.54753 4.13737 6.70378 3.95508 6.91211C3.7793 7.11393 3.69141 7.35482 3.69141 7.63477C3.69141 7.90169 3.7793 8.13607 3.95508 8.33789C4.13737 8.53971 4.38477 8.69922 4.69727 8.81641C5.01628 8.92708 5.38411 8.98242 5.80078 8.98242C6.22396 8.98242 6.5918 8.92708 6.9043 8.81641C7.22331 8.69922 7.46745 8.53971 7.63672 8.33789C7.8125 8.13607 7.90039 7.90169 7.90039 7.63477C7.90039 7.35482 7.8125 7.11393 7.63672 6.91211C7.46745 6.70378 7.22331 6.54753 6.9043 6.44336C6.5918 6.33268 6.22396 6.28385 5.80078 6.29688ZM6.875 3.51367H4.72656V0.896484H6.875V3.51367ZM19.2777 21.082H17.4223L18.4281 15.6035H20.9184L19.2777 21.082ZM39.5715 4.55859H28.2336V2.79102H39.5715V4.55859ZM42.6184 16.3066H26.5441V14.5391H42.6184V16.3066ZM40.5773 4.79297C40.5773 5.86719 40.5643 6.77539 40.5383 7.51758C40.5187 8.25977 40.4634 9.1224 40.3723 10.1055C40.2876 11.082 40.1444 12.1465 39.9426 13.2988L37.7258 13.1133C37.9471 12.0326 38.1066 11.0137 38.2043 10.0566C38.3085 9.09961 38.3703 8.24349 38.3898 7.48828C38.4094 6.72656 38.4191 5.82812 38.4191 4.79297V2.79102H40.5773V4.79297ZM45.5387 9.97852C47.3355 9.97852 48.8036 9.94922 49.943 9.89062C51.0888 9.83203 52.2314 9.71159 53.3707 9.5293L53.5367 11.2969C52.3844 11.4727 51.2223 11.5898 50.0504 11.6484C48.8785 11.707 47.3746 11.7363 45.5387 11.7363H44.1031V9.97852H45.5387ZM52.0621 7.76172H46.2809V11.1309H44.1031V6.08203H49.8941V4.03125H44.0836V2.2832H52.0621V7.76172ZM58.2047 14.0898H56.0367V1.10156H58.2047V14.0898ZM58.6832 18.4062H46.525V16.6289H58.6832V18.4062ZM48.6832 17.2148H46.525V13.0449H48.6832V17.2148ZM56.4762 7.30273H53.0387V5.45703H56.4762V7.30273ZM74.1328 18.709H71.9648V1.08203H74.1328V18.709ZM76.75 9.7832H73.5762V7.98633H76.75V9.7832ZM69.4746 2.92773C69.4746 4.72461 69.2044 6.39779 68.6641 7.94727C68.1302 9.49023 67.2676 10.9095 66.0762 12.2051C64.8848 13.4941 63.3418 14.6107 61.4473 15.5547L60.2266 13.875C61.8216 13.0677 63.1432 12.1465 64.1914 11.1113C65.2461 10.0762 66.0339 8.91406 66.5547 7.625C67.0755 6.32943 67.3359 4.89062 67.3359 3.30859V2.92773H69.4746ZM68.4395 4.71484H61.1445V2.92773H68.4395V4.71484ZM80.1879 12.6641C80.1944 11.8568 80.2693 11.2057 80.4125 10.7109C80.5622 10.2161 80.7706 9.81901 81.0375 9.51953C81.3044 9.21354 81.669 8.92383 82.1312 8.65039C82.6 8.35742 82.9613 8.03516 83.2152 7.68359C83.4691 7.33203 83.5961 6.9349 83.5961 6.49219C83.5961 6.13411 83.5147 5.82161 83.352 5.55469C83.1892 5.28125 82.9581 5.07292 82.6586 4.92969C82.3656 4.77995 82.0434 4.70508 81.6918 4.70508C81.3533 4.70508 81.0375 4.77669 80.7445 4.91992C80.4516 5.05664 80.2107 5.27148 80.0219 5.56445C79.8331 5.85742 79.7289 6.21224 79.7094 6.62891H77.268C77.294 5.78255 77.5056 5.06315 77.9027 4.4707C78.2999 3.87174 78.8272 3.42253 79.4848 3.12305C80.1423 2.81706 80.878 2.66406 81.6918 2.66406C82.5772 2.66406 83.3552 2.82031 84.0258 3.13281C84.7029 3.4388 85.227 3.87826 85.598 4.45117C85.9691 5.01758 86.1547 5.6849 86.1547 6.45312C86.1547 7.21484 85.9756 7.86914 85.6176 8.41602C85.266 8.95638 84.7582 9.43164 84.0941 9.8418C83.7035 10.0697 83.3943 10.3073 83.1664 10.5547C82.9385 10.8021 82.766 11.0918 82.6488 11.4238C82.5316 11.7559 82.4698 12.1693 82.4633 12.6641V12.8496H80.1879V12.6641ZM81.3891 17.1562C81.1156 17.1562 80.8617 17.0879 80.6273 16.9512C80.393 16.8079 80.2074 16.6224 80.0707 16.3945C79.9405 16.1602 79.8754 15.9062 79.8754 15.6328C79.8754 15.3659 79.9405 15.1185 80.0707 14.8906C80.2074 14.6562 80.393 14.474 80.6273 14.3438C80.8617 14.207 81.1156 14.1387 81.3891 14.1387C81.6495 14.1387 81.8969 14.207 82.1312 14.3438C82.3656 14.474 82.5512 14.6562 82.6879 14.8906C82.8246 15.1185 82.893 15.3659 82.893 15.6328C82.893 15.9062 82.8246 16.1602 82.6879 16.3945C82.5512 16.6224 82.3656 16.8079 82.1312 16.9512C81.8969 17.0879 81.6495 17.1562 81.3891 17.1562Z" fill="white"/>
</svg>
