<svg width="65" height="19" viewBox="0 0 65 19" fill="none" xmlns="http://www.w3.org/2000/svg">
<path d="M15.8008 4.14844H1.37695V2.48828H15.8008V4.14844ZM8.63281 4.67578C10.5078 4.67578 11.9499 4.89714 12.959 5.33984C13.9746 5.78255 14.4824 6.42383 14.4824 7.26367C14.4824 8.10352 13.9779 8.74154 12.9688 9.17773C11.9661 9.61393 10.5208 9.82878 8.63281 9.82227C6.73828 9.82878 5.2832 9.61393 4.26758 9.17773C3.25846 8.74154 2.75391 8.10352 2.75391 7.26367C2.75391 6.70378 2.98177 6.23177 3.4375 5.84766C3.89974 5.45703 4.56706 5.16406 5.43945 4.96875C6.31836 4.77344 7.38281 4.67578 8.63281 4.67578ZM8.63281 6.18945C7.8125 6.18945 7.13216 6.22852 6.5918 6.30664C6.05143 6.38477 5.64779 6.50521 5.38086 6.66797C5.12044 6.82422 4.99023 7.02279 4.99023 7.26367C4.99023 7.49805 5.12044 7.69661 5.38086 7.85938C5.64128 8.01562 6.04167 8.13281 6.58203 8.21094C7.1224 8.28906 7.80599 8.32812 8.63281 8.32812C9.45964 8.32812 10.1367 8.28906 10.6641 8.21094C11.1914 8.13281 11.5885 8.01562 11.8555 7.85938C12.1289 7.69661 12.2656 7.49805 12.2656 7.26367C12.2656 7.02279 12.1289 6.82422 11.8555 6.66797C11.5885 6.50521 11.1882 6.38477 10.6543 6.30664C10.1204 6.22852 9.44661 6.18945 8.63281 6.18945ZM9.70703 3.55273H7.53906V0.916016H9.70703V3.55273ZM16.6699 12.6641H0.595703V10.9453H16.6699V12.6641ZM9.70703 11.7363H7.53906V9.24609H9.70703V11.7363ZM14.6191 18.7188H12.4512V15.457H2.32422V13.7969H14.6191V18.7188ZM23.7406 5.32031C23.7406 6.79167 23.5388 8.18164 23.1352 9.49023C22.738 10.7923 22.1553 11.9382 21.3871 12.9277C20.6189 13.9173 19.6944 14.6693 18.6137 15.1836L17.2855 13.3672C18.2426 12.944 19.0727 12.3223 19.7758 11.502C20.4789 10.6751 21.016 9.72786 21.3871 8.66016C21.7647 7.58594 21.9535 6.47266 21.9535 5.32031V2.49805H23.7406V5.32031ZM24.141 5.32031C24.141 6.41406 24.3233 7.47201 24.6879 8.49414C25.0525 9.51628 25.5798 10.4277 26.2699 11.2285C26.9665 12.0293 27.7803 12.6315 28.7113 13.0352L27.4223 14.7734C26.3806 14.2852 25.4757 13.5658 24.7074 12.6152C23.9392 11.6582 23.3533 10.5547 22.9496 9.30469C22.546 8.05469 22.3441 6.72656 22.3441 5.32031V2.49805H24.141V5.32031ZM32.1586 18.7676H29.9613V1.08203H32.1586V18.7676ZM44.6105 6.08203C44.6105 7.38411 44.4055 8.6569 43.9953 9.90039C43.5917 11.1439 43.0122 12.2507 42.257 13.2207C41.5018 14.1842 40.6262 14.9036 39.6301 15.3789L38.3508 13.6699C39.2622 13.2337 40.0598 12.6087 40.7434 11.7949C41.427 10.9811 41.9543 10.0762 42.3254 9.08008C42.703 8.08398 42.8918 7.08464 42.8918 6.08203V3.75781H44.6105V6.08203ZM45.0598 6.08203C45.0598 7.01302 45.2323 7.94727 45.5773 8.88477C45.9289 9.82227 46.44 10.6784 47.1105 11.4531C47.7811 12.2214 48.5656 12.8138 49.4641 13.2305L48.2434 14.9395C47.2473 14.4707 46.3781 13.7773 45.6359 12.8594C44.8937 11.9349 44.3241 10.8835 43.927 9.70508C43.5298 8.52669 43.3312 7.31901 43.3312 6.08203V3.75781H45.0598V6.08203ZM48.7512 4.60742H39.0344V2.83008H48.7512V4.60742ZM52.55 18.7188H50.382V1.08203H52.55V18.7188ZM55.2746 9.7832H52.0617V7.95703H55.2746V9.7832ZM58.6051 12.6641C58.6116 11.8568 58.6865 11.2057 58.8297 10.7109C58.9794 10.2161 59.1878 9.81901 59.4547 9.51953C59.7216 9.21354 60.0862 8.92383 60.5484 8.65039C61.0172 8.35742 61.3785 8.03516 61.6324 7.68359C61.8863 7.33203 62.0133 6.9349 62.0133 6.49219C62.0133 6.13411 61.9319 5.82161 61.7691 5.55469C61.6064 5.28125 61.3753 5.07292 61.0758 4.92969C60.7828 4.77995 60.4605 4.70508 60.109 4.70508C59.7704 4.70508 59.4547 4.77669 59.1617 4.91992C58.8688 5.05664 58.6279 5.27148 58.4391 5.56445C58.2503 5.85742 58.1461 6.21224 58.1266 6.62891H55.6852C55.7112 5.78255 55.9228 5.06315 56.3199 4.4707C56.7171 3.87174 57.2444 3.42253 57.902 3.12305C58.5595 2.81706 59.2952 2.66406 60.109 2.66406C60.9944 2.66406 61.7724 2.82031 62.443 3.13281C63.1201 3.4388 63.6441 3.87826 64.0152 4.45117C64.3863 5.01758 64.5719 5.6849 64.5719 6.45312C64.5719 7.21484 64.3928 7.86914 64.0348 8.41602C63.6832 8.95638 63.1754 9.43164 62.5113 9.8418C62.1207 10.0697 61.8115 10.3073 61.5836 10.5547C61.3557 10.8021 61.1832 11.0918 61.066 11.4238C60.9488 11.7559 60.887 12.1693 60.8805 12.6641V12.8496H58.6051V12.6641ZM59.8063 17.1562C59.5328 17.1562 59.2789 17.0879 59.0445 16.9512C58.8102 16.8079 58.6246 16.6224 58.4879 16.3945C58.3577 16.1602 58.2926 15.9062 58.2926 15.6328C58.2926 15.3659 58.3577 15.1185 58.4879 14.8906C58.6246 14.6562 58.8102 14.474 59.0445 14.3438C59.2789 14.207 59.5328 14.1387 59.8063 14.1387C60.0667 14.1387 60.3141 14.207 60.5484 14.3438C60.7828 14.474 60.9684 14.6562 61.1051 14.8906C61.2418 15.1185 61.3102 15.3659 61.3102 15.6328C61.3102 15.9062 61.2418 16.1602 61.1051 16.3945C60.9684 16.6224 60.7828 16.8079 60.5484 16.9512C60.3141 17.0879 60.0667 17.1562 59.8063 17.1562Z" fill="white"/>
</svg>
