<svg width="603" height="73" viewBox="0 0 603 73" fill="none" xmlns="http://www.w3.org/2000/svg">
<path d="M62.9594 14.4141H3.93594V6.01562H62.9594V14.4141ZM33.5844 15.8594C41.3969 15.8594 47.3995 16.7708 51.5922 18.5938C55.8109 20.3906 57.9203 23.0078 57.9203 26.4453C57.9203 29.8828 55.824 32.5 51.6313 34.2969C47.4646 36.0677 41.449 36.9401 33.5844 36.9141C25.7198 36.9401 19.6781 36.0677 15.4594 34.2969C11.2667 32.5 9.17032 29.8828 9.17032 26.4453C9.17032 24.1797 10.1078 22.2526 11.9828 20.6641C13.8839 19.0755 16.6573 17.8776 20.3031 17.0703C23.975 16.263 28.4021 15.8594 33.5844 15.8594ZM33.5844 23.5547C30.5115 23.5547 28.0245 23.6458 26.1234 23.8281C24.2484 24.0104 22.8682 24.3229 21.9828 24.7656C21.1234 25.2083 20.6938 25.7682 20.6938 26.4453C20.6938 27.1484 21.1234 27.7083 21.9828 28.125C22.8422 28.5417 24.1964 28.8542 26.0453 29.0625C27.9203 29.2448 30.4333 29.3359 33.5844 29.3359C36.7615 29.3359 39.2484 29.2448 41.0453 29.0625C42.8682 28.8542 44.2094 28.5417 45.0688 28.125C45.9542 27.7083 46.3969 27.1484 46.3969 26.4453C46.3969 25.7682 45.9542 25.2083 45.0688 24.7656C44.2094 24.3229 42.8422 24.0104 40.9672 23.8281C39.1182 23.6458 36.6573 23.5547 33.5844 23.5547ZM39.1703 11.6797H27.8813V0.429688H39.1703V11.6797ZM66.2797 48.9844H0.928131V40.1953H66.2797V48.9844ZM39.1703 44.1797H27.8813V33.9844H39.1703V44.1797ZM58.3109 72.4609H47.0219V60.8594H8.03751V52.4219H58.3109V72.4609ZM94.9141 16.0156C94.9141 22.6302 94.1979 28.724 92.7656 34.2969C91.3333 39.8698 89.0677 44.7786 85.9688 49.0234C82.8958 53.2422 78.9245 56.4323 74.0547 58.5938L67.3359 49.2578C71.5547 47.487 75.0313 44.9219 77.7656 41.5625C80.5 38.1771 82.4922 34.3099 83.7422 29.9609C85.0182 25.5859 85.6563 20.9375 85.6563 16.0156V6.05469H94.9141V16.0156ZM97.1016 16.0156C97.1016 20.6771 97.7135 25.0781 98.9375 29.2188C100.161 33.3333 102.102 37.0182 104.758 40.2734C107.414 43.5286 110.773 46.0026 114.836 47.6953L108.234 56.7188C103.599 54.6615 99.7578 51.6016 96.7109 47.5391C93.6901 43.4766 91.4635 38.776 90.0313 33.4375C88.599 28.099 87.8828 22.2917 87.8828 16.0156V6.05469H97.1016V16.0156ZM128.703 72.6562H117.258V0.742188H128.703V72.6562ZM218.863 36.6406H206.284V27.5H218.863V36.6406ZM209.214 72.3438H197.925V0.742188H209.214V72.3438ZM165.62 52.1484H154.409V7.57812H165.62V52.1484ZM160.777 45.8203C166.219 45.8203 171.688 45.5729 177.183 45.0781C182.704 44.5833 188.224 43.8021 193.745 42.7344L194.917 52.0312C189.422 53.125 183.849 53.9062 178.198 54.375C172.547 54.8177 166.74 55.0391 160.777 55.0391H154.409V45.8203H160.777ZM278.434 41.2891H227.419V32.3828H278.434V41.2891ZM285.427 64.6484H219.919V55.4688H285.427V64.6484ZM258.083 58.2812H246.989V36.4453H258.083V58.2812ZM277.966 14.5312H238.669V36.3672H227.419V5.625H277.966V14.5312ZM341.992 45.2344H330.703V35.3516H341.992V45.2344ZM323.086 6.21094H349.688V1.875H360.859V25.9766H312.031V1.875H323.086V6.21094ZM349.688 17.7344V14.2578H323.086V17.7344H349.688ZM369.18 38.0859H303.828V29.0625H369.18V38.0859ZM361.367 60.5469H322.305V66.5234H311.25V52.8906H350.195V49.9219H311.25V41.7578H361.367V60.5469ZM363.125 72.0703H311.25V63.7109H363.125V72.0703ZM423.908 20.6641H406.33V11.6016H423.908V20.6641ZM424.22 35.9766H406.33V27.1094H424.22V35.9766ZM408.595 41.875H374.181V6.48438H408.595V41.875ZM385.353 33.1641H397.58V15.3516H385.353V33.1641ZM432.033 52.9688H420.861V0.898438H432.033V52.9688ZM433.517 71.3672H383.869V62.3438H433.517V71.3672ZM395.275 67.1484H383.869V47.9297H395.275V67.1484ZM504.261 42.4609H438.909V33.5156H504.261V42.4609ZM471.448 45.7422C476.631 45.7422 481.11 46.263 484.886 47.3047C488.662 48.3464 491.54 49.8828 493.519 51.9141C495.498 53.9193 496.488 56.3281 496.488 59.1406C496.488 61.9531 495.498 64.362 493.519 66.3672C491.54 68.3984 488.662 69.9349 484.886 70.9766C481.136 72.0182 476.657 72.5391 471.448 72.5391C466.24 72.5391 461.735 72.0182 457.933 70.9766C454.157 69.9349 451.253 68.3984 449.222 66.3672C447.217 64.362 446.214 61.9531 446.214 59.1406C446.214 56.3281 447.23 53.9193 449.261 51.9141C451.292 49.8828 454.196 48.3464 457.972 47.3047C461.774 46.263 466.266 45.7422 471.448 45.7422ZM471.448 54.4141C468.271 54.4141 465.667 54.5833 463.636 54.9219C461.631 55.2344 460.133 55.7422 459.144 56.4453C458.154 57.1484 457.659 58.0469 457.659 59.1406C457.659 60.2344 458.154 61.1328 459.144 61.8359C460.133 62.513 461.618 63.0208 463.597 63.3594C465.602 63.6719 468.219 63.8281 471.448 63.8281C474.599 63.8281 477.178 63.6719 479.183 63.3594C481.188 63.0208 482.685 62.513 483.675 61.8359C484.665 61.1328 485.159 60.2344 485.159 59.1406C485.159 58.0469 484.665 57.1484 483.675 56.4453C482.685 55.7422 481.188 55.2344 479.183 54.9219C477.178 54.5833 474.599 54.4141 471.448 54.4141ZM473.636 10.0391C473.636 13.6849 472.607 17.0182 470.55 20.0391C468.519 23.0339 465.368 25.5339 461.097 27.5391C456.826 29.5443 451.514 30.8203 445.159 31.3672L441.527 22.6172C446.657 22.1484 450.889 21.25 454.222 19.9219C457.555 18.5938 459.977 17.0703 461.488 15.3516C462.998 13.6328 463.753 11.862 463.753 10.0391V8.24219H473.636V10.0391ZM479.261 10.0391C479.261 11.862 480.003 13.6328 481.488 15.3516C482.998 17.0703 485.433 18.5938 488.792 19.9219C492.152 21.25 496.474 22.1484 501.761 22.6172L497.855 31.3672C491.553 30.8203 486.253 29.5443 481.956 27.5391C477.685 25.5339 474.482 23.0339 472.347 20.0391C470.238 17.0182 469.183 13.6849 469.183 10.0391V8.24219H479.261V10.0391ZM498.363 12.9688H444.808V3.98438H498.363V12.9688ZM516.216 65.7812C514.94 65.7812 513.755 65.4557 512.661 64.8047C511.567 64.1536 510.708 63.2943 510.083 62.2266C509.458 61.1328 509.145 59.9479 509.145 58.6719C509.145 57.4479 509.458 56.3021 510.083 55.2344C510.708 54.1406 511.567 53.2812 512.661 52.6562C513.755 52.0312 514.94 51.7188 516.216 51.7188C517.466 51.7188 518.624 52.0312 519.692 52.6562C520.76 53.2812 521.619 54.1406 522.27 55.2344C522.947 56.3021 523.286 57.4479 523.286 58.6719C523.286 59.9479 522.947 61.1328 522.27 62.2266C521.619 63.2943 520.76 64.1536 519.692 64.8047C518.624 65.4557 517.466 65.7812 516.216 65.7812ZM537.975 65.7812C536.699 65.7812 535.514 65.4557 534.42 64.8047C533.327 64.1536 532.467 63.2943 531.842 62.2266C531.217 61.1328 530.905 59.9479 530.905 58.6719C530.905 57.4479 531.217 56.3021 531.842 55.2344C532.467 54.1406 533.327 53.2812 534.42 52.6562C535.514 52.0312 536.699 51.7188 537.975 51.7188C539.225 51.7188 540.384 52.0312 541.452 52.6562C542.519 53.2812 543.379 54.1406 544.03 55.2344C544.707 56.3021 545.045 57.4479 545.045 58.6719C545.045 59.9479 544.707 61.1328 544.03 62.2266C543.379 63.2943 542.519 64.1536 541.452 64.8047C540.384 65.4557 539.225 65.7812 537.975 65.7812ZM559.734 65.7812C558.458 65.7812 557.273 65.4557 556.18 64.8047C555.086 64.1536 554.227 63.2943 553.602 62.2266C552.977 61.1328 552.664 59.9479 552.664 58.6719C552.664 57.4479 552.977 56.3021 553.602 55.2344C554.227 54.1406 555.086 53.2812 556.18 52.6562C557.273 52.0312 558.458 51.7188 559.734 51.7188C560.984 51.7188 562.143 52.0312 563.211 52.6562C564.279 53.2812 565.138 54.1406 565.789 55.2344C566.466 56.3021 566.805 57.4479 566.805 58.6719C566.805 59.9479 566.466 61.1328 565.789 62.2266C565.138 63.2943 564.279 64.1536 563.211 64.8047C562.143 65.4557 560.984 65.7812 559.734 65.7812ZM576.103 46.6797C576.129 43.6068 576.39 41.1328 576.884 39.2578C577.405 37.3568 578.147 35.8333 579.111 34.6875C580.075 33.5417 581.377 32.474 583.017 31.4844C585.048 30.2083 586.559 28.9714 587.548 27.7734C588.564 26.5755 589.072 25.2083 589.072 23.6719C589.072 22.5521 588.811 21.5625 588.291 20.7031C587.796 19.8438 587.08 19.1797 586.142 18.7109C585.231 18.2422 584.202 18.0078 583.056 18.0078C581.936 18.0078 580.882 18.2682 579.892 18.7891C578.929 19.2839 578.147 20.013 577.548 20.9766C576.95 21.9401 576.624 23.0729 576.572 24.375H564.189C564.267 20.6771 565.14 17.5781 566.806 15.0781C568.499 12.5781 570.752 10.7161 573.564 9.49219C576.377 8.26823 579.567 7.65625 583.134 7.65625C586.963 7.65625 590.335 8.25521 593.252 9.45312C596.194 10.651 598.486 12.4089 600.127 14.7266C601.767 17.0182 602.588 19.7917 602.588 23.0469C602.588 26.1719 601.832 28.8281 600.322 31.0156C598.838 33.1771 596.689 35.0911 593.877 36.7578C592.392 37.6432 591.207 38.5286 590.322 39.4141C589.463 40.2734 588.798 41.2891 588.33 42.4609C587.861 43.6068 587.614 45.013 587.588 46.6797V47.7734H576.103V46.6797ZM582.119 65.7812C580.843 65.7812 579.658 65.4557 578.564 64.8047C577.47 64.1536 576.611 63.2943 575.986 62.2266C575.361 61.1328 575.048 59.9479 575.048 58.6719C575.048 57.4479 575.361 56.3021 575.986 55.2344C576.611 54.1406 577.47 53.2812 578.564 52.6562C579.658 52.0312 580.843 51.7188 582.119 51.7188C583.369 51.7188 584.528 52.0312 585.595 52.6562C586.663 53.2812 587.522 54.1406 588.173 55.2344C588.851 56.3021 589.189 57.4479 589.189 58.6719C589.189 59.9479 588.851 61.1328 588.173 62.2266C587.522 63.2943 586.663 64.1536 585.595 64.8047C584.528 65.4557 583.369 65.7812 582.119 65.7812Z" fill="#3D5684"/>
</svg>
